<?xml version="1.0"?>
<!DOCTYPE svg PUBLIC "-//W3C//DTD SVG 1.1//EN" "http://www.w3.org/Graphics/SVG/1.1/DTD/svg11.dtd">
<svg width="1024px" height="1024px" viewBox="0 0 1024 1024" xmlns="http://www.w3.org/2000/svg" version="1.1">
<desc>UV-Map from Object: Cube. Exported from Blender3D with UV Exportscript</desc>
<rect x="0" y="0" width="1024" height="1024" fill="none" stroke="blue" stroke-width="1px" />
<g style="fill:none; stroke:black; stroke-width:1px;">
<polygon points="553.515,596.342 553.545,601.714 581.963,597.781 581.933,592.409 " />
<polygon points="586.303,994.785 586.324,998.653 590.051,998.137 590.030,994.269 " />
<polygon points="563.568,997.931 563.590,1001.799 586.324,998.653 586.303,994.785 " />
<polygon points="560.214,998.395 560.236,1002.263 563.590,1001.799 563.568,997.931 " />
<polygon points="135.505,546.045 131.883,546.822 134.352,568.854 137.974,568.077 " />
<polygon points="795.864,928.427 795.375,933.710 800.568,934.604 801.058,929.320 " />
<polygon points="887.430,213.886 883.752,213.391 886.035,234.128 889.713,234.623 " />
<polygon points="1018.934,588.486 1019.327,584.253 981.769,584.313 981.376,588.546 " />
<polygon points="748.602,920.300 748.112,925.583 795.375,933.710 795.864,928.427 " />
<polygon points="743.927,919.496 743.438,924.780 748.112,925.583 748.602,920.300 " />
<polygon points="893.221,631.689 888.623,631.071 888.660,636.440 893.257,637.058 " />
<polygon points="129.501,152.086 124.974,153.058 124.977,158.281 129.504,157.309 " />
<polygon points="889.713,234.623 886.035,234.128 886.061,237.994 889.739,238.489 " />
<polygon points="135.503,542.284 131.881,543.061 131.883,546.822 135.505,546.045 " />
<polygon points="606.948,1001.262 592.118,998.850 588.512,1020.854 603.341,1023.266 " />
<polygon points="592.118,998.850 590.051,998.137 586.324,998.653 588.512,1020.854 " />
<polygon points="795.375,933.710 785.616,953.626 790.810,954.519 800.568,934.604 " />
<polygon points="785.616,953.626 785.176,958.381 790.370,959.274 790.810,954.519 " />
<polygon points="883.752,213.391 865.394,212.629 867.677,233.367 886.035,234.128 " />
<polygon points="865.394,212.629 862.230,233.659 864.367,232.921 867.677,233.367 " />
<polygon points="1019.327,584.253 1014.715,567.233 989.539,567.272 981.769,584.313 " />
<polygon points="588.512,1020.854 586.324,998.653 563.590,1001.799 565.778,1024.000 " />
<polygon points="748.112,925.583 753.935,948.178 785.616,953.626 795.375,933.710 " />
<polygon points="753.935,948.178 753.495,952.933 785.176,958.381 785.616,953.626 " />
<polygon points="743.438,924.780 749.261,947.374 753.935,948.178 748.112,925.583 " />
<polygon points="749.261,947.374 748.820,952.129 753.495,952.933 753.935,948.178 " />
<polygon points="888.623,631.071 865.676,630.119 865.713,635.488 888.660,636.440 " />
<polygon points="861.575,634.931 865.713,635.488 865.676,630.119 861.539,629.562 " />
<polygon points="607.712,595.670 589.175,592.655 589.205,598.028 607.742,601.043 " />
<polygon points="71.080,175.573 66.983,176.334 66.842,181.555 70.939,180.794 " />
<polygon points="886.035,234.128 867.677,233.367 867.704,237.232 886.061,237.994 " />
<polygon points="867.677,233.367 864.367,232.921 864.393,236.787 867.704,237.232 " />
<polygon points="606.926,997.394 592.097,994.982 592.118,998.850 606.948,1001.262 " />
<polygon points="70.026,564.486 66.748,565.095 66.646,568.854 69.924,568.245 " />
<polygon points="135.503,542.284 135.505,546.045 159.927,543.308 159.925,539.547 " />
<polygon points="578.452,155.181 578.497,159.138 599.663,158.237 599.619,154.281 " />
<polygon points="129.501,152.086 129.504,157.309 160.032,153.888 160.029,148.665 " />
<polygon points="576.537,563.064 576.599,568.559 603.057,567.433 602.995,561.938 " />
<polygon points="748.602,920.300 795.864,928.427 790.874,896.843 759.193,891.395 " />
<polygon points="743.927,919.496 748.602,920.300 759.193,891.395 754.518,890.591 " />
<polygon points="581.220,133.281 578.452,155.181 599.619,154.281 602.387,132.380 " />
<polygon points="1018.934,588.486 981.376,588.546 985.319,612.769 1010.496,612.730 " />
<polygon points="795.864,928.427 801.058,929.320 796.068,897.736 790.874,896.843 " />
<polygon points="135.505,546.045 137.974,568.077 162.396,565.340 159.927,543.308 " />
<polygon points="159.927,543.308 162.396,565.340 166.018,564.563 163.549,542.530 " />
<polygon points="790.874,896.843 796.068,897.736 796.557,892.452 791.363,891.559 " />
<polygon points="1010.496,612.730 985.319,612.769 984.927,617.003 1010.103,616.963 " />
<polygon points="72.119,213.510 73.958,234.292 77.625,234.866 75.785,214.084 " />
<polygon points="754.518,890.591 759.193,891.395 759.682,886.111 755.007,885.308 " />
<polygon points="759.193,891.395 790.874,896.843 791.363,891.559 759.682,886.111 " />
<polygon points="160.029,148.665 160.032,153.888 164.559,152.916 164.557,147.694 " />
<polygon points="73.958,234.292 73.902,238.157 77.569,238.731 77.625,234.866 " />
<polygon points="159.925,539.547 159.927,543.308 163.549,542.530 163.547,538.770 " />
<polygon points="163.547,538.770 163.549,542.530 181.590,542.832 181.588,539.071 " />
<polygon points="824.313,223.825 824.309,227.782 841.944,227.626 841.948,223.669 " />
<polygon points="164.557,147.694 164.559,152.916 187.110,153.293 187.108,148.070 " />
<polygon points="823.418,631.458 823.412,636.953 845.455,636.758 845.461,631.263 " />
<polygon points="759.682,886.111 791.363,891.559 779.985,871.977 774.272,870.995 " />
<polygon points="755.007,885.308 759.682,886.111 774.272,870.995 769.598,870.191 " />
<polygon points="827.348,201.960 824.313,223.825 841.948,223.669 844.982,201.804 " />
<polygon points="1010.103,616.963 984.927,617.003 993.956,630.887 998.496,630.880 " />
<polygon points="791.363,891.559 796.557,892.452 785.179,872.870 779.985,871.977 " />
<polygon points="163.549,542.530 166.018,564.563 184.059,564.864 181.590,542.832 " />
<polygon points="181.590,542.832 184.059,564.864 187.671,543.196 185.212,542.055 " />
<polygon points="779.985,871.977 785.179,872.870 785.668,867.587 780.475,866.694 " />
<polygon points="848.663,201.946 844.982,201.804 847.782,223.639 851.463,223.781 " />
<polygon points="844.982,201.804 841.948,223.669 844.770,223.524 847.782,223.639 " />
<polygon points="769.598,870.191 774.272,870.995 774.761,865.711 770.087,864.908 " />
<polygon points="774.272,870.995 779.985,871.977 780.475,866.694 774.761,865.711 " />
<polygon points="513.778,79.471 513.635,84.838 518.209,85.613 518.352,80.246 " />
<polygon points="187.108,148.070 187.110,153.293 191.638,152.322 191.635,147.099 " />
<polygon points="603.113,286.017 603.057,289.882 606.723,290.457 606.779,286.591 " />
<polygon points="181.588,539.071 181.590,542.832 185.212,542.055 185.210,538.294 " />
<polygon points="861.533,637.058 861.539,631.563 857.355,631.402 857.350,636.897 " />
<polygon points="852.748,636.721 852.754,631.225 848.989,631.081 848.983,636.576 " />
<polygon points="857.350,636.897 857.355,631.402 852.754,631.225 852.748,636.721 " />
<polygon points="854.806,227.866 854.810,223.910 851.463,223.781 851.459,227.737 " />
<polygon points="847.778,227.596 847.782,223.639 844.770,223.524 844.766,227.480 " />
<polygon points="851.459,227.737 851.463,223.781 847.782,223.639 847.778,227.596 " />
<polygon points="707.320,610.728 707.337,614.642 712.153,614.623 712.136,610.709 " />
<polygon points="712.136,610.709 712.153,614.623 716.093,614.607 716.076,610.693 " />
<polygon points="702.943,610.746 702.960,614.659 707.337,614.642 707.320,610.728 " />
<polygon points="705.021,204.332 705.045,209.767 711.064,209.744 711.041,204.308 " />
<polygon points="711.041,204.308 711.064,209.744 715.989,209.724 715.966,204.288 " />
<polygon points="699.549,204.354 699.573,209.789 705.045,209.767 705.021,204.332 " />
<polygon points="349.871,996.013 349.959,999.956 354.333,999.873 354.245,995.930 " />
<polygon points="187.314,591.079 187.224,594.880 191.547,594.785 191.638,590.984 " />
<polygon points="348.733,588.013 348.855,593.489 354.322,593.385 354.200,587.909 " />
<polygon points="186.171,983.232 186.046,988.511 191.451,988.392 191.576,983.113 " />
<polygon points="539.486,347.043 533.946,346.329 532.822,351.594 538.362,352.308 " />
<polygon points="544.019,347.627 539.486,347.043 538.362,352.308 542.895,352.892 " />
<polygon points="712.239,637.039 716.085,615.282 716.093,614.607 712.153,614.623 " />
<polygon points="707.424,637.058 712.239,637.039 712.153,614.623 707.337,614.642 " />
<polygon points="533.946,346.329 528.909,345.680 527.786,350.945 532.822,351.594 " />
<polygon points="702.952,615.334 707.424,637.058 707.337,614.642 702.960,614.659 " />
<polygon points="335.205,1001.250 335.849,1022.745 350.603,1021.451 349.959,999.956 " />
<polygon points="525.046,327.417 520.009,326.768 528.909,345.680 533.946,346.329 " />
<polygon points="984.925,507.618 1010.101,507.658 998.493,493.740 993.953,493.733 " />
<polygon points="174.703,572.247 174.811,594.472 187.314,591.079 187.206,568.854 " />
<polygon points="560.301,331.961 555.768,331.377 539.486,347.043 544.019,347.627 " />
<polygon points="555.768,331.377 525.046,327.417 533.946,346.329 539.486,347.043 " />
<polygon points="170.542,987.473 170.417,992.752 186.046,988.511 186.171,983.232 " />
<polygon points="330.291,589.630 330.413,595.106 348.855,593.489 348.733,588.013 " />
<polygon points="174.811,594.472 174.721,598.273 187.224,594.880 187.314,591.079 " />
<polygon points="335.117,997.308 335.205,1001.250 349.959,999.956 349.871,996.013 " />
<polygon points="330.743,997.391 330.831,1001.333 335.205,1001.250 335.117,997.308 " />
<polygon points="170.487,594.568 170.397,598.368 174.721,598.273 174.811,594.472 " />
<polygon points="165.138,987.592 165.012,992.871 170.417,992.752 170.542,987.473 " />
<polygon points="556.892,326.112 526.169,322.152 525.046,327.417 555.768,331.377 " />
<polygon points="561.425,326.696 556.892,326.112 555.768,331.377 560.301,331.961 " />
<polygon points="170.379,572.342 170.487,594.568 174.811,594.472 174.703,572.247 " />
<polygon points="985.318,511.852 1010.493,511.891 1010.101,507.658 984.925,507.618 " />
<polygon points="526.169,322.152 521.133,321.503 520.009,326.768 525.046,327.417 " />
<polygon points="330.831,1001.333 331.476,1022.828 335.849,1022.745 335.205,1001.250 " />
<polygon points="305.558,1002.422 306.202,1023.917 331.476,1022.828 330.831,1001.333 " />
<polygon points="525.049,291.039 520.012,290.390 521.133,321.503 526.169,322.152 " />
<polygon points="981.376,536.076 1018.932,536.134 1010.493,511.891 985.318,511.852 " />
<polygon points="146.644,574.735 146.752,596.961 170.487,594.568 170.379,572.342 " />
<polygon points="575.413,297.530 570.880,296.946 556.892,326.112 561.425,326.696 " />
<polygon points="570.880,296.946 525.049,291.039 526.169,322.152 556.892,326.112 " />
<polygon points="135.469,990.583 135.344,995.862 165.012,992.871 165.138,987.592 " />
<polygon points="293.232,591.095 293.354,596.571 324.945,595.210 324.823,589.734 " />
<polygon points="146.752,596.961 146.662,600.762 170.397,598.368 170.487,594.568 " />
<polygon points="305.470,998.479 305.558,1002.422 330.831,1001.333 330.743,997.391 " />
<polygon points="283.735,998.285 279.798,998.360 279.886,1002.302 283.822,1002.227 " />
<polygon points="301.096,998.563 283.735,998.285 283.822,1002.227 301.184,1002.505 " />
<polygon points="124.017,595.590 120.126,595.676 120.035,599.477 123.927,599.391 " />
<polygon points="142.429,597.056 124.017,595.590 123.927,599.391 142.338,600.857 " />
<polygon points="266.063,590.852 261.142,590.945 261.264,596.421 266.185,596.328 " />
<polygon points="287.765,591.199 266.063,590.852 266.185,596.328 287.887,596.675 " />
<polygon points="107.050,988.870 102.186,988.977 102.060,994.257 106.925,994.150 " />
<polygon points="130.065,990.702 107.050,988.870 106.925,994.150 129.939,995.981 " />
<polygon points="573.504,270.111 574.515,265.372 569.983,264.788 568.971,269.526 " />
<polygon points="576.537,292.265 573.504,270.111 568.971,269.526 572.004,291.681 " />
<polygon points="568.971,269.526 569.983,264.788 539.260,260.828 538.249,265.567 " />
<polygon points="572.004,291.681 568.971,269.526 538.249,265.567 526.173,285.774 " />
<polygon points="361.670,158.074 361.719,179.838 388.422,179.832 388.374,158.068 " />
<polygon points="981.769,540.309 989.539,557.349 1014.715,557.389 1019.325,540.368 " />
<polygon points="123.909,573.365 119.515,594.567 120.126,595.676 124.017,595.590 " />
<polygon points="142.320,574.830 123.909,573.365 124.017,595.590 142.429,597.056 " />
<polygon points="538.249,265.567 539.260,260.828 534.224,260.179 533.212,264.918 " />
<polygon points="526.173,285.774 538.249,265.567 533.212,264.918 521.136,285.125 " />
<polygon points="357.307,180.047 357.341,179.839 361.719,179.838 361.670,158.074 " />
<polygon points="301.184,1002.505 283.822,1002.227 284.467,1023.722 301.829,1024.000 " />
<polygon points="305.470,998.479 301.096,998.563 301.184,1002.505 305.558,1002.422 " />
<polygon points="146.752,596.961 142.429,597.056 142.338,600.857 146.662,600.762 " />
<polygon points="293.232,591.095 287.765,591.199 287.887,596.675 293.354,596.571 " />
<polygon points="135.469,990.583 130.065,990.702 129.939,995.981 135.344,995.862 " />
<polygon points="575.413,297.530 576.537,292.265 572.004,291.681 570.880,296.946 " />
<polygon points="570.880,296.946 572.004,291.681 526.173,285.774 525.049,291.039 " />
<polygon points="981.376,536.076 981.769,540.309 1019.325,540.368 1018.932,536.134 " />
<polygon points="146.644,574.735 142.320,574.830 142.429,597.056 146.752,596.961 " />
<polygon points="525.049,291.039 526.173,285.774 521.136,285.125 520.012,290.390 " />
<polygon points="305.558,1002.422 301.184,1002.505 301.829,1024.000 306.202,1023.917 " />
<polygon points="392.365,183.786 392.362,179.831 388.422,179.832 388.425,183.787 " />
<polygon points="388.425,183.787 388.422,179.832 361.719,179.838 361.721,183.793 " />
<polygon points="361.721,183.793 361.719,179.838 357.341,179.839 357.344,183.794 " />
<polygon points="392.153,592.571 392.149,587.078 358.770,587.085 358.774,592.578 " />
<polygon points="583.576,715.830 586.303,994.785 590.030,994.269 587.816,715.243 " />
<polygon points="557.716,719.408 563.568,997.931 586.303,994.785 583.576,715.830 " />
<polygon points="553.900,719.936 560.214,998.395 563.568,997.931 557.716,719.408 " />
<polygon points="886.061,237.994 887.883,514.750 892.067,515.313 889.739,238.489 " />
<polygon points="128.056,272.515 131.881,543.061 135.503,542.284 132.176,271.631 " />
<polygon points="867.704,237.232 867.002,513.884 887.883,514.750 886.061,237.994 " />
<polygon points="864.393,236.787 863.236,513.377 867.002,513.884 867.704,237.232 " />
<polygon points="590.167,716.054 592.097,994.982 606.926,997.394 607.035,718.797 " />
<polygon points="68.390,295.253 66.748,565.095 70.026,564.486 72.119,294.560 " />
<polygon points="132.176,271.631 135.503,542.284 159.925,539.547 159.956,268.518 " />
<polygon points="578.497,159.138 578.112,443.284 602.189,442.259 599.663,158.237 " />
<polygon points="73.902,238.157 72.708,515.578 76.879,516.232 77.569,238.731 " />
<polygon points="159.956,268.518 159.925,539.547 163.547,538.770 164.076,267.634 " />
<polygon points="164.076,267.634 163.547,538.770 181.588,539.071 184.598,267.977 " />
<polygon points="824.309,227.782 823.755,511.794 843.814,511.617 841.944,227.626 " />
<polygon points="603.057,289.882 603.201,567.906 607.371,568.559 606.723,290.457 " />
<polygon points="184.598,267.977 181.588,539.071 185.210,538.294 188.718,267.093 " />
<polygon points="858.445,511.890 854.806,227.866 851.459,227.737 854.638,511.744 " />
<polygon points="850.451,511.583 847.778,227.596 844.766,227.480 847.025,511.451 " />
<polygon points="854.638,511.744 851.459,227.737 847.778,227.596 850.451,511.583 " />
<polygon points="582.850,662.708 583.576,715.830 587.816,715.243 587.278,662.095 " />
<polygon points="555.839,666.446 557.716,719.408 583.576,715.830 582.850,662.708 " />
<polygon points="551.854,666.997 553.900,719.936 557.716,719.408 555.839,666.446 " />
<polygon points="887.883,514.750 888.216,567.094 892.586,567.683 892.067,515.313 " />
<polygon points="126.670,221.110 128.056,272.515 132.176,271.631 130.973,220.186 " />
<polygon points="867.002,513.884 866.405,566.190 888.216,567.094 887.883,514.750 " />
<polygon points="863.236,513.377 862.472,565.660 866.405,566.190 867.002,513.884 " />
<polygon points="589.734,662.942 590.167,716.054 607.035,718.797 607.354,665.808 " />
<polygon points="67.694,244.089 68.390,295.253 72.119,294.560 71.588,243.366 " />
<polygon points="130.973,220.186 132.176,271.631 159.956,268.518 159.990,216.934 " />
<polygon points="578.112,443.284 577.403,497.185 602.552,496.115 602.189,442.259 " />
<polygon points="72.708,515.578 72.990,568.172 77.346,568.854 76.879,516.232 " />
<polygon points="159.990,216.934 159.956,268.518 164.076,267.634 164.293,216.011 " />
<polygon points="164.293,216.011 164.076,267.634 184.598,267.977 185.728,216.369 " />
<polygon points="823.755,511.794 823.604,565.643 844.555,565.457 843.814,511.617 " />
<polygon points="185.728,216.369 184.598,267.977 188.718,267.093 190.032,215.446 " />
<polygon points="859.837,565.743 858.445,511.890 854.638,511.744 855.861,565.590 " />
<polygon points="851.487,565.422 850.451,511.583 847.025,511.451 847.908,565.285 " />
<polygon points="705.804,328.819 707.320,610.728 712.136,610.709 711.282,328.797 " />
<polygon points="711.185,275.920 711.282,328.797 715.764,328.779 715.864,275.902 " />
<polygon points="711.282,328.797 712.136,610.709 716.076,610.693 715.764,328.779 " />
<polygon points="700.268,275.964 700.824,328.839 705.804,328.819 705.467,275.943 " />
<polygon points="700.824,328.839 702.943,610.746 707.320,610.728 705.804,328.819 " />
<polygon points="347.936,712.788 349.871,996.013 354.245,995.930 352.911,712.693 " />
<polygon points="187.224,594.880 185.230,868.090 190.148,867.981 191.547,594.785 " />
<polygon points="185.230,868.090 185.648,919.229 190.782,919.116 190.148,867.981 " />
<polygon points="174.721,598.273 171.006,871.949 185.230,868.090 187.224,594.880 " />
<polygon points="171.006,871.949 170.800,923.258 185.648,919.229 185.230,868.090 " />
<polygon points="330.824,661.339 331.153,714.260 347.936,712.788 348.344,659.802 " />
<polygon points="331.153,714.260 335.117,997.308 349.871,996.013 347.936,712.788 " />
<polygon points="325.630,661.437 326.177,714.355 331.153,714.260 330.824,661.339 " />
<polygon points="326.177,714.355 330.743,997.391 335.117,997.308 331.153,714.260 " />
<polygon points="170.397,598.368 166.088,872.058 171.006,871.949 174.721,598.273 " />
<polygon points="166.088,872.058 165.666,923.371 170.800,923.258 171.006,871.949 " />
<polygon points="146.662,600.762 139.088,874.780 166.088,872.058 170.397,598.368 " />
<polygon points="139.088,874.780 137.481,926.213 165.666,923.371 166.088,872.058 " />
<polygon points="295.618,662.730 297.427,715.593 326.177,714.355 325.630,661.437 " />
<polygon points="297.427,715.593 305.470,998.479 330.743,997.391 326.177,714.355 " />
<polygon points="265.133,662.588 268.224,715.457 272.702,715.372 269.807,662.499 " />
<polygon points="268.224,715.457 279.798,998.360 283.735,998.285 272.702,715.372 " />
<polygon points="269.807,662.499 272.702,715.372 292.452,715.688 290.424,662.829 " />
<polygon points="272.702,715.372 283.735,998.285 301.096,998.563 292.452,715.688 " />
<polygon points="120.035,599.477 108.799,873.318 113.225,873.221 123.927,599.391 " />
<polygon points="108.799,873.318 105.862,924.688 110.483,924.586 113.225,873.221 " />
<polygon points="123.927,599.391 113.225,873.221 134.170,874.888 142.338,600.857 " />
<polygon points="113.225,873.221 110.483,924.586 132.346,926.326 134.170,874.888 " />
<polygon points="290.424,662.829 292.452,715.688 297.427,715.593 295.618,662.730 " />
<polygon points="292.452,715.688 301.096,998.563 305.470,998.479 297.427,715.593 " />
<polygon points="142.338,600.857 134.170,874.888 139.088,874.780 146.662,600.762 " />
<polygon points="134.170,874.888 132.346,926.326 137.481,926.213 139.088,874.780 " />
<polygon points="395.920,520.679 394.998,467.626 390.516,467.627 391.241,520.680 " />
<polygon points="394.998,467.626 392.365,183.786 388.425,183.787 390.516,467.627 " />
<polygon points="391.241,520.680 390.516,467.627 360.139,467.634 359.531,520.688 " />
<polygon points="390.516,467.627 388.425,183.787 361.721,183.793 360.139,467.634 " />
<polygon points="359.531,520.688 360.139,467.634 355.159,467.635 354.333,520.689 " />
<polygon points="360.139,467.634 361.721,183.793 357.344,183.794 355.159,467.635 " />
<polygon points="604.048,199.586 606.234,204.288 652.502,177.690 650.316,172.987 " />
<polygon points="599.887,77.017 652.628,76.842 652.628,21.869 599.886,22.044 " />
<polygon points="1002.421,785.282 951.648,783.068 951.647,837.489 1002.420,839.703 " />
<polygon points="930.009,882.668 927.644,887.443 974.081,914.948 976.446,910.173 " />
<polygon points="927.003,984.540 929.339,989.555 975.936,963.676 973.600,958.662 " />
<polygon points="124.856,53.952 72.643,60.469 72.284,106.843 124.497,100.326 " />
<polygon points="436.022,156.173 486.996,162.355 483.315,116.338 432.341,110.157 " />
<polygon points="606.524,77.017 604.309,81.706 650.413,108.588 652.628,103.899 " />
<polygon points="410.291,158.068 414.424,155.591 414.190,45.823 410.042,43.371 " />
<polygon points="700.824,328.839 700.268,275.964 625.113,253.655 607.742,302.107 " />
<polygon points="1009.164,227.597 1004.798,224.969 1004.949,318.761 1009.301,316.252 " />
<polygon points="139.975,134.653 191.472,147.099 191.638,46.227 139.405,52.017 " />
<polygon points="940.508,427.911 987.607,426.844 988.359,325.880 940.472,345.363 " />
<polygon points="999.611,728.421 1004.113,730.980 1003.860,637.058 999.371,639.646 " />
<polygon points="823.412,301.607 806.453,255.007 731.862,278.868 731.336,331.951 " />
<polygon points="71.864,61.085 67.583,63.597 67.822,173.164 72.119,175.573 " />
<polygon points="358.689,145.009 409.877,158.068 403.570,98.211 354.333,103.327 " />
<polygon points="524.971,95.448 526.218,101.047 518.665,141.969 521.157,139.029 " />
<polygon points="575.236,83.208 524.971,95.448 521.157,139.029 568.089,144.563 " />
<polygon points="576.430,88.568 575.236,83.208 568.089,144.563 565.702,147.380 " />
<polygon points="66.706,61.085 72.054,60.946 72.119,6.350 66.771,6.489 " />
<polygon points="576.537,26.771 524.743,28.761 524.699,83.208 576.493,81.218 " />
<polygon points="66.642,8.364 19.404,5.960 19.409,60.723 66.646,63.127 " />
<polygon points="77.670,158.632 72.137,158.531 72.119,213.409 77.652,213.510 " />
<polygon points="1008.888,780.612 1014.418,780.511 1014.401,725.633 1008.871,725.734 " />
<polygon points="410.042,52.155 360.805,57.272 354.333,103.327 403.570,98.211 " />
<polygon points="529.605,185.955 576.537,191.489 568.089,144.563 521.157,139.029 " />
<polygon points="1018.745,225.085 1013.553,224.969 1013.488,279.864 1018.680,279.981 " />
<polygon points="403.129,715.883 397.554,996.177 400.926,995.734 406.965,715.379 " />
<polygon points="405.000,663.529 403.129,715.883 406.965,715.379 409.004,663.003 " />
<polygon points="379.729,718.957 376.984,998.879 397.554,996.177 403.129,715.883 " />
<polygon points="380.573,666.738 379.729,718.957 403.129,715.883 405.000,663.529 " />
<polygon points="376.277,719.411 373.949,999.278 376.984,998.879 379.729,718.957 " />
<polygon points="376.968,667.212 376.277,719.411 379.729,718.957 380.573,666.738 " />
<polygon points="63.677,279.443 64.996,229.931 60.697,228.826 59.559,278.384 " />
<polygon points="60.096,543.569 63.677,279.443 59.559,278.384 56.476,542.638 " />
<polygon points="842.056,909.689 843.623,660.081 839.948,661.181 837.876,910.939 " />
<polygon points="841.773,956.055 842.056,909.689 837.876,910.939 837.408,957.361 " />
<polygon points="373.419,718.842 373.985,666.617 354.642,664.750 354.889,717.053 " />
<polygon points="371.436,998.777 373.419,718.842 354.889,717.053 355.147,997.205 " />
<polygon points="81.661,301.921 82.334,252.703 78.439,251.816 77.931,301.072 " />
<polygon points="83.368,565.186 81.661,301.921 77.931,301.072 80.089,564.439 " />
<polygon points="862.934,907.626 861.976,658.268 843.623,660.081 842.056,909.689 " />
<polygon points="863.566,953.902 862.934,907.626 842.056,909.689 841.773,956.055 " />
<polygon points="866.696,906.500 865.284,657.279 861.976,658.268 862.934,907.626 " />
<polygon points="867.494,952.727 866.696,906.500 862.934,907.626 863.566,953.902 " />
<polygon points="262.620,441.126 262.352,157.254 241.303,156.022 238.676,439.725 " />
<polygon points="263.302,494.231 262.620,441.126 238.676,439.725 238.306,492.768 " />
<polygon points="59.559,278.384 60.697,228.826 31.705,224.941 31.786,274.663 " />
<polygon points="56.476,542.638 59.559,278.384 31.786,274.663 32.061,539.366 " />
<polygon points="31.786,274.663 31.705,224.941 27.407,223.836 27.669,273.604 " />
<polygon points="32.061,539.366 31.786,274.663 27.669,273.604 28.442,538.436 " />
<polygon points="235.135,517.884 233.481,266.866 229.834,268.055 230.986,519.237 " />
<polygon points="234.940,564.769 235.135,517.884 230.986,519.237 230.609,566.181 " />
<polygon points="229.457,441.190 229.005,157.506 211.401,157.250 209.431,440.899 " />
<polygon points="229.595,494.223 229.457,441.190 209.431,440.899 208.691,493.919 " />
<polygon points="27.669,273.604 27.407,223.836 5.982,224.277 7.145,274.026 " />
<polygon points="28.442,538.436 27.669,273.604 7.145,274.026 10.400,538.807 " />
<polygon points="7.145,274.026 5.982,224.277 1.684,223.171 3.027,272.967 " />
<polygon points="10.400,538.807 7.145,274.026 3.027,272.967 6.780,537.876 " />
<polygon points="268.304,362.196 267.967,109.899 264.320,111.089 264.155,363.549 " />
<polygon points="206.250,440.651 208.604,157.032 205.236,157.216 202.419,440.860 " />
<polygon points="205.369,493.660 206.250,440.651 202.419,440.860 201.370,493.879 " />
<polygon points="198.204,441.091 201.532,157.418 198.501,157.584 194.756,441.279 " />
<polygon points="196.971,494.119 198.204,441.091 194.756,441.279 193.371,494.316 " />
<polygon points="202.419,440.860 205.236,157.216 201.532,157.418 198.204,441.091 " />
<polygon points="727.182,278.870 726.855,331.952 731.336,331.951 731.862,278.868 " />
<polygon points="716.262,278.874 716.400,331.956 721.379,331.954 721.462,278.872 " />
<polygon points="405.048,515.465 406.700,463.331 401.781,463.129 399.911,515.253 " />
<polygon points="635.835,751.899 634.479,704.701 615.854,699.857 618.004,747.261 " />
<polygon points="419.884,519.506 420.904,467.200 406.700,463.331 405.048,515.465 " />
<polygon points="425.021,519.717 425.822,467.403 420.904,467.200 419.884,519.506 " />
<polygon points="640.772,751.547 639.636,704.333 634.479,704.701 635.835,751.899 " />
<polygon points="670.006,753.007 670.171,705.858 639.636,704.333 640.772,751.547 " />
<polygon points="453.210,522.936 452.809,470.484 425.822,467.403 425.021,519.717 " />
<polygon points="484.858,522.180 483.109,469.761 478.683,469.579 480.235,521.990 " />
<polygon points="480.235,521.990 478.683,469.579 457.728,470.686 458.347,523.147 " />
<polygon points="698.278,747.443 699.701,700.047 695.060,700.378 693.834,747.760 " />
<polygon points="693.834,747.760 695.060,700.378 675.328,705.490 674.944,752.655 " />
<polygon points="458.347,523.147 457.728,470.686 452.809,470.484 453.210,522.936 " />
<polygon points="674.944,752.655 675.328,705.490 670.171,705.858 670.006,753.007 " />
<polygon points="124.974,501.525 123.636,450.662 119.166,450.591 120.305,501.450 " />
<polygon points="120.305,501.450 119.166,450.591 88.868,450.104 88.658,500.942 " />
<polygon points="88.658,500.942 88.868,450.104 83.901,450.024 83.470,500.858 " />
<polygon points="721.379,331.954 720.544,610.758 725.358,610.757 726.855,331.952 " />
<polygon points="726.855,331.952 725.358,610.757 729.297,610.755 731.336,331.951 " />
<polygon points="716.400,331.956 716.167,610.760 720.544,610.758 721.379,331.954 " />
<polygon points="406.700,463.331 411.173,188.556 406.849,188.378 401.781,463.129 " />
<polygon points="625.328,997.845 618.004,747.261 613.067,747.614 620.988,998.154 " />
<polygon points="641.004,1001.922 635.835,751.899 618.004,747.261 625.328,997.845 " />
<polygon points="420.904,467.200 423.660,191.957 411.173,188.556 406.700,463.331 " />
<polygon points="425.822,467.403 427.983,192.135 423.660,191.957 420.904,467.200 " />
<polygon points="645.344,1001.612 640.772,751.547 635.835,751.899 641.004,1001.922 " />
<polygon points="671.045,1002.895 670.006,753.007 640.772,751.547 645.344,1001.612 " />
<polygon points="452.809,470.484 451.709,194.844 427.983,192.135 425.822,467.403 " />
<polygon points="483.109,469.761 478.346,194.209 474.455,194.048 478.683,469.579 " />
<polygon points="478.683,469.579 474.455,194.048 456.032,195.022 457.728,470.686 " />
<polygon points="695.899,998.004 698.278,747.443 693.834,747.760 691.992,998.283 " />
<polygon points="691.992,998.283 693.834,747.760 674.944,752.655 675.385,1002.586 " />
<polygon points="457.728,470.686 456.032,195.022 451.709,194.844 452.809,470.484 " />
<polygon points="675.385,1002.586 674.944,752.655 670.006,753.007 671.045,1002.895 " />
<polygon points="123.636,450.662 119.179,181.091 115.249,181.028 119.166,450.591 " />
<polygon points="119.166,450.591 115.249,181.028 88.613,180.600 88.868,450.104 " />
<polygon points="88.868,450.104 88.613,180.600 84.247,180.530 83.901,450.024 " />
<polygon points="381.645,595.956 381.628,601.384 407.341,598.006 407.358,592.578 " />
<polygon points="397.554,996.177 397.542,1000.085 400.914,999.642 400.926,995.734 " />
<polygon points="376.984,998.879 376.972,1002.787 397.542,1000.085 397.554,996.177 " />
<polygon points="373.949,999.278 373.937,1003.186 376.972,1002.787 376.984,998.879 " />
<polygon points="839.971,657.680 843.646,656.581 846.150,638.872 842.475,639.971 " />
<polygon points="61.354,123.354 61.208,128.824 66.500,128.825 66.646,123.355 " />
<polygon points="54.270,567.923 57.889,568.854 60.097,547.237 56.477,546.307 " />
<polygon points="1019.283,449.931 1019.147,445.552 981.376,445.518 981.512,449.896 " />
<polygon points="13.193,123.343 13.046,128.814 61.208,128.824 61.354,123.354 " />
<polygon points="8.429,123.342 8.283,128.813 13.046,128.814 13.193,123.343 " />
<polygon points="62.122,166.802 66.646,167.966 66.644,162.870 62.120,161.707 " />
<polygon points="836.792,1020.321 841.386,1018.946 841.417,1014.084 836.824,1015.459 " />
<polygon points="56.477,546.307 60.097,547.237 60.096,543.569 56.476,542.638 " />
<polygon points="839.948,661.181 843.623,660.081 843.646,656.581 839.971,657.680 " />
<polygon points="843.646,656.581 861.999,654.767 864.503,637.058 846.150,638.872 " />
<polygon points="861.999,654.767 865.306,653.778 867.685,655.517 864.503,637.058 " />
<polygon points="61.208,128.824 52.680,150.830 57.972,150.831 66.500,128.825 " />
<polygon points="52.680,150.830 52.548,155.753 57.841,155.754 57.972,150.831 " />
<polygon points="358.103,1022.427 374.392,1024.000 371.424,1002.686 355.135,1001.113 " />
<polygon points="374.392,1024.000 376.972,1002.787 373.937,1003.186 371.424,1002.686 " />
<polygon points="1019.147,445.552 1012.372,427.934 987.054,427.911 981.376,445.518 " />
<polygon points="394.962,1021.298 397.542,1000.085 376.972,1002.787 374.392,1024.000 " />
<polygon points="13.046,128.814 20.396,150.823 52.680,150.830 61.208,128.824 " />
<polygon points="20.396,150.823 20.264,155.746 52.548,155.753 52.680,150.830 " />
<polygon points="8.283,128.813 15.633,150.822 20.396,150.823 13.046,128.814 " />
<polygon points="15.633,150.822 15.501,155.745 20.264,155.746 20.396,150.823 " />
<polygon points="354.333,599.291 374.694,601.257 374.711,595.829 354.349,593.863 " />
<polygon points="79.077,190.172 83.176,191.106 83.034,186.012 78.935,185.079 " />
<polygon points="841.386,1018.946 864.327,1016.680 864.358,1011.817 841.417,1014.084 " />
<polygon points="864.327,1016.680 868.462,1015.443 868.493,1010.581 864.358,1011.817 " />
<polygon points="355.135,1001.113 371.424,1002.686 371.436,998.777 355.147,997.205 " />
<polygon points="80.191,568.107 83.470,568.854 83.368,565.186 80.089,564.439 " />
<polygon points="843.623,660.081 861.976,658.268 861.999,654.767 843.646,656.581 " />
<polygon points="861.976,658.268 865.284,657.279 865.306,653.778 861.999,654.767 " />
<polygon points="262.352,157.254 262.398,153.302 241.349,152.070 241.303,156.022 " />
<polygon points="56.477,546.307 56.476,542.638 32.061,539.366 32.063,543.035 " />
<polygon points="264.091,566.181 264.155,560.693 237.844,559.153 237.779,564.642 " />
<polygon points="62.122,166.802 62.120,161.707 31.602,157.617 31.604,162.713 " />
<polygon points="13.193,123.343 61.354,123.354 54.253,92.036 21.969,92.029 " />
<polygon points="8.429,123.342 13.193,123.343 21.969,92.029 17.206,92.028 " />
<polygon points="54.270,567.923 56.477,546.307 32.063,543.035 29.855,564.652 " />
<polygon points="1019.283,449.931 981.512,449.896 988.519,474.965 1013.837,474.988 " />
<polygon points="61.354,123.354 66.646,123.355 59.546,92.038 54.253,92.036 " />
<polygon points="262.398,153.302 259.285,131.490 238.236,130.258 241.349,152.070 " />
<polygon points="233.418,263.366 235.489,245.600 231.842,246.790 229.771,264.555 " />
<polygon points="54.253,92.036 59.546,92.038 59.692,86.567 54.400,86.566 " />
<polygon points="1013.837,474.988 988.519,474.965 988.655,479.343 1013.974,479.366 " />
<polygon points="29.855,564.652 32.063,543.035 28.443,542.104 26.235,563.721 " />
<polygon points="17.206,92.028 21.969,92.029 22.116,86.559 17.353,86.558 " />
<polygon points="21.969,92.029 54.253,92.036 54.400,86.566 22.116,86.559 " />
<polygon points="31.604,162.713 31.602,157.617 27.077,156.454 27.079,161.550 " />
<polygon points="32.063,543.035 32.061,539.366 28.442,538.436 28.443,542.104 " />
<polygon points="233.481,266.866 233.418,263.366 229.771,264.555 229.834,268.055 " />
<polygon points="229.005,157.506 229.003,153.554 211.399,153.298 211.401,157.250 " />
<polygon points="28.443,542.104 28.442,538.436 10.400,538.807 10.401,542.476 " />
<polygon points="229.771,566.084 229.768,560.595 207.764,560.275 207.766,565.764 " />
<polygon points="27.079,161.550 27.077,156.454 4.525,156.918 4.527,162.013 " />
<polygon points="22.116,86.559 54.400,86.566 41.649,68.599 35.828,68.598 " />
<polygon points="17.353,86.558 22.116,86.559 35.828,68.598 31.065,68.597 " />
<polygon points="26.235,563.721 28.443,542.104 10.401,542.476 8.193,564.092 " />
<polygon points="1013.974,479.366 988.655,479.343 999.479,493.729 1004.045,493.733 " />
<polygon points="54.400,86.566 59.692,86.567 46.942,68.601 41.649,68.599 " />
<polygon points="229.003,153.554 225.624,131.782 208.020,131.526 211.399,153.298 " />
<polygon points="211.399,153.298 208.020,131.526 205.234,153.264 208.602,153.080 " />
<polygon points="41.649,68.599 46.942,68.601 47.088,63.130 41.796,63.129 " />
<polygon points="208.020,131.526 204.315,131.728 201.530,153.466 205.234,153.264 " />
<polygon points="8.193,564.092 10.401,542.476 6.782,541.545 4.566,542.779 " />
<polygon points="31.065,68.597 35.828,68.598 35.974,63.128 31.211,63.127 " />
<polygon points="35.828,68.598 41.649,68.599 41.796,63.129 35.974,63.128 " />
<polygon points="4.527,162.013 4.525,156.918 0.000,155.754 0.002,160.850 " />
<polygon points="1015.427,211.086 1015.280,206.226 1010.740,207.769 1010.887,212.629 " />
<polygon points="10.401,542.476 10.400,538.807 6.780,537.876 6.782,541.545 " />
<polygon points="267.967,109.899 267.904,106.399 264.257,107.589 264.320,111.089 " />
<polygon points="204.270,565.492 204.267,560.003 200.058,560.233 200.060,565.721 " />
<polygon points="195.430,565.974 195.427,560.485 191.638,560.692 191.641,566.181 " />
<polygon points="200.060,565.721 200.058,560.233 195.427,560.485 195.430,565.974 " />
<polygon points="208.604,157.032 208.602,153.080 205.234,153.264 205.236,157.216 " />
<polygon points="201.532,157.418 201.530,153.466 198.499,153.632 198.501,157.584 " />
<polygon points="205.236,157.216 205.234,153.264 201.530,153.466 201.532,157.418 " />
<polygon points="720.544,610.758 720.526,614.625 725.341,614.623 725.358,610.757 " />
<polygon points="725.358,610.757 725.341,614.623 729.280,614.622 729.297,610.755 " />
<polygon points="716.167,610.760 716.150,614.627 720.526,614.625 720.544,610.758 " />
<polygon points="721.588,208.623 721.564,213.994 727.582,213.992 727.606,208.621 " />
<polygon points="727.606,208.621 727.582,213.992 732.506,213.990 732.530,208.620 " />
<polygon points="716.117,208.625 716.093,213.996 721.564,213.994 721.588,208.623 " />
<polygon points="411.173,188.556 411.172,184.731 406.848,184.553 406.849,188.378 " />
<polygon points="625.371,1001.344 625.328,997.845 620.988,998.154 621.030,1001.653 " />
<polygon points="403.030,584.496 403.029,579.183 397.624,578.961 397.625,584.273 " />
<polygon points="613.227,641.918 613.168,637.058 607.742,637.445 607.802,642.305 " />
<polygon points="911.144,1013.228 905.390,1014.123 906.366,1019.507 912.120,1018.611 " />
<polygon points="915.851,1012.495 911.144,1013.228 912.120,1018.611 916.827,1017.879 " />
<polygon points="725.338,637.056 729.375,615.573 729.280,614.622 725.341,614.623 " />
<polygon points="720.524,637.058 725.338,637.056 725.341,614.623 720.526,614.625 " />
<polygon points="905.390,1014.123 900.160,1014.937 901.136,1020.321 906.366,1019.507 " />
<polygon points="716.244,615.578 720.524,637.058 720.526,614.625 716.150,614.627 " />
<polygon points="423.659,188.132 424.342,165.756 411.855,162.355 411.172,184.731 " />
<polygon points="889.109,998.479 883.879,999.293 900.160,1014.937 905.390,1014.123 " />
<polygon points="983.970,961.728 1010.050,961.695 999.834,947.441 995.131,947.447 " />
<polygon points="640.771,1023.026 641.047,1005.421 625.371,1001.344 625.096,1018.949 " />
<polygon points="925.721,992.782 921.014,993.514 911.144,1013.228 915.851,1012.495 " />
<polygon points="921.014,993.514 889.109,998.479 905.390,1014.123 911.144,1013.228 " />
<polygon points="632.822,647.015 632.763,642.155 613.168,637.058 613.227,641.918 " />
<polygon points="418.638,588.747 418.637,583.435 403.029,579.183 403.030,584.496 " />
<polygon points="641.047,1005.421 641.004,1001.922 625.328,997.845 625.371,1001.344 " />
<polygon points="423.660,191.957 423.659,188.132 411.172,184.731 411.173,188.556 " />
<polygon points="427.983,192.135 427.983,188.310 423.659,188.132 423.660,191.957 " />
<polygon points="645.387,1005.111 645.344,1001.612 641.004,1001.922 641.047,1005.421 " />
<polygon points="424.043,588.970 424.042,583.657 418.637,583.435 418.638,588.747 " />
<polygon points="920.038,988.131 888.133,993.095 889.109,998.479 921.014,993.514 " />
<polygon points="924.745,987.398 920.038,988.131 921.014,993.514 925.721,992.782 " />
<polygon points="645.112,1022.716 645.387,1005.111 641.047,1005.421 640.771,1023.026 " />
<polygon points="983.827,966.073 1009.906,966.040 1010.050,961.695 983.970,961.728 " />
<polygon points="888.133,993.095 882.902,993.909 883.879,999.293 889.109,998.479 " />
<polygon points="427.983,188.310 428.666,165.934 424.342,165.756 423.659,188.132 " />
<polygon points="451.708,191.019 452.391,168.643 428.666,165.934 427.983,188.310 " />
<polygon points="874.699,963.497 869.469,964.311 882.902,993.909 888.133,993.095 " />
<polygon points="976.590,990.954 1015.496,990.904 1009.906,966.040 983.827,966.073 " />
<polygon points="670.812,1024.000 671.087,1006.395 645.387,1005.111 645.112,1022.716 " />
<polygon points="927.003,955.358 922.295,956.091 920.038,988.131 924.745,987.398 " />
<polygon points="922.295,956.091 874.699,963.497 888.133,993.095 920.038,988.131 " />
<polygon points="670.373,648.232 670.314,643.372 638.188,641.768 638.247,646.627 " />
<polygon points="453.699,592.356 453.699,587.043 424.042,583.657 424.043,588.970 " />
<polygon points="671.087,1006.395 671.045,1002.895 645.344,1001.612 645.387,1005.111 " />
<polygon points="451.709,194.844 451.708,191.019 427.983,188.310 427.983,192.135 " />
<polygon points="474.455,194.048 478.346,194.209 478.346,190.384 474.454,190.223 " />
<polygon points="456.032,195.022 474.455,194.048 474.454,190.223 456.032,191.197 " />
<polygon points="692.035,1001.782 695.941,1001.504 695.899,998.004 691.992,998.283 " />
<polygon points="675.428,1006.085 692.035,1001.782 691.992,998.283 675.385,1002.586 " />
<polygon points="482.132,591.361 486.996,591.561 486.996,586.249 482.131,586.048 " />
<polygon points="459.104,592.578 482.132,591.361 482.131,586.048 459.104,587.266 " />
<polygon points="696.558,642.466 701.440,642.118 701.381,637.258 696.498,637.607 " />
<polygon points="675.798,647.845 696.558,642.466 696.498,637.607 675.739,642.985 " />
<polygon points="914.254,929.537 913.375,924.692 908.668,925.424 909.547,930.269 " />
<polygon points="926.026,949.975 914.254,929.537 909.547,930.269 921.319,950.707 " />
<polygon points="909.547,930.269 908.668,925.424 876.763,930.389 877.642,935.234 " />
<polygon points="921.319,950.707 909.547,930.269 877.642,935.234 873.723,958.113 " />
<polygon points="88.176,157.051 88.589,176.825 115.225,177.253 114.812,157.479 " />
<polygon points="976.446,995.299 982.280,1012.770 1008.360,1012.736 1015.352,995.249 " />
<polygon points="114.812,157.479 115.225,177.253 119.155,177.316 118.873,178.513 " />
<polygon points="675.153,1023.690 691.760,1019.388 692.035,1001.782 675.428,1006.085 " />
<polygon points="877.642,935.234 876.763,930.389 871.533,931.203 872.411,936.048 " />
<polygon points="873.723,958.113 877.642,935.234 872.411,936.048 868.493,958.927 " />
<polygon points="474.454,190.223 478.346,190.384 479.030,189.257 475.137,167.847 " />
<polygon points="456.032,191.197 474.454,190.223 475.137,167.847 456.715,168.821 " />
<polygon points="451.709,194.844 456.032,195.022 456.032,191.197 451.708,191.019 " />
<polygon points="671.087,1006.395 675.428,1006.085 675.385,1002.586 671.045,1002.895 " />
<polygon points="453.699,592.356 459.104,592.578 459.104,587.266 453.699,587.043 " />
<polygon points="670.373,648.232 675.798,647.845 675.739,642.985 670.314,643.372 " />
<polygon points="927.003,955.358 926.026,949.975 921.319,950.707 922.295,956.091 " />
<polygon points="922.295,956.091 921.319,950.707 873.723,958.113 874.699,963.497 " />
<polygon points="976.590,990.954 976.446,995.299 1015.352,995.249 1015.496,990.904 " />
<polygon points="670.812,1024.000 675.153,1023.690 675.428,1006.085 671.087,1006.395 " />
<polygon points="874.699,963.497 873.723,958.113 868.493,958.927 869.469,964.311 " />
<polygon points="451.708,191.019 456.032,191.197 456.715,168.821 452.391,168.643 " />
<polygon points="119.179,181.091 119.155,177.316 115.225,177.253 115.249,181.028 " />
<polygon points="115.249,181.028 115.225,177.253 88.589,176.825 88.613,180.600 " />
<polygon points="88.613,180.600 88.589,176.825 84.223,176.755 84.247,180.530 " />
<polygon points="121.730,568.854 121.697,563.611 88.403,563.076 88.436,568.319 " />
<polygon points="743.438,651.761 740.444,647.311 701.381,637.258 701.440,642.118 " />
<polygon points="1001.571,51.431 1005.809,53.718 1005.781,5.466 1001.462,7.434 " />
<polygon points="988.620,53.004 993.858,53.718 993.801,9.766 989.654,6.186 " />
<polygon points="926.903,885.943 923.595,882.668 908.668,925.424 913.375,924.692 " />
<polygon points="999.371,778.066 1004.832,778.012 1003.927,733.816 999.496,730.980 " />
<polygon points="523.881,218.289 520.358,222.117 534.224,260.179 539.260,260.828 " />
<polygon points="229.414,566.181 226.680,570.863 261.264,596.421 261.142,590.945 " />
<polygon points="599.084,129.857 603.743,132.380 603.893,83.503 599.220,85.699 " />
<polygon points="603.173,286.017 607.714,283.295 607.614,222.645 603.057,219.951 " />
<polygon points="1013.321,690.806 1018.642,692.055 1018.675,637.058 1013.351,637.490 " />
<polygon points="523.361,18.146 518.782,15.351 518.665,83.208 523.260,80.596 " />
<polygon points="131.293,3.724 126.101,5.245 126.090,63.796 131.283,63.969 " />
<polygon points="1011.579,841.706 1016.650,843.398 1016.667,783.068 1011.598,783.071 " />
<polygon points="491.830,17.245 487.091,19.939 486.996,82.499 491.719,85.222 " />
<polygon points="1019.252,725.633 1014.421,727.610 1014.418,781.012 1019.246,780.716 " />
<polygon points="134.684,66.547 139.405,69.194 139.296,3.244 134.591,6.004 " />
<polygon points="705.045,209.767 705.425,269.325 711.173,269.303 711.064,209.744 " />
<polygon points="705.425,269.325 705.467,275.943 711.185,275.920 711.173,269.303 " />
<polygon points="711.064,209.744 711.173,269.303 715.876,269.284 715.989,209.724 " />
<polygon points="711.173,269.303 711.185,275.920 715.864,275.902 715.876,269.284 " />
<polygon points="699.573,209.789 700.199,269.346 705.425,269.325 705.045,209.767 " />
<polygon points="700.199,269.346 700.268,275.964 705.467,275.943 705.425,269.325 " />
<polygon points="348.855,593.489 348.395,653.171 353.617,653.071 354.322,593.385 " />
<polygon points="348.395,653.171 348.344,659.802 353.538,659.703 353.617,653.071 " />
<polygon points="185.648,919.229 185.700,925.629 190.862,925.516 190.782,919.116 " />
<polygon points="185.700,925.629 186.171,983.232 191.576,983.113 190.862,925.516 " />
<polygon points="170.800,923.258 170.775,929.680 185.700,925.629 185.648,919.229 " />
<polygon points="170.775,929.680 170.542,987.473 186.171,983.232 185.700,925.629 " />
<polygon points="330.413,595.106 330.783,654.715 348.395,653.171 348.855,593.489 " />
<polygon points="330.783,654.715 330.824,661.339 348.344,659.802 348.395,653.171 " />
<polygon points="165.666,923.371 165.613,929.793 170.775,929.680 170.800,923.258 " />
<polygon points="165.613,929.793 165.138,987.592 170.542,987.473 170.775,929.680 " />
<polygon points="137.481,926.213 137.280,932.650 165.613,929.793 165.666,923.371 " />
<polygon points="137.280,932.650 135.469,990.583 165.138,987.592 165.613,929.793 " />
<polygon points="293.354,596.571 295.392,656.114 325.562,654.815 324.945,595.210 " />
<polygon points="295.392,656.114 295.618,662.730 325.630,661.437 325.562,654.815 " />
<polygon points="261.264,596.421 264.746,655.971 269.445,655.882 266.185,596.328 " />
<polygon points="264.746,655.971 265.133,662.588 269.807,662.499 269.445,655.882 " />
<polygon points="269.445,655.882 269.807,662.499 290.424,662.829 290.171,656.214 " />
<polygon points="105.862,924.688 105.494,931.117 110.139,931.014 110.483,924.586 " />
<polygon points="105.494,931.117 102.186,988.977 107.050,988.870 110.139,931.014 " />
<polygon points="110.483,924.586 110.139,931.014 132.118,932.764 132.346,926.326 " />
<polygon points="110.139,931.014 107.050,988.870 130.065,990.702 132.118,932.764 " />
<polygon points="287.887,596.675 290.171,656.214 295.392,656.114 293.354,596.571 " />
<polygon points="290.171,656.214 290.424,662.829 295.618,662.730 295.392,656.114 " />
<polygon points="132.346,926.326 132.118,932.764 137.280,932.650 137.481,926.213 " />
<polygon points="132.118,932.764 130.065,990.702 135.469,990.583 137.280,932.650 " />
<polygon points="392.149,587.078 391.332,527.320 359.455,527.327 358.770,587.085 " />
<polygon points="391.332,527.320 391.241,520.680 359.531,520.688 359.455,527.327 " />
<polygon points="553.545,601.714 555.610,659.973 582.762,656.215 581.963,597.781 " />
<polygon points="555.610,659.973 555.839,666.446 582.850,662.708 582.762,656.215 " />
<polygon points="888.216,567.094 888.257,573.492 892.650,574.083 892.586,567.683 " />
<polygon points="888.257,573.492 888.623,631.071 893.221,631.689 892.650,574.083 " />
<polygon points="124.977,158.281 126.501,214.827 130.826,213.898 129.504,157.309 " />
<polygon points="126.501,214.827 126.670,221.110 130.973,220.186 130.826,213.898 " />
<polygon points="866.405,566.190 866.332,572.583 888.257,573.492 888.216,567.094 " />
<polygon points="862.472,565.660 862.379,572.051 866.332,572.583 866.405,566.190 " />
<polygon points="862.379,572.051 861.539,629.562 865.676,630.119 866.332,572.583 " />
<polygon points="589.205,598.028 589.681,656.450 607.392,659.331 607.742,601.043 " />
<polygon points="589.681,656.450 589.734,662.942 607.354,665.808 607.392,659.331 " />
<polygon points="66.842,181.555 67.609,237.835 71.523,237.108 70.939,180.794 " />
<polygon points="67.609,237.835 67.694,244.089 71.588,243.366 71.523,237.108 " />
<polygon points="129.504,157.309 130.826,213.898 159.994,210.630 160.032,153.888 " />
<polygon points="130.826,213.898 130.973,220.186 159.990,216.934 159.994,210.630 " />
<polygon points="577.403,497.185 577.317,503.773 602.596,502.697 602.552,496.115 " />
<polygon points="577.317,503.773 576.537,563.064 602.995,561.938 602.596,502.697 " />
<polygon points="160.032,153.888 159.994,210.630 164.320,209.701 164.559,152.916 " />
<polygon points="159.994,210.630 159.990,216.934 164.293,216.011 164.320,209.701 " />
<polygon points="164.559,152.916 164.320,209.701 185.867,210.061 187.110,153.293 " />
<polygon points="164.320,209.701 164.293,216.011 185.728,216.369 185.867,210.061 " />
<polygon points="823.604,565.643 823.585,572.224 844.646,572.038 844.555,565.457 " />
<polygon points="823.585,572.224 823.418,631.458 845.461,631.263 844.646,572.038 " />
<polygon points="513.621,14.913 513.636,21.369 518.007,22.109 517.968,15.649 " />
<polygon points="513.636,21.369 513.778,79.471 518.352,80.246 518.007,22.109 " />
<polygon points="187.110,153.293 185.867,210.061 190.192,209.133 191.638,152.322 " />
<polygon points="185.867,210.061 185.728,216.369 190.032,215.446 190.192,209.133 " />
<polygon points="861.539,631.563 860.007,572.325 856.010,572.171 857.355,631.402 " />
<polygon points="860.007,572.325 859.837,565.743 855.861,565.590 856.010,572.171 " />
<polygon points="852.754,631.225 851.614,572.002 848.016,571.864 848.989,631.081 " />
<polygon points="851.614,572.002 851.487,565.422 847.908,565.285 848.016,571.864 " />
<polygon points="857.355,631.402 856.010,572.171 851.614,572.002 852.754,631.225 " />
<polygon points="856.010,572.171 855.861,565.590 851.487,565.422 851.614,572.002 " />
<polygon points="1007.108,874.182 1011.460,871.609 1011.579,785.670 1007.241,783.068 " />
<polygon points="132.990,145.437 139.405,147.099 139.306,69.194 132.938,69.823 " />
<polygon points="1010.175,38.929 1005.809,36.301 1005.947,129.855 1010.299,127.345 " />
<polygon points="131.293,63.969 125.036,65.959 124.974,146.800 131.184,147.099 " />
<polygon points="381.628,601.384 380.678,660.203 405.234,656.977 407.341,598.006 " />
<polygon points="380.678,660.203 380.573,666.738 405.000,663.529 405.234,656.977 " />
<polygon points="64.996,229.931 65.161,223.735 60.840,222.624 60.697,228.826 " />
<polygon points="65.161,223.735 66.646,167.966 62.122,166.802 60.840,222.624 " />
<polygon points="841.417,1014.084 841.737,961.858 837.350,963.171 836.824,1015.459 " />
<polygon points="841.737,961.858 841.773,956.055 837.408,957.361 837.350,963.171 " />
<polygon points="373.985,666.617 374.056,660.081 354.611,658.204 354.642,664.750 " />
<polygon points="374.056,660.081 374.694,601.257 354.333,599.291 354.611,658.204 " />
<polygon points="82.334,252.703 82.418,246.544 78.503,245.652 78.439,251.816 " />
<polygon points="82.418,246.544 83.176,191.106 79.077,190.172 78.503,245.652 " />
<polygon points="863.646,959.693 863.566,953.902 841.773,956.055 841.737,961.858 " />
<polygon points="868.493,1010.581 867.594,958.512 863.646,959.693 864.358,1011.817 " />
<polygon points="867.594,958.512 867.494,952.727 863.566,953.902 863.646,959.693 " />
<polygon points="264.155,560.693 263.387,500.877 238.260,499.407 237.844,559.153 " />
<polygon points="263.387,500.877 263.302,494.231 238.306,492.768 238.260,499.407 " />
<polygon points="60.697,228.826 60.840,222.624 31.695,218.718 31.705,224.941 " />
<polygon points="60.840,222.624 62.122,166.802 31.604,162.713 31.695,218.718 " />
<polygon points="31.705,224.941 31.695,218.718 27.374,217.607 27.407,223.836 " />
<polygon points="31.695,218.718 31.604,162.713 27.079,161.550 27.374,217.607 " />
<polygon points="229.768,560.595 229.613,500.860 208.598,500.555 207.764,560.275 " />
<polygon points="229.613,500.860 229.595,494.223 208.691,493.919 208.598,500.555 " />
<polygon points="27.407,223.836 27.374,217.607 5.836,218.050 5.982,224.277 " />
<polygon points="27.374,217.607 27.079,161.550 4.527,162.013 5.836,218.050 " />
<polygon points="5.982,224.277 5.836,218.050 1.515,216.939 1.684,223.171 " />
<polygon points="5.836,218.050 4.527,162.013 0.002,160.850 1.515,216.939 " />
<polygon points="1015.280,206.226 1015.387,152.888 1011.051,154.362 1010.740,207.769 " />
<polygon points="1015.387,152.888 1015.399,146.961 1011.086,148.427 1011.051,154.362 " />
<polygon points="204.267,560.003 205.259,500.294 201.239,500.514 200.058,560.233 " />
<polygon points="205.259,500.294 205.369,493.660 201.370,493.879 201.239,500.514 " />
<polygon points="195.427,560.485 196.816,500.756 193.198,500.953 191.638,560.692 " />
<polygon points="196.816,500.756 196.971,494.119 193.371,494.316 193.198,500.953 " />
<polygon points="200.058,560.233 201.239,500.514 196.816,500.756 195.427,560.485 " />
<polygon points="201.239,500.514 201.370,493.879 196.971,494.119 196.816,500.756 " />
<polygon points="721.564,213.994 721.472,272.384 727.222,272.382 727.582,213.992 " />
<polygon points="721.472,272.384 721.462,278.872 727.182,278.870 727.222,272.382 " />
<polygon points="727.582,213.992 727.222,272.382 731.927,272.380 732.506,213.990 " />
<polygon points="727.222,272.382 727.182,278.870 731.862,278.868 731.927,272.380 " />
<polygon points="716.093,213.996 716.245,272.386 721.472,272.384 721.564,213.994 " />
<polygon points="716.245,272.386 716.262,278.874 721.462,278.872 721.472,272.384 " />
<polygon points="403.029,579.183 404.846,521.836 399.682,521.624 397.624,578.961 " />
<polygon points="404.846,521.836 405.048,515.465 399.911,515.253 399.682,521.624 " />
<polygon points="615.854,699.857 615.592,694.063 610.408,694.433 610.697,700.225 " />
<polygon points="615.592,694.063 613.227,641.918 607.802,642.305 610.408,694.433 " />
<polygon points="634.479,704.701 634.313,698.932 615.592,694.063 615.854,699.857 " />
<polygon points="634.313,698.932 632.822,647.015 613.227,641.918 615.592,694.063 " />
<polygon points="418.637,583.435 419.759,525.898 404.846,521.836 403.029,579.183 " />
<polygon points="419.759,525.898 419.884,519.506 405.048,515.465 404.846,521.836 " />
<polygon points="424.042,583.657 424.923,526.111 419.759,525.898 418.637,583.435 " />
<polygon points="424.923,526.111 425.021,519.717 419.884,519.506 419.759,525.898 " />
<polygon points="670.171,705.858 670.191,700.095 639.497,698.563 639.636,704.333 " />
<polygon points="670.191,700.095 670.373,648.232 638.247,646.627 639.497,698.563 " />
<polygon points="453.699,587.043 453.259,529.346 424.923,526.111 424.042,583.657 " />
<polygon points="453.259,529.346 453.210,522.936 425.021,519.717 424.923,526.111 " />
<polygon points="486.996,586.249 485.072,528.587 480.424,528.396 482.131,586.048 " />
<polygon points="485.072,528.587 484.858,522.180 480.235,521.990 480.424,528.396 " />
<polygon points="482.131,586.048 480.424,528.396 458.423,529.559 459.104,587.266 " />
<polygon points="480.424,528.396 480.235,521.990 458.347,523.147 458.423,529.559 " />
<polygon points="699.701,700.047 699.875,694.254 695.210,694.587 695.060,700.378 " />
<polygon points="699.875,694.254 701.440,642.118 696.558,642.466 695.210,694.587 " />
<polygon points="695.060,700.378 695.210,694.587 675.375,699.726 675.328,705.490 " />
<polygon points="459.104,587.266 458.423,529.559 453.259,529.346 453.699,587.043 " />
<polygon points="458.423,529.559 458.347,523.147 453.210,522.936 453.259,529.346 " />
<polygon points="675.328,705.490 675.375,699.726 670.191,700.095 670.171,705.858 " />
<polygon points="675.375,699.726 675.798,647.845 670.373,648.232 670.191,700.095 " />
<polygon points="121.697,563.611 120.444,507.666 88.633,507.155 88.403,563.076 " />
<polygon points="120.444,507.666 120.305,501.450 88.658,500.942 88.633,507.155 " />
<polygon points="1008.625,637.058 1004.113,639.660 1004.345,725.598 1008.871,728.171 " />
<polygon points="817.197,94.482 823.279,96.581 823.412,18.117 817.285,18.312 " />
<polygon points="1002.420,874.079 1006.893,876.623 1007.108,783.068 1002.623,785.663 " />
<polygon points="988.588,45.609 982.795,48.049 982.786,128.132 988.620,127.940 " />
<polygon points="1009.419,310.718 1013.488,312.865 1013.410,224.969 1009.301,226.888 " />
<polygon points="490.346,611.135 486.996,615.866 555.839,666.446 555.610,659.973 " />
<polygon points="741.864,116.077 737.878,118.235 738.147,206.741 742.146,208.620 " />
<polygon points="930.275,212.629 936.598,212.615 941.795,133.832 936.558,129.855 " />
<polygon points="1008.942,725.633 1013.321,723.302 1013.205,639.244 1008.871,637.058 " />
<polygon points="195.142,620.671 191.638,626.205 265.133,662.588 264.746,655.971 " />
<polygon points="1000.086,315.833 1004.512,318.230 1004.798,224.969 1000.358,227.054 " />
<polygon points="0.000,155.754 6.491,154.421 5.993,71.116 0.260,68.360 " />
<polygon points="940.472,302.936 1000.086,302.066 1000.039,259.122 954.116,224.969 " />
<polygon points="407.341,598.006 405.234,656.977 486.996,651.202 454.153,601.490 " />
<polygon points="936.598,212.615 993.507,212.480 988.926,169.623 941.795,133.832 " />
<polygon points="520.497,568.559 490.346,611.135 555.610,659.973 553.545,601.714 " />
<polygon points="982.795,48.049 930.653,70.007 930.275,129.855 982.786,128.132 " />
<polygon points="762.457,75.587 817.197,94.482 817.285,18.312 762.139,20.062 " />
<polygon points="716.093,13.714 659.745,31.630 660.070,87.070 715.999,89.965 " />
<polygon points="296.610,78.803 354.333,93.759 354.315,13.591 297.015,19.041 " />
<polygon points="195.257,53.914 217.481,52.604 217.503,27.730 195.279,29.040 " />
<polygon points="951.647,694.227 936.665,637.058 914.233,667.708 927.204,702.344 " />
<polygon points="966.552,630.887 981.376,572.997 956.827,565.792 944.128,600.668 " />
<polygon points="287.887,596.675 266.185,596.328 258.572,622.819 280.274,623.167 " />
<polygon points="762.116,71.704 739.882,70.394 739.905,95.271 762.139,96.581 " />
<polygon points="354.333,413.124 323.938,363.549 311.827,399.554 331.973,428.158 " />
<polygon points="921.076,427.911 940.472,371.898 916.273,362.971 902.994,396.606 " />
<polygon points="865.676,630.119 888.623,631.071 898.154,601.663 875.207,600.711 " />
<polygon points="868.505,880.832 890.894,881.285 890.882,854.891 868.493,854.438 " />
<polygon points="511.759,352.892 486.996,405.033 509.486,418.093 526.930,391.907 " />
<polygon points="898.154,582.482 910.788,637.058 934.205,602.697 923.222,574.056 " />
<polygon points="696.558,642.466 675.798,647.845 686.485,686.551 707.244,681.173 " />
<polygon points="410.042,26.457 387.611,26.264 387.602,51.962 410.034,52.155 " />
<polygon points="771.131,637.058 743.438,689.151 766.939,699.950 783.869,672.480 " />
<polygon points="868.493,797.568 887.004,854.438 904.469,818.348 892.870,788.909 " />
<polygon points="841.417,1014.084 864.358,1011.817 853.975,972.993 831.034,975.259 " />
<polygon points="908.471,878.011 908.494,854.438 903.594,854.583 903.571,878.155 " />
<polygon points="944.128,600.668 956.827,565.792 951.917,564.351 939.219,599.226 " />
<polygon points="927.204,702.344 914.233,667.708 909.345,669.332 922.315,703.968 " />
<polygon points="807.253,689.276 810.340,725.510 831.034,724.308 828.922,688.017 " />
<polygon points="78.249,161.463 78.243,185.079 83.465,185.070 83.470,161.454 " />
<polygon points="892.870,788.909 904.469,818.348 909.345,816.616 897.745,787.177 " />
<polygon points="783.869,672.480 766.939,699.950 771.640,702.110 788.569,674.640 " />
<polygon points="509.930,350.554 513.621,324.014 491.719,326.246 486.996,352.892 " />
<polygon points="280.897,136.550 280.925,113.210 275.849,112.890 275.822,136.231 " />
<polygon points="902.994,396.606 916.273,362.971 911.433,361.186 898.154,394.821 " />
<polygon points="331.973,428.158 311.827,399.554 307.355,402.561 327.501,431.165 " />
<polygon points="269.963,322.995 272.123,357.777 295.040,359.295 291.859,324.445 " />
<polygon points="823.084,991.477 823.089,1015.093 828.311,1015.102 828.306,991.486 " />
<polygon points="923.222,574.056 934.205,602.697 939.219,601.012 928.235,572.371 " />
<polygon points="526.930,391.907 509.486,418.093 513.984,420.705 531.428,394.519 " />
<polygon points="284.312,418.572 285.387,393.272 264.290,397.101 264.155,422.230 " />
<polygon points="1010.740,136.971 993.650,151.327 993.507,197.895 1010.508,212.629 " />
<polygon points="415.058,24.831 415.404,71.286 432.309,86.107 432.341,10.513 " />
<polygon points="486.996,203.420 491.001,205.588 491.369,85.222 487.352,87.109 " />
<polygon points="829.523,865.794 823.084,864.908 823.138,979.460 829.058,976.495 " />
<polygon points="995.457,761.528 999.371,759.429 999.248,639.003 995.362,637.058 " />
<polygon points="229.771,245.600 236.233,244.113 235.784,135.405 229.886,132.908 " />
<polygon points="1010.299,127.584 1014.493,129.855 1014.743,47.949 1010.537,49.924 " />
<polygon points="31.836,1019.328 34.703,1024.000 102.060,994.257 102.186,988.977 " />
<polygon points="548.541,191.489 545.370,194.935 569.983,264.788 574.515,265.372 " />
<polygon points="381.645,595.956 381.628,601.384 453.623,598.197 450.774,593.528 " />
<polygon points="658.491,90.130 652.628,89.965 652.651,204.288 657.999,200.641 " />
<polygon points="519.630,228.506 515.201,230.905 515.566,350.805 520.009,352.892 " />
<polygon points="754.924,208.620 761.247,207.833 760.711,99.740 754.946,96.581 " />
<polygon points="513.778,203.217 518.306,205.588 518.180,85.613 513.621,87.759 " />
<polygon points="716.093,91.567 711.258,91.611 706.131,167.815 710.568,164.819 " />
<polygon points="657.288,7.877 652.628,10.400 652.863,87.770 657.537,89.965 " />
<polygon points="818.148,200.751 823.412,200.278 817.424,130.734 812.589,128.169 " />
<polygon points="743.625,1019.243 746.106,1024.000 790.370,959.274 785.176,958.381 " />
<polygon points="0.000,968.603 31.836,1019.328 102.186,988.977 105.494,931.117 " />
<polygon points="381.628,601.384 380.678,660.203 486.490,648.057 453.623,598.197 " />
<polygon points="761.247,207.833 818.148,200.751 812.589,128.169 760.711,99.740 " />
<polygon points="711.258,91.611 658.491,90.130 657.999,200.641 706.131,167.815 " />
<polygon points="291.859,324.445 295.040,359.295 337.901,363.549 354.109,330.067 " />
<polygon points="531.428,394.519 513.984,420.705 576.537,427.661 574.703,398.973 " />
<polygon points="0.000,1024.000 0.000,1024.000 0.000,1024.000 0.000,1024.000 " />
<polygon points="0.000,1024.000 0.000,1024.000 0.000,1024.000 0.000,1024.000 " />
<polygon points="0.000,1024.000 0.000,1024.000 0.000,1024.000 0.000,1024.000 " />
<polygon points="0.000,1024.000 0.000,1024.000 0.000,1024.000 0.000,1024.000 " />
<polygon points="576.537,36.052 584.523,56.339 596.805,54.343 588.819,34.057 " />
<polygon points="296.610,45.832 296.603,22.798 283.894,23.388 283.901,46.422 " />
<polygon points="903.571,878.583 903.567,855.573 890.894,854.438 890.899,877.449 " />
<polygon points="495.075,11.134 501.501,31.691 513.621,28.867 507.195,8.310 " />
<polygon points="576.537,427.661 513.984,420.705 509.844,447.508 572.446,454.482 " />
<polygon points="291.859,324.445 354.109,330.067 354.283,316.264 291.983,310.625 " />
<polygon points="930.275,111.309 862.716,91.110 861.582,117.614 930.251,124.970 " />
<polygon points="281.093,210.932 351.138,200.127 351.584,186.122 280.925,183.670 " />
<polygon points="284.312,418.572 264.155,422.230 275.924,541.384 295.714,535.249 " />
<polygon points="513.984,420.705 509.486,418.093 491.228,539.866 495.938,541.815 " />
<polygon points="923.222,574.056 928.235,572.371 936.902,454.495 931.820,455.517 " />
<polygon points="269.963,322.995 291.859,324.445 291.624,216.610 270.025,212.619 " />
<polygon points="331.973,428.158 327.501,431.165 339.482,539.881 343.491,536.288 " />
<polygon points="911.433,361.186 916.273,362.971 905.384,254.406 900.894,251.977 " />
<polygon points="491.719,326.246 513.621,324.014 509.000,205.887 487.064,205.588 " />
<polygon points="771.640,702.110 766.939,699.950 747.800,816.290 752.824,817.827 " />
<polygon points="892.870,788.909 897.745,787.177 897.649,664.201 892.546,665.225 " />
<polygon points="831.034,724.308 810.340,725.510 794.126,833.646 814.641,829.910 " />
<polygon points="927.204,702.344 922.315,703.968 912.219,812.788 916.963,810.511 " />
<polygon points="951.917,564.351 956.827,565.792 946.698,456.575 941.937,454.450 " />
<polygon points="822.922,865.845 801.058,864.908 801.200,988.066 822.998,986.449 " />
<polygon points="493.868,205.588 513.621,205.182 513.075,84.057 493.443,81.907 " />
<polygon points="737.878,68.424 716.093,70.383 716.364,181.583 737.855,177.106 " />
<polygon points="823.412,199.311 842.985,201.804 842.832,92.723 823.846,87.749 " />
<polygon points="823.846,87.749 842.832,92.723 842.824,88.364 823.839,83.390 " />
<polygon points="737.855,177.106 716.364,181.583 716.364,185.925 737.855,181.447 " />
<polygon points="493.443,81.907 513.075,84.057 513.081,79.698 493.449,77.548 " />
<polygon points="822.998,986.449 801.200,988.066 801.213,992.407 823.012,990.790 " />
<polygon points="941.937,454.450 946.698,456.575 946.290,452.313 941.530,450.188 " />
<polygon points="916.963,810.511 912.219,812.788 911.809,817.110 916.553,814.833 " />
<polygon points="892.546,665.225 897.649,664.201 897.655,659.842 892.552,660.866 " />
<polygon points="752.824,817.827 747.800,816.290 747.132,820.482 752.156,822.019 " />
<polygon points="900.894,251.977 905.384,254.406 904.951,250.069 900.462,247.639 " />
<polygon points="343.491,536.288 339.482,539.881 339.912,544.105 343.921,540.511 " />
<polygon points="931.820,455.517 936.902,454.495 937.225,450.226 932.143,451.248 " />
<polygon points="495.938,541.815 491.228,539.866 490.595,544.160 495.305,546.110 " />
<polygon points="280.925,183.670 351.584,186.122 354.333,96.210 283.673,93.759 " />
<polygon points="930.251,124.970 861.582,117.614 861.539,205.273 930.208,212.629 " />
<polygon points="291.983,310.625 354.283,316.264 354.333,227.420 293.901,221.969 " />
<polygon points="572.446,454.482 509.844,447.508 498.950,536.583 559.668,543.366 " />
<polygon points="195.257,54.087 195.355,130.224 264.155,130.258 264.059,53.914 " />
<polygon points="559.668,543.366 498.950,536.583 497.317,547.654 558.035,554.437 " />
<polygon points="293.901,221.969 354.333,227.420 354.290,216.383 293.859,210.932 " />
<polygon points="860.327,125.460 842.985,139.245 843.114,187.215 859.957,201.804 " />
<polygon points="998.170,8.708 993.858,8.248 993.898,53.258 998.210,53.718 " />
<polygon points="415.261,148.714 432.341,162.355 432.108,86.107 415.114,100.635 " />
<polygon points="280.827,210.638 280.925,139.376 279.785,136.550 279.688,207.812 " />
<polygon points="746.827,854.811 745.652,843.931 743.438,849.818 743.894,854.038 " />
<polygon points="269.750,139.670 269.653,210.932 275.353,207.927 275.450,136.664 " />
<polygon points="269.653,210.932 280.827,210.638 279.688,207.812 275.353,207.927 " />
<polygon points="989.045,116.063 1005.809,129.855 1005.711,53.718 988.620,68.316 " />
<polygon points="593.771,56.339 576.683,69.986 576.537,117.845 593.539,132.380 " />
<polygon points="387.602,7.345 383.291,6.871 383.268,51.682 387.579,52.155 " />
<polygon points="237.779,555.145 237.778,543.953 235.563,549.572 235.564,553.914 " />
<polygon points="593.771,61.597 593.811,130.826 599.084,132.380 599.044,63.150 " />
<polygon points="237.779,566.181 237.771,555.145 235.515,556.534 235.519,560.816 " />
<polygon points="397.624,590.527 397.584,521.297 396.212,523.349 396.252,592.578 " />
<polygon points="303.511,400.935 284.312,418.572 327.501,431.165 " />
<polygon points="307.355,402.561 303.511,400.935 327.501,431.165 " />
<polygon points="803.983,686.714 771.640,702.110 810.340,725.510 " />
<polygon points="807.253,689.276 803.983,686.714 810.340,725.510 " />
<polygon points="75.971,0.000 75.942,9.432 124.945,9.635 124.974,0.235 " />
<polygon points="0.000,1024.000 0.000,1024.000 0.000,1024.000 0.000,1024.000 " />
<polygon points="0.000,1024.000 0.000,1024.000 0.000,1024.000 0.000,1024.000 " />
<polygon points="0.000,1024.000 0.000,1024.000 0.000,1024.000 0.000,1024.000 " />
<polygon points="0.000,1024.000 0.000,1024.000 0.000,1024.000 0.000,1024.000 " />
<polygon points="496.211,50.726 495.089,54.764 507.209,51.940 508.331,47.902 " />
<polygon points="742.304,155.930 742.303,164.804 754.924,166.784 754.924,157.910 " />
<polygon points="577.931,32.128 576.537,36.052 588.819,34.057 590.213,30.132 " />
<polygon points="742.271,103.404 742.277,112.250 754.897,114.229 754.891,105.384 " />
<polygon points="1.527,9.420 1.521,18.819 19.108,28.800 19.045,24.741 " />
<polygon points="860.943,125.460 860.914,116.060 843.043,106.362 843.056,110.435 " />
<polygon points="303.511,400.935 289.736,395.111 284.312,418.572 " />
<polygon points="289.736,395.111 285.387,393.272 284.312,418.572 " />
<polygon points="803.983,686.714 792.268,677.538 771.640,702.110 " />
<polygon points="792.268,677.538 788.569,674.640 771.640,702.110 " />
<polygon points="75.942,9.432 75.839,43.225 124.842,43.316 124.945,9.635 " />
<polygon points="75.839,43.225 75.806,53.897 124.810,53.952 124.842,43.316 " />
<polygon points="0.000,1024.000 0.000,1024.000 0.000,1024.000 0.000,1024.000 " />
<polygon points="0.000,1024.000 0.000,1024.000 0.000,1024.000 0.000,1024.000 " />
<polygon points="0.000,1024.000 0.000,1024.000 0.000,1024.000 0.000,1024.000 " />
<polygon points="0.000,1024.000 0.000,1024.000 0.000,1024.000 0.000,1024.000 " />
<polygon points="0.000,1024.000 0.000,1024.000 0.000,1024.000 0.000,1024.000 " />
<polygon points="0.000,1024.000 0.000,1024.000 0.000,1024.000 0.000,1024.000 " />
<polygon points="0.000,1024.000 0.000,1024.000 0.000,1024.000 0.000,1024.000 " />
<polygon points="0.000,1024.000 0.000,1024.000 0.000,1024.000 0.000,1024.000 " />
<polygon points="501.501,31.691 500.231,36.260 512.351,33.436 513.621,28.867 " />
<polygon points="500.231,36.260 496.211,50.726 508.331,47.902 512.351,33.436 " />
<polygon points="742.303,164.804 742.302,196.599 754.922,198.579 754.924,166.784 " />
<polygon points="742.302,196.599 742.301,206.640 754.921,208.620 754.922,198.579 " />
<polygon points="584.502,13.629 582.925,18.069 595.207,16.073 596.784,11.633 " />
<polygon points="582.925,18.069 577.931,32.128 590.213,30.132 595.207,16.073 " />
<polygon points="742.277,112.250 742.297,143.942 754.918,145.922 754.897,114.229 " />
<polygon points="742.297,143.942 742.304,153.950 754.924,155.930 754.918,145.922 " />
<polygon points="1.521,18.819 1.498,52.493 19.333,43.342 19.108,28.800 " />
<polygon points="1.498,52.493 1.491,63.127 19.404,47.935 19.333,43.342 " />
<polygon points="860.914,116.060 860.811,82.379 842.999,91.772 843.043,106.362 " />
<polygon points="860.811,82.379 860.779,71.743 842.985,87.164 842.999,91.772 " />
<polygon points="486.996,24.715 466.678,28.745 466.627,50.937 486.945,46.907 " />
<polygon points="495.305,546.110 490.595,544.160 487.284,566.610 491.995,568.559 " />
<polygon points="932.143,451.248 937.225,450.226 938.914,427.910 933.832,428.932 " />
<polygon points="354.350,30.081 354.333,52.155 376.218,48.042 376.235,25.967 " />
<polygon points="343.921,540.511 339.912,544.105 342.160,566.181 346.169,562.588 " />
<polygon points="900.462,247.639 904.951,250.069 902.693,227.399 898.204,224.969 " />
<polygon points="432.358,49.828 454.268,50.937 454.251,28.557 432.341,27.447 " />
<polygon points="752.156,822.019 747.132,820.482 743.641,842.395 748.665,843.931 " />
<polygon points="892.552,660.866 897.655,659.842 897.687,637.058 892.585,638.082 " />
<polygon points="954.774,990.299 954.801,1011.256 975.639,1018.588 975.612,997.631 " />
<polygon points="916.553,814.833 911.809,817.110 909.668,839.703 914.412,837.425 " />
<polygon points="941.530,450.188 946.290,452.313 944.158,430.036 939.398,427.911 " />
<polygon points="823.012,990.790 801.213,992.407 801.285,1015.102 823.084,1013.485 " />
<polygon points="493.449,77.548 513.081,79.698 513.113,56.914 493.482,54.764 " />
<polygon points="737.855,181.447 716.364,185.925 716.367,208.620 737.858,204.142 " />
<polygon points="823.839,83.390 842.824,88.364 842.787,65.580 823.802,60.606 " />
<polygon points="514.601,205.920 514.573,228.463 519.981,228.506 520.009,205.963 " />
<polygon points="945.045,325.175 945.055,303.237 940.482,303.942 940.472,325.880 " />
<polygon points="269.653,114.202 269.664,136.550 274.990,136.378 274.978,114.029 " />
<polygon points="949.639,325.870 949.628,303.942 945.055,303.237 945.066,325.165 " />
<polygon points="976.086,639.967 976.134,703.414 995.362,700.505 995.313,637.058 " />
<polygon points="976.446,882.702 976.551,947.294 1001.137,947.260 1001.031,882.668 " />
<polygon points="1001.031,882.668 1001.137,947.260 1018.092,947.441 1017.987,882.849 " />
<polygon points="995.025,768.965 995.018,704.626 970.524,704.826 970.531,769.165 " />
<polygon points="970.531,769.165 970.524,704.826 951.647,703.414 951.655,767.753 " />
<polygon points="758.821,64.838 758.774,1.925 734.203,1.705 734.250,64.618 " />
<polygon points="734.250,64.618 734.203,1.705 716.093,5.511 716.140,68.424 " />
<polygon points="951.647,639.466 951.696,702.913 976.134,703.414 976.086,639.967 " />
<polygon points="124.974,157.051 124.497,100.326 72.284,106.843 73.271,145.452 " />
<polygon points="652.502,177.690 652.628,103.899 650.413,108.588 650.316,172.987 " />
<polygon points="486.912,50.937 435.606,62.617 432.341,110.157 483.315,116.338 " />
<polygon points="974.081,914.948 973.600,958.662 975.936,963.676 976.446,910.173 " />
<polygon points="907.409,27.454 924.783,44.940 928.747,43.289 909.049,23.465 " />
<polygon points="924.783,44.940 924.799,69.654 928.765,71.309 928.747,43.289 " />
<polygon points="924.799,69.654 907.448,87.118 909.093,91.110 928.765,71.309 " />
<polygon points="907.448,87.118 882.894,87.103 881.254,91.093 909.093,91.110 " />
<polygon points="882.894,87.103 865.520,69.618 861.557,71.268 881.254,91.093 " />
<polygon points="865.520,69.618 865.504,44.904 861.539,43.249 861.557,71.268 " />
<polygon points="865.504,44.904 882.855,27.439 881.211,23.448 861.539,43.249 " />
<polygon points="882.855,27.439 907.409,27.454 909.049,23.465 881.211,23.448 " />
<polygon points="823.412,38.546 825.486,60.606 857.456,52.009 856.051,37.062 " />
<polygon points="296.011,93.759 296.229,65.742 265.381,70.293 265.233,89.277 " />
<polygon points="296.229,65.742 296.610,46.422 265.639,57.203 265.381,70.293 " />
<polygon points="954.774,990.329 927.003,990.299 930.237,1020.300 949.055,1020.321 " />
<polygon points="992.829,325.880 988.359,344.883 1020.957,349.535 1023.986,336.659 " />
<polygon points="988.359,344.883 988.368,372.885 1020.963,368.508 1020.957,349.535 " />
<polygon points="988.368,372.885 992.850,393.484 1024.000,382.465 1020.963,368.508 " />
<polygon points="825.507,10.769 823.412,38.546 856.051,37.062 857.470,18.241 " />
<polygon points="231.917,53.911 250.803,53.914 247.851,46.750 234.868,46.748 " />
<polygon points="250.803,53.914 264.155,40.489 257.030,37.520 247.851,46.750 " />
<polygon points="264.155,40.489 264.152,21.500 257.028,24.466 257.030,37.520 " />
<polygon points="264.152,21.500 250.796,8.071 247.846,15.234 257.028,24.466 " />
<polygon points="250.796,8.071 231.911,8.068 234.863,15.232 247.846,15.234 " />
<polygon points="231.911,8.068 218.559,21.493 225.684,24.461 234.863,15.232 " />
<polygon points="218.559,21.493 218.561,40.482 225.686,37.516 225.684,24.461 " />
<polygon points="218.561,40.482 231.917,53.911 234.868,46.748 225.686,37.516 " />
<polygon points="945.376,880.668 955.345,881.413 955.340,840.449 945.371,839.703 " />
<polygon points="955.375,881.654 968.351,881.770 968.321,841.713 955.345,841.597 " />
<polygon points="968.351,881.770 977.915,879.760 977.885,839.703 968.321,841.713 " />
<polygon points="932.405,839.968 919.499,839.703 919.530,880.100 932.436,880.365 " />
<polygon points="919.499,839.703 909.345,841.239 909.376,881.636 919.530,880.100 " />
<polygon points="999.853,839.781 986.870,839.798 986.937,880.924 999.920,880.907 " />
<polygon points="986.870,839.798 977.915,839.703 977.982,880.829 986.937,880.924 " />
<polygon points="932.441,880.773 945.376,880.668 945.371,839.703 932.436,839.809 " />
</g>
</svg>