<?xml version="1.0" encoding="UTF-8" standalone="no"?>
<svg
   xmlns:dc="http://purl.org/dc/elements/1.1/"
   xmlns:cc="http://creativecommons.org/ns#"
   xmlns:rdf="http://www.w3.org/1999/02/22-rdf-syntax-ns#"
   xmlns:svg="http://www.w3.org/2000/svg"
   xmlns="http://www.w3.org/2000/svg"
   xmlns:sodipodi="http://sodipodi.sourceforge.net/DTD/sodipodi-0.dtd"
   xmlns:inkscape="http://www.inkscape.org/namespaces/inkscape"
   sodipodi:docname="preacher3_Cube.001.svg"
   inkscape:version="0.47pre4 r22446"
   id="svg2"
   version="1.1"
   viewBox="0 0 512 512"
   height="512px"
   width="512px"
   inkscape:export-filename="/home/brutkasten/Dokumente/naev/blender/schiffe/preacher3_Cube.png"
   inkscape:export-xdpi="90"
   inkscape:export-ydpi="90">
  <sodipodi:namedview
     pagecolor="#ffffff"
     bordercolor="#666666"
     borderopacity="1"
     objecttolerance="10"
     gridtolerance="10"
     guidetolerance="10"
     inkscape:pageopacity="0"
     inkscape:pageshadow="2"
     inkscape:window-width="1895"
     inkscape:window-height="1003"
     id="namedview174"
     showgrid="false"
     inkscape:zoom="1.84375"
     inkscape:cx="234.87766"
     inkscape:cy="174.5413"
     inkscape:window-x="0"
     inkscape:window-y="25"
     inkscape:window-maximized="1"
     inkscape:current-layer="svg2" />
  <metadata
     id="metadata178">
    <rdf:RDF>
      <cc:Work
         rdf:about="">
        <dc:format>image/svg+xml</dc:format>
        <dc:type
           rdf:resource="http://purl.org/dc/dcmitype/StillImage" />
        <dc:title></dc:title>
      </cc:Work>
    </rdf:RDF>
  </metadata>
  <defs
     id="defs176">
    <inkscape:perspective
       id="perspective180"
       inkscape:persp3d-origin="256 : 170.66667 : 1"
       inkscape:vp_z="512 : 256 : 1"
       inkscape:vp_y="0 : 1000 : 0"
       inkscape:vp_x="0 : 256 : 1"
       sodipodi:type="inkscape:persp3d" />
    <inkscape:perspective
       sodipodi:type="inkscape:persp3d"
       inkscape:vp_x="0 : 526.18109 : 1"
       inkscape:vp_y="0 : 1000 : 0"
       inkscape:vp_z="744.09448 : 526.18109 : 1"
       inkscape:persp3d-origin="372.04724 : 350.78739 : 1"
       id="perspective10" />
    <inkscape:perspective
       sodipodi:type="inkscape:persp3d"
       inkscape:vp_x="0 : 0.5 : 1"
       inkscape:vp_y="0 : 1000 : 0"
       inkscape:vp_z="1 : 0.5 : 1"
       inkscape:persp3d-origin="0.5 : 0.33333333 : 1"
       id="perspective5212" />
    <inkscape:perspective
       id="perspective6071"
       inkscape:persp3d-origin="0.5 : 0.33333333 : 1"
       inkscape:vp_z="1 : 0.5 : 1"
       inkscape:vp_y="0 : 1000 : 0"
       inkscape:vp_x="0 : 0.5 : 1"
       sodipodi:type="inkscape:persp3d" />
  </defs>
  <desc
     id="desc4">UV-Map from Object: Cube.001. Exported from Blender3D with UV Exportscript</desc>
  <rect
     style="fill:none"
     id="rect6"
     stroke-width="1px"
     stroke="blue"
     fill="none"
     height="512"
     width="512"
     y="0"
     x="0" />
  <g
     id="g8"
     style="fill:none;stroke:black;stroke-width:1px">
    <polygon
       style="fill:none"
       id="polygon10"
       points="355.843,254.792 358.685,255.112 363.329,213.368 352.633,212.447 " />
    <polygon
       style="fill:none"
       id="polygon12"
       points="351.502,297.791 362.203,296.916 357.846,255.112 355.007,255.422 " />
    <polygon
       style="fill:none"
       id="polygon14"
       points="19.994,493.373 17.259,493.399 17.308,511.992 20.044,512.000 " />
    <polygon
       style="fill:none"
       id="polygon16"
       points="362.203,296.916 351.502,297.791 359.883,324.409 362.904,324.218 " />
    <polygon
       style="fill:none"
       id="polygon18"
       points="352.633,212.447 363.329,213.368 365.208,186.814 360.807,185.800 " />
    <polygon
       style="fill:none"
       id="polygon20"
       points="360.807,185.800 365.208,186.814 384.569,86.031 366.772,86.999 " />
    <polygon
       style="fill:none"
       id="polygon22"
       points="362.904,324.218 359.883,324.409 365.523,423.167 383.358,424.210 " />
    <polygon
       style="fill:none"
       id="polygon24"
       points="101.058,512.000 118.528,510.303 118.448,469.930 100.942,468.359 " />
    <polygon
       style="fill:none"
       id="polygon26"
       points="389.291,22.379 371.894,17.957 354.883,35.765 373.724,37.198 " />
    <polygon
       style="fill:none"
       id="polygon28"
       points="366.772,86.999 384.569,86.031 371.180,71.359 352.391,69.517 " />
    <polygon
       style="fill:none"
       id="polygon30"
       points="352.391,69.517 371.180,71.359 373.724,37.198 354.883,35.765 " />
    <polygon
       style="fill:none"
       id="polygon32"
       points="370.577,492.350 388.015,487.962 372.689,473.030 353.715,474.415 " />
    <polygon
       style="fill:none"
       id="polygon34"
       points="383.358,424.210 365.523,423.167 351.250,440.669 370.195,438.884 " />
    <polygon
       style="fill:none"
       id="polygon36"
       points="370.195,438.884 351.250,440.669 353.715,474.415 372.689,473.030 " />
    <polygon
       style="fill:none"
       id="polygon38"
       points="449.426,106.594 464.181,109.059 464.181,109.059 441.869,3.218 " />
    <polygon
       style="fill:none"
       id="polygon40"
       points="477.462,257.665 447.186,257.735 447.292,361.138 477.568,361.067 " />
    <polygon
       style="fill:none"
       id="polygon42"
       points="489.347,255.119 477.462,257.665 477.568,361.067 492.128,255.112 " />
    <polygon
       style="fill:none"
       id="polygon44"
       points="477.482,489.841 489.305,492.318 492.085,492.350 478.334,386.444 " />
    <polygon
       style="fill:none"
       id="polygon46"
       points="447.186,489.630 477.482,489.841 478.334,386.444 448.037,386.233 " />
    <polygon
       style="fill:none"
       id="polygon48"
       points="464.260,149.432 449.249,151.686 442.252,255.112 464.260,149.432 " />
    <polygon
       style="fill:none"
       id="polygon50"
       points="0.000,512.000 0.000,512.000 0.000,512.000 0.000,512.000 " />
    <polygon
       style="fill:none"
       id="polygon52"
       points="384.569,86.031 365.208,186.814 365.208,186.814 384.337,89.167 " />
    <polygon
       style="fill:none"
       id="polygon54"
       points="362.904,324.218 383.358,424.210 383.129,421.073 368.282,323.061 " />
    <polygon
       style="fill:none"
       id="polygon56"
       points="0.000,512.000 0.000,512.000 0.000,512.000 0.000,512.000 " />
    <polygon
       style="fill:none"
       id="polygon58"
       points="362.203,296.916 362.904,324.218 368.282,323.061 362.203,296.916 " />
    <polygon
       style="fill:none"
       id="polygon60"
       points="3.560,510.215 3.536,491.587 3.070,489.804 3.098,512.000 " />
    <polygon
       style="fill:none"
       id="polygon62"
       points="25.179,468.738 25.215,512.000 25.215,512.000 26.524,469.802 " />
    <polygon
       style="fill:none"
       id="polygon64"
       points="33.610,468.738 33.612,512.000 34.956,510.934 33.610,468.738 " />
    <polygon
       style="fill:none"
       id="polygon66"
       points="363.329,213.368 358.799,254.450 362.535,254.442 374.007,215.172 " />
    <polygon
       style="fill:none"
       id="polygon68"
       points="357.928,255.783 362.203,296.916 373.209,294.721 361.662,255.803 " />
    <polygon
       style="fill:none"
       id="polygon70"
       points="45.941,489.804 46.001,512.000 49.666,511.872 49.607,489.906 " />
    <polygon
       style="fill:none"
       id="polygon72"
       points="362.203,296.916 368.282,323.061 376.344,319.110 373.209,294.721 " />
    <polygon
       style="fill:none"
       id="polygon74"
       points="365.208,186.814 363.329,213.368 374.007,215.172 377.263,191.155 " />
    <polygon
       style="fill:none"
       id="polygon76"
       points="368.282,323.061 383.129,421.073 402.555,428.684 376.344,319.110 " />
    <polygon
       style="fill:none"
       id="polygon78"
       points="384.337,89.167 365.208,186.814 377.263,191.155 403.699,81.645 " />
    <polygon
       style="fill:none"
       id="polygon80"
       points="464.181,109.059 464.260,149.432 473.830,143.521 473.771,114.868 " />
    <polygon
       style="fill:none"
       id="polygon82"
       points="464.260,149.432 442.252,255.112 445.376,255.007 473.830,143.521 " />
    <polygon
       style="fill:none"
       id="polygon84"
       points="39.216,477.717 39.262,512.000 42.387,511.963 42.345,477.725 " />
    <polygon
       style="fill:none"
       id="polygon86"
       points="438.901,135.911 424.520,242.118 441.869,255.112 441.721,137.112 " />
    <polygon
       style="fill:none"
       id="polygon88"
       points="199.555,405.725 214.247,512.000 216.792,510.913 216.917,392.767 " />
    <polygon
       style="fill:none"
       id="polygon90"
       points="34.965,477.737 34.962,512.000 37.782,511.992 37.784,477.770 " />
    <polygon
       style="fill:none"
       id="polygon92"
       points="441.869,3.218 464.181,109.059 473.771,114.868 444.687,3.296 " />
    <polygon
       style="fill:none"
       id="polygon94"
       points="203.954,266.781 187.563,255.112 166.209,286.354 192.047,304.747 " />
    <polygon
       style="fill:none"
       id="polygon96"
       points="192.047,304.747 166.209,286.354 159.030,310.918 172.143,320.253 " />
    <polygon
       style="fill:none"
       id="polygon98"
       points="172.143,320.253 159.030,310.918 103.024,401.928 124.399,417.158 " />
    <polygon
       style="fill:none"
       id="polygon100"
       points="124.399,417.158 103.024,401.928 80.571,442.590 101.957,457.802 " />
    <polygon
       style="fill:none"
       id="polygon102"
       points="124.399,417.158 101.957,457.802 187.818,512.000 203.992,482.976 " />
    <polygon
       style="fill:none"
       id="polygon104"
       points="80.571,442.590 103.024,401.928 16.059,349.192 0.000,378.274 " />
    <polygon
       style="fill:none"
       id="polygon106"
       points="252.285,508.020 266.691,512.000 266.691,512.000 266.524,405.557 " />
    <polygon
       style="fill:none"
       id="polygon108"
       points="322.232,254.952 352.145,255.112 352.391,151.711 322.478,151.551 " />
    <polygon
       style="fill:none"
       id="polygon110"
       points="233.438,147.342 214.596,153.585 233.229,255.112 233.438,147.342 " />
    <polygon
       style="fill:none"
       id="polygon112"
       points="427.489,490.937 447.186,492.350 447.186,492.350 427.483,387.230 " />
    <polygon
       style="fill:none"
       id="polygon114"
       points="351.250,408.598 321.325,408.500 321.272,511.902 351.197,512.000 " />
    <polygon
       style="fill:none"
       id="polygon116"
       points="268.979,148.834 254.428,152.699 268.944,255.112 268.979,148.834 " />
    <polygon
       style="fill:none"
       id="polygon118"
       points="0.000,512.000 0.000,512.000 0.000,512.000 0.000,512.000 " />
    <polygon
       style="fill:none"
       id="polygon120"
       points="0.000,512.000 0.000,512.000 0.000,512.000 0.000,512.000 " />
    <polygon
       style="fill:none"
       id="polygon122"
       points="0.000,512.000 0.000,512.000 0.000,512.000 0.000,512.000 " />
    <polygon
       style="fill:none"
       id="polygon124"
       points="0.000,512.000 0.000,512.000 0.000,512.000 0.000,512.000 " />
    <polygon
       style="fill:none"
       id="polygon126"
       points="0.000,512.000 0.000,512.000 0.000,512.000 0.000,512.000 " />
    <polygon
       style="fill:none"
       id="polygon128"
       points="9.320,512.000 9.976,468.454 9.238,467.843 9.320,512.000 " />
    <polygon
       style="fill:none"
       id="polygon130"
       points="0.000,493.407 0.023,512.000 0.264,510.998 0.243,494.408 " />
    <polygon
       style="fill:none"
       id="polygon132"
       points="5.341,511.385 4.650,467.789 4.650,467.789 4.605,512.000 " />
    <polygon
       style="fill:none"
       id="polygon134"
       points="511.975,423.710 505.647,381.422 492.128,383.735 507.039,422.954 " />
    <polygon
       style="fill:none"
       id="polygon136"
       points="33.040,512.000 32.995,495.410 28.412,495.605 28.455,511.837 " />
    <polygon
       style="fill:none"
       id="polygon138"
       points="487.196,128.905 493.721,86.593 488.796,87.349 473.830,126.626 " />
    <polygon
       style="fill:none"
       id="polygon140"
       points="493.828,156.151 487.196,128.905 473.830,126.626 488.033,155.109 " />
    <polygon
       style="fill:none"
       id="polygon142"
       points="505.647,381.422 512.000,354.142 506.194,355.183 492.128,383.735 " />
    <polygon
       style="fill:none"
       id="polygon144"
       points="512.000,354.142 511.279,255.112 498.550,256.649 506.194,355.183 " />
    <polygon
       style="fill:none"
       id="polygon146"
       points="493.055,255.112 493.828,156.151 488.033,155.109 480.335,253.587 " />
    <polygon
       style="fill:none"
       id="polygon148"
       points="309.513,408.821 309.397,365.180 296.536,366.218 296.670,407.870 " />
    <polygon
       style="fill:none"
       id="polygon150"
       points="235.142,512.000 235.075,406.722 233.429,406.549 222.555,510.172 " />
    <polygon
       style="fill:none"
       id="polygon152"
       points="12.505,512.000 12.529,478.130 10.818,478.198 10.796,511.975 " />
    <polygon
       style="fill:none"
       id="polygon154"
       points="286.036,512.000 309.513,408.821 296.670,407.870 284.313,511.810 " />
    <polygon
       style="fill:none"
       id="polygon156"
       points="309.397,365.180 285.491,261.823 283.656,262.036 296.536,366.218 " />
    <polygon
       style="fill:none"
       id="polygon158"
       points="24.473,512.000 24.475,478.138 22.658,478.158 22.655,511.921 " />
    <polygon
       style="fill:none"
       id="polygon160"
       points="1.993,255.112 12.707,150.367 0.000,150.524 0.230,255.065 " />
    <polygon
       style="fill:none"
       id="polygon162"
       points="189.458,0.000 167.023,30.080 187.580,44.894 201.529,8.699 " />
    <polygon
       style="fill:none"
       id="polygon164"
       points="187.580,44.894 167.023,30.080 156.345,56.532 170.572,66.784 " />
    <polygon
       style="fill:none"
       id="polygon166"
       points="170.572,66.784 156.345,56.532 101.695,133.236 132.697,155.504 " />
    <polygon
       style="fill:none"
       id="polygon168"
       points="132.697,155.504 101.695,133.236 68.963,191.793 99.907,214.165 " />
    <polygon
       style="fill:none"
       id="polygon170"
       points="68.963,191.793 101.695,133.236 15.886,92.588 0.000,121.283 " />
    <polygon
       style="fill:none"
       id="polygon172"
       points="132.697,155.504 99.907,214.165 185.744,255.112 201.731,226.512 " />
  </g>
  <g
     inkscape:label="Layer 1"
     id="layer1"
     transform="matrix(-0.1086407,-0.06272374,0.06272374,-0.1086407,198.44174,76.859201)"
     style="fill:#000000">
    <path
       sodipodi:type="arc"
       style="fill:#000000;fill-rule:evenodd;stroke:#000000;stroke-width:1px;stroke-linecap:butt;stroke-linejoin:miter;stroke-opacity:1"
       id="path2385"
       sodipodi:cx="348.50262"
       sodipodi:cy="335.65897"
       sodipodi:rx="14.142136"
       sodipodi:ry="14.142136"
       d="m 362.64476,335.65897 c 0,7.81048 -6.33165,14.14213 -14.14214,14.14213 -7.81048,0 -14.14213,-6.33165 -14.14213,-14.14213 0,-7.81049 6.33165,-14.14214 14.14213,-14.14214 7.81049,0 14.14214,6.33165 14.14214,14.14214 z"
       transform="matrix(0.9310106,0,0,0.9310106,-7.2717323,2.4487929)" />
    <path
       style="fill:#333333;fill-rule:evenodd;stroke:#000000;stroke-width:1px;stroke-linecap:butt;stroke-linejoin:miter;stroke-opacity:1"
       d="m 265.16504,417.98638 c 5.21513,-70.51309 -1.83928,-180.18863 89.3985,-119.70307 -99.20969,-141.48457 -103.77684,61.16802 -89.3985,119.70307 z"
       id="path2387"
       sodipodi:nodetypes="ccc" />
    <path
       style="fill:#000000;fill-rule:evenodd;stroke:#000000;stroke-width:1px;stroke-linecap:butt;stroke-linejoin:miter;stroke-opacity:1"
       d="m 265.67012,418.99654 c -46.35871,-115.7233 24.78886,-280.4973 89.3985,-120.71323 -88.0278,-101.4989 -106.22136,45.4908 -89.3985,120.71323 z"
       id="path2383"
       sodipodi:nodetypes="ccc" />
  </g>
  <g
     inkscape:label="Layer 1"
     id="layer1-6"
     transform="matrix(-0.14041557,-0.07462943,0.07462943,-0.14041557,205.30337,346.79615)"
     style="fill:#000000">
    <path
       sodipodi:type="arc"
       style="fill:#000000;fill-rule:evenodd;stroke:#000000;stroke-width:1px;stroke-linecap:butt;stroke-linejoin:miter;stroke-opacity:1"
       id="path2385-9"
       sodipodi:cx="348.50262"
       sodipodi:cy="335.65897"
       sodipodi:rx="14.142136"
       sodipodi:ry="14.142136"
       d="m 362.64476,335.65897 c 0,7.81048 -6.33165,14.14213 -14.14214,14.14213 -7.81048,0 -14.14213,-6.33165 -14.14213,-14.14213 0,-7.81049 6.33165,-14.14214 14.14213,-14.14214 7.81049,0 14.14214,6.33165 14.14214,14.14214 z"
       transform="matrix(0.9310106,0,0,0.9310106,-7.2717323,2.4487929)" />
    <path
       style="fill:#333333;fill-rule:evenodd;stroke:#000000;stroke-width:1px;stroke-linecap:butt;stroke-linejoin:miter;stroke-opacity:1"
       d="m 265.16504,417.98638 c 5.21513,-70.51309 -1.83928,-180.18863 89.3985,-119.70307 -99.20969,-141.48457 -103.77684,61.16802 -89.3985,119.70307 z"
       id="path2387-1"
       sodipodi:nodetypes="ccc" />
    <path
       style="fill:#000000;fill-rule:evenodd;stroke:#000000;stroke-width:1px;stroke-linecap:butt;stroke-linejoin:miter;stroke-opacity:1"
       d="m 265.67012,418.99654 c -46.35871,-115.7233 24.78886,-280.4973 89.3985,-120.71323 -88.0278,-101.4989 -106.22136,45.4908 -89.3985,120.71323 z"
       id="path2383-0"
       sodipodi:nodetypes="ccc" />
  </g>
  <g
     style="fill:#000000"
     id="barcode"
     transform="matrix(0.43423571,0.30794704,-0.30794704,0.43423571,71.543826,145.88988)">
    <rect
       id="barcode_bar1"
       height="38"
       width="1"
       y="387"
       x="436" />
    <rect
       id="barcode_bar3"
       height="38"
       width="1"
       y="387"
       x="438" />
    <rect
       id="barcode_bar5"
       height="30"
       width="1"
       y="387"
       x="440" />
    <rect
       id="barcode_bar7"
       height="30"
       width="4"
       y="387"
       x="442" />
    <rect
       id="barcode_bar9"
       height="30"
       width="2"
       y="387"
       x="447" />
    <rect
       id="barcode_bar11"
       height="30"
       width="1"
       y="387"
       x="452" />
    <rect
       id="barcode_bar13"
       height="30"
       width="1"
       y="387"
       x="454" />
    <rect
       id="barcode_bar15"
       height="30"
       width="4"
       y="387"
       x="456" />
    <rect
       id="barcode_bar17"
       height="30"
       width="3"
       y="387"
       x="461" />
    <rect
       id="barcode_bar19"
       height="30"
       width="2"
       y="387"
       x="465" />
    <rect
       id="barcode_bar21"
       height="38"
       width="1"
       y="387"
       x="468" />
    <rect
       id="barcode_bar23"
       height="38"
       width="1"
       y="387"
       x="470" />
    <rect
       id="barcode_bar25"
       height="30"
       width="1"
       y="387"
       x="472" />
    <rect
       id="barcode_bar27"
       height="30"
       width="3"
       y="387"
       x="475" />
    <rect
       id="barcode_bar29"
       height="30"
       width="1"
       y="387"
       x="479" />
    <rect
       id="barcode_bar31"
       height="30"
       width="1"
       y="387"
       x="481" />
    <rect
       id="barcode_bar33"
       height="30"
       width="1"
       y="387"
       x="486" />
    <rect
       id="barcode_bar35"
       height="30"
       width="1"
       y="387"
       x="490" />
    <rect
       id="barcode_bar37"
       height="30"
       width="1"
       y="387"
       x="493" />
    <rect
       id="barcode_bar39"
       height="30"
       width="3"
       y="387"
       x="496" />
    <rect
       id="barcode_bar41"
       height="30"
       width="1"
       y="387"
       x="500" />
    <rect
       id="barcode_bar43"
       height="30"
       width="1"
       y="387"
       x="502" />
    <rect
       id="barcode_bar45"
       height="38"
       width="1"
       y="387"
       x="507" />
    <rect
       id="barcode_bar47"
       height="38"
       width="1"
       y="387"
       x="509" />
  </g>
  <g
     style="fill:#000000"
     id="barcode-7"
     transform="matrix(0.43423571,0.30794704,-0.30794704,0.43423571,-33.350044,71.634572)">
    <rect
       id="barcode_bar1-3"
       height="38"
       width="1"
       y="387"
       x="436" />
    <rect
       id="barcode_bar3-4"
       height="38"
       width="1"
       y="387"
       x="438" />
    <rect
       id="barcode_bar5-7"
       height="30"
       width="1"
       y="387"
       x="440" />
    <rect
       id="barcode_bar7-2"
       height="30"
       width="4"
       y="387"
       x="442" />
    <rect
       id="barcode_bar9-1"
       height="30"
       width="2"
       y="387"
       x="447" />
    <rect
       id="barcode_bar11-7"
       height="30"
       width="1"
       y="387"
       x="452" />
    <rect
       id="barcode_bar13-9"
       height="30"
       width="1"
       y="387"
       x="454" />
    <rect
       id="barcode_bar15-5"
       height="30"
       width="4"
       y="387"
       x="456" />
    <rect
       id="barcode_bar17-6"
       height="30"
       width="3"
       y="387"
       x="461" />
    <rect
       id="barcode_bar19-8"
       height="30"
       width="2"
       y="387"
       x="465" />
    <rect
       id="barcode_bar21-9"
       height="38"
       width="1"
       y="387"
       x="468" />
    <rect
       id="barcode_bar23-5"
       height="38"
       width="1"
       y="387"
       x="470" />
    <rect
       id="barcode_bar25-5"
       height="30"
       width="1"
       y="387"
       x="472" />
    <rect
       id="barcode_bar27-2"
       height="30"
       width="3"
       y="387"
       x="475" />
    <rect
       id="barcode_bar29-1"
       height="30"
       width="1"
       y="387"
       x="479" />
    <rect
       id="barcode_bar31-5"
       height="30"
       width="1"
       y="387"
       x="481" />
    <rect
       id="barcode_bar33-9"
       height="30"
       width="1"
       y="387"
       x="486" />
    <rect
       id="barcode_bar35-9"
       height="30"
       width="1"
       y="387"
       x="490" />
    <rect
       id="barcode_bar37-1"
       height="30"
       width="1"
       y="387"
       x="493" />
    <rect
       id="barcode_bar39-6"
       height="30"
       width="3"
       y="387"
       x="496" />
    <rect
       id="barcode_bar41-2"
       height="30"
       width="1"
       y="387"
       x="500" />
    <rect
       id="barcode_bar43-1"
       height="30"
       width="1"
       y="387"
       x="502" />
    <rect
       id="barcode_bar45-0"
       height="38"
       width="1"
       y="387"
       x="507" />
    <rect
       id="barcode_bar47-5"
       height="38"
       width="1"
       y="387"
       x="509" />
  </g>
</svg>
