<?xml version="1.0"?>
<!DOCTYPE svg PUBLIC "-//W3C//DTD SVG 1.1//EN" "http://www.w3.org/Graphics/SVG/1.1/DTD/svg11.dtd">
<svg width="1024px" height="1024px" viewBox="0 0 1024 1024" xmlns="http://www.w3.org/2000/svg" version="1.1">
<desc>UV-Map from Object: Circle.011. Exported from Blender3D with UV Exportscript</desc>
<rect x="0" y="0" width="1024" height="1024" fill="none" stroke="blue" stroke-width="1px" />
<g style="fill:none; stroke:black; stroke-width:1px;">
<polygon points="444.517,762.593 421.718,762.956 439.707,1024.000 453.996,1023.773 " />
<polygon points="421.718,762.956 400.212,762.094 426.228,1023.459 439.707,1024.000 " />
<polygon points="0.338,545.575 24.071,545.605 39.385,284.027 24.511,284.008 " />
<polygon points="476.719,762.125 444.517,762.593 453.996,1023.773 474.179,1023.479 " />
<polygon points="24.071,545.605 57.331,545.611 60.231,284.031 39.385,284.027 " />
<polygon points="608.946,760.613 569.555,760.440 576.570,1023.621 601.258,1023.730 " />
<polygon points="276.332,548.288 313.814,547.152 305.540,284.322 282.049,285.033 " />
<polygon points="349.162,546.283 360.122,545.771 336.777,343.401 329.908,343.722 " />
<polygon points="302.622,157.422 302.618,132.557 277.796,107.675 252.978,107.658 " />
<polygon points="252.495,181.756 272.845,177.294 233.129,137.483 228.666,157.869 " />
<polygon points="238.072,185.340 252.495,181.756 228.666,157.869 225.081,172.318 " />
<polygon points="362.284,604.318 360.122,545.771 349.162,546.283 351.324,604.830 " />
<polygon points="351.324,604.830 351.564,611.335 362.524,610.823 362.284,604.318 " />
<polygon points="276.332,548.288 278.494,606.835 315.976,605.700 313.814,547.152 " />
<polygon points="278.494,606.835 278.735,613.341 316.216,612.205 315.976,605.700 " />
<polygon points="608.946,760.613 608.977,702.051 569.586,701.878 569.555,760.440 " />
<polygon points="608.977,702.051 608.980,695.544 569.589,695.371 569.586,701.878 " />
<polygon points="24.071,545.605 24.012,604.160 57.273,604.166 57.331,545.611 " />
<polygon points="24.012,604.160 24.006,610.666 57.266,610.673 57.273,604.166 " />
<polygon points="476.719,762.125 476.567,703.588 444.365,704.057 444.517,762.593 " />
<polygon points="476.567,703.588 476.550,697.084 444.348,697.553 444.365,704.057 " />
<polygon points="0.338,545.575 0.280,604.130 24.012,604.160 24.071,545.605 " />
<polygon points="421.718,762.956 421.566,704.420 400.060,703.557 400.212,762.094 " />
<polygon points="421.566,704.420 421.549,697.916 400.043,697.053 400.060,703.557 " />
<polygon points="444.517,762.593 444.365,704.057 421.566,704.420 421.718,762.956 " />
<polygon points="313.814,547.152 338.557,546.543 323.262,343.885 305.540,284.322 " />
<polygon points="637.987,760.501 608.946,760.613 601.258,1023.730 619.491,963.698 " />
<polygon points="337.521,343.219 337.041,282.850 305.540,284.322 323.262,343.885 " />
<polygon points="638.019,701.938 608.977,702.051 608.946,760.613 637.987,760.501 " />
<polygon points="638.022,695.431 608.980,695.544 608.977,702.051 638.019,701.938 " />
<polygon points="315.976,605.700 340.720,605.091 338.557,546.543 313.814,547.152 " />
<polygon points="316.216,612.205 340.960,611.596 340.720,605.091 315.976,605.700 " />
<polygon points="175.635,50.718 179.131,31.652 169.135,32.679 165.639,51.745 " />
<polygon points="760.724,607.414 771.759,601.731 777.544,587.955 " />
<polygon points="771.759,601.731 817.315,578.274 811.636,573.115 777.544,587.955 " />
<polygon points="956.010,388.432 956.011,359.197 951.913,356.358 951.911,385.593 " />
<polygon points="833.554,463.201 790.508,445.955 791.144,451.561 834.191,468.808 " />
<polygon points="790.508,445.955 780.080,441.777 780.717,447.384 791.144,451.561 " />
<polygon points="666.877,328.903 683.507,348.482 684.982,326.908 673.838,321.423 " />
<polygon points="683.507,348.482 717.886,362.713 730.986,349.551 684.982,326.908 " />
<polygon points="179.151,68.140 175.635,50.718 165.639,51.745 169.155,69.167 " />
<polygon points="817.315,578.274 848.103,542.752 833.717,547.639 811.636,573.115 " />
<polygon points="848.103,542.752 856.042,533.592 833.717,547.639 " />
<polygon points="959.890,385.195 959.978,356.358 956.100,358.220 956.011,387.058 " />
<polygon points="908.632,222.117 908.595,234.246 912.525,234.116 912.562,221.987 " />
<polygon points="908.595,234.246 908.450,281.282 912.381,281.152 912.525,234.116 " />
<polygon points="717.886,362.713 740.441,387.788 762.436,384.514 730.986,349.551 " />
<polygon points="740.441,387.788 763.585,401.010 770.546,393.530 762.436,384.514 " />
<polygon points="564.746,760.573 547.697,761.045 562.871,1024.000 573.556,1023.704 " />
<polygon points="87.087,545.836 105.740,546.294 90.571,284.459 78.881,284.171 " />
<polygon points="290.216,169.846 299.893,160.155 250.249,110.391 240.572,120.082 " />
<polygon points="299.893,160.155 302.622,157.422 252.978,107.658 250.249,110.391 " />
<polygon points="87.029,604.391 105.682,604.849 105.740,546.294 87.087,545.836 " />
<polygon points="105.682,604.849 110.943,604.979 111.002,546.424 105.740,546.294 " />
<polygon points="87.022,610.897 105.675,611.355 105.682,604.849 87.029,604.391 " />
<polygon points="569.586,701.878 564.777,702.011 564.746,760.573 569.555,760.440 " />
<polygon points="564.777,702.011 547.729,702.482 547.697,761.045 564.746,760.573 " />
<polygon points="564.781,695.504 547.732,695.975 547.729,702.482 564.777,702.011 " />
<polygon points="503.990,761.459 482.309,761.988 477.682,1023.393 491.270,1023.061 " />
<polygon points="63.431,545.657 87.087,545.836 78.881,284.171 64.054,284.060 " />
<polygon points="272.845,177.294 276.406,175.767 234.655,133.916 233.129,137.483 " />
<polygon points="276.406,175.767 290.216,169.846 240.572,120.082 234.655,133.916 " />
<polygon points="57.273,604.166 63.373,604.212 63.431,545.657 57.331,545.611 " />
<polygon points="63.373,604.212 87.029,604.391 87.087,545.836 63.431,545.657 " />
<polygon points="63.366,610.719 87.022,610.897 87.029,604.391 63.373,604.212 " />
<polygon points="503.838,702.922 482.157,703.452 482.309,761.988 503.990,761.459 " />
<polygon points="482.157,703.452 476.567,703.588 476.719,762.125 482.309,761.988 " />
<polygon points="503.821,696.418 482.140,696.948 482.157,703.452 503.838,702.922 " />
<polygon points="682.416,462.143 763.585,401.010 740.441,387.788 673.314,440.567 " />
<polygon points="788.807,888.022 818.060,989.237 823.932,988.479 794.285,885.960 " />
<polygon points="767.405,497.126 833.717,547.639 856.042,533.592 775.871,475.176 " />
<polygon points="1022.838,237.543 1022.953,159.995 1018.211,159.965 1018.096,236.554 " />
<polygon points="569.586,701.878 561.512,617.297 553.883,617.508 564.777,702.011 " />
<polygon points="673.567,468.808 682.416,462.143 673.314,440.567 667.028,461.537 " />
<polygon points="819.259,792.496 785.618,876.988 791.053,874.784 824.021,788.065 " />
<polygon points="992.391,540.319 989.883,623.956 998.232,623.930 997.654,540.303 " />
<polygon points="760.729,476.194 767.405,497.126 775.871,475.176 767.131,468.808 " />
<polygon points="306.223,282.850 307.305,192.399 303.553,187.996 303.631,276.887 " />
<polygon points="775.023,252.506 821.570,321.423 840.155,303.667 799.477,246.218 " />
<polygon points="328.589,43.330 328.659,123.350 334.556,123.881 334.397,42.694 " />
<polygon points="847.971,998.079 849.444,927.990 824.021,924.408 824.115,1007.218 " />
<polygon points="1023.204,59.793 1023.176,2.445 1018.454,2.007 1018.554,58.536 " />
<polygon points="378.193,6.622 375.614,102.022 382.753,104.824 382.470,8.300 " />
<polygon points="770.250,245.439 775.023,252.506 799.477,246.218 779.919,241.847 " />
<polygon points="1020.810,618.368 1020.983,518.357 1017.224,522.439 1018.047,624.257 " />
<polygon points="698.637,172.381 698.770,82.113 689.721,84.411 693.216,173.757 " />
<polygon points="834.136,1013.195 847.971,998.079 824.115,1007.218 824.125,1015.709 " />
<polygon points="495.755,29.857 495.127,129.748 498.424,134.102 498.217,35.878 " />
<polygon points="1023.886,60.906 1018.454,59.793 1018.479,120.056 1024.000,121.015 " />
<polygon points="779.919,241.847 799.477,246.218 840.182,211.378 836.250,189.960 " />
<polygon points="950.269,55.737 954.762,54.953 954.774,10.042 950.213,10.729 " />
<polygon points="847.971,998.079 834.136,1013.195 909.858,1024.000 901.189,1003.698 " />
<polygon points="849.200,862.111 834.043,876.859 909.737,888.116 900.500,867.772 " />
<polygon points="939.096,54.128 943.500,55.737 943.499,10.721 939.020,9.187 " />
<polygon points="472.004,145.182 487.072,159.530 538.360,153.986 547.698,134.102 " />
<polygon points="184.412,7.581 179.174,9.698 179.151,69.167 184.495,67.175 " />
<polygon points="834.043,876.859 849.200,862.111 824.025,870.826 824.021,879.313 " />
<polygon points="461.989,142.698 461.995,151.213 487.072,159.530 472.004,145.182 " />
<polygon points="1018.144,237.543 1018.108,312.697 1023.050,311.984 1023.048,237.845 " />
<polygon points="849.200,862.111 850.788,791.929 824.060,788.065 824.025,870.826 " />
<polygon points="27.915,169.121 27.807,89.833 22.310,89.957 22.440,170.298 " />
<polygon points="461.995,151.213 462.049,234.258 488.674,229.956 487.072,159.530 " />
<polygon points="760.724,657.261 766.965,678.530 775.890,656.196 767.129,649.872 " />
<polygon points="673.530,321.423 682.357,314.758 672.826,292.739 667.015,314.135 " />
<polygon points="1013.544,702.361 1013.574,786.536 1018.533,785.945 1018.430,702.951 " />
<polygon points="766.965,678.530 833.573,728.804 856.252,714.205 775.890,656.196 " />
<polygon points="935.435,595.207 904.789,517.859 899.926,520.430 931.143,598.863 " />
<polygon points="682.357,314.758 763.330,253.623 739.929,239.848 672.826,292.739 " />
<polygon points="739.929,239.848 763.330,253.623 770.250,246.123 762.171,237.086 " />
<polygon points="717.859,215.161 739.929,239.848 762.171,237.086 730.842,202.041 " />
<polygon points="1009.217,753.207 1009.072,800.263 1013.014,800.176 1013.159,753.120 " />
<polygon points="1009.254,741.073 1009.217,753.207 1013.159,753.120 1013.196,740.986 " />
<polygon points="996.787,47.972 997.134,19.649 992.976,18.061 992.629,46.384 " />
<polygon points="848.310,723.369 856.252,714.205 833.573,728.804 " />
<polygon points="817.508,758.906 848.310,723.369 833.573,728.804 811.875,753.838 " />
<polygon points="131.889,68.007 128.371,50.577 118.410,51.672 121.928,69.102 " />
<polygon points="684.380,201.832 717.859,215.161 730.842,202.041 684.921,179.273 " />
<polygon points="666.877,181.258 684.380,201.832 684.921,179.273 673.797,173.757 " />
<polygon points="677.632,740.313 667.394,734.266 666.877,739.672 677.116,745.719 " />
<polygon points="719.900,765.278 677.632,740.313 677.116,745.719 719.384,770.684 " />
<polygon points="997.072,83.948 996.787,47.972 992.629,46.384 992.914,82.360 " />
<polygon points="771.940,782.379 817.508,758.906 811.875,753.838 778.606,767.679 " />
<polygon points="760.902,788.065 771.940,782.379 778.606,767.679 " />
<polygon points="128.371,50.577 131.866,31.504 121.905,32.599 118.410,51.672 " />
<polygon points="1012.303,923.044 1008.961,918.417 1006.493,1007.106 1008.866,1013.163 " />
<polygon points="1008.961,918.417 1001.937,921.406 1002.066,1008.990 1006.493,1007.106 " />
<polygon points="135.200,692.754 136.380,687.213 105.682,604.849 105.675,611.355 " />
<polygon points="136.380,687.213 144.727,687.418 110.943,604.979 105.682,604.849 " />
<polygon points="1012.739,620.867 1017.224,624.598 1017.031,524.180 1014.125,518.357 " />
<polygon points="997.149,94.659 1007.323,95.080 1003.310,6.694 997.215,6.442 " />
<polygon points="1019.950,356.399 1015.977,360.380 1017.028,462.002 1019.753,456.098 " />
<polygon points="1022.047,918.417 1012.303,920.058 1016.082,1009.990 1021.919,1009.007 " />
<polygon points="362.524,610.823 351.564,611.335 360.267,676.613 379.514,675.714 " />
<polygon points="316.216,612.205 278.735,613.341 281.137,678.393 293.681,678.127 " />
<polygon points="569.589,695.371 608.980,695.544 585.253,630.177 569.624,630.301 " />
<polygon points="57.266,610.673 24.006,610.666 23.941,675.728 57.201,675.734 " />
<polygon points="444.348,697.553 476.550,697.084 476.381,632.044 444.179,632.512 " />
<polygon points="400.043,697.053 421.549,697.916 421.380,632.875 399.874,632.013 " />
<polygon points="608.980,695.544 638.022,695.431 644.235,629.759 585.253,630.177 " />
<polygon points="340.960,611.596 316.216,612.205 293.681,678.127 341.644,677.071 " />
<polygon points="878.452,194.617 858.513,194.183 857.925,259.277 877.864,259.711 " />
<polygon points="105.675,611.355 87.022,610.897 86.957,675.958 105.610,676.417 " />
<polygon points="547.732,695.975 564.781,695.504 564.815,630.434 547.766,630.906 " />
<polygon points="87.022,610.897 63.366,610.719 63.301,675.780 86.957,675.958 " />
<polygon points="482.140,696.948 503.821,696.418 503.652,631.378 481.972,631.907 " />
<polygon points="995.634,226.164 991.041,226.083 991.051,291.180 995.644,291.261 " />
<polygon points="564.781,695.504 569.589,695.371 569.624,630.301 564.815,630.434 " />
<polygon points="110.937,611.485 105.675,611.355 105.610,676.417 110.872,676.546 " />
<polygon points="834.191,468.808 840.109,468.748 840.144,403.678 834.225,403.738 " />
<polygon points="24.006,610.666 0.273,610.637 0.208,675.698 23.941,675.728 " />
<polygon points="379.514,675.714 360.267,676.613 355.913,742.235 398.853,740.229 " />
<polygon points="293.681,678.127 281.137,678.393 283.540,743.446 296.083,743.179 " />
<polygon points="569.624,630.301 585.253,630.177 585.288,565.107 569.658,565.232 " />
<polygon points="57.201,675.734 23.941,675.728 23.876,740.789 57.136,740.795 " />
<polygon points="444.179,632.512 476.381,632.044 476.212,567.004 444.010,567.472 " />
<polygon points="399.874,632.013 421.380,632.875 421.211,567.835 399.705,566.972 " />
<polygon points="585.253,630.177 644.235,629.759 618.106,564.178 585.288,565.107 " />
<polygon points="929.666,285.168 897.611,283.161 897.546,348.222 934.035,349.097 " />
<polygon points="877.864,259.711 857.925,259.277 857.337,324.372 877.275,324.806 " />
<polygon points="105.610,676.417 86.957,675.958 86.892,741.019 105.545,741.478 " />
<polygon points="547.766,630.906 564.815,630.434 564.850,565.365 547.801,565.836 " />
<polygon points="86.957,675.958 63.301,675.780 63.236,740.841 86.892,741.019 " />
<polygon points="481.972,631.907 503.652,631.378 503.483,566.337 481.803,566.867 " />
<polygon points="995.644,291.261 991.051,291.180 991.061,356.277 995.654,356.358 " />
<polygon points="564.815,630.434 569.624,630.301 569.658,565.232 564.850,565.365 " />
<polygon points="110.872,676.546 105.610,676.417 105.545,741.478 110.806,741.607 " />
<polygon points="834.225,403.738 840.144,403.678 840.178,338.609 834.260,338.669 " />
<polygon points="23.941,675.728 0.208,675.698 0.143,740.759 23.876,740.789 " />
<polygon points="197.488,769.901 211.310,742.965 200.959,742.710 187.781,769.662 " />
<polygon points="187.781,769.662 200.959,742.710 160.819,741.723 150.138,768.737 " />
<polygon points="722.851,735.617 719.900,765.278 751.834,783.393 752.798,752.606 " />
<polygon points="752.798,752.606 751.834,783.393 760.068,788.065 760.521,756.987 " />
<polygon points="150.138,768.737 160.819,741.723 110.245,741.342 102.710,768.379 " />
<polygon points="102.710,768.379 110.245,741.342 97.994,741.250 91.221,768.292 " />
<polygon points="673.611,706.535 667.394,734.266 677.632,740.313 683.213,712.206 " />
<polygon points="683.213,712.206 677.632,740.313 719.900,765.278 722.851,735.617 " />
<polygon points="139.886,862.057 181.851,781.790 145.331,780.893 124.717,861.685 " />
<polygon points="181.851,781.790 187.781,769.662 150.138,768.737 145.331,780.893 " />
<polygon points="744.707,640.514 724.179,722.270 753.232,738.751 756.774,647.360 " />
<polygon points="724.179,722.270 722.851,735.617 752.798,752.606 753.232,738.751 " />
<polygon points="756.774,647.360 753.232,738.751 760.724,743.001 759.886,649.125 " />
<polygon points="753.232,738.751 752.798,752.606 760.521,756.987 760.724,743.001 " />
<polygon points="124.717,861.685 145.331,780.893 99.319,780.546 105.606,861.540 " />
<polygon points="145.331,780.893 150.138,768.737 102.710,768.379 99.319,780.546 " />
<polygon points="724.865,628.795 676.409,694.055 685.724,699.557 728.734,631.080 " />
<polygon points="676.409,694.055 673.611,706.535 683.213,712.206 685.724,699.557 " />
<polygon points="728.734,631.080 685.724,699.557 724.179,722.270 744.707,640.514 " />
<polygon points="685.724,699.557 683.213,712.206 722.851,735.617 724.179,722.270 " />
<polygon points="789.945,416.322 790.508,445.955 833.554,463.201 830.313,432.496 " />
<polygon points="780.166,412.404 780.080,441.777 790.508,445.955 789.945,416.322 " />
<polygon points="863.989,695.989 865.853,665.013 857.603,669.148 856.252,699.867 " />
<polygon points="895.927,679.979 899.909,647.942 865.853,665.013 863.989,695.989 " />
<polygon points="887.897,238.468 908.595,234.246 908.632,222.117 887.932,227.094 " />
<polygon points="887.762,282.578 908.450,281.282 908.595,234.246 887.897,238.468 " />
<polygon points="437.569,148.199 437.381,121.312 399.333,108.465 401.888,136.152 " />
<polygon points="446.770,151.306 447.192,124.624 437.381,121.312 437.569,148.199 " />
<polygon points="817.573,326.556 789.691,402.988 828.854,418.678 833.840,333.074 " />
<polygon points="789.691,402.988 789.945,416.322 830.313,432.496 828.854,418.678 " />
<polygon points="813.633,324.978 780.204,399.187 789.691,402.988 817.573,326.556 " />
<polygon points="780.204,399.187 780.166,412.404 789.945,416.322 789.691,402.988 " />
<polygon points="899.762,781.614 894.135,694.396 863.150,709.928 886.892,788.065 " />
<polygon points="894.135,694.396 895.927,679.979 863.989,695.989 863.150,709.928 " />
<polygon points="395.670,104.934 390.727,182.841 399.333,182.576 399.245,104.824 " />
<polygon points="878.583,240.368 887.897,238.468 887.932,227.094 878.617,229.333 " />
<polygon points="381.807,105.360 357.352,183.866 390.727,182.841 395.670,104.934 " />
<polygon points="878.452,283.161 887.762,282.578 887.897,238.468 878.583,240.368 " />
<polygon points="413.816,234.258 437.654,160.299 403.038,148.611 399.439,229.403 " />
<polygon points="437.654,160.299 437.569,148.199 401.888,136.152 403.038,148.611 " />
<polygon points="398.853,740.229 355.913,742.235 356.394,755.245 399.333,753.240 " />
<polygon points="296.083,743.179 283.540,743.446 284.020,756.456 296.564,756.190 " />
<polygon points="569.658,565.232 585.288,565.107 585.295,552.093 569.665,552.218 " />
<polygon points="57.136,740.795 23.876,740.789 23.863,753.801 57.123,753.807 " />
<polygon points="444.010,567.472 476.212,567.004 476.178,553.995 443.976,554.464 " />
<polygon points="399.705,566.972 421.211,567.835 421.178,554.827 399.671,553.964 " />
<polygon points="585.288,565.107 618.106,564.178 618.113,551.164 585.295,552.093 " />
<polygon points="934.035,349.097 897.546,348.222 897.533,361.234 934.022,362.109 " />
<polygon points="877.275,324.806 857.337,324.372 857.219,337.391 877.157,337.824 " />
<polygon points="105.545,741.478 86.892,741.019 86.879,754.031 105.532,754.490 " />
<polygon points="547.801,565.836 564.850,565.365 564.857,552.351 547.808,552.822 " />
<polygon points="86.892,741.019 63.236,740.841 63.223,753.853 86.879,754.031 " />
<polygon points="481.803,566.867 503.483,566.337 503.449,553.329 481.769,553.859 " />
<polygon points="23.876,740.789 0.143,740.759 0.130,753.771 23.863,753.801 " />
<polygon points="211.310,179.737 225.040,185.340 224.918,60.430 212.327,63.672 " />
<polygon points="1001.617,481.547 1012.736,483.868 1012.739,357.657 1006.712,356.399 " />
<polygon points="990.935,908.675 977.256,913.211 978.165,1018.559 990.724,1021.880 " />
<polygon points="1018.108,237.543 1007.323,239.829 1011.868,356.399 1017.894,355.122 " />
<polygon points="1018.454,11.089 1007.323,13.026 1012.131,121.015 1018.223,119.954 " />
<polygon points="238.307,11.635 225.081,9.464 225.101,107.658 237.285,103.130 " />
<polygon points="1001.937,916.418 1013.401,918.417 1013.233,801.325 1007.146,800.263 " />
<polygon points="580.596,134.786 581.059,147.685 661.600,146.794 666.877,134.904 " />
<polygon points="1018.096,121.015 1007.323,123.333 1012.014,237.543 1018.033,236.247 " />
<polygon points="181.851,781.790 187.781,769.662 105.545,741.478 105.532,754.490 " />
<polygon points="1001.617,606.749 1012.727,609.139 1012.724,485.164 1006.703,483.868 " />
<polygon points="610.693,33.054 597.126,36.379 598.184,131.079 610.641,134.786 " />
<polygon points="13.395,181.749 0.000,178.536 0.092,284.008 12.377,279.782 " />
<polygon points="1002.069,738.579 1013.544,740.541 1013.244,625.802 1007.151,624.760 " />
<polygon points="109.046,284.008 123.337,281.788 141.371,176.127 129.739,170.311 " />
<polygon points="272.651,0.000 261.514,1.870 266.417,107.658 272.512,106.634 " />
<polygon points="399.333,753.240 356.394,755.245 361.305,820.087 395.446,818.492 " />
<polygon points="296.564,756.190 284.020,756.456 286.423,821.509 298.966,821.242 " />
<polygon points="569.665,552.218 585.295,552.093 585.329,487.024 569.700,487.148 " />
<polygon points="57.123,753.807 23.863,753.801 23.798,818.862 57.058,818.868 " />
<polygon points="443.976,554.464 476.178,553.995 476.009,488.955 443.807,489.423 " />
<polygon points="399.671,553.964 421.178,554.827 421.009,489.786 399.502,488.924 " />
<polygon points="585.295,552.093 618.113,551.164 627.864,486.284 585.329,487.024 " />
<polygon points="934.022,362.109 897.533,361.234 897.468,426.295 932.310,427.591 " />
<polygon points="877.157,337.824 857.219,337.391 856.631,402.485 876.569,402.919 " />
<polygon points="105.532,754.490 86.879,754.031 86.814,819.093 105.467,819.551 " />
<polygon points="547.808,552.822 564.857,552.351 564.891,487.281 547.842,487.753 " />
<polygon points="86.879,754.031 63.223,753.853 63.158,818.914 86.814,819.093 " />
<polygon points="481.769,553.859 503.449,553.329 503.280,488.289 481.600,488.818 " />
<polygon points="23.863,753.801 0.130,753.771 0.065,818.832 23.798,818.862 " />
<polygon points="395.446,818.492 361.305,820.087 367.698,884.803 387.845,883.862 " />
<polygon points="298.966,821.242 286.423,821.509 288.825,886.561 301.369,886.295 " />
<polygon points="569.700,487.148 585.329,487.024 585.364,421.954 569.734,422.079 " />
<polygon points="57.058,818.868 23.798,818.862 23.733,883.923 56.993,883.929 " />
<polygon points="443.807,489.423 476.009,488.955 475.841,423.915 443.639,424.383 " />
<polygon points="399.502,488.924 421.009,489.786 420.840,424.746 399.333,423.883 " />
<polygon points="585.329,487.024 627.864,486.284 643.353,421.517 585.364,421.954 " />
<polygon points="328.272,820.899 298.966,821.242 301.369,886.295 348.205,885.283 " />
<polygon points="876.569,402.919 856.631,402.485 856.042,467.579 875.981,468.013 " />
<polygon points="105.467,819.551 86.814,819.093 86.749,884.154 105.402,884.612 " />
<polygon points="547.842,487.753 564.891,487.281 564.926,422.212 547.877,422.683 " />
<polygon points="86.814,819.093 63.158,818.914 63.093,883.975 86.749,884.154 " />
<polygon points="481.600,488.818 503.280,488.289 503.111,423.248 481.431,423.778 " />
<polygon points="23.798,818.862 0.065,818.832 0.000,883.893 23.733,883.923 " />
<polygon points="580.596,40.571 575.346,40.216 572.491,105.214 577.742,105.570 " />
<polygon points="1023.126,702.442 1018.533,702.361 1018.543,767.458 1023.135,767.539 " />
<polygon points="110.728,819.680 105.467,819.551 105.402,884.612 110.663,884.742 " />
<polygon points="63.158,818.914 57.058,818.868 56.993,883.929 63.093,883.975 " />
<polygon points="387.845,883.862 367.698,884.803 353.614,1014.610 364.111,1014.120 " />
<polygon points="301.369,886.295 288.825,886.561 314.867,1015.533 321.403,1015.394 " />
<polygon points="569.734,422.079 585.364,421.954 589.725,292.759 581.581,292.823 " />
<polygon points="56.993,883.929 23.733,883.923 45.759,1015.173 63.089,1015.176 " />
<polygon points="443.639,424.383 475.841,423.915 473.633,292.477 456.854,292.721 " />
<polygon points="399.333,423.883 420.840,424.746 444.975,292.910 433.769,292.460 " />
<polygon points="585.364,421.954 643.353,421.517 615.781,292.646 589.725,292.759 " />
<polygon points="348.205,885.283 301.369,886.295 321.403,1015.394 343.457,1014.860 " />
<polygon points="875.981,468.013 856.042,467.579 867.741,598.715 878.130,598.941 " />
<polygon points="105.402,884.612 86.749,884.154 78.593,1015.293 88.312,1015.532 " />
<polygon points="547.877,422.683 564.926,422.212 579.075,292.893 570.192,293.138 " />
<polygon points="86.749,884.154 63.093,883.975 66.268,1015.200 78.593,1015.293 " />
<polygon points="481.431,423.778 503.111,423.248 487.842,292.129 476.545,292.405 " />
<polygon points="23.733,883.923 0.000,883.893 33.394,1015.158 45.759,1015.173 " />
<polygon points="317.986,250.419 374.284,282.850 399.333,183.866 307.305,183.880 " />
<polygon points="714.497,889.983 666.877,934.295 678.706,1012.016 770.260,994.123 " />
<polygon points="1015.136,356.399 1012.867,357.465 1012.739,518.357 1015.977,516.835 " />
<polygon points="831.657,111.480 770.250,90.124 770.279,187.155 852.578,189.960 " />
<polygon points="211.310,202.756 244.312,258.798 294.361,278.511 294.511,185.340 " />
<polygon points="855.911,39.507 853.567,38.618 852.698,203.686 856.042,204.955 " />
<polygon points="635.212,206.247 661.600,146.794 581.059,147.685 582.688,234.927 " />
<polygon points="935.072,89.701 873.804,111.452 856.042,194.183 935.075,176.974 " />
<polygon points="447.669,226.824 449.789,225.711 450.376,52.838 447.287,54.458 " />
<polygon points="199.529,205.208 141.371,176.127 123.337,281.788 211.310,283.879 " />
<polygon points="12.377,279.782 73.803,258.653 102.015,194.739 13.395,181.749 " />
<polygon points="63.089,1015.176 66.268,1015.200 105.606,861.540 100.977,861.506 " />
<polygon points="818.119,1001.220 823.991,1000.463 823.932,988.479 818.060,989.237 " />
<polygon points="818.060,989.237 785.095,992.606 785.154,1004.590 818.119,1001.220 " />
<polygon points="785.154,1004.590 785.095,992.606 770.260,994.123 770.319,1006.106 " />
<polygon points="678.706,1012.016 678.765,1024.000 770.319,1006.106 770.260,994.123 " />
<polygon points="794.285,885.960 791.053,874.784 785.618,876.988 788.807,888.022 " />
<polygon points="938.776,603.639 935.435,595.207 931.143,598.863 934.546,607.414 " />
<polygon points="334.397,42.694 334.380,34.369 328.581,35.125 328.589,43.330 " />
<polygon points="27.926,177.251 27.915,169.121 22.440,170.298 22.453,178.536 " />
<polygon points="878.452,426.306 890.627,423.751 897.468,335.564 885.293,338.119 " />
<polygon points="896.068,321.128 883.893,323.683 885.293,338.119 897.468,335.564 " />
<polygon points="880.782,291.604 883.893,323.683 896.068,321.128 892.958,289.048 " />
<polygon points="880.083,285.716 880.782,291.604 892.958,289.048 892.258,283.161 " />
<polygon points="897.468,509.179 899.926,520.430 904.789,517.859 902.331,506.608 " />
<polygon points="902.331,506.608 904.789,517.859 928.397,501.996 925.939,490.745 " />
<polygon points="928.397,501.996 939.020,494.858 936.562,483.607 925.939,490.745 " />
<polygon points="302.472,282.850 302.622,189.679 294.511,185.340 294.361,278.511 " />
<polygon points="951.333,483.607 951.911,220.193 939.020,220.171 947.989,463.048 " />
<polygon points="997.837,356.399 1001.331,356.120 1000.854,336.150 997.361,336.429 " />
<polygon points="933.044,428.783 926.982,427.591 926.997,444.484 933.060,445.676 " />
<polygon points="974.645,888.036 974.021,624.760 969.815,645.143 963.270,887.463 " />
<polygon points="573.556,1023.704 576.570,1023.621 571.663,1003.380 568.649,1003.463 " />
<polygon points="933.408,196.714 927.359,197.861 927.375,214.754 933.423,213.607 " />
<polygon points="576.570,1023.621 569.555,760.440 556.700,761.407 571.663,1003.380 " />
<polygon points="973.290,619.853 972.668,356.399 969.529,376.974 961.901,619.876 " />
<polygon points="1001.617,96.260 996.043,96.706 997.361,336.429 1000.854,336.150 " />
<polygon points="556.700,761.407 551.891,761.540 568.649,1003.463 571.663,1003.380 " />
<polygon points="926.063,888.081 925.782,624.760 922.357,645.985 909.737,888.116 " />
<polygon points="108.530,24.318 104.708,24.219 103.732,44.896 107.554,44.995 " />
<polygon points="921.268,214.771 927.333,213.579 927.359,196.714 921.294,197.906 " />
<polygon points="935.073,888.123 940.410,624.760 926.063,624.774 931.246,866.923 " />
<polygon points="1007.323,95.454 1004.046,95.080 1001.617,115.637 1004.894,116.011 " />
<polygon points="949.769,916.037 955.821,917.165 955.796,900.300 949.743,899.171 " />
<polygon points="276.332,548.288 282.049,285.033 277.717,306.091 260.019,547.621 " />
<polygon points="845.005,468.808 856.042,205.778 841.719,204.955 842.418,447.420 " />
<polygon points="102.948,283.850 109.046,284.008 107.554,44.995 103.732,44.896 " />
<polygon points="1001.986,355.802 1007.215,356.399 1004.894,116.011 1001.617,115.637 " />
<polygon points="577.742,105.570 572.491,105.214 577.831,234.742 580.567,234.927 " />
<polygon points="475.841,423.915 481.431,423.778 476.545,292.405 473.633,292.477 " />
<polygon points="56.993,883.929 63.089,1015.176 66.268,1015.200 63.093,883.975 " />
<polygon points="110.663,884.742 105.402,884.612 88.312,1015.532 91.054,1015.600 " />
<polygon points="364.111,1014.120 353.614,1014.610 353.927,1023.077 364.424,1022.586 " />
<polygon points="321.403,1015.394 314.867,1015.533 315.180,1024.000 321.716,1023.861 " />
<polygon points="581.581,292.823 589.725,292.759 589.729,284.290 581.585,284.355 " />
<polygon points="63.089,1015.176 45.759,1015.173 45.751,1023.641 63.081,1023.644 " />
<polygon points="456.854,292.721 473.633,292.477 473.611,284.011 456.832,284.256 " />
<polygon points="433.769,292.460 444.975,292.910 444.953,284.445 433.747,283.995 " />
<polygon points="589.725,292.759 615.781,292.646 615.786,284.177 589.729,284.290 " />
<polygon points="343.457,1014.860 321.403,1015.394 321.716,1023.861 343.770,1023.327 " />
<polygon points="878.130,598.941 867.741,598.715 867.665,607.188 878.054,607.414 " />
<polygon points="88.312,1015.532 78.593,1015.293 78.585,1023.761 88.304,1024.000 " />
<polygon points="570.192,293.138 579.075,292.893 579.080,284.424 570.197,284.669 " />
<polygon points="78.593,1015.293 66.268,1015.200 66.259,1023.668 78.585,1023.761 " />
<polygon points="476.545,292.405 487.842,292.129 487.820,283.664 476.523,283.940 " />
<polygon points="45.759,1015.173 33.394,1015.158 33.385,1023.625 45.751,1023.641 " />
<polygon points="934.812,448.520 937.405,447.627 937.735,283.161 934.035,284.435 " />
<polygon points="315.180,1024.000 314.867,1015.533 220.284,869.499 211.310,878.126 " />
<polygon points="1001.609,807.827 997.812,800.263 991.192,968.181 1001.937,972.286 " />
<polygon points="935.396,282.071 937.913,283.161 938.971,125.232 935.380,123.677 " />
<polygon points="903.788,609.607 900.054,617.201 899.909,788.065 909.677,784.109 " />
<polygon points="990.364,533.064 994.759,540.303 1001.617,358.751 989.883,356.399 " />
<polygon points="760.037,470.377 757.380,468.808 724.865,628.795 728.734,631.080 " />
<polygon points="892.731,607.414 896.945,600.067 890.627,423.751 878.452,426.306 " />
<polygon points="1001.936,632.191 997.887,624.760 991.192,796.524 1002.069,800.263 " />
<polygon points="476.523,283.940 476.545,292.405 540.700,445.985 547.697,438.097 " />
<polygon points="447.669,226.824 451.726,234.258 458.901,57.348 447.287,54.458 " />
<polygon points="451.726,234.258 453.847,233.146 461.989,55.728 458.901,57.348 " />
<polygon points="261.407,31.581 256.851,31.131 255.385,107.053 261.514,107.658 " />
<polygon points="1013.619,877.368 1017.899,879.287 1019.040,802.792 " />
<polygon points="1013.619,877.368 1019.040,802.792 1013.401,800.263 " />
<polygon points="549.211,98.658 553.764,98.181 553.823,25.392 547.697,26.034 " />
<polygon points="1017.935,624.760 1013.660,626.692 1013.544,702.361 1019.178,699.816 " />
<polygon points="896.239,47.358 896.245,61.470 904.523,58.782 " />
<polygon points="878.014,622.659 886.307,611.244 878.024,608.551 " />
<polygon points="896.239,47.358 904.523,58.782 909.637,51.731 " />
<polygon points="878.014,622.659 891.423,618.297 886.307,611.244 " />
<polygon points="896.239,47.358 909.637,51.731 909.633,43.009 " />
<polygon points="878.014,622.659 891.417,627.016 891.423,618.297 " />
<polygon points="896.239,47.358 909.633,43.009 904.514,35.948 " />
<polygon points="878.014,622.659 886.292,634.071 891.417,627.016 " />
<polygon points="896.239,47.358 904.514,35.948 896.233,33.246 " />
<polygon points="878.014,622.659 878.005,636.767 886.292,634.071 " />
<polygon points="896.239,47.358 896.233,33.246 887.955,35.933 " />
<polygon points="878.014,622.659 869.722,634.074 878.005,636.767 " />
<polygon points="896.239,47.358 887.955,35.933 882.841,42.985 " />
<polygon points="878.014,622.659 864.606,627.021 869.722,634.074 " />
<polygon points="896.239,47.358 882.841,42.985 882.845,51.707 " />
<polygon points="878.014,622.659 864.612,618.302 864.606,627.021 " />
<polygon points="896.239,47.358 882.845,51.707 887.964,58.768 " />
<polygon points="878.014,622.659 869.737,611.247 864.612,618.302 " />
<polygon points="896.239,47.358 887.964,58.768 896.245,61.470 " />
<polygon points="878.014,622.659 878.024,608.551 869.737,611.247 " />
<polygon points="837.430,902.224 837.439,888.116 829.152,890.812 " />
<polygon points="869.443,47.358 861.169,58.767 869.449,61.470 " />
<polygon points="837.430,902.224 829.152,890.812 824.027,897.867 " />
<polygon points="869.443,47.358 856.049,51.707 861.169,58.767 " />
<polygon points="837.430,902.224 824.027,897.867 824.021,906.586 " />
<polygon points="869.443,47.358 856.045,42.985 856.049,51.707 " />
<polygon points="837.430,902.224 824.021,906.586 829.137,913.639 " />
<polygon points="869.443,47.358 861.159,35.933 856.045,42.985 " />
<polygon points="837.430,902.224 829.137,913.639 837.420,916.332 " />
<polygon points="869.443,47.358 869.437,33.246 861.159,35.933 " />
<polygon points="837.430,902.224 837.420,916.332 845.707,913.636 " />
<polygon points="869.443,47.358 877.718,35.948 869.437,33.246 " />
<polygon points="837.430,902.224 845.707,913.636 850.832,906.581 " />
<polygon points="869.443,47.358 882.837,43.009 877.718,35.948 " />
<polygon points="837.430,902.224 850.832,906.581 850.838,897.862 " />
<polygon points="869.443,47.358 882.841,51.731 882.837,43.009 " />
<polygon points="837.430,902.224 850.838,897.862 845.722,890.809 " />
<polygon points="869.443,47.358 877.727,58.782 882.841,51.731 " />
<polygon points="837.430,902.224 845.722,890.809 837.439,888.116 " />
<polygon points="869.443,47.358 869.449,61.470 877.727,58.782 " />
<polygon points="923.041,47.358 923.047,61.470 931.325,58.782 " />
<polygon points="797.564,622.659 805.857,611.244 797.574,608.551 " />
<polygon points="923.041,47.358 931.325,58.782 936.439,51.731 " />
<polygon points="797.564,622.659 810.973,618.297 805.857,611.244 " />
<polygon points="923.041,47.358 936.439,51.731 936.435,43.009 " />
<polygon points="797.564,622.659 810.967,627.016 810.973,618.297 " />
<polygon points="923.041,47.358 936.435,43.009 931.315,35.948 " />
<polygon points="797.564,622.659 805.841,634.071 810.967,627.016 " />
<polygon points="923.041,47.358 931.315,35.948 923.035,33.246 " />
<polygon points="797.564,622.659 797.555,636.767 805.841,634.071 " />
<polygon points="923.041,47.358 923.035,33.246 914.757,35.933 " />
<polygon points="797.564,622.659 789.272,634.074 797.555,636.767 " />
<polygon points="923.041,47.358 914.757,35.933 909.643,42.985 " />
<polygon points="797.564,622.659 784.156,627.021 789.272,634.074 " />
<polygon points="923.041,47.358 909.643,42.985 909.646,51.707 " />
<polygon points="797.564,622.659 784.162,618.302 784.156,627.021 " />
<polygon points="923.041,47.358 909.646,51.707 914.766,58.768 " />
<polygon points="797.564,622.659 789.287,611.247 784.162,618.302 " />
<polygon points="923.041,47.358 914.766,58.768 923.047,61.470 " />
<polygon points="797.564,622.659 797.574,608.551 789.287,611.247 " />
<polygon points="824.381,622.659 824.391,608.551 816.104,611.247 " />
<polygon points="37.430,47.431 29.156,58.840 37.436,61.543 " />
<polygon points="824.381,622.659 816.104,611.247 810.979,618.302 " />
<polygon points="37.430,47.431 24.036,51.780 29.156,58.840 " />
<polygon points="824.381,622.659 810.979,618.302 810.973,627.021 " />
<polygon points="37.430,47.431 24.032,43.058 24.036,51.780 " />
<polygon points="824.381,622.659 810.973,627.021 816.088,634.074 " />
<polygon points="37.430,47.431 29.146,36.006 24.032,43.058 " />
<polygon points="824.381,622.659 816.088,634.074 824.371,636.767 " />
<polygon points="37.430,47.431 37.424,33.319 29.146,36.006 " />
<polygon points="824.381,622.659 824.371,636.767 832.658,634.071 " />
<polygon points="37.430,47.431 45.705,36.021 37.424,33.319 " />
<polygon points="824.381,622.659 832.658,634.071 837.783,627.016 " />
<polygon points="37.430,47.431 50.824,43.082 45.705,36.021 " />
<polygon points="824.381,622.659 837.783,627.016 837.789,618.297 " />
<polygon points="37.430,47.431 50.828,51.804 50.824,43.082 " />
<polygon points="824.381,622.659 837.789,618.297 832.674,611.244 " />
<polygon points="37.430,47.431 45.714,58.855 50.828,51.804 " />
<polygon points="824.381,622.659 832.674,611.244 824.391,608.551 " />
<polygon points="37.430,47.431 37.436,61.543 45.714,58.855 " />
<polygon points="978.913,70.059 979.237,83.948 987.515,81.260 " />
<polygon points="851.198,622.659 859.491,611.244 851.207,608.551 " />
<polygon points="978.913,70.059 987.515,81.260 992.629,74.209 " />
<polygon points="851.198,622.659 864.606,618.297 859.491,611.244 " />
<polygon points="978.913,70.059 992.629,74.209 992.625,65.487 " />
<polygon points="851.198,622.659 864.600,627.016 864.606,618.297 " />
<polygon points="978.913,70.059 992.625,65.487 987.506,58.426 " />
<polygon points="851.198,622.659 859.475,634.071 864.600,627.016 " />
<polygon points="978.913,70.059 987.506,58.426 979.225,55.724 " />
<polygon points="851.198,622.659 851.188,636.767 859.475,634.071 " />
<polygon points="978.913,70.059 979.225,55.724 970.947,58.411 " />
<polygon points="851.198,622.659 842.905,634.074 851.188,636.767 " />
<polygon points="978.913,70.059 970.947,58.411 965.833,65.463 " />
<polygon points="851.198,622.659 837.789,627.021 842.905,634.074 " />
<polygon points="978.913,70.059 965.833,65.463 965.837,74.185 " />
<polygon points="851.198,622.659 837.795,618.302 837.789,627.021 " />
<polygon points="978.913,70.059 965.837,74.185 970.956,81.246 " />
<polygon points="851.198,622.659 842.921,611.247 837.795,618.302 " />
<polygon points="978.913,70.059 970.956,81.246 979.237,83.948 " />
<polygon points="851.198,622.659 851.207,608.551 842.921,611.247 " />
<polygon points="864.246,902.224 864.256,888.116 855.969,890.812 " />
<polygon points="246.191,38.517 238.331,56.471 246.713,56.584 " />
<polygon points="864.246,902.224 855.969,890.812 850.844,897.867 " />
<polygon points="797.671,649.773 802.022,637.287 793.308,637.279 " />
<polygon points="864.246,902.224 850.844,897.867 850.838,906.586 " />
<polygon points="761.041,123.200 762.143,105.234 753.674,105.305 " />
<polygon points="864.246,902.224 850.838,906.586 855.953,913.639 " />
<polygon points="761.041,123.200 770.199,105.371 762.143,105.234 " />
<polygon points="864.246,902.224 855.953,913.639 864.237,916.332 " />
<polygon points="924.103,283.161 919.541,265.991 912.570,265.889 " />
<polygon points="864.246,902.224 864.237,916.332 872.523,913.636 " />
<polygon points="924.103,283.161 928.253,265.992 919.541,265.991 " />
<polygon points="864.246,902.224 872.523,913.636 877.649,906.581 " />
<polygon points="844.566,189.960 840.182,204.284 848.895,204.292 " />
<polygon points="864.246,902.224 877.649,906.581 877.655,897.862 " />
<polygon points="564.794,30.475 561.917,47.414 570.578,47.452 " />
<polygon points="864.246,902.224 877.655,897.862 872.539,890.809 " />
<polygon points="564.794,30.475 554.350,47.562 561.917,47.414 " />
<polygon points="864.246,902.224 872.539,890.809 864.256,888.116 " />
<polygon points="246.191,38.517 246.713,56.584 254.893,56.450 " />
<polygon points="844.398,29.003 844.371,85.438 852.551,85.303 852.578,28.869 " />
<polygon points="844.371,85.438 844.369,90.124 852.549,89.989 852.551,85.303 " />
<polygon points="786.863,28.976 786.834,85.436 794.400,85.288 794.430,28.828 " />
<polygon points="786.834,85.436 786.831,90.124 794.397,89.976 794.400,85.288 " />
<polygon points="794.430,28.828 794.400,85.288 803.061,85.326 803.091,28.867 " />
<polygon points="794.400,85.288 794.397,89.976 803.059,90.014 803.061,85.326 " />
<polygon points="447.192,108.365 447.184,51.882 440.058,51.981 440.066,108.465 " />
<polygon points="447.184,51.882 447.183,47.192 440.057,47.292 440.058,51.981 " />
<polygon points="440.066,108.465 440.058,51.981 431.345,51.980 431.354,108.463 " />
<polygon points="440.058,51.981 440.057,47.292 431.344,47.290 431.345,51.980 " />
<polygon points="431.354,108.463 431.345,51.980 424.374,51.878 424.383,108.362 " />
<polygon points="431.345,51.980 431.344,47.290 424.373,47.188 424.374,51.878 " />
<polygon points="421.507,108.280 421.563,51.828 413.508,51.691 413.451,108.144 " />
<polygon points="421.563,51.828 421.568,47.140 413.513,47.004 413.508,51.691 " />
<polygon points="413.451,108.144 413.508,51.691 405.038,51.762 404.982,108.214 " />
<polygon points="413.508,51.691 413.513,47.004 405.043,47.075 405.038,51.762 " />
<polygon points="404.982,108.214 405.038,51.762 399.390,52.013 399.333,108.465 " />
<polygon points="405.038,51.762 405.043,47.075 399.394,47.325 399.390,52.013 " />
<polygon points="836.015,28.890 835.989,85.324 844.371,85.438 844.398,29.003 " />
<polygon points="835.989,85.324 835.987,90.010 844.369,90.124 844.371,85.438 " />
<polygon points="650.315,31.601 650.269,129.519 658.652,129.633 658.697,31.715 " />
<polygon points="650.269,129.519 650.267,134.673 658.649,134.786 658.652,129.633 " />
<polygon points="938.354,1023.749 938.452,925.800 932.803,926.051 932.705,1024.000 " />
<polygon points="938.452,925.800 938.457,920.645 932.808,920.896 932.803,926.051 " />
<polygon points="946.823,1023.679 946.921,925.730 938.452,925.800 938.354,1023.749 " />
<polygon points="946.921,925.730 946.927,920.575 938.457,920.645 938.452,925.800 " />
<polygon points="954.879,1023.815 954.977,925.866 946.921,925.730 946.823,1023.679 " />
<polygon points="954.977,925.866 954.982,920.711 946.927,920.575 946.921,925.730 " />
<polygon points="706.400,173.756 706.385,75.753 699.414,75.651 699.429,173.654 " />
<polygon points="706.385,75.753 706.384,70.595 699.413,70.493 699.414,75.651 " />
<polygon points="715.112,173.757 715.097,75.754 706.385,75.753 706.400,173.756 " />
<polygon points="715.097,75.754 715.096,70.596 706.384,70.595 706.385,75.753 " />
<polygon points="722.238,173.658 722.223,75.654 715.097,75.754 715.112,173.757 " />
<polygon points="722.223,75.654 722.223,70.496 715.096,70.596 715.097,75.754 " />
<polygon points="539.036,30.837 538.984,128.798 547.646,128.836 547.697,30.875 " />
<polygon points="538.984,128.798 538.981,133.954 547.643,133.992 547.646,128.836 " />
<polygon points="531.470,30.984 531.418,128.946 538.984,128.798 539.036,30.837 " />
<polygon points="531.418,128.946 531.415,134.102 538.981,133.954 538.984,128.798 " />
<polygon points="658.697,31.715 658.652,129.633 666.832,129.498 666.877,31.580 " />
<polygon points="658.652,129.633 658.649,134.786 666.829,134.652 666.832,129.498 " />
<polygon points="970.326,84.204 970.264,215.074 978.444,214.940 978.505,84.069 " />
<polygon points="970.264,215.074 970.262,220.170 978.442,220.036 978.444,214.940 " />
<polygon points="974.814,220.331 974.744,351.260 982.310,351.112 982.380,220.183 " />
<polygon points="974.744,351.260 974.742,356.358 982.308,356.210 982.310,351.112 " />
<polygon points="982.380,220.183 982.310,351.112 990.972,351.150 991.041,220.221 " />
<polygon points="982.310,351.112 982.308,356.210 990.969,356.248 990.972,351.150 " />
<polygon points="963.240,897.070 963.221,766.087 956.094,766.186 956.114,897.170 " />
<polygon points="963.221,766.087 963.220,760.986 956.094,761.086 956.094,766.186 " />
<polygon points="956.114,897.170 956.094,766.186 947.382,766.185 947.402,897.169 " />
<polygon points="956.094,766.186 956.094,761.086 947.381,761.084 947.382,766.185 " />
<polygon points="947.402,897.169 947.382,766.185 940.411,766.083 940.431,897.067 " />
<polygon points="947.382,766.185 947.381,761.084 940.410,760.983 940.411,766.083 " />
<polygon points="22.174,178.351 22.304,47.440 14.249,47.303 14.118,178.215 " />
<polygon points="22.304,47.440 22.310,42.342 14.254,42.206 14.249,47.303 " />
<polygon points="14.118,178.215 14.249,47.303 5.780,47.374 5.649,178.286 " />
<polygon points="14.249,47.303 14.254,42.206 5.785,42.276 5.780,47.374 " />
<polygon points="5.649,178.286 5.780,47.374 0.131,47.625 0.000,178.536 " />
<polygon points="5.780,47.374 5.785,42.276 0.136,42.527 0.131,47.625 " />
<polygon points="961.943,84.090 961.882,214.961 970.264,215.074 970.326,84.204 " />
<polygon points="961.882,214.961 961.880,220.057 970.262,220.170 970.264,215.074 " />
<polygon points="238.331,56.471 238.309,102.745 246.692,102.858 246.713,56.584 " />
<polygon points="238.309,102.745 238.307,107.544 246.689,107.658 246.692,102.858 " />
<polygon points="753.674,105.305 753.720,59.017 748.071,59.267 748.025,105.555 " />
<polygon points="753.720,59.017 753.725,54.215 748.076,54.466 748.071,59.267 " />
<polygon points="762.143,105.234 762.189,58.946 753.720,59.017 753.674,105.305 " />
<polygon points="762.189,58.946 762.194,54.145 753.725,54.215 753.720,59.017 " />
<polygon points="770.199,105.371 770.245,59.082 762.189,58.946 762.143,105.234 " />
<polygon points="770.245,59.082 770.250,54.281 762.194,54.145 762.189,58.946 " />
<polygon points="919.541,265.991 919.534,219.677 912.563,219.575 912.570,265.889 " />
<polygon points="919.534,219.677 919.533,214.873 912.562,214.771 912.563,219.575 " />
<polygon points="928.253,265.992 928.246,219.678 919.534,219.677 919.541,265.991 " />
<polygon points="928.246,219.678 928.246,214.874 919.533,214.873 919.534,219.677 " />
<polygon points="935.380,265.892 935.372,219.578 928.246,219.678 928.253,265.992 " />
<polygon points="935.372,219.578 935.372,214.774 928.246,214.874 928.246,219.678 " />
<polygon points="561.917,47.414 561.892,93.709 570.553,93.747 570.578,47.452 " />
<polygon points="561.892,93.709 561.889,98.510 570.551,98.548 570.553,93.747 " />
<polygon points="554.350,47.562 554.326,93.856 561.892,93.709 561.917,47.414 " />
<polygon points="554.326,93.856 554.323,98.658 561.889,98.510 561.892,93.709 " />
<polygon points="246.713,56.584 246.692,102.858 254.871,102.724 254.893,56.450 " />
<polygon points="246.692,102.858 246.689,107.658 254.869,107.523 254.871,102.724 " />
<polygon points="470.419,33.149 470.374,129.054 478.554,128.920 478.599,33.014 " />
<polygon points="470.374,129.054 470.372,134.102 478.552,133.967 478.554,128.920 " />
<polygon points="498.600,33.104 498.549,129.052 506.115,128.904 506.166,32.956 " />
<polygon points="498.549,129.052 498.547,134.102 506.113,133.954 506.115,128.904 " />
<polygon points="506.166,32.956 506.115,128.904 514.777,128.942 514.828,32.994 " />
<polygon points="506.115,128.904 506.113,133.954 514.774,133.992 514.777,128.942 " />
<polygon points="188.464,170.211 188.450,74.222 181.324,74.322 181.338,170.310 " />
<polygon points="188.450,74.222 188.449,69.170 181.323,69.270 181.324,74.322 " />
<polygon points="181.338,170.310 181.324,74.322 172.611,74.321 172.626,170.309 " />
<polygon points="181.324,74.322 181.323,69.270 172.610,69.269 172.611,74.321 " />
<polygon points="172.626,170.309 172.611,74.321 165.640,74.219 165.655,170.207 " />
<polygon points="172.611,74.321 172.610,69.269 165.639,69.167 165.640,74.219 " />
<polygon points="977.156,1021.696 977.251,925.760 969.196,925.624 969.100,1021.559 " />
<polygon points="977.251,925.760 977.256,920.711 969.201,920.575 969.196,925.624 " />
<polygon points="969.100,1021.559 969.196,925.624 960.726,925.694 960.630,1021.630 " />
<polygon points="969.196,925.624 969.201,920.575 960.731,920.645 960.726,925.694 " />
<polygon points="960.630,1021.630 960.726,925.694 955.078,925.945 954.982,1021.880 " />
<polygon points="960.726,925.694 960.731,920.645 955.083,920.896 955.078,925.945 " />
<polygon points="462.036,33.035 461.992,128.941 470.374,129.054 470.419,33.149 " />
<polygon points="461.992,128.941 461.989,133.988 470.372,134.102 470.374,129.054 " />
<polygon points="131.952,34.230 131.891,165.107 140.274,165.220 140.335,34.344 " />
<polygon points="131.891,165.107 131.889,170.197 140.271,170.310 140.274,165.220 " />
<polygon points="85.354,178.286 85.485,47.368 79.836,47.619 79.705,178.536 " />
<polygon points="85.485,47.368 85.490,42.276 79.841,42.527 79.836,47.619 " />
<polygon points="93.823,178.215 93.954,47.298 85.485,47.368 85.354,178.286 " />
<polygon points="93.954,47.298 93.959,42.206 85.490,42.276 85.485,47.368 " />
<polygon points="101.879,178.351 102.009,47.434 93.954,47.298 93.823,178.215 " />
<polygon points="102.009,47.434 102.015,42.342 93.959,42.206 93.954,47.298 " />
<polygon points="958.903,356.357 958.883,225.367 951.912,225.265 951.932,356.255 " />
<polygon points="958.883,225.367 958.882,220.272 951.911,220.170 951.912,225.265 " />
<polygon points="967.615,356.358 967.596,225.368 958.883,225.367 958.903,356.357 " />
<polygon points="967.596,225.368 967.595,220.274 958.882,220.272 958.883,225.367 " />
<polygon points="974.741,356.258 974.722,225.269 967.596,225.368 967.615,356.358 " />
<polygon points="974.722,225.269 974.721,220.174 967.595,220.274 967.596,225.368 " />
<polygon points="986.144,83.996 986.074,214.930 994.736,214.968 994.805,84.034 " />
<polygon points="986.074,214.930 986.072,220.023 994.733,220.061 994.736,214.968 " />
<polygon points="978.578,84.144 978.508,215.078 986.074,214.930 986.144,83.996 " />
<polygon points="978.508,215.078 978.505,220.170 986.072,220.023 986.074,214.930 " />
<polygon points="140.335,34.344 140.274,165.220 148.454,165.086 148.515,34.209 " />
<polygon points="140.274,165.220 140.271,170.310 148.451,170.176 148.454,165.086 " />
<polygon points="982.591,891.981 982.589,897.074 991.120,897.016 991.123,891.924 " />
<polygon points="982.661,761.047 982.591,891.981 991.123,891.924 991.192,760.989 " />
<polygon points="939.023,215.080 939.020,220.170 945.872,219.926 945.874,214.835 " />
<polygon points="939.084,84.204 939.023,215.080 945.874,214.835 945.935,83.959 " />
<polygon points="945.874,214.835 945.872,219.926 954.579,219.915 954.582,214.824 " />
<polygon points="945.935,83.959 945.874,214.835 954.582,214.824 954.643,83.948 " />
<polygon points="954.582,214.824 954.579,219.915 961.816,220.142 961.819,215.051 " />
<polygon points="954.643,83.948 954.582,214.824 961.819,215.051 961.880,84.175 " />
<polygon points="570.573,103.841 570.578,98.749 563.156,98.918 563.151,104.010 " />
<polygon points="570.442,234.758 570.573,103.841 563.151,104.010 563.020,234.927 " />
<polygon points="563.151,104.010 563.156,98.918 554.468,98.883 554.463,103.975 " />
<polygon points="563.020,234.927 563.151,104.010 554.463,103.975 554.332,234.892 " />
<polygon points="554.463,103.975 554.468,98.883 547.833,98.658 547.828,103.750 " />
<polygon points="554.332,234.892 554.463,103.975 547.828,103.750 547.697,234.668 " />
<polygon points="165.619,39.321 165.619,34.226 157.373,34.172 157.374,39.267 " />
<polygon points="165.639,170.310 165.619,39.321 157.374,39.267 157.394,170.256 " />
<polygon points="157.374,39.267 157.373,34.172 149.046,34.224 149.047,39.319 " />
<polygon points="157.394,170.256 157.374,39.267 149.047,39.319 149.067,170.308 " />
<polygon points="974.648,891.851 974.645,896.944 982.589,897.074 982.591,891.981 " />
<polygon points="974.717,760.917 974.648,891.851 982.591,891.981 982.661,761.047 " />
<polygon points="478.601,128.922 478.599,133.972 486.543,134.102 486.545,129.052 " />
<polygon points="478.652,32.974 478.601,128.922 486.545,129.052 486.596,33.104 " />
<polygon points="523.155,38.059 523.155,33.007 514.828,33.059 514.829,38.111 " />
<polygon points="523.170,134.048 523.155,38.059 514.829,38.111 514.843,134.100 " />
<polygon points="531.401,38.113 531.400,33.061 523.155,33.007 523.155,38.059 " />
<polygon points="531.415,134.102 531.401,38.113 523.155,38.059 523.170,134.048 " />
<polygon points="195.195,74.340 195.200,69.291 188.565,69.066 188.560,74.116 " />
<polygon points="195.099,170.276 195.195,74.340 188.560,74.116 188.464,170.051 " />
<polygon points="203.882,74.375 203.887,69.326 195.200,69.291 195.195,74.340 " />
<polygon points="203.786,170.310 203.882,74.375 195.195,74.340 195.099,170.276 " />
<polygon points="211.305,74.206 211.310,69.157 203.887,69.326 203.882,74.375 " />
<polygon points="211.209,170.142 211.305,74.206 203.882,74.375 203.786,170.310 " />
<polygon points="124.607,165.007 124.605,170.055 131.842,170.282 131.844,165.234 " />
<polygon points="124.652,69.102 124.607,165.007 131.844,165.234 131.889,69.329 " />
<polygon points="115.900,165.018 115.898,170.066 124.605,170.055 124.607,165.007 " />
<polygon points="115.945,69.113 115.900,165.018 124.607,165.007 124.652,69.102 " />
<polygon points="109.048,165.263 109.046,170.310 115.898,170.066 115.900,165.018 " />
<polygon points="109.093,69.357 109.048,165.263 115.900,165.018 115.945,69.113 " />
<polygon points="486.545,129.052 486.543,134.102 495.074,134.044 495.077,128.994 " />
<polygon points="486.596,33.104 486.545,129.052 495.077,128.994 495.127,33.046 " />
<polygon points="365.298,100.022 365.296,104.824 373.827,104.766 373.829,99.964 " />
<polygon points="365.323,53.728 365.298,100.022 373.829,99.964 373.854,53.670 " />
<polygon points="305.709,119.082 305.707,123.881 312.559,123.637 312.561,118.837 " />
<polygon points="305.731,72.808 305.709,119.082 312.561,118.837 312.583,72.563 " />
<polygon points="312.561,118.837 312.559,123.637 321.266,123.626 321.268,118.826 " />
<polygon points="312.583,72.563 312.561,118.837 321.268,118.826 321.290,72.552 " />
<polygon points="321.268,118.826 321.266,123.626 328.503,123.853 328.505,119.053 " />
<polygon points="321.290,72.552 321.268,118.826 328.505,119.053 328.527,72.779 " />
<polygon points="357.347,60.533 357.352,55.732 349.929,55.901 349.925,60.702 " />
<polygon points="357.301,106.821 357.347,60.533 349.925,60.702 349.878,106.990 " />
<polygon points="349.925,60.702 349.929,55.901 341.242,55.866 341.237,60.667 " />
<polygon points="349.878,106.990 349.925,60.702 341.237,60.667 341.191,106.956 " />
<polygon points="341.237,60.667 341.242,55.866 334.607,55.641 334.602,60.443 " />
<polygon points="341.191,106.956 341.237,60.667 334.602,60.443 334.556,106.731 " />
<polygon points="399.326,40.854 399.325,36.050 391.080,35.995 391.081,40.799 " />
<polygon points="399.333,87.167 399.326,40.854 391.081,40.799 391.088,87.113 " />
<polygon points="391.081,40.799 391.080,35.995 382.753,36.047 382.754,40.851 " />
<polygon points="391.088,87.113 391.081,40.799 382.754,40.851 382.761,87.165 " />
<polygon points="357.354,99.892 357.352,104.694 365.296,104.824 365.298,100.022 " />
<polygon points="357.379,53.598 357.354,99.892 365.298,100.022 365.323,53.728 " />
<polygon points="974.648,755.689 974.645,760.787 982.589,760.917 982.591,755.819 " />
<polygon points="974.717,624.760 974.648,755.689 982.591,755.819 982.661,624.890 " />
<polygon points="981.618,361.500 981.617,356.399 973.290,356.451 973.291,361.551 " />
<polygon points="981.638,492.483 981.618,361.500 973.291,361.551 973.311,492.535 " />
<polygon points="989.863,361.554 989.862,356.453 981.617,356.399 981.618,361.500 " />
<polygon points="989.883,492.538 989.863,361.554 981.618,361.500 981.638,492.483 " />
<polygon points="945.786,488.929 945.791,483.832 939.156,483.607 939.151,488.705 " />
<polygon points="945.655,619.841 945.786,488.929 939.151,488.705 939.020,619.616 " />
<polygon points="954.473,488.964 954.478,483.866 945.791,483.832 945.786,488.929 " />
<polygon points="954.342,619.876 954.473,488.964 945.786,488.929 945.655,619.841 " />
<polygon points="961.896,488.795 961.901,483.697 954.478,483.866 954.473,488.964 " />
<polygon points="961.765,619.707 961.896,488.795 954.473,488.964 954.342,619.876 " />
<polygon points="955.972,755.631 955.969,760.727 963.206,760.954 963.209,755.858 " />
<polygon points="956.033,624.760 955.972,755.631 963.209,755.858 963.270,624.987 " />
<polygon points="947.264,755.642 947.262,760.738 955.969,760.727 955.972,755.631 " />
<polygon points="947.325,624.771 947.264,755.642 955.972,755.631 956.033,624.760 " />
<polygon points="940.412,755.886 940.410,760.983 947.262,760.738 947.264,755.642 " />
<polygon points="940.474,625.016 940.412,755.886 947.264,755.642 947.325,624.771 " />
<polygon points="982.591,755.819 982.589,760.917 991.120,760.859 991.123,755.761 " />
<polygon points="982.661,624.890 982.591,755.819 991.123,755.761 991.192,624.833 " />
<polygon points="588.543,129.631 588.540,134.786 597.072,134.729 597.074,129.573 " />
<polygon points="588.595,31.669 588.543,129.631 597.074,129.573 597.126,31.611 " />
<polygon points="666.880,168.604 666.877,173.757 673.729,173.513 673.731,168.359 " />
<polygon points="666.925,70.685 666.880,168.604 673.731,168.359 673.777,70.441 " />
<polygon points="673.731,168.359 673.729,173.513 682.436,173.502 682.439,168.348 " />
<polygon points="673.777,70.441 673.731,168.359 682.439,168.348 682.484,70.430 " />
<polygon points="682.439,168.348 682.436,173.502 689.673,173.728 689.676,168.575 " />
<polygon points="682.484,70.430 682.439,168.348 689.676,168.575 689.721,70.657 " />
<polygon points="932.700,925.882 932.705,920.727 925.283,920.896 925.278,926.051 " />
<polygon points="932.602,1023.831 932.700,925.882 925.278,926.051 925.180,1024.000 " />
<polygon points="925.278,926.051 925.283,920.896 916.595,920.861 916.590,926.016 " />
<polygon points="925.180,1024.000 925.278,926.051 916.590,926.016 916.492,1023.965 " />
<polygon points="916.590,926.016 916.595,920.861 909.961,920.636 909.955,925.792 " />
<polygon points="916.492,1023.965 916.590,926.016 909.955,925.792 909.858,1023.741 " />
<polygon points="989.863,521.872 989.862,516.714 981.617,516.660 981.618,521.818 " />
<polygon points="989.878,619.876 989.863,521.872 981.618,521.818 981.633,619.821 " />
<polygon points="981.618,521.818 981.617,516.660 973.290,516.712 973.291,521.870 " />
<polygon points="981.633,619.821 981.618,521.818 973.291,521.870 973.306,619.873 " />
<polygon points="580.599,129.501 580.596,134.656 588.540,134.786 588.543,129.631 " />
<polygon points="580.651,31.539 580.599,129.501 588.543,129.631 588.595,31.669 " />
<polygon points="819.482,85.306 819.479,89.994 827.423,90.124 827.425,85.436 " />
<polygon points="819.512,28.846 819.482,85.306 827.425,85.436 827.455,28.976 " />
<polygon points="778.577,33.586 778.576,28.896 770.250,28.948 770.250,33.638 " />
<polygon points="778.586,90.069 778.577,33.586 770.250,33.638 770.259,90.121 " />
<polygon points="786.823,33.640 786.822,28.951 778.576,28.896 778.577,33.586 " />
<polygon points="786.831,90.124 786.823,33.640 778.577,33.586 778.586,90.069 " />
<polygon points="34.713,66.455 34.718,61.768 28.083,61.543 28.079,66.230 " />
<polygon points="34.657,122.907 34.713,66.455 28.079,66.230 28.022,122.683 " />
<polygon points="43.401,66.490 43.406,61.802 34.718,61.768 34.713,66.455 " />
<polygon points="43.345,122.942 43.401,66.490 34.713,66.455 34.657,122.907 " />
<polygon points="50.823,66.321 50.828,61.634 43.406,61.802 43.401,66.490 " />
<polygon points="50.767,122.773 50.823,66.321 43.401,66.490 43.345,122.942 " />
<polygon points="737.800,118.258 737.797,122.944 745.034,123.171 745.037,118.485 " />
<polygon points="737.826,61.824 737.800,118.258 745.037,118.485 745.063,62.051 " />
<polygon points="729.092,118.269 729.090,122.955 737.797,122.944 737.800,118.258 " />
<polygon points="729.119,61.835 729.092,118.269 737.800,118.258 737.826,61.824 " />
<polygon points="722.240,118.514 722.238,123.200 729.090,122.955 729.092,118.269 " />
<polygon points="722.267,62.080 722.240,118.514 729.092,118.269 729.119,61.835 " />
<polygon points="827.425,85.436 827.423,90.124 835.954,90.066 835.957,85.378 " />
<polygon points="827.455,28.976 827.425,85.436 835.957,85.378 835.987,28.919 " />
<polygon points="366.870,35.810 365.323,53.728 373.854,53.670 " />
<polygon points="289.216,48.307 297.509,36.892 289.229,34.202 " />
<polygon points="916.208,201.025 912.562,214.771 921.268,214.765 " />
<polygon points="289.216,48.307 302.622,43.943 297.509,36.892 " />
<polygon points="317.449,55.757 312.583,72.563 321.290,72.552 " />
<polygon points="289.216,48.307 302.615,52.661 302.622,43.943 " />
<polygon points="914.127,609.607 909.677,623.789 918.390,623.797 " />
<polygon points="289.216,48.307 297.489,59.716 302.615,52.661 " />
<polygon points="346.548,123.881 357.301,106.821 349.878,106.990 " />
<polygon points="289.216,48.307 289.203,62.413 297.489,59.716 " />
<polygon points="346.548,123.881 349.878,106.990 341.191,106.956 " />
<polygon points="289.216,48.307 280.922,59.723 289.203,62.413 " />
<polygon points="918.414,623.211 926.783,611.926 918.390,609.607 " />
<polygon points="289.216,48.307 275.809,52.672 280.922,59.723 " />
<polygon points="390.877,104.824 399.333,87.167 391.088,87.113 " />
<polygon points="289.216,48.307 275.817,43.954 275.809,52.672 " />
<polygon points="390.877,104.824 391.088,87.113 382.761,87.165 " />
<polygon points="289.216,48.307 280.943,36.899 275.817,43.954 " />
<polygon points="366.870,35.810 357.379,53.598 365.323,53.728 " />
<polygon points="289.216,48.307 289.229,34.202 280.943,36.899 " />
<polygon points="197.903,54.961 197.916,40.855 189.630,43.553 " />
<polygon points="895.956,75.749 887.962,86.999 896.243,89.701 " />
<polygon points="197.903,54.961 189.630,43.553 184.505,50.607 " />
<polygon points="895.956,75.749 882.843,79.938 887.962,86.999 " />
<polygon points="197.903,54.961 184.505,50.607 184.497,59.325 " />
<polygon points="895.956,75.749 882.841,71.214 882.843,79.938 " />
<polygon points="197.903,54.961 184.497,59.325 189.610,66.376 " />
<polygon points="895.956,75.749 887.958,64.160 882.841,71.214 " />
<polygon points="197.903,54.961 189.610,66.376 197.891,69.066 " />
<polygon points="895.956,75.749 896.238,61.470 887.958,64.160 " />
<polygon points="197.903,54.961 197.891,69.066 206.176,66.369 " />
<polygon points="895.956,75.749 904.519,64.171 896.238,61.470 " />
<polygon points="197.903,54.961 206.176,66.369 211.302,59.314 " />
<polygon points="895.956,75.749 909.638,71.233 904.519,64.171 " />
<polygon points="197.903,54.961 211.302,59.314 211.310,50.596 " />
<polygon points="895.956,75.749 909.640,79.956 909.638,71.233 " />
<polygon points="197.903,54.961 211.310,50.596 206.197,43.546 " />
<polygon points="895.956,75.749 904.523,87.010 909.640,79.956 " />
<polygon points="197.903,54.961 206.197,43.546 197.916,40.855 " />
<polygon points="895.956,75.749 896.243,89.701 904.523,87.010 " />
<polygon points="919.306,906.521 919.308,920.636 927.589,917.946 " />
<polygon points="708.832,56.388 717.125,44.973 708.844,42.282 " />
<polygon points="919.306,906.521 927.589,917.946 932.705,910.892 " />
<polygon points="708.832,56.388 722.238,52.023 717.125,44.973 " />
<polygon points="919.306,906.521 932.705,910.892 932.704,902.168 " />
<polygon points="708.832,56.388 722.231,60.741 722.238,52.023 " />
<polygon points="919.306,906.521 932.704,902.168 927.585,895.107 " />
<polygon points="708.832,56.388 717.105,67.796 722.231,60.741 " />
<polygon points="919.306,906.521 927.585,895.107 919.303,892.406 " />
<polygon points="708.832,56.388 708.819,70.493 717.105,67.796 " />
<polygon points="919.306,906.521 919.303,892.406 911.023,895.096 " />
<polygon points="708.832,56.388 700.538,67.803 708.819,70.493 " />
<polygon points="919.306,906.521 911.023,895.096 905.906,902.150 " />
<polygon points="708.832,56.388 695.425,60.752 700.538,67.803 " />
<polygon points="919.306,906.521 905.906,902.150 905.908,910.874 " />
<polygon points="708.832,56.388 695.433,52.034 695.425,60.752 " />
<polygon points="919.306,906.521 905.908,910.874 911.027,917.935 " />
<polygon points="708.832,56.388 700.559,44.979 695.433,52.034 " />
<polygon points="919.306,906.521 911.027,917.935 919.308,920.636 " />
<polygon points="708.832,56.388 708.844,42.282 700.559,44.979 " />
<polygon points="952.427,69.843 952.439,55.737 944.154,58.434 " />
<polygon points="923.039,75.585 914.761,86.999 923.042,89.701 " />
<polygon points="952.427,69.843 944.154,58.434 939.028,65.489 " />
<polygon points="923.039,75.585 909.641,79.938 914.761,86.999 " />
<polygon points="952.427,69.843 939.028,65.489 939.020,74.207 " />
<polygon points="923.039,75.585 909.640,71.214 909.641,79.938 " />
<polygon points="952.427,69.843 939.020,74.207 944.133,81.258 " />
<polygon points="923.039,75.585 914.756,64.160 909.640,71.214 " />
<polygon points="952.427,69.843 944.133,81.258 952.414,83.948 " />
<polygon points="923.039,75.585 923.037,61.470 914.756,64.160 " />
<polygon points="952.427,69.843 952.414,83.948 960.700,81.251 " />
<polygon points="923.039,75.585 931.318,64.171 923.037,61.470 " />
<polygon points="952.427,69.843 960.700,81.251 965.825,74.196 " />
<polygon points="923.039,75.585 936.437,71.233 931.318,64.171 " />
<polygon points="952.427,69.843 965.825,74.196 965.833,65.478 " />
<polygon points="923.039,75.585 936.439,79.956 936.437,71.233 " />
<polygon points="952.427,69.843 965.833,65.478 960.720,58.428 " />
<polygon points="923.039,75.585 931.322,87.010 936.439,79.956 " />
<polygon points="952.427,69.843 960.720,58.428 952.439,55.737 " />
<polygon points="923.039,75.585 923.042,89.701 931.322,87.010 " />
<polygon points="891.054,902.231 891.057,916.346 899.337,913.656 " />
<polygon points="680.284,56.324 688.577,44.909 680.296,42.219 " />
<polygon points="891.054,902.231 899.337,913.656 904.453,906.602 " />
<polygon points="680.284,56.324 693.690,51.960 688.577,44.909 " />
<polygon points="891.054,902.231 904.453,906.602 904.452,897.878 " />
<polygon points="680.284,56.324 693.682,60.677 693.690,51.960 " />
<polygon points="891.054,902.231 904.452,897.878 899.333,890.817 " />
<polygon points="680.284,56.324 688.557,67.732 693.682,60.677 " />
<polygon points="891.054,902.231 899.333,890.817 891.051,888.116 " />
<polygon points="680.284,56.324 680.271,70.430 688.557,67.732 " />
<polygon points="891.054,902.231 891.051,888.116 882.771,890.806 " />
<polygon points="680.284,56.324 671.990,67.739 680.271,70.430 " />
<polygon points="891.054,902.231 882.771,890.806 877.655,897.860 " />
<polygon points="680.284,56.324 666.877,60.689 671.990,67.739 " />
<polygon points="891.054,902.231 877.655,897.860 877.656,906.584 " />
<polygon points="680.284,56.324 666.885,51.971 666.877,60.689 " />
<polygon points="891.054,902.231 877.656,906.584 882.775,913.645 " />
<polygon points="680.284,56.324 672.011,44.916 666.885,51.971 " />
<polygon points="891.054,902.231 882.775,913.645 891.057,916.346 " />
<polygon points="680.284,56.324 680.296,42.219 672.011,44.916 " />
<polygon points="66.299,58.740 66.311,44.634 58.026,47.332 " />
<polygon points="869.442,75.585 861.163,86.999 869.444,89.701 " />
<polygon points="66.299,58.740 58.026,47.332 52.900,54.386 " />
<polygon points="869.442,75.585 856.044,79.938 861.163,86.999 " />
<polygon points="66.299,58.740 52.900,54.386 52.892,63.104 " />
<polygon points="869.442,75.585 856.042,71.214 856.044,79.938 " />
<polygon points="66.299,58.740 52.892,63.104 58.005,70.155 " />
<polygon points="869.442,75.585 861.159,64.160 856.042,71.214 " />
<polygon points="66.299,58.740 58.005,70.155 66.286,72.845 " />
<polygon points="869.442,75.585 869.439,61.470 861.159,64.160 " />
<polygon points="66.299,58.740 66.286,72.845 74.572,70.148 " />
<polygon points="869.442,75.585 877.720,64.171 869.439,61.470 " />
<polygon points="66.299,58.740 74.572,70.148 79.697,63.093 " />
<polygon points="869.442,75.585 882.839,71.233 877.720,64.171 " />
<polygon points="66.299,58.740 79.697,63.093 79.705,54.375 " />
<polygon points="869.442,75.585 882.841,79.956 882.839,71.233 " />
<polygon points="66.299,58.740 79.705,54.375 74.592,47.325 " />
<polygon points="869.442,75.585 877.724,87.010 882.841,79.956 " />
<polygon points="66.299,58.740 74.592,47.325 66.311,44.634 " />
<polygon points="869.442,75.585 869.444,89.701 877.724,87.010 " />
<polygon points="24.006,610.666 24.012,604.160 0.280,604.130 0.273,610.637 " />
<polygon points="444.348,697.553 421.549,697.916 421.566,704.420 444.365,704.057 " />
<polygon points="780.080,441.777 770.545,446.267 771.182,451.873 780.717,447.384 " />
<polygon points="770.545,446.267 780.080,441.777 780.166,412.404 770.631,416.894 " />
<polygon points="780.166,412.404 780.204,399.187 770.670,403.676 770.631,416.894 " />
<polygon points="951.911,389.607 952.010,479.216 961.891,483.607 961.793,393.998 " />
<polygon points="961.829,900.341 958.827,899.171 958.855,917.446 960.139,917.946 " />
<polygon points="955.821,918.033 958.826,916.874 957.125,899.171 955.840,899.667 " />
<polygon points="964.942,899.171 961.829,899.952 963.568,916.710 964.899,916.376 " />
<polygon points="331.346,131.200 328.463,129.791 318.978,143.727 320.211,144.330 " />
<polygon points="760.925,629.386 760.724,641.758 778.615,621.260 778.701,615.969 " />
<polygon points="357.352,169.926 350.933,159.774 328.587,156.550 331.333,160.893 " />
<polygon points="312.582,32.297 310.327,44.594 327.563,45.299 328.527,40.040 " />
<polygon points="318.243,124.796 305.788,123.881 309.280,141.200 314.607,141.591 " />
<polygon points="310.327,44.594 312.580,55.757 328.526,50.073 327.563,45.299 " />
<polygon points="328.463,129.791 318.243,124.796 314.607,141.591 318.978,143.727 " />
<polygon points="899.399,618.006 891.423,608.551 891.433,635.827 894.844,639.871 " />
<polygon points="340.266,181.633 352.213,180.457 329.135,165.396 324.026,165.899 " />
<polygon points="350.933,159.774 336.590,137.729 322.453,147.122 328.587,156.550 " />
<polygon points="314.077,183.866 340.266,181.633 324.026,165.899 312.825,166.854 " />
<polygon points="760.724,641.758 773.680,649.872 784.156,624.730 778.615,621.260 " />
<polygon points="932.705,920.575 949.743,917.496 949.734,899.171 942.447,900.488 " />
<polygon points="760.727,612.042 760.925,629.386 778.701,615.969 778.616,608.551 " />
<polygon points="305.707,183.742 314.077,183.866 312.825,166.854 309.245,166.801 " />
<polygon points="336.590,137.729 331.346,131.200 320.211,144.330 322.453,147.122 " />
<polygon points="352.213,180.457 357.352,169.926 331.333,160.893 329.135,165.396 " />
<polygon points="938.950,78.708 937.940,78.543 936.854,123.331 938.971,123.677 " />
<polygon points="303.282,185.340 304.601,185.339 305.387,141.117 302.622,141.119 " />
<polygon points="304.148,95.458 302.980,95.570 302.940,141.117 305.387,140.883 " />
<polygon points="639.510,45.529 638.337,45.518 647.809,89.706 650.267,89.729 " />
<polygon points="811.995,45.049 806.719,45.416 804.456,90.124 811.041,89.561 " />
<polygon points="639.566,89.843 635.221,89.816 633.905,134.771 640.849,134.753 " />
<polygon points="735.044,61.824 739.861,61.439 745.063,16.888 734.967,17.695 " />
<polygon points="634.179,45.479 628.908,45.521 628.048,89.712 639.096,89.626 " />
<polygon points="109.066,68.291 112.779,69.102 116.828,23.586 109.046,21.886 " />
<polygon points="638.337,45.518 634.179,45.479 639.096,89.626 647.809,89.706 " />
<polygon points="1006.612,755.701 1002.168,755.686 1002.069,800.263 1009.072,800.223 " />
<polygon points="292.944,107.627 298.043,107.623 302.622,62.655 295.765,62.569 " />
<polygon points="635.221,89.816 625.786,89.755 618.390,134.786 633.905,134.771 " />
<polygon points="281.800,107.641 292.944,107.627 295.765,62.569 279.951,62.413 " />
<polygon points="991.014,1020.799 995.687,1021.880 1000.729,977.739 990.935,975.472 " />
<polygon points="723.755,61.824 730.931,61.675 731.652,17.638 722.238,17.620 " />
<polygon points="819.388,44.527 811.995,45.049 811.041,89.561 819.479,88.793 " />
<polygon points="278.317,107.658 281.800,107.641 279.951,62.413 272.651,62.449 " />
<polygon points="625.786,89.755 622.990,89.729 612.531,134.731 618.390,134.786 " />
<polygon points="644.059,89.771 639.566,89.843 640.849,134.753 650.267,134.603 " />
<polygon points="79.705,122.942 63.094,128.095 62.115,138.354 78.888,131.505 " />
<polygon points="78.888,131.505 62.115,138.354 61.576,147.758 78.427,143.087 " />
<polygon points="77.438,168.354 78.427,143.087 61.576,147.758 60.419,169.221 " />
<polygon points="770.250,123.200 758.240,123.522 752.687,140.366 761.476,139.998 " />
<polygon points="731.945,124.213 732.214,141.160 752.687,140.366 758.240,123.522 " />
<polygon points="723.619,124.399 722.238,141.384 732.214,141.160 731.945,124.213 " />
<polygon points="581.585,284.355 579.056,267.439 576.055,267.522 579.080,284.424 " />
<polygon points="579.080,284.424 576.055,267.522 565.412,267.816 570.197,284.669 " />
<polygon points="487.820,283.664 490.994,267.170 477.460,267.501 476.523,283.940 " />
<polygon points="473.611,284.011 476.523,283.940 477.460,267.501 473.970,267.586 " />
<polygon points="473.611,284.011 473.970,267.586 461.388,267.485 456.832,284.256 " />
<polygon points="456.832,284.256 461.388,267.485 451.922,267.463 444.953,284.445 " />
<polygon points="444.953,284.445 451.922,267.463 438.497,266.924 433.747,283.995 " />
<polygon points="909.721,477.501 914.254,460.728 905.041,460.724 897.468,477.665 " />
<polygon points="926.955,477.286 926.278,460.789 914.254,460.728 909.721,477.501 " />
<polygon points="307.149,6.046 305.589,22.509 309.396,22.585 310.327,6.109 " />
<polygon points="63.659,122.784 66.062,106.244 51.735,106.433 51.700,122.942 " />
<polygon points="72.541,122.510 76.704,105.917 66.062,106.244 63.659,122.784 " />
<polygon points="75.046,122.434 79.705,105.824 76.704,105.917 72.541,122.510 " />
<polygon points="77.438,168.354 60.419,169.221 60.102,178.536 77.174,176.129 " />
<polygon points="802.022,649.773 803.318,649.309 802.033,636.900 " />
<polygon points="571.886,222.547 570.578,222.115 570.578,234.927 " />
<polygon points="803.318,648.705 804.643,649.064 804.628,636.900 " />
<polygon points="888.162,219.459 889.395,218.856 881.393,209.705 " />
<polygon points="905.208,203.811 903.341,208.761 911.648,221.987 " />
<polygon points="897.784,206.630 900.533,202.286 882.250,208.788 " />
<polygon points="789.347,638.546 784.156,637.279 784.162,649.751 785.016,649.872 " />
<polygon points="878.462,221.987 883.789,221.596 881.393,209.705 880.209,209.654 " />
<polygon points="793.308,641.376 789.347,638.546 785.016,649.872 " />
<polygon points="883.789,221.596 888.162,219.459 881.393,209.705 " />
<polygon points="24.430,89.833 27.926,85.868 25.048,70.317 24.440,70.487 " />
<polygon points="898.340,197.780 893.231,197.277 882.250,208.788 " />
<polygon points="891.641,216.062 897.784,206.630 882.250,208.788 881.393,209.705 " />
<polygon points="893.231,197.277 882.032,196.321 880.722,208.327 882.250,208.788 " />
<polygon points="911.637,202.636 905.208,203.811 911.648,221.987 " />
<polygon points="939.020,611.822 933.060,607.414 933.073,623.231 " />
<polygon points="903.341,208.761 900.533,215.625 911.648,221.987 " />
<polygon points="882.032,196.321 878.452,196.374 880.722,208.327 " />
<polygon points="889.395,218.856 891.641,216.062 881.393,209.705 " />
<polygon points="900.533,202.286 898.340,197.780 882.250,208.788 " />
<polygon points="338.557,546.543 339.883,546.511 324.093,343.865 323.262,343.885 " />
<polygon points="339.883,546.511 349.162,546.283 329.908,343.722 324.093,343.865 " />
<polygon points="650.434,760.453 639.543,760.495 620.466,963.695 627.292,963.668 " />
<polygon points="639.543,760.495 637.987,760.501 619.491,963.698 620.466,963.695 " />
<polygon points="840.891,326.794 835.028,323.202 835.067,338.090 840.911,334.463 " />
<polygon points="835.028,323.202 834.191,322.689 834.232,338.609 835.067,338.090 " />
<polygon points="637.987,760.501 639.543,760.495 639.574,701.932 638.019,701.938 " />
<polygon points="639.543,760.495 650.434,760.453 650.465,701.890 639.574,701.932 " />
<polygon points="340.720,605.091 342.045,605.058 339.883,546.511 338.557,546.543 " />
<polygon points="342.045,605.058 351.324,604.830 349.162,546.283 339.883,546.511 " />
<polygon points="638.022,695.431 639.578,695.425 646.968,629.748 644.235,629.759 " />
<polygon points="639.578,695.425 650.468,695.383 666.094,629.674 646.968,629.748 " />
<polygon points="351.564,611.335 342.285,611.563 343.972,677.014 360.267,676.613 " />
<polygon points="342.285,611.563 340.960,611.596 341.644,677.071 343.972,677.014 " />
<polygon points="644.235,629.759 646.968,629.748 624.202,564.154 618.106,564.178 " />
<polygon points="646.968,629.748 666.094,629.674 666.870,563.989 624.202,564.154 " />
<polygon points="360.267,676.613 343.972,677.014 319.560,743.129 355.913,742.235 " />
<polygon points="343.972,677.014 341.644,677.071 314.367,743.257 319.560,743.129 " />
<polygon points="618.106,564.178 624.202,564.154 624.209,551.140 618.113,551.164 " />
<polygon points="624.202,564.154 666.870,563.989 666.877,550.976 624.209,551.140 " />
<polygon points="355.913,742.235 319.560,743.129 320.041,756.140 356.394,755.245 " />
<polygon points="319.560,743.129 314.367,743.257 314.847,756.267 320.041,756.140 " />
<polygon points="618.113,551.164 624.209,551.140 632.711,486.266 627.864,486.284 " />
<polygon points="624.209,551.140 666.877,550.976 666.636,486.135 632.711,486.266 " />
<polygon points="356.394,755.245 320.041,756.140 332.401,820.798 361.305,820.087 " />
<polygon points="320.041,756.140 314.847,756.267 328.272,820.899 332.401,820.798 " />
<polygon points="627.864,486.284 632.711,486.266 646.213,421.506 643.353,421.517 " />
<polygon points="632.711,486.266 666.636,486.135 666.232,421.429 646.213,421.506 " />
<polygon points="361.305,820.087 332.401,820.798 350.642,885.223 367.698,884.803 " />
<polygon points="332.401,820.798 328.272,820.899 348.205,885.283 350.642,885.223 " />
<polygon points="643.353,421.517 646.213,421.506 617.272,292.640 615.781,292.646 " />
<polygon points="646.213,421.506 666.232,421.429 627.703,292.600 617.272,292.640 " />
<polygon points="367.698,884.803 350.642,885.223 344.727,1014.829 353.614,1014.610 " />
<polygon points="350.642,885.223 348.205,885.283 343.457,1014.860 344.727,1014.829 " />
<polygon points="617.272,292.640 627.707,284.131 615.786,284.177 " />
<polygon points="615.781,292.646 617.272,292.640 615.786,284.177 " />
<polygon points="617.272,292.640 627.703,292.600 627.707,284.131 " />
<polygon points="344.727,1014.829 343.770,1023.327 353.927,1023.077 " />
<polygon points="353.614,1014.610 344.727,1014.829 353.927,1023.077 " />
<polygon points="344.727,1014.829 343.457,1014.860 343.770,1023.327 " />
<polygon points="650.468,695.383 639.578,695.425 639.574,701.932 650.465,701.890 " />
<polygon points="639.578,695.425 638.022,695.431 638.019,701.938 639.574,701.932 " />
<polygon points="351.324,604.830 342.045,605.058 342.285,611.563 351.564,611.335 " />
<polygon points="342.045,605.058 340.720,605.091 340.960,611.596 342.285,611.563 " />
<polygon points="477.460,267.501 476.954,255.710 473.777,255.787 473.970,267.586 " />
<polygon points="476.954,255.710 476.036,234.286 473.425,234.350 473.777,255.787 " />
<polygon points="305.589,22.509 306.227,34.292 309.694,34.361 309.396,22.585 " />
<polygon points="306.227,34.292 307.386,55.700 310.235,55.757 309.694,34.361 " />
<polygon points="579.056,267.439 580.498,255.897 577.764,255.973 576.055,267.522 " />
<polygon points="580.498,255.897 583.116,234.927 580.871,234.989 577.764,255.973 " />
<polygon points="79.705,105.824 77.196,94.117 74.463,94.201 76.704,105.917 " />
<polygon points="77.196,94.117 72.636,72.845 70.391,72.914 74.463,94.201 " />
<polygon points="914.254,460.728 915.579,448.966 907.189,448.962 905.041,460.724 " />
<polygon points="915.579,448.966 917.987,427.594 911.094,427.591 907.189,448.962 " />
<polygon points="62.115,138.354 50.547,139.503 50.056,148.066 61.576,147.758 " />
<polygon points="50.547,139.503 29.528,141.590 29.125,148.626 50.056,148.066 " />
<polygon points="954.774,22.513 954.798,34.308 964.868,33.244 965.833,21.345 " />
<polygon points="954.798,34.308 954.840,55.737 963.114,54.863 964.868,33.244 " />
<polygon points="66.062,106.244 64.772,94.498 51.726,94.671 51.735,106.433 " />
<polygon points="64.772,94.498 62.430,73.159 51.711,73.301 51.726,94.671 " />
<polygon points="927.488,449.259 928.512,461.017 939.012,462.511 939.020,450.900 " />
<polygon points="928.512,461.017 930.371,482.379 938.998,483.607 939.012,462.511 " />
<polygon points="76.704,105.917 74.463,94.201 64.772,94.498 66.062,106.244 " />
<polygon points="74.463,94.201 70.391,72.914 62.430,73.159 64.772,94.498 " />
<polygon points="461.388,267.485 462.319,255.696 453.700,255.675 451.922,267.463 " />
<polygon points="462.319,255.696 464.012,234.275 456.930,234.258 453.700,255.675 " />
<polygon points="752.687,140.366 751.329,151.950 759.332,151.614 761.476,139.998 " />
<polygon points="751.329,151.950 748.862,172.996 755.437,172.721 759.332,151.614 " />
<polygon points="61.576,147.758 50.056,148.066 49.002,167.609 60.419,169.221 " />
<polygon points="50.056,148.066 29.125,148.626 28.259,164.682 49.002,167.609 " />
<polygon points="732.214,141.160 732.687,152.673 751.329,151.950 752.687,140.366 " />
<polygon points="732.687,152.673 733.545,173.590 748.862,172.996 751.329,151.950 " />
<polygon points="611.641,55.640 613.108,67.476 628.048,68.386 628.048,56.640 " />
<polygon points="613.108,67.476 615.773,88.981 628.048,89.729 628.048,68.386 " />
<polygon points="212.168,27.460 212.660,39.164 224.381,38.673 225.040,26.921 " />
<polygon points="212.660,39.164 213.554,60.430 223.184,60.026 224.381,38.673 " />
<polygon points="926.278,460.789 926.528,449.021 915.579,448.966 914.254,460.728 " />
<polygon points="926.528,449.021 926.982,427.640 917.987,427.594 915.579,448.966 " />
<polygon points="722.238,141.384 723.603,152.877 732.687,152.673 732.214,141.160 " />
<polygon points="723.603,152.877 726.082,173.757 733.545,173.590 732.687,152.673 " />
<polygon points="60.419,169.221 49.002,167.609 48.714,176.092 60.102,178.536 " />
<polygon points="49.002,167.609 28.259,164.682 28.022,171.651 48.714,176.092 " />
<polygon points="63.094,128.095 51.438,130.161 50.547,139.503 62.115,138.354 " />
<polygon points="51.438,130.161 30.261,133.915 29.528,141.590 50.547,139.503 " />
</g>
</svg>