<?xml version="1.0" encoding="UTF-8" standalone="no"?>
<svg
   xmlns:dc="http://purl.org/dc/elements/1.1/"
   xmlns:cc="http://creativecommons.org/ns#"
   xmlns:rdf="http://www.w3.org/1999/02/22-rdf-syntax-ns#"
   xmlns:svg="http://www.w3.org/2000/svg"
   xmlns="http://www.w3.org/2000/svg"
   xmlns:sodipodi="http://sodipodi.sourceforge.net/DTD/sodipodi-0.dtd"
   xmlns:inkscape="http://www.inkscape.org/namespaces/inkscape"
   width="512px"
   height="512px"
   viewBox="0 0 512 512"
   version="1.1"
   id="svg6400"
   inkscape:version="0.47pre4 r22446"
   sodipodi:docname="preacher4_logo.svg"
   inkscape:export-filename="/home/brutkasten/Dokumente/naev/blender/schiffe/preacher4_logo.png"
   inkscape:export-xdpi="180"
   inkscape:export-ydpi="180">
  <metadata
     id="metadata6576">
    <rdf:RDF>
      <cc:Work
         rdf:about="">
        <dc:format>image/svg+xml</dc:format>
        <dc:type
           rdf:resource="http://purl.org/dc/dcmitype/StillImage" />
        <dc:title></dc:title>
      </cc:Work>
    </rdf:RDF>
  </metadata>
  <defs
     id="defs6574">
    <inkscape:perspective
       sodipodi:type="inkscape:persp3d"
       inkscape:vp_x="0 : 256 : 1"
       inkscape:vp_y="0 : 1000 : 0"
       inkscape:vp_z="512 : 256 : 1"
       inkscape:persp3d-origin="256 : 170.66667 : 1"
       id="perspective6578" />
    <inkscape:perspective
       id="perspective7098"
       inkscape:persp3d-origin="0.5 : 0.33333333 : 1"
       inkscape:vp_z="1 : 0.5 : 1"
       inkscape:vp_y="0 : 1000 : 0"
       inkscape:vp_x="0 : 0.5 : 1"
       sodipodi:type="inkscape:persp3d" />
    <inkscape:perspective
       id="perspective7098-7"
       inkscape:persp3d-origin="0.5 : 0.33333333 : 1"
       inkscape:vp_z="1 : 0.5 : 1"
       inkscape:vp_y="0 : 1000 : 0"
       inkscape:vp_x="0 : 0.5 : 1"
       sodipodi:type="inkscape:persp3d" />
    <inkscape:perspective
       id="perspective7152"
       inkscape:persp3d-origin="0.5 : 0.33333333 : 1"
       inkscape:vp_z="1 : 0.5 : 1"
       inkscape:vp_y="0 : 1000 : 0"
       inkscape:vp_x="0 : 0.5 : 1"
       sodipodi:type="inkscape:persp3d" />
    <inkscape:perspective
       id="perspective7152-2"
       inkscape:persp3d-origin="0.5 : 0.33333333 : 1"
       inkscape:vp_z="1 : 0.5 : 1"
       inkscape:vp_y="0 : 1000 : 0"
       inkscape:vp_x="0 : 0.5 : 1"
       sodipodi:type="inkscape:persp3d" />
    <inkscape:perspective
       id="perspective7345"
       inkscape:persp3d-origin="0.5 : 0.33333333 : 1"
       inkscape:vp_z="1 : 0.5 : 1"
       inkscape:vp_y="0 : 1000 : 0"
       inkscape:vp_x="0 : 0.5 : 1"
       sodipodi:type="inkscape:persp3d" />
  </defs>
  <sodipodi:namedview
     pagecolor="#ffffff"
     bordercolor="#666666"
     borderopacity="1"
     objecttolerance="10"
     gridtolerance="10"
     guidetolerance="10"
     inkscape:pageopacity="0"
     inkscape:pageshadow="2"
     inkscape:window-width="1895"
     inkscape:window-height="1003"
     id="namedview6572"
     showgrid="false"
     inkscape:zoom="1.84375"
     inkscape:cx="174.8287"
     inkscape:cy="63.91396"
     inkscape:window-x="0"
     inkscape:window-y="25"
     inkscape:window-maximized="1"
     inkscape:current-layer="svg6400" />
  <desc
     id="desc6402">UV-Map from Object: Cube.001. Exported from Blender3D with UV Exportscript</desc>
  <rect
     x="0"
     y="0"
     width="512"
     height="512"
     fill="none"
     stroke="blue"
     stroke-width="1px"
     id="rect6404"
     style="fill:none" />
  <g
     style="fill:none;stroke:#000000;stroke-width:1px;stroke-opacity:1"
     id="g6406">
    <polygon
       points="242.618,251.516 245.943,251.843 251.377,209.273 238.862,208.334 "
       id="polygon6408"
       style="fill:none;stroke:#000000;stroke-opacity:1" />
    <polygon
       points="298.719,53.432 311.229,52.506 305.833,9.930 302.509,10.257 "
       id="polygon6410"
       style="fill:none;stroke:#000000;stroke-opacity:1" />
    <polygon
       points="150.789,123.710 147.589,123.737 147.647,142.698 150.848,142.706 "
       id="polygon6412"
       style="fill:none;stroke:#000000;stroke-opacity:1" />
    <polygon
       points="311.229,52.506 298.719,53.432 308.337,80.610 311.426,80.210 "
       id="polygon6414"
       style="fill:none;stroke:#000000;stroke-opacity:1" />
    <polygon
       points="238.862,208.334 251.377,209.273 253.575,182.193 248.426,181.160 "
       id="polygon6416"
       style="fill:none;stroke:#000000;stroke-opacity:1" />
    <polygon
       points="248.426,181.160 253.575,182.193 276.228,79.417 255.404,80.405 "
       id="polygon6418"
       style="fill:none;stroke:#000000;stroke-opacity:1" />
    <polygon
       points="311.426,80.210 308.337,80.610 315.297,181.287 336.158,182.292 "
       id="polygon6420"
       style="fill:none;stroke:#000000;stroke-opacity:1" />
    <polygon
       points="67.199,144.357 87.639,142.626 87.546,101.455 67.063,99.853 "
       id="polygon6422"
       style="fill:none;stroke:#000000;stroke-opacity:1" />
    <polygon
       points="281.753,14.507 261.397,9.997 241.494,28.157 263.539,29.619 "
       id="polygon6424"
       style="fill:none;stroke:#000000;stroke-opacity:1" />
    <polygon
       points="255.404,80.405 276.228,79.417 260.562,64.456 238.579,62.577 "
       id="polygon6426"
       style="fill:none;stroke:#000000;stroke-opacity:1" />
    <polygon
       points="238.579,62.577 260.562,64.456 263.539,29.619 241.494,28.157 "
       id="polygon6428"
       style="fill:none;stroke:#000000;stroke-opacity:1" />
    <polygon
       points="321.324,251.843 341.712,247.309 323.782,232.123 301.550,233.608 "
       id="polygon6430"
       style="fill:none;stroke:#000000;stroke-opacity:1" />
    <polygon
       points="336.158,182.292 315.297,181.287 298.610,199.192 320.807,197.300 "
       id="polygon6432"
       style="fill:none;stroke:#000000;stroke-opacity:1" />
    <polygon
       points="320.807,197.300 298.610,199.192 301.550,233.608 323.782,232.123 "
       id="polygon6434"
       style="fill:none;stroke:#000000;stroke-opacity:1" />
    <polygon
       points="483.448,360.545 500.710,363.059 500.710,363.059 474.606,255.125 "
       id="polygon6436"
       style="fill:none;stroke:#000000;stroke-opacity:1" />
    <polygon
       points="221.419,144.386 185.996,144.458 186.120,249.905 221.543,249.833 "
       id="polygon6438"
       style="fill:none;stroke:#000000;stroke-opacity:1" />
    <polygon
       points="235.325,141.789 221.419,144.386 221.543,249.833 238.579,141.783 "
       id="polygon6440"
       style="fill:none;stroke:#000000;stroke-opacity:1" />
    <polygon
       points="35.447,247.346 49.279,249.872 52.533,249.905 36.443,141.904 "
       id="polygon6442"
       style="fill:none;stroke:#000000;stroke-opacity:1" />
    <polygon
       points="0.000,247.131 35.447,247.346 36.443,141.904 0.996,141.690 "
       id="polygon6444"
       style="fill:none;stroke:#000000;stroke-opacity:1" />
    <polygon
       points="500.803,404.230 483.241,406.528 475.054,512.000 500.803,404.230 "
       id="polygon6446"
       style="fill:none;stroke:#000000;stroke-opacity:1" />
    <polygon
       points="0.000,512.000 0.000,512.000 0.000,512.000 0.000,512.000 "
       id="polygon6448"
       style="fill:none;stroke:#000000;stroke-opacity:1" />
    <polygon
       points="276.228,79.417 253.575,182.193 253.575,182.193 275.956,82.616 "
       id="polygon6450"
       style="fill:none;stroke:#000000;stroke-opacity:1" />
    <polygon
       points="311.426,80.210 336.158,182.292 335.884,179.094 311.507,80.211 "
       id="polygon6452"
       style="fill:none;stroke:#000000;stroke-opacity:1" />
    <polygon
       points="0.000,512.000 0.000,512.000 0.000,512.000 0.000,512.000 "
       id="polygon6454"
       style="fill:none;stroke:#000000;stroke-opacity:1" />
    <polygon
       points="110.238,195.390 110.165,227.168 110.335,227.270 110.238,195.390 "
       id="polygon6456"
       style="fill:none;stroke:#000000;stroke-opacity:1" />
    <polygon
       points="110.714,248.087 110.770,229.091 110.232,227.270 110.165,249.905 "
       id="polygon6458"
       style="fill:none;stroke:#000000;stroke-opacity:1" />
    <polygon
       points="165.575,100.303 165.617,144.420 165.617,144.420 167.148,101.388 "
       id="polygon6460"
       style="fill:none;stroke:#000000;stroke-opacity:1" />
    <polygon
       points="108.562,136.709 108.565,180.827 110.138,179.740 108.562,136.709 "
       id="polygon6462"
       style="fill:none;stroke:#000000;stroke-opacity:1" />
    <polygon
       points="251.377,209.273 246.077,251.167 250.448,251.159 263.870,211.113 "
       id="polygon6464"
       style="fill:none;stroke:#000000;stroke-opacity:1" />
    <polygon
       points="305.961,10.607 311.229,52.506 323.798,50.555 310.332,10.614 "
       id="polygon6466"
       style="fill:none;stroke:#000000;stroke-opacity:1" />
    <polygon
       points="62.705,121.721 62.775,144.357 67.063,144.226 66.995,121.826 "
       id="polygon6468"
       style="fill:none;stroke:#000000;stroke-opacity:1" />
    <polygon
       points="311.229,52.506 311.507,80.211 327.589,75.149 323.798,50.555 "
       id="polygon6470"
       style="fill:none;stroke:#000000;stroke-opacity:1" />
    <polygon
       points="253.575,182.193 251.377,209.273 263.870,211.113 267.680,186.621 "
       id="polygon6472"
       style="fill:none;stroke:#000000;stroke-opacity:1" />
    <polygon
       points="311.507,80.211 335.884,179.094 358.550,186.809 327.589,75.149 "
       id="polygon6474"
       style="fill:none;stroke:#000000;stroke-opacity:1" />
    <polygon
       points="275.956,82.616 253.575,182.193 267.680,186.621 298.610,74.945 "
       id="polygon6476"
       style="fill:none;stroke:#000000;stroke-opacity:1" />
    <polygon
       points="500.710,363.059 500.803,404.230 512.000,398.202 511.931,368.982 "
       id="polygon6478"
       style="fill:none;stroke:#000000;stroke-opacity:1" />
    <polygon
       points="500.803,404.230 475.054,512.000 478.709,511.893 512.000,398.202 "
       id="polygon6480"
       style="fill:none;stroke:#000000;stroke-opacity:1" />
    <polygon
       points="167.419,109.459 167.473,144.420 171.129,144.383 171.080,109.467 "
       id="polygon6482"
       style="fill:none;stroke:#000000;stroke-opacity:1" />
    <polygon
       points="421.933,130.284 405.107,238.591 425.407,251.843 425.233,131.508 "
       id="polygon6484"
       style="fill:none;stroke:#000000;stroke-opacity:1" />
    <polygon
       points="87.639,141.529 104.829,249.905 107.807,248.797 107.953,128.314 "
       id="polygon6486"
       style="fill:none;stroke:#000000;stroke-opacity:1" />
    <polygon
       points="52.533,109.409 52.586,144.357 55.887,144.338 55.834,109.433 "
       id="polygon6488"
       style="fill:none;stroke:#000000;stroke-opacity:1" />
    <polygon
       points="474.606,255.125 500.710,363.059 511.931,368.982 477.903,255.204 "
       id="polygon6490"
       style="fill:none;stroke:#000000;stroke-opacity:1" />
    <polygon
       points="219.419,512.000 238.579,500.071 223.465,462.060 190.221,482.758 "
       id="polygon6492"
       style="fill:none;stroke:#000000;stroke-opacity:1" />
    <polygon
       points="190.221,482.758 223.465,462.060 201.267,445.587 185.940,455.130 "
       id="polygon6494"
       style="fill:none;stroke:#000000;stroke-opacity:1" />
    <polygon
       points="185.940,455.130 201.267,445.587 145.232,346.849 120.235,362.399 "
       id="polygon6496"
       style="fill:none;stroke:#000000;stroke-opacity:1" />
    <polygon
       points="120.235,362.399 145.232,346.849 118.901,305.431 93.916,321.000 "
       id="polygon6498"
       style="fill:none;stroke:#000000;stroke-opacity:1" />
    <polygon
       points="120.235,362.399 93.916,321.000 0.000,386.578 18.723,416.301 "
       id="polygon6500"
       style="fill:none;stroke:#000000;stroke-opacity:1" />
    <polygon
       points="118.901,305.431 145.232,346.849 238.394,279.534 219.558,249.905 "
       id="polygon6502"
       style="fill:none;stroke:#000000;stroke-opacity:1" />
    <polygon
       points="447.452,247.784 464.306,251.843 464.306,251.843 464.111,143.294 "
       id="polygon6504"
       style="fill:none;stroke:#000000;stroke-opacity:1" />
    <polygon
       points="52.533,249.803 87.533,249.905 87.639,144.458 52.640,144.357 "
       id="polygon6506"
       style="fill:none;stroke:#000000;stroke-opacity:1" />
    <polygon
       points="447.452,141.941 425.407,148.308 447.207,251.843 447.452,141.941 "
       id="polygon6508"
       style="fill:none;stroke:#000000;stroke-opacity:1" />
    <polygon
       points="127.802,248.464 150.848,249.905 150.848,249.905 127.795,142.706 "
       id="polygon6510"
       style="fill:none;stroke:#000000;stroke-opacity:1" />
    <polygon
       points="185.862,144.458 150.848,144.420 150.982,249.867 185.996,249.905 "
       id="polygon6512"
       style="fill:none;stroke:#000000;stroke-opacity:1" />
    <polygon
       points="127.795,141.525 110.770,145.466 127.754,249.905 127.795,141.525 "
       id="polygon6514"
       style="fill:none;stroke:#000000;stroke-opacity:1" />
    <polygon
       points="0.000,512.000 0.000,512.000 0.000,512.000 0.000,512.000 "
       id="polygon6516"
       style="fill:none;stroke:#000000;stroke-opacity:1" />
    <polygon
       points="0.000,512.000 0.000,512.000 0.000,512.000 0.000,512.000 "
       id="polygon6518"
       style="fill:none;stroke:#000000;stroke-opacity:1" />
    <polygon
       points="0.000,512.000 0.000,512.000 0.000,512.000 0.000,512.000 "
       id="polygon6520"
       style="fill:none;stroke:#000000;stroke-opacity:1" />
    <polygon
       points="0.000,512.000 0.000,512.000 0.000,512.000 0.000,512.000 "
       id="polygon6522"
       style="fill:none;stroke:#000000;stroke-opacity:1" />
    <polygon
       points="0.000,512.000 0.000,512.000 0.000,512.000 0.000,512.000 "
       id="polygon6524"
       style="fill:none;stroke:#000000;stroke-opacity:1" />
    <polygon
       points="61.937,144.357 62.705,99.950 61.842,99.326 61.937,144.357 "
       id="polygon6526"
       style="fill:none;stroke:#000000;stroke-opacity:1" />
    <polygon
       points="110.490,208.309 110.434,227.270 110.720,226.249 110.770,209.331 "
       id="polygon6528"
       style="fill:none;stroke:#000000;stroke-opacity:1" />
    <polygon
       points="128.656,142.078 127.848,97.620 127.848,97.620 127.795,142.706 "
       id="polygon6530"
       style="fill:none;stroke:#000000;stroke-opacity:1" />
    <polygon
       points="405.078,251.843 397.675,208.718 381.856,211.077 399.303,251.071 "
       id="polygon6532"
       style="fill:none;stroke:#000000;stroke-opacity:1" />
    <polygon
       points="61.302,144.357 61.250,127.438 55.887,127.637 55.938,144.191 "
       id="polygon6534"
       style="fill:none;stroke:#000000;stroke-opacity:1" />
    <polygon
       points="374.371,123.107 381.811,79.991 376.038,80.762 358.550,120.809 "
       id="polygon6536"
       style="fill:none;stroke:#000000;stroke-opacity:1" />
    <polygon
       points="381.856,150.934 374.371,123.107 358.550,120.809 375.065,149.872 "
       id="polygon6538"
       style="fill:none;stroke:#000000;stroke-opacity:1" />
    <polygon
       points="397.675,208.718 405.107,180.898 398.314,181.960 381.856,211.077 "
       id="polygon6540"
       style="fill:none;stroke:#000000;stroke-opacity:1" />
    <polygon
       points="405.107,180.898 404.264,79.910 389.371,81.477 398.314,181.960 "
       id="polygon6542"
       style="fill:none;stroke:#000000;stroke-opacity:1" />
    <polygon
       points="381.000,251.843 381.856,150.934 375.065,149.872 366.088,250.289 "
       id="polygon6544"
       style="fill:none;stroke:#000000;stroke-opacity:1" />
    <polygon
       points="504.858,149.905 504.723,105.401 489.676,106.459 489.833,148.935 "
       id="polygon6546"
       style="fill:none;stroke:#000000;stroke-opacity:1" />
    <polygon
       points="165.575,144.420 165.497,37.060 163.571,36.883 150.848,142.556 "
       id="polygon6548"
       style="fill:none;stroke:#000000;stroke-opacity:1" />
    <polygon
       points="110.110,215.367 110.138,180.827 108.136,180.896 108.110,215.342 "
       id="polygon6550"
       style="fill:none;stroke:#000000;stroke-opacity:1" />
    <polygon
       points="477.391,255.125 504.858,149.905 489.833,148.935 475.374,254.931 "
       id="polygon6552"
       style="fill:none;stroke:#000000;stroke-opacity:1" />
    <polygon
       points="504.723,105.401 476.753,0.000 474.606,0.218 489.676,106.459 "
       id="polygon6554"
       style="fill:none;stroke:#000000;stroke-opacity:1" />
    <polygon
       points="110.138,249.905 110.085,215.367 107.953,215.394 108.006,249.832 "
       id="polygon6556"
       style="fill:none;stroke:#000000;stroke-opacity:1" />
    <polygon
       points="173.461,144.420 185.996,37.603 171.129,37.764 171.399,144.371 "
       id="polygon6558"
       style="fill:none;stroke:#000000;stroke-opacity:1" />
    <polygon
       points="460.246,251.843 433.997,282.517 458.050,297.625 474.369,260.713 "
       id="polygon6560"
       style="fill:none;stroke:#000000;stroke-opacity:1" />
    <polygon
       points="458.050,297.625 433.997,282.517 421.505,309.493 438.150,319.947 "
       id="polygon6562"
       style="fill:none;stroke:#000000;stroke-opacity:1" />
    <polygon
       points="438.150,319.947 421.505,309.493 357.563,387.714 393.836,410.422 "
       id="polygon6564"
       style="fill:none;stroke:#000000;stroke-opacity:1" />
    <polygon
       points="393.836,410.422 357.563,387.714 319.266,447.429 355.471,470.243 "
       id="polygon6566"
       style="fill:none;stroke:#000000;stroke-opacity:1" />
    <polygon
       points="319.266,447.429 357.563,387.714 257.166,346.262 238.579,375.524 "
       id="polygon6568"
       style="fill:none;stroke:#000000;stroke-opacity:1" />
    <polygon
       points="393.836,410.422 355.471,470.243 455.901,512.000 474.606,482.834 "
       id="polygon6570"
       style="fill:none;stroke:#000000;stroke-opacity:1" />
  </g>
  <g
     inkscape:label="Layer 1"
     id="layer1"
     transform="matrix(0.16252197,-0.09383211,0.09383211,0.16252197,39.253699,308.79028)"
     style="fill:#f9f9f9">
    <path
       sodipodi:type="arc"
       style="fill:#f9f9f9;fill-rule:evenodd;stroke:#000000;stroke-width:1px;stroke-linecap:butt;stroke-linejoin:miter;stroke-opacity:1"
       id="path2385"
       sodipodi:cx="348.50262"
       sodipodi:cy="335.65897"
       sodipodi:rx="14.142136"
       sodipodi:ry="14.142136"
       d="m 362.64476,335.65897 c 0,7.81048 -6.33165,14.14213 -14.14214,14.14213 -7.81048,0 -14.14213,-6.33165 -14.14213,-14.14213 0,-7.81049 6.33165,-14.14214 14.14213,-14.14214 7.81049,0 14.14214,6.33165 14.14214,14.14214 z"
       transform="matrix(0.9310106,0,0,0.9310106,-7.2717323,2.4487929)" />
    <path
       style="fill:#f9f9f9;fill-rule:evenodd;stroke:#000000;stroke-width:1px;stroke-linecap:butt;stroke-linejoin:miter;stroke-opacity:1"
       d="m 265.16504,417.98638 c 5.21513,-70.51309 -1.83928,-180.18863 89.3985,-119.70307 -99.20969,-141.48457 -103.77684,61.16802 -89.3985,119.70307 z"
       id="path2387"
       sodipodi:nodetypes="ccc" />
    <path
       style="fill:#f9f9f9;fill-rule:evenodd;stroke:#000000;stroke-width:1px;stroke-linecap:butt;stroke-linejoin:miter;stroke-opacity:1"
       d="m 265.67012,418.99654 c -46.35871,-115.7233 24.78886,-280.4973 89.3985,-120.71323 -88.0278,-101.4989 -106.22136,45.4908 -89.3985,120.71323 z"
       id="path2383"
       sodipodi:nodetypes="ccc" />
  </g>
  <g
     inkscape:label="Layer 1"
     id="layer1-7"
     transform="matrix(-0.25005013,-0.14689787,0.14689787,-0.25005013,384.44826,554.48497)"
     style="fill:#f9f9f9">
    <path
       sodipodi:type="arc"
       style="fill:#f9f9f9;fill-rule:evenodd;stroke:#000000;stroke-width:1px;stroke-linecap:butt;stroke-linejoin:miter;stroke-opacity:1"
       id="path2385-3"
       sodipodi:cx="348.50262"
       sodipodi:cy="335.65897"
       sodipodi:rx="14.142136"
       sodipodi:ry="14.142136"
       d="m 362.64476,335.65897 c 0,7.81048 -6.33165,14.14213 -14.14214,14.14213 -7.81048,0 -14.14213,-6.33165 -14.14213,-14.14213 0,-7.81049 6.33165,-14.14214 14.14213,-14.14214 7.81049,0 14.14214,6.33165 14.14214,14.14214 z"
       transform="matrix(0.9310106,0,0,0.9310106,-7.2717323,2.4487929)" />
    <path
       style="fill:#f9f9f9;fill-rule:evenodd;stroke:#000000;stroke-width:1px;stroke-linecap:butt;stroke-linejoin:miter;stroke-opacity:1"
       d="m 265.16504,417.98638 c 5.21513,-70.51309 -1.83928,-180.18863 89.3985,-119.70307 -99.20969,-141.48457 -103.77684,61.16802 -89.3985,119.70307 z"
       id="path2387-2"
       sodipodi:nodetypes="ccc" />
    <path
       style="fill:#f9f9f9;fill-rule:evenodd;stroke:#000000;stroke-width:1px;stroke-linecap:butt;stroke-linejoin:miter;stroke-opacity:1"
       d="m 265.67012,418.99654 c -46.35871,-115.7233 24.78886,-280.4973 89.3985,-120.71323 -88.0278,-101.4989 -106.22136,45.4908 -89.3985,120.71323 z"
       id="path2383-9"
       sodipodi:nodetypes="ccc" />
  </g>
</svg>
