<?xml version="1.0"?>
<!DOCTYPE svg PUBLIC "-//W3C//DTD SVG 1.1//EN" "http://www.w3.org/Graphics/SVG/1.1/DTD/svg11.dtd">
<svg width="512px" height="512px" viewBox="0 0 512 512" xmlns="http://www.w3.org/2000/svg" version="1.1">
<desc>UV-Map from Object: Cube. Exported from Blender3D with UV Exportscript</desc>
<rect x="0" y="0" width="512" height="512" fill="none" stroke="blue" stroke-width="1px" />
<g style="fill:#F2DAF2; stroke:black; stroke-width:1px;">
<polygon points="272.892,444.396 279.574,440.947 276.132,434.253 269.451,437.701 " />
<polygon points="79.017,444.224 79.040,436.693 71.592,436.670 71.569,444.201 " />
<polygon points="135.274,452.973 135.251,460.503 142.700,460.526 142.723,452.996 " />
<polygon points="421.440,511.977 421.463,504.447 393.481,504.361 393.458,511.891 " />
<polygon points="142.700,460.526 135.251,460.503 135.165,488.536 142.614,488.558 " />
<polygon points="170.167,75.330 162.658,75.307 162.473,135.553 169.982,135.576 " />
<polygon points="79.017,444.224 71.569,444.201 71.384,504.446 78.833,504.469 " />
<polygon points="78.833,504.469 71.384,504.446 71.361,511.977 78.810,512.000 " />
<polygon points="142.614,488.558 135.165,488.536 135.142,496.066 142.591,496.089 " />
<polygon points="168.115,512.000 168.141,504.471 160.625,504.448 160.599,511.977 " />
<polygon points="220.597,473.498 220.571,481.027 228.087,481.050 228.113,473.522 " />
<polygon points="339.531,270.816 339.556,278.346 347.072,278.323 347.048,270.793 " />
<polygon points="287.115,278.255 287.091,270.726 279.574,270.749 279.598,278.279 " />
<polygon points="167.862,273.440 160.622,273.418 160.599,280.948 167.839,280.971 " />
<polygon points="160.391,218.009 153.151,217.987 153.128,225.518 160.368,225.540 " />
<polygon points="160.576,157.763 153.335,157.741 153.151,217.987 160.391,218.009 " />
<polygon points="214.349,135.712 221.858,135.735 222.042,75.490 214.533,75.466 " />
<polygon points="167.948,245.408 160.708,245.386 160.622,273.418 167.862,273.440 " />
<polygon points="393.546,483.106 393.523,490.636 421.505,490.722 421.528,483.192 " />
<polygon points="220.670,452.247 220.644,459.776 228.161,459.799 228.187,452.270 " />
<polygon points="160.731,237.855 160.708,245.386 167.948,245.408 167.971,237.877 " />
<polygon points="160.576,157.763 160.599,150.233 153.358,150.211 153.335,157.741 " />
<polygon points="168.294,459.989 168.320,452.460 160.804,452.437 160.778,459.966 " />
<polygon points="169.982,135.576 169.959,143.106 214.325,143.243 214.349,135.712 " />
<polygon points="168.141,504.471 168.294,459.989 160.778,459.966 160.625,504.448 " />
<polygon points="59.516,144.921 19.913,165.053 23.313,171.768 62.916,151.637 " />
<polygon points="76.084,225.540 76.221,181.050 68.703,181.027 68.567,225.517 " />
<polygon points="287.091,467.487 279.574,467.510 279.710,512.000 287.227,511.977 " />
<polygon points="253.321,274.825 253.202,230.343 245.685,230.366 245.805,274.848 " />
<polygon points="62.904,70.994 59.442,64.310 20.026,84.806 23.488,91.490 " />
<polygon points="75.013,225.540 67.496,225.563 67.632,270.009 75.150,269.985 " />
<polygon points="110.263,119.266 110.240,126.796 123.927,126.838 123.950,119.308 " />
<polygon points="220.597,473.498 228.113,473.522 228.161,459.799 220.644,459.776 " />
<polygon points="393.481,504.361 393.523,490.636 386.006,490.613 385.964,504.338 " />
<polygon points="63.037,219.329 59.637,212.614 47.419,218.824 50.820,225.540 " />
<polygon points="168.116,415.942 160.599,415.966 160.641,429.690 168.158,429.667 " />
<polygon points="244.919,512.000 252.435,511.977 252.398,498.254 244.882,498.278 " />
<polygon points="202.771,511.977 210.288,512.000 210.330,498.289 202.813,498.266 " />
<polygon points="59.575,131.914 47.415,138.237 50.877,144.921 63.037,138.598 " />
<polygon points="160.685,324.571 160.599,352.603 168.047,352.626 168.133,324.594 " />
<polygon points="226.853,195.139 234.093,195.161 234.179,167.129 226.939,167.107 " />
<polygon points="167.862,211.064 168.047,150.819 160.806,150.797 160.622,211.042 " />
<polygon points="253.698,83.020 246.249,82.997 246.065,143.243 253.513,143.266 " />
<polygon points="466.499,250.000 474.016,250.023 474.200,189.778 466.684,189.755 " />
<polygon points="67.655,277.531 67.632,270.009 7.494,270.193 7.517,277.716 " />
<polygon points="102.840,91.210 102.754,119.242 110.263,119.266 110.349,91.233 " />
<polygon points="168.047,150.819 168.070,143.288 160.829,143.266 160.806,150.797 " />
<polygon points="167.839,218.595 167.862,211.064 160.622,211.042 160.599,218.573 " />
<polygon points="226.939,167.107 234.179,167.129 234.202,159.598 226.962,159.576 " />
<polygon points="461.762,447.162 455.257,450.935 455.342,512.000 461.847,508.227 " />
<polygon points="194.806,0.000 194.783,7.531 253.675,23.819 253.698,16.288 " />
<polygon points="234.726,508.147 241.183,512.000 241.258,451.001 234.801,447.148 " />
<polygon points="376.223,268.650 383.449,270.726 383.504,212.086 376.277,210.011 " />
<polygon points="279.574,440.947 272.892,444.396 269.377,505.305 276.058,501.857 " />
<polygon points="167.862,211.064 167.839,218.595 226.830,202.669 226.853,195.139 " />
<polygon points="360.613,450.921 354.099,447.167 354.047,508.247 360.561,512.000 " />
<polygon points="135.251,460.503 135.274,452.973 79.040,436.693 79.017,444.224 " />
<polygon points="81.691,509.726 88.858,512.000 88.837,458.733 81.671,456.458 " />
<polygon points="471.557,458.982 464.042,459.026 463.993,512.000 471.508,511.957 " />
<polygon points="160.514,455.110 153.334,457.340 153.419,512.000 160.599,509.770 " />
<polygon points="23.488,91.490 16.816,94.959 40.744,141.706 47.415,138.237 " />
<polygon points="7.187,456.458 0.021,458.733 0.000,512.000 7.166,509.726 " />
<polygon points="364.033,511.951 371.548,512.000 371.496,459.556 363.981,459.507 " />
<polygon points="112.348,509.770 119.528,512.000 119.612,457.340 112.432,455.109 " />
<polygon points="246.109,218.550 253.625,218.595 253.698,165.705 246.181,165.660 " />
<polygon points="0.000,512.000 512.000,512.000 512.000,0.000 0.000,0.000 " />
<polygon points="0.000,512.000 0.000,0.000 512.000,0.000 512.000,512.000 " />
<polygon points="0.000,512.000 0.000,0.000 512.000,0.000 512.000,512.000 " />
<polygon points="0.000,512.000 0.000,0.000 512.000,0.000 512.000,512.000 " />
<polygon points="0.000,512.000 0.000,0.000 512.000,0.000 512.000,512.000 " />
<polygon points="0.000,512.000 0.000,0.000 512.000,0.000 512.000,512.000 " />
<polygon points="0.000,512.000 0.000,0.000 512.000,0.000 512.000,512.000 " />
<polygon points="0.000,512.000 512.000,512.000 512.000,0.000 0.000,0.000 " />
<polygon points="246.109,218.550 253.625,218.595 253.698,165.705 246.181,165.660 " />
<polygon points="112.348,509.770 119.528,512.000 119.612,457.340 112.432,455.109 " />
<polygon points="364.033,511.951 371.548,512.000 371.496,459.556 363.981,459.507 " />
<polygon points="7.187,456.458 0.021,458.733 0.000,512.000 7.166,509.726 " />
<polygon points="23.488,91.490 16.816,94.959 40.744,141.706 47.415,138.237 " />
<polygon points="160.514,455.110 153.334,457.340 153.419,512.000 160.599,509.770 " />
<polygon points="471.557,458.982 464.042,459.026 463.993,512.000 471.508,511.957 " />
<polygon points="81.691,509.726 88.858,512.000 88.837,458.733 81.671,456.458 " />
<polygon points="135.251,460.503 135.274,452.973 79.040,436.693 79.017,444.224 " />
<polygon points="360.613,450.921 354.099,447.167 354.047,508.247 360.561,512.000 " />
<polygon points="167.862,211.064 167.839,218.595 226.830,202.669 226.853,195.139 " />
<polygon points="279.574,440.947 272.892,444.396 269.377,505.305 276.058,501.857 " />
<polygon points="376.223,268.650 383.449,270.726 383.504,212.086 376.277,210.011 " />
<polygon points="234.726,508.147 241.183,512.000 241.258,451.001 234.801,447.148 " />
<polygon points="194.806,0.000 194.783,7.531 253.675,23.819 253.698,16.288 " />
<polygon points="461.762,447.162 455.257,450.935 455.342,512.000 461.847,508.227 " />
<polygon points="226.853,195.139 226.830,202.669 234.070,202.692 234.093,195.161 " />
<polygon points="226.939,167.107 234.179,167.129 234.202,159.598 226.962,159.576 " />
<polygon points="168.047,150.819 168.070,143.288 160.829,143.266 160.806,150.797 " />
<polygon points="102.840,91.210 102.754,119.242 110.263,119.266 110.349,91.233 " />
<polygon points="67.655,277.531 67.632,270.009 7.494,270.193 7.517,277.716 " />
<polygon points="466.499,250.000 474.016,250.023 474.200,189.778 466.684,189.755 " />
<polygon points="253.698,83.020 246.249,82.997 246.065,143.243 253.513,143.266 " />
<polygon points="167.862,211.064 168.047,150.819 160.806,150.797 160.622,211.042 " />
<polygon points="226.853,195.139 234.093,195.161 234.179,167.129 226.939,167.107 " />
<polygon points="160.685,324.571 160.599,352.603 168.047,352.626 168.133,324.594 " />
<polygon points="59.575,131.914 47.415,138.237 50.877,144.921 63.037,138.598 " />
<polygon points="202.771,511.977 210.288,512.000 210.330,498.289 202.813,498.266 " />
<polygon points="244.919,512.000 252.435,511.977 252.398,498.254 244.882,498.278 " />
<polygon points="168.116,415.942 160.599,415.966 160.641,429.690 168.158,429.667 " />
<polygon points="63.037,219.329 59.637,212.614 47.419,218.824 50.820,225.540 " />
<polygon points="393.481,504.361 393.523,490.636 386.006,490.613 385.964,504.338 " />
<polygon points="220.597,473.498 228.113,473.522 228.161,459.799 220.644,459.776 " />
<polygon points="110.263,119.266 110.240,126.796 123.927,126.838 123.950,119.308 " />
<polygon points="75.013,225.540 67.496,225.563 67.632,270.009 75.150,269.985 " />
<polygon points="62.904,70.994 59.442,64.310 20.026,84.806 23.488,91.490 " />
<polygon points="253.321,274.825 253.202,230.343 245.685,230.366 245.805,274.848 " />
<polygon points="287.091,467.487 279.574,467.510 279.710,512.000 287.227,511.977 " />
<polygon points="76.084,225.540 76.221,181.050 68.703,181.027 68.567,225.517 " />
<polygon points="59.516,144.921 19.913,165.053 23.313,171.768 62.916,151.637 " />
<polygon points="168.141,504.471 168.294,459.989 160.778,459.966 160.625,504.448 " />
<polygon points="169.982,135.576 169.959,143.106 214.325,143.243 214.349,135.712 " />
<polygon points="168.294,459.989 168.320,452.460 160.804,452.437 160.778,459.966 " />
<polygon points="160.576,157.763 160.599,150.233 153.358,150.211 153.335,157.741 " />
<polygon points="160.731,237.855 160.708,245.386 167.948,245.408 167.971,237.877 " />
<polygon points="220.670,452.247 220.644,459.776 228.161,459.799 228.187,452.270 " />
<polygon points="393.546,483.106 386.029,483.083 386.006,490.613 393.523,490.636 " />
<polygon points="393.546,483.106 393.523,490.636 421.505,490.722 421.528,483.192 " />
<polygon points="167.948,245.408 160.708,245.386 160.622,273.418 167.862,273.440 " />
<polygon points="214.349,135.712 221.858,135.735 222.042,75.490 214.533,75.466 " />
<polygon points="160.576,157.763 153.335,157.741 153.151,217.987 160.391,218.009 " />
<polygon points="160.391,218.009 153.151,217.987 153.128,225.518 160.368,225.540 " />
<polygon points="167.862,273.440 160.622,273.418 160.599,280.948 167.839,280.971 " />
<polygon points="421.528,483.192 421.505,490.722 429.022,490.745 429.045,483.215 " />
<polygon points="287.115,278.255 287.091,270.726 279.574,270.749 279.598,278.279 " />
<polygon points="339.531,270.816 339.556,278.346 347.072,278.323 347.048,270.793 " />
<polygon points="220.597,473.498 220.571,481.027 228.087,481.050 228.113,473.522 " />
<polygon points="168.115,512.000 168.141,504.471 160.625,504.448 160.599,511.977 " />
<polygon points="393.458,511.891 393.481,504.361 385.964,504.338 385.941,511.868 " />
<polygon points="142.614,488.558 135.165,488.536 135.142,496.066 142.591,496.089 " />
<polygon points="78.833,504.469 71.384,504.446 71.361,511.977 78.810,512.000 " />
<polygon points="79.017,444.224 71.569,444.201 71.384,504.446 78.833,504.469 " />
<polygon points="170.167,75.330 162.658,75.307 162.473,135.553 169.982,135.576 " />
<polygon points="142.700,460.526 135.251,460.503 135.165,488.536 142.614,488.558 " />
<polygon points="421.440,511.977 421.463,504.447 393.481,504.361 393.458,511.891 " />
<polygon points="421.440,511.977 428.957,512.000 428.980,504.470 421.463,504.447 " />
<polygon points="276.058,501.857 269.377,505.305 272.818,512.000 279.500,508.552 " />
<polygon points="135.274,452.973 135.251,460.503 142.700,460.526 142.723,452.996 " />
<polygon points="272.892,444.396 279.574,440.947 276.132,434.253 269.451,437.701 " />
<polygon points="79.017,444.224 79.040,436.693 71.592,436.670 71.569,444.201 " />
<polygon points="170.167,75.330 170.190,67.799 162.681,67.776 162.658,75.307 " />
<polygon points="135.274,452.973 135.251,460.503 142.700,460.526 142.723,452.996 " />
<polygon points="276.058,501.857 269.377,505.305 272.818,512.000 279.500,508.552 " />
<polygon points="421.440,511.977 428.957,512.000 428.980,504.470 421.463,504.447 " />
<polygon points="421.440,511.977 421.463,504.447 393.481,504.361 393.458,511.891 " />
<polygon points="142.700,460.526 135.251,460.503 135.165,488.536 142.614,488.558 " />
<polygon points="170.167,75.330 162.658,75.307 162.473,135.553 169.982,135.576 " />
<polygon points="79.017,444.224 71.569,444.201 71.384,504.446 78.833,504.469 " />
<polygon points="78.833,504.469 71.384,504.446 71.361,511.977 78.810,512.000 " />
<polygon points="169.982,135.576 162.473,135.553 162.450,143.083 169.959,143.106 " />
<polygon points="142.614,488.558 135.165,488.536 135.142,496.066 142.591,496.089 " />
<polygon points="393.458,511.891 393.481,504.361 385.964,504.338 385.941,511.868 " />
<polygon points="168.115,512.000 168.141,504.471 160.625,504.448 160.599,511.977 " />
<polygon points="220.597,473.498 220.571,481.027 228.087,481.050 228.113,473.522 " />
<polygon points="339.531,270.816 339.556,278.346 347.072,278.323 347.048,270.793 " />
<polygon points="287.115,278.255 287.091,270.726 279.574,270.749 279.598,278.279 " />
<polygon points="421.528,483.192 421.505,490.722 429.022,490.745 429.045,483.215 " />
<polygon points="167.862,273.440 160.622,273.418 160.599,280.948 167.839,280.971 " />
<polygon points="214.533,75.466 222.042,75.490 222.065,67.959 214.556,67.936 " />
<polygon points="160.391,218.009 153.151,217.987 153.128,225.518 160.368,225.540 " />
<polygon points="160.576,157.763 153.335,157.741 153.151,217.987 160.391,218.009 " />
<polygon points="214.349,135.712 221.858,135.735 222.042,75.490 214.533,75.466 " />
<polygon points="167.948,245.408 160.708,245.386 160.622,273.418 167.862,273.440 " />
<polygon points="393.546,483.106 393.523,490.636 421.505,490.722 421.528,483.192 " />
<polygon points="393.546,483.106 386.029,483.083 386.006,490.613 393.523,490.636 " />
<polygon points="220.670,452.247 220.644,459.776 228.161,459.799 228.187,452.270 " />
<polygon points="160.731,237.855 160.708,245.386 167.948,245.408 167.971,237.877 " />
<polygon points="214.349,135.712 214.325,143.243 221.834,143.266 221.858,135.735 " />
<polygon points="160.576,157.763 160.599,150.233 153.358,150.211 153.335,157.741 " />
<polygon points="168.294,459.989 168.320,452.460 160.804,452.437 160.778,459.966 " />
<polygon points="169.982,135.576 169.959,143.106 214.325,143.243 214.349,135.712 " />
<polygon points="168.141,504.471 168.294,459.989 160.778,459.966 160.625,504.448 " />
<polygon points="59.516,144.921 19.913,165.053 23.313,171.768 62.916,151.637 " />
<polygon points="76.084,225.540 76.221,181.050 68.703,181.027 68.567,225.517 " />
<polygon points="287.091,467.487 279.574,467.510 279.710,512.000 287.227,511.977 " />
<polygon points="253.321,274.825 253.202,230.343 245.685,230.366 245.805,274.848 " />
<polygon points="62.904,70.994 59.442,64.310 20.026,84.806 23.488,91.490 " />
<polygon points="75.013,225.540 67.496,225.563 67.632,270.009 75.150,269.985 " />
<polygon points="110.263,119.266 110.240,126.796 123.927,126.838 123.950,119.308 " />
<polygon points="220.597,473.498 228.113,473.522 228.161,459.799 220.644,459.776 " />
<polygon points="393.481,504.361 393.523,490.636 386.006,490.613 385.964,504.338 " />
<polygon points="63.037,219.329 59.637,212.614 47.419,218.824 50.820,225.540 " />
<polygon points="168.116,415.942 160.599,415.966 160.641,429.690 168.158,429.667 " />
<polygon points="244.919,512.000 252.435,511.977 252.398,498.254 244.882,498.278 " />
<polygon points="202.771,511.977 210.288,512.000 210.330,498.289 202.813,498.266 " />
<polygon points="59.575,131.914 47.415,138.237 50.877,144.921 63.037,138.598 " />
<polygon points="160.685,324.571 160.599,352.603 168.047,352.626 168.133,324.594 " />
<polygon points="226.853,195.139 234.093,195.161 234.179,167.129 226.939,167.107 " />
<polygon points="167.862,211.064 168.047,150.819 160.806,150.797 160.622,211.042 " />
<polygon points="253.698,83.020 246.249,82.997 246.065,143.243 253.513,143.266 " />
<polygon points="466.499,250.000 474.016,250.023 474.200,189.778 466.684,189.755 " />
<polygon points="67.655,277.531 67.632,270.009 7.494,270.193 7.517,277.716 " />
<polygon points="102.840,91.210 102.754,119.242 110.263,119.266 110.349,91.233 " />
<polygon points="168.047,150.819 168.070,143.288 160.829,143.266 160.806,150.797 " />
<polygon points="167.839,218.595 167.862,211.064 160.622,211.042 160.599,218.573 " />
<polygon points="226.939,167.107 234.179,167.129 234.202,159.598 226.962,159.576 " />
<polygon points="226.853,195.139 226.830,202.669 234.070,202.692 234.093,195.161 " />
<polygon points="461.762,447.162 455.257,450.935 455.342,512.000 461.847,508.227 " />
<polygon points="194.806,0.000 194.783,7.531 253.675,23.819 253.698,16.288 " />
<polygon points="234.726,508.147 241.183,512.000 241.258,451.001 234.801,447.148 " />
<polygon points="376.223,268.650 383.449,270.726 383.504,212.086 376.277,210.011 " />
<polygon points="279.574,440.947 272.892,444.396 269.377,505.305 276.058,501.857 " />
<polygon points="167.862,211.064 167.839,218.595 226.830,202.669 226.853,195.139 " />
<polygon points="360.613,450.921 354.099,447.167 354.047,508.247 360.561,512.000 " />
<polygon points="135.251,460.503 135.274,452.973 79.040,436.693 79.017,444.224 " />
<polygon points="81.691,509.726 88.858,512.000 88.837,458.733 81.671,456.458 " />
<polygon points="471.557,458.982 464.042,459.026 463.993,512.000 471.508,511.957 " />
<polygon points="160.514,455.110 153.334,457.340 153.419,512.000 160.599,509.770 " />
<polygon points="23.488,91.490 16.816,94.959 40.744,141.706 47.415,138.237 " />
<polygon points="7.187,456.458 0.021,458.733 0.000,512.000 7.166,509.726 " />
<polygon points="364.033,511.951 371.548,512.000 371.496,459.556 363.981,459.507 " />
<polygon points="112.348,509.770 119.528,512.000 119.612,457.340 112.432,455.109 " />
<polygon points="246.109,218.550 253.625,218.595 253.698,165.705 246.181,165.660 " />
<polygon points="0.000,512.000 512.000,512.000 512.000,0.000 0.000,0.000 " />
<polygon points="0.000,512.000 0.000,0.000 512.000,0.000 512.000,512.000 " />
<polygon points="0.000,512.000 0.000,0.000 512.000,0.000 512.000,512.000 " />
<polygon points="0.000,512.000 0.000,0.000 512.000,0.000 512.000,512.000 " />
<polygon points="0.000,512.000 512.000,512.000 512.000,0.000 0.000,0.000 " />
<polygon points="0.000,512.000 512.000,512.000 512.000,0.000 0.000,0.000 " />
<polygon points="0.000,512.000 512.000,512.000 512.000,0.000 0.000,0.000 " />
<polygon points="0.000,512.000 512.000,512.000 512.000,0.000 0.000,0.000 " />
<polygon points="0.000,512.000 512.000,512.000 512.000,0.000 0.000,0.000 " />
<polygon points="0.000,512.000 512.000,512.000 512.000,0.000 0.000,0.000 " />
<polygon points="0.000,512.000 512.000,512.000 512.000,0.000 0.000,0.000 " />
<polygon points="0.000,512.000 512.000,512.000 512.000,0.000 0.000,0.000 " />
<polygon points="0.000,512.000 512.000,512.000 512.000,0.000 0.000,0.000 " />
<polygon points="0.000,512.000 512.000,512.000 512.000,0.000 0.000,0.000 " />
<polygon points="0.000,512.000 512.000,512.000 512.000,0.000 0.000,0.000 " />
<polygon points="0.000,512.000 512.000,512.000 512.000,0.000 0.000,0.000 " />
<polygon points="0.000,512.000 512.000,512.000 512.000,0.000 0.000,0.000 " />
<polygon points="0.000,512.000 0.000,0.000 512.000,0.000 512.000,512.000 " />
<polygon points="0.000,512.000 0.000,0.000 512.000,0.000 512.000,512.000 " />
<polygon points="0.000,512.000 0.000,0.000 512.000,0.000 512.000,512.000 " />
<polygon points="0.000,512.000 0.000,0.000 512.000,0.000 512.000,512.000 " />
<polygon points="0.000,512.000 0.000,0.000 512.000,0.000 512.000,512.000 " />
<polygon points="0.000,512.000 0.000,0.000 512.000,0.000 512.000,512.000 " />
<polygon points="0.000,512.000 512.000,512.000 512.000,0.000 0.000,0.000 " />
<polygon points="0.000,512.000 0.000,0.000 512.000,0.000 512.000,512.000 " />
<polygon points="0.000,512.000 0.000,0.000 512.000,0.000 512.000,512.000 " />
<polygon points="0.000,512.000 0.000,0.000 512.000,0.000 512.000,512.000 " />
<polygon points="0.000,512.000 0.000,0.000 512.000,0.000 512.000,512.000 " />
<polygon points="0.000,512.000 512.000,512.000 512.000,0.000 0.000,0.000 " />
<polygon points="0.000,512.000 512.000,512.000 512.000,0.000 0.000,0.000 " />
<polygon points="0.000,512.000 512.000,512.000 512.000,0.000 0.000,0.000 " />
<polygon points="0.000,512.000 512.000,512.000 512.000,0.000 0.000,0.000 " />
<polygon points="0.000,512.000 0.000,0.000 512.000,0.000 512.000,512.000 " />
<polygon points="0.000,512.000 0.000,0.000 512.000,0.000 512.000,512.000 " />
<polygon points="0.000,512.000 0.000,0.000 512.000,0.000 512.000,512.000 " />
<polygon points="0.000,512.000 0.000,0.000 512.000,0.000 512.000,512.000 " />
<polygon points="0.000,512.000 0.000,0.000 512.000,0.000 512.000,512.000 " />
<polygon points="0.000,512.000 0.000,0.000 512.000,0.000 512.000,512.000 " />
<polygon points="0.000,512.000 0.000,0.000 512.000,0.000 512.000,512.000 " />
<polygon points="0.000,512.000 0.000,0.000 512.000,0.000 512.000,512.000 " />
<polygon points="0.000,512.000 0.000,0.000 512.000,0.000 512.000,512.000 " />
<polygon points="0.000,512.000 0.000,0.000 512.000,0.000 512.000,512.000 " />
<polygon points="0.000,512.000 512.000,512.000 512.000,0.000 0.000,0.000 " />
<polygon points="0.000,512.000 512.000,512.000 512.000,0.000 0.000,0.000 " />
<polygon points="0.000,512.000 512.000,512.000 512.000,0.000 0.000,0.000 " />
<polygon points="0.000,512.000 512.000,512.000 512.000,0.000 0.000,0.000 " />
<polygon points="0.000,512.000 512.000,512.000 512.000,0.000 0.000,0.000 " />
<polygon points="0.000,512.000 0.000,0.000 512.000,0.000 512.000,512.000 " />
<polygon points="0.000,512.000 0.000,0.000 512.000,0.000 512.000,512.000 " />
<polygon points="0.000,512.000 0.000,0.000 512.000,0.000 512.000,512.000 " />
<polygon points="0.000,512.000 0.000,0.000 512.000,0.000 512.000,512.000 " />
<polygon points="0.000,512.000 0.000,0.000 512.000,0.000 512.000,512.000 " />
<polygon points="0.000,512.000 0.000,0.000 512.000,0.000 512.000,512.000 " />
<polygon points="0.000,512.000 0.000,0.000 512.000,0.000 512.000,512.000 " />
<polygon points="0.000,512.000 0.000,0.000 512.000,0.000 512.000,512.000 " />
<polygon points="0.000,512.000 0.000,0.000 512.000,0.000 512.000,512.000 " />
<polygon points="0.000,512.000 0.000,0.000 512.000,0.000 512.000,512.000 " />
<polygon points="0.000,512.000 512.000,512.000 512.000,0.000 0.000,0.000 " />
<polygon points="0.000,512.000 512.000,512.000 512.000,0.000 0.000,0.000 " />
<polygon points="0.000,512.000 512.000,512.000 512.000,0.000 0.000,0.000 " />
<polygon points="0.000,512.000 512.000,512.000 512.000,0.000 0.000,0.000 " />
<polygon points="0.000,512.000 512.000,512.000 512.000,0.000 0.000,0.000 " />
<polygon points="0.000,512.000 512.000,512.000 512.000,0.000 0.000,0.000 " />
<polygon points="0.000,512.000 512.000,512.000 512.000,0.000 0.000,0.000 " />
<polygon points="0.000,512.000 512.000,512.000 512.000,0.000 0.000,0.000 " />
<polygon points="0.000,512.000 512.000,512.000 512.000,0.000 0.000,0.000 " />
<polygon points="0.000,512.000 512.000,512.000 512.000,0.000 0.000,0.000 " />
<polygon points="0.000,512.000 512.000,512.000 512.000,0.000 0.000,0.000 " />
<polygon points="0.000,512.000 0.000,0.000 512.000,0.000 512.000,512.000 " />
<polygon points="0.000,512.000 0.000,0.000 512.000,0.000 512.000,512.000 " />
<polygon points="0.000,512.000 0.000,0.000 512.000,0.000 512.000,512.000 " />
<polygon points="0.000,512.000 512.000,512.000 512.000,0.000 0.000,0.000 " />
<polygon points="0.000,512.000 0.000,0.000 512.000,0.000 512.000,512.000 " />
<polygon points="0.000,512.000 0.000,0.000 512.000,0.000 512.000,512.000 " />
<polygon points="0.000,512.000 0.000,0.000 512.000,0.000 512.000,512.000 " />
<polygon points="0.000,512.000 0.000,0.000 512.000,0.000 512.000,512.000 " />
<polygon points="0.000,512.000 0.000,0.000 512.000,0.000 512.000,512.000 " />
<polygon points="0.000,512.000 0.000,0.000 512.000,0.000 512.000,512.000 " />
<polygon points="0.000,512.000 0.000,0.000 512.000,0.000 512.000,512.000 " />
<polygon points="0.000,512.000 0.000,0.000 512.000,0.000 512.000,512.000 " />
<polygon points="0.000,512.000 0.000,0.000 512.000,0.000 512.000,512.000 " />
<polygon points="0.000,512.000 0.000,0.000 512.000,0.000 512.000,512.000 " />
<polygon points="0.000,512.000 0.000,0.000 512.000,0.000 512.000,512.000 " />
<polygon points="0.000,512.000 0.000,0.000 512.000,0.000 512.000,512.000 " />
<polygon points="0.000,512.000 0.000,0.000 512.000,0.000 512.000,512.000 " />
<polygon points="0.000,512.000 0.000,0.000 512.000,0.000 512.000,512.000 " />
<polygon points="0.000,512.000 0.000,0.000 512.000,0.000 512.000,512.000 " />
<polygon points="0.000,512.000 0.000,0.000 512.000,0.000 512.000,512.000 " />
<polygon points="0.000,512.000 0.000,0.000 512.000,0.000 512.000,512.000 " />
<polygon points="0.000,512.000 0.000,0.000 512.000,0.000 512.000,512.000 " />
<polygon points="0.000,512.000 0.000,0.000 512.000,0.000 512.000,512.000 " />
<polygon points="0.000,512.000 0.000,0.000 512.000,0.000 512.000,512.000 " />
<polygon points="0.000,512.000 0.000,0.000 512.000,0.000 512.000,512.000 " />
<polygon points="0.000,512.000 0.000,0.000 512.000,0.000 512.000,512.000 " />
<polygon points="0.000,512.000 0.000,0.000 512.000,0.000 512.000,512.000 " />
<polygon points="0.000,512.000 0.000,0.000 512.000,0.000 512.000,512.000 " />
<polygon points="0.000,512.000 512.000,512.000 512.000,0.000 0.000,0.000 " />
<polygon points="0.000,512.000 512.000,512.000 512.000,0.000 0.000,0.000 " />
<polygon points="0.000,512.000 512.000,512.000 512.000,0.000 0.000,0.000 " />
<polygon points="0.000,512.000 512.000,512.000 512.000,0.000 0.000,0.000 " />
<polygon points="0.000,512.000 512.000,512.000 512.000,0.000 0.000,0.000 " />
<polygon points="0.000,512.000 512.000,512.000 512.000,0.000 0.000,0.000 " />
<polygon points="0.000,512.000 512.000,512.000 512.000,0.000 0.000,0.000 " />
<polygon points="0.000,512.000 512.000,512.000 512.000,0.000 0.000,0.000 " />
<polygon points="0.000,512.000 512.000,512.000 512.000,0.000 0.000,0.000 " />
<polygon points="0.000,512.000 512.000,512.000 512.000,0.000 0.000,0.000 " />
<polygon points="0.000,512.000 512.000,512.000 512.000,0.000 0.000,0.000 " />
<polygon points="0.000,512.000 0.000,0.000 512.000,0.000 512.000,512.000 " />
<polygon points="0.000,512.000 512.000,512.000 512.000,0.000 0.000,0.000 " />
<polygon points="0.000,512.000 512.000,512.000 512.000,0.000 0.000,0.000 " />
<polygon points="0.000,512.000 512.000,512.000 512.000,0.000 0.000,0.000 " />
<polygon points="0.000,512.000 512.000,512.000 512.000,0.000 0.000,0.000 " />
<polygon points="0.000,512.000 0.000,0.000 512.000,0.000 512.000,512.000 " />
<polygon points="0.000,512.000 512.000,0.000 512.000,512.000 " />
<polygon points="0.000,512.000 512.000,0.000 512.000,512.000 " />
<polygon points="0.000,512.000 512.000,512.000 512.000,0.000 0.000,0.000 " />
<polygon points="0.000,512.000 512.000,512.000 512.000,0.000 0.000,0.000 " />
<polygon points="0.000,512.000 512.000,512.000 512.000,0.000 0.000,0.000 " />
<polygon points="0.000,512.000 512.000,512.000 512.000,0.000 0.000,0.000 " />
<polygon points="0.000,511.500 178.907,414.520 1.256,136.107 " />
<polygon points="0.000,511.500 178.778,453.101 178.907,414.520 " />
<polygon points="0.000,511.500 177.875,512.000 178.778,453.101 " />
<polygon points="0.000,512.000 512.000,0.000 512.000,512.000 " />
<polygon points="178.907,144.178 180.145,512.000 357.797,238.671 " />
<polygon points="178.907,144.178 357.797,238.671 357.667,200.090 " />
<polygon points="178.907,144.178 357.667,200.090 356.781,143.674 " />
<polygon points="0.000,512.000 512.000,512.000 512.000,0.000 0.000,0.000 " />
<polygon points="0.000,512.000 512.000,512.000 512.000,0.000 " />
<polygon points="214.349,135.712 214.325,143.243 221.834,143.266 221.858,135.735 " />
<polygon points="214.349,135.712 214.325,143.243 221.834,143.266 221.858,135.735 " />
<polygon points="214.349,135.712 214.325,143.243 221.834,143.266 221.858,135.735 " />
<polygon points="214.349,135.712 214.325,143.243 221.834,143.266 221.858,135.735 " />
<polygon points="214.533,75.466 222.042,75.490 222.065,67.959 214.556,67.936 " />
<polygon points="214.533,75.466 222.042,75.490 222.065,67.959 214.556,67.936 " />
<polygon points="214.533,75.466 222.042,75.490 222.065,67.959 214.556,67.936 " />
<polygon points="214.533,75.466 222.042,75.490 222.065,67.959 214.556,67.936 " />
<polygon points="169.982,135.576 162.473,135.553 162.450,143.083 169.959,143.106 " />
<polygon points="169.982,135.576 162.473,135.553 162.450,143.083 169.959,143.106 " />
<polygon points="169.982,135.576 162.473,135.553 162.450,143.083 169.959,143.106 " />
<polygon points="169.982,135.576 162.473,135.553 162.450,143.083 169.959,143.106 " />
<polygon points="170.167,75.330 170.190,67.799 162.681,67.776 162.658,75.307 " />
<polygon points="170.167,75.330 170.190,67.799 162.681,67.776 162.658,75.307 " />
<polygon points="170.167,75.330 170.190,67.799 162.681,67.776 162.658,75.307 " />
<polygon points="170.167,75.330 170.190,67.799 162.681,67.776 162.658,75.307 " />
<polygon points="170.167,75.330 170.190,67.799 162.681,67.776 162.658,75.307 " />
<polygon points="170.167,75.330 170.190,67.799 162.681,67.776 162.658,75.307 " />
<polygon points="169.982,135.576 162.473,135.553 162.450,143.083 169.959,143.106 " />
<polygon points="169.982,135.576 162.473,135.553 162.450,143.083 169.959,143.106 " />
<polygon points="214.533,75.466 222.042,75.490 222.065,67.959 214.556,67.936 " />
<polygon points="214.533,75.466 222.042,75.490 222.065,67.959 214.556,67.936 " />
<polygon points="214.349,135.712 214.325,143.243 221.834,143.266 221.858,135.735 " />
<polygon points="214.349,135.712 214.325,143.243 221.834,143.266 221.858,135.735 " />
<polygon points="170.167,75.330 170.190,67.799 162.681,67.776 162.658,75.307 " />
<polygon points="169.982,135.576 162.473,135.553 162.450,143.083 169.959,143.106 " />
<polygon points="214.533,75.466 222.042,75.490 222.065,67.959 214.556,67.936 " />
<polygon points="214.349,135.712 214.325,143.243 221.834,143.266 221.858,135.735 " />
<polygon points="0.000,512.000 512.000,512.000 512.000,0.000 0.000,0.000 " />
<polygon points="0.000,512.000 512.000,512.000 512.000,0.000 0.000,0.000 " />
<polygon points="0.000,512.000 512.000,512.000 512.000,0.000 0.000,0.000 " />
<polygon points="0.000,512.000 512.000,512.000 512.000,0.000 0.000,0.000 " />
<polygon points="0.000,512.000 512.000,512.000 512.000,0.000 0.000,0.000 " />
<polygon points="0.000,512.000 512.000,512.000 512.000,0.000 0.000,0.000 " />
<polygon points="0.000,512.000 512.000,512.000 512.000,0.000 0.000,0.000 " />
<polygon points="0.000,512.000 512.000,512.000 512.000,0.000 0.000,0.000 " />
<polygon points="0.000,512.000 512.000,512.000 512.000,0.000 0.000,0.000 " />
<polygon points="0.000,512.000 512.000,512.000 512.000,0.000 0.000,0.000 " />
<polygon points="0.000,512.000 512.000,512.000 512.000,0.000 0.000,0.000 " />
<polygon points="0.000,512.000 512.000,512.000 512.000,0.000 0.000,0.000 " />
<polygon points="0.000,512.000 512.000,512.000 512.000,0.000 0.000,0.000 " />
<polygon points="0.000,512.000 512.000,512.000 512.000,0.000 0.000,0.000 " />
<polygon points="0.000,512.000 512.000,512.000 512.000,0.000 0.000,0.000 " />
<polygon points="0.000,512.000 512.000,512.000 512.000,0.000 0.000,0.000 " />
<polygon points="0.000,512.000 512.000,512.000 512.000,0.000 0.000,0.000 " />
<polygon points="0.000,512.000 0.000,0.000 512.000,0.000 512.000,512.000 " />
<polygon points="0.000,512.000 0.000,0.000 512.000,0.000 512.000,512.000 " />
<polygon points="0.000,512.000 512.000,512.000 512.000,0.000 0.000,0.000 " />
<polygon points="0.000,512.000 512.000,512.000 512.000,0.000 0.000,0.000 " />
<polygon points="0.000,512.000 512.000,512.000 512.000,0.000 0.000,0.000 " />
<polygon points="506.722,224.938 358.076,224.520 357.797,367.990 506.443,368.408 " />
<polygon points="506.468,83.534 357.822,83.371 357.797,224.357 506.443,224.520 " />
<polygon points="0.000,512.000 0.000,0.000 512.000,0.000 512.000,512.000 " />
<polygon points="0.000,512.000 0.000,0.000 512.000,0.000 512.000,512.000 " />
<polygon points="0.000,512.000 512.000,512.000 512.000,0.000 " />
<polygon points="0.000,512.000 512.000,512.000 512.000,0.000 " />
<polygon points="0.000,512.000 512.000,512.000 512.000,0.000 " />
<polygon points="0.000,512.000 512.000,0.000 512.000,512.000 " />
<polygon points="0.000,135.908 70.601,136.107 70.943,33.519 0.342,33.320 " />
<polygon points="284.915,143.470 357.638,143.674 357.797,0.205 285.074,0.000 " />
<polygon points="178.907,2.689 179.058,143.674 251.781,143.470 251.630,2.484 " />
<polygon points="108.308,30.874 107.956,135.908 178.556,136.107 178.907,31.072 " />
<polygon points="469.771,473.419 511.863,473.465 512.000,368.430 358.185,368.408 " />
<polygon points="469.721,512.000 469.771,473.419 358.185,368.408 357.797,511.877 " />
</g>
</svg>