<?xml version="1.0" encoding="UTF-8" standalone="no"?>
<svg
   xmlns:dc="http://purl.org/dc/elements/1.1/"
   xmlns:cc="http://creativecommons.org/ns#"
   xmlns:rdf="http://www.w3.org/1999/02/22-rdf-syntax-ns#"
   xmlns:svg="http://www.w3.org/2000/svg"
   xmlns="http://www.w3.org/2000/svg"
   xmlns:sodipodi="http://sodipodi.sourceforge.net/DTD/sodipodi-0.dtd"
   xmlns:inkscape="http://www.inkscape.org/namespaces/inkscape"
   width="512px"
   height="512px"
   viewBox="0 0 512 512"
   version="1.1"
   id="svg3358"
   inkscape:version="0.47pre4 r22446"
   sodipodi:docname="emperors pride_Cube.svg"
   inkscape:export-filename="/home/brutkasten/Dokumente/naev/blender/traderlarge/textur1/emperorpride.png"
   inkscape:export-xdpi="180"
   inkscape:export-ydpi="180">
  <sodipodi:namedview
     pagecolor="#ffffff"
     bordercolor="#666666"
     borderopacity="1"
     objecttolerance="10"
     gridtolerance="10"
     guidetolerance="10"
     inkscape:pageopacity="0"
     inkscape:pageshadow="2"
     inkscape:window-width="1920"
     inkscape:window-height="1003"
     id="namedview3772"
     showgrid="false"
     inkscape:zoom="10.429825"
     inkscape:cx="434.40841"
     inkscape:cy="401.12591"
     inkscape:window-x="0"
     inkscape:window-y="25"
     inkscape:window-maximized="1"
     inkscape:current-layer="svg3358" />
  <metadata
     id="metadata3776">
    <rdf:RDF>
      <cc:Work
         rdf:about="">
        <dc:format>image/svg+xml</dc:format>
        <dc:type
           rdf:resource="http://purl.org/dc/dcmitype/StillImage" />
        <dc:title></dc:title>
      </cc:Work>
    </rdf:RDF>
  </metadata>
  <defs
     id="defs3774">
    <inkscape:perspective
       id="perspective3778"
       inkscape:persp3d-origin="256 : 170.66667 : 1"
       inkscape:vp_z="512 : 256 : 1"
       inkscape:vp_y="0 : 1000 : 0"
       inkscape:vp_x="0 : 256 : 1"
       sodipodi:type="inkscape:persp3d" />
    <inkscape:perspective
       sodipodi:type="inkscape:persp3d"
       inkscape:vp_x="0 : 0.5 : 1"
       inkscape:vp_y="0 : 1000 : 0"
       inkscape:vp_z="1 : 0.5 : 1"
       inkscape:persp3d-origin="0.5 : 0.33333333 : 1"
       id="perspective5047" />
    <inkscape:perspective
       sodipodi:type="inkscape:persp3d"
       inkscape:vp_x="0 : 0.5 : 1"
       inkscape:vp_y="0 : 1000 : 0"
       inkscape:vp_z="1 : 0.5 : 1"
       inkscape:persp3d-origin="0.5 : 0.33333333 : 1"
       id="perspective5078" />
    <inkscape:perspective
       sodipodi:type="inkscape:persp3d"
       inkscape:vp_x="0 : 0.5 : 1"
       inkscape:vp_y="0 : 1000 : 0"
       inkscape:vp_z="1 : 0.5 : 1"
       inkscape:persp3d-origin="0.5 : 0.33333333 : 1"
       id="perspective5078-2" />
    <inkscape:perspective
       sodipodi:type="inkscape:persp3d"
       inkscape:vp_x="0 : 0.5 : 1"
       inkscape:vp_y="0 : 1000 : 0"
       inkscape:vp_z="1 : 0.5 : 1"
       inkscape:persp3d-origin="0.5 : 0.33333333 : 1"
       id="perspective5124" />
    <inkscape:perspective
       sodipodi:type="inkscape:persp3d"
       inkscape:vp_x="0 : 0.5 : 1"
       inkscape:vp_y="0 : 1000 : 0"
       inkscape:vp_z="1 : 0.5 : 1"
       inkscape:persp3d-origin="0.5 : 0.33333333 : 1"
       id="perspective5655" />
    <inkscape:perspective
       sodipodi:type="inkscape:persp3d"
       inkscape:vp_x="0 : 0.5 : 1"
       inkscape:vp_y="0 : 1000 : 0"
       inkscape:vp_z="1 : 0.5 : 1"
       inkscape:persp3d-origin="0.5 : 0.33333333 : 1"
       id="perspective5688" />
  </defs>
  <desc
     id="desc3360">UV-Map from Object: Cube. Exported from Blender3D with UV Exportscript</desc>
  <rect
     style="fill:none"
     id="rect3362"
     stroke-width="1px"
     stroke="blue"
     fill="none"
     height="512"
     width="512"
     y="0"
     x="0" />
  <g
     id="g3364"
     style="fill:none;stroke:black;stroke-width:1px">
    <polygon
       style="fill:none"
       id="polygon3366"
       points="333.228,306.670 333.228,295.619 322.177,295.619 322.177,306.670 " />
    <polygon
       style="fill:none"
       id="polygon3368"
       points="184.583,191.413 0.000,172.825 0.000,196.939 " />
    <polygon
       style="fill:none"
       id="polygon3370"
       points="184.665,124.619 184.665,100.515 0.075,105.774 " />
    <polygon
       style="fill:none"
       id="polygon3372"
       points="444.787,263.859 446.293,239.761 261.748,239.762 " />
    <polygon
       style="fill:none"
       id="polygon3374"
       points="184.665,172.825 1.580,148.721 0.000,172.825 " />
    <polygon
       style="fill:none"
       id="polygon3376"
       points="184.665,76.422 182.230,52.567 0.076,76.422 " />
    <polygon
       style="fill:none"
       id="polygon3378"
       points="367.751,124.619 369.257,100.515 184.665,100.515 " />
    <polygon
       style="fill:none"
       id="polygon3380"
       points="184.665,124.619 0.010,124.619 1.590,148.721 " />
    <polygon
       style="fill:none"
       id="polygon3382"
       points="184.665,52.567 182.230,28.718 0.121,52.567 " />
    <polygon
       style="fill:none"
       id="polygon3384"
       points="184.665,100.515 183.013,76.422 0.010,100.515 " />
    <polygon
       style="fill:none"
       id="polygon3386"
       points="369.320,148.721 186.245,124.619 184.665,148.721 " />
    <polygon
       style="fill:none"
       id="polygon3388"
       points="368.634,100.515 369.320,76.423 184.665,76.423 " />
    <polygon
       style="fill:none"
       id="polygon3390"
       points="367.704,76.423 369.210,52.325 184.665,52.325 " />
    <polygon
       style="fill:none"
       id="polygon3392"
       points="479.563,180.826 480.791,185.195 484.115,188.284 487.947,180.826 " />
    <polygon
       style="fill:none"
       id="polygon3394"
       points="482.738,59.181 479.649,62.505 487.107,66.338 487.107,57.953 " />
    <polygon
       style="fill:none"
       id="polygon3396"
       points="480.327,156.968 488.712,156.967 487.484,152.599 484.160,149.510 " />
    <polygon
       style="fill:none"
       id="polygon3398"
       points="495.074,299.886 488.189,299.886 491.631,305.848 494.587,303.580 " />
    <polygon
       style="fill:none"
       id="polygon3400"
       points="486.090,486.958 479.182,486.958 479.182,500.773 486.090,500.773 " />
    <polygon
       style="fill:none"
       id="polygon3402"
       points="479.649,57.953 472.742,57.953 472.742,71.768 479.649,71.768 " />
    <polygon
       style="fill:none"
       id="polygon3404"
       points="489.591,286.496 475.700,286.496 475.700,293.250 489.591,293.250 " />
    <polygon
       style="fill:none"
       id="polygon3406"
       points="479.182,489.826 465.269,486.958 465.367,502.340 479.182,502.340 " />
    <polygon
       style="fill:none"
       id="polygon3408"
       points="486.208,248.984 486.208,238.478 479.300,238.478 479.300,248.984 " />
    <polygon
       style="fill:none"
       id="polygon3410"
       points="479.563,194.641 479.563,180.826 472.655,180.826 472.655,194.641 " />
    <polygon
       style="fill:none"
       id="polygon3412"
       points="191.268,158.060 185.765,149.747 185.765,161.622 186.278,162.310 " />
    <polygon
       style="fill:none"
       id="polygon3414"
       points="480.327,163.325 480.327,149.510 473.420,149.510 473.420,163.325 " />
    <polygon
       style="fill:none"
       id="polygon3416"
       points="292.283,314.015 292.399,312.242 278.814,312.242 278.698,314.015 " />
    <polygon
       style="fill:none"
       id="polygon3418"
       points="483.615,362.756 483.615,348.941 469.800,348.941 469.800,362.756 " />
    <polygon
       style="fill:none"
       id="polygon3420"
       points="479.205,314.282 465.390,314.282 468.698,328.097 479.205,328.097 " />
    <polygon
       style="fill:none"
       id="polygon3422"
       points="483.615,335.126 469.800,335.126 469.800,348.941 483.615,348.941 " />
    <polygon
       style="fill:none"
       id="polygon3424"
       points="473.771,438.574 494.698,434.943 494.080,432.236 472.325,432.236 " />
    <polygon
       style="fill:none"
       id="polygon3426"
       points="472.325,425.430 494.844,425.430 494.844,418.803 472.325,418.803 " />
    <polygon
       style="fill:none"
       id="polygon3428"
       points="371.835,58.403 392.927,55.162 391.960,52.543 369.320,52.543 " />
    <polygon
       style="fill:none"
       id="polygon3430"
       points="476.838,297.855 478.606,297.855 478.606,293.250 475.700,293.250 " />
    <polygon
       style="fill:none"
       id="polygon3432"
       points="475.818,305.958 478.125,306.528 478.125,301.784 475.700,301.185 " />
    <polygon
       style="fill:none"
       id="polygon3434"
       points="436.501,56.655 436.501,53.750 415.526,53.750 415.526,58.403 " />
    <polygon
       style="fill:none"
       id="polygon3436"
       points="252.719,152.993 237.207,149.554 232.473,149.322 232.293,152.993 " />
    <polygon
       style="fill:none"
       id="polygon3438"
       points="382.103,401.479 391.960,398.435 359.606,398.516 358.373,401.479 " />
    <polygon
       style="fill:none"
       id="polygon3440"
       points="68.790,18.065 122.432,18.065 122.412,11.005 68.770,11.005 " />
    <polygon
       style="fill:none"
       id="polygon3442"
       points="471.893,58.403 369.320,58.403 370.169,71.768 472.742,71.768 " />
    <polygon
       style="fill:none"
       id="polygon3444"
       points="253.766,17.598 307.407,17.417 245.668,9.500 245.668,17.598 " />
    <polygon
       style="fill:none"
       id="polygon3446"
       points="499.995,212.427 499.995,208.563 493.087,208.563 493.087,212.427 " />
    <polygon
       style="fill:none"
       id="polygon3448"
       points="493.354,401.699 493.354,394.791 486.446,394.791 486.446,401.699 " />
    <polygon
       style="fill:none"
       id="polygon3450"
       points="472.655,180.826 372.670,180.826 364.100,186.026 369.300,194.596 " />
    <polygon
       style="fill:none"
       id="polygon3452"
       points="494.014,64.861 494.014,57.953 487.107,57.953 487.107,64.861 " />
    <polygon
       style="fill:none"
       id="polygon3454"
       points="479.300,263.859 479.300,238.478 472.393,238.478 472.393,263.859 " />
    <polygon
       style="fill:none"
       id="polygon3456"
       points="285.455,416.702 269.452,416.702 269.412,418.803 285.414,418.803 " />
    <polygon
       style="fill:none"
       id="polygon3458"
       points="315.953,312.242 305.547,312.248 305.547,313.997 315.934,313.997 " />
    <polygon
       style="fill:none"
       id="polygon3460"
       points="296.415,499.479 280.547,499.479 280.547,501.836 296.415,501.836 " />
    <polygon
       style="fill:none"
       id="polygon3462"
       points="306.914,499.479 296.415,499.479 296.415,501.855 306.914,501.855 " />
    <polygon
       style="fill:none"
       id="polygon3464"
       points="358.992,418.394 358.856,416.702 357.083,416.702 357.230,418.536 " />
    <polygon
       style="fill:none"
       id="polygon3466"
       points="298.603,418.470 309.266,418.470 309.266,416.702 298.603,416.702 " />
    <polygon
       style="fill:none"
       id="polygon3468"
       points="228.496,152.993 230.336,152.993 230.336,150.617 228.496,150.617 " />
    <polygon
       style="fill:none"
       id="polygon3470"
       points="306.914,501.801 317.330,501.800 317.330,499.479 306.914,499.480 " />
    <polygon
       style="fill:none"
       id="polygon3472"
       points="456.641,286.496 494.459,286.496 486.317,280.027 " />
    <polygon
       style="fill:none"
       id="polygon3474"
       points="478.971,479.037 494.349,465.204 464.416,465.204 " />
    <polygon
       style="fill:none"
       id="polygon3476"
       points="337.428,309.292 333.754,314.197 373.115,314.197 " />
    <polygon
       style="fill:none"
       id="polygon3478"
       points="268.942,501.255 280.547,499.479 257.948,499.479 " />
    <polygon
       style="fill:none"
       id="polygon3480"
       points="306.598,27.814 317.378,26.404 306.598,22.887 " />
    <polygon
       style="fill:none"
       id="polygon3482"
       points="486.492,438.574 497.200,442.059 498.446,438.574 " />
    <polygon
       style="fill:none"
       id="polygon3484"
       points="454.833,313.857 475.700,314.054 471.800,303.669 454.833,286.496 " />
    <polygon
       style="fill:none"
       id="polygon3486"
       points="362.784,335.077 362.896,331.434 335.111,331.433 334.965,335.126 " />
    <polygon
       style="fill:none"
       id="polygon3488"
       points="465.269,510.455 489.151,510.455 482.338,502.340 477.730,505.006 " />
    <polygon
       style="fill:none"
       id="polygon3490"
       points="85.409,22.256 83.363,19.220 69.537,18.847 69.248,22.256 " />
    <polygon
       style="fill:none"
       id="polygon3492"
       points="406.306,309.292 437.537,313.461 438.660,309.292 " />
    <polygon
       style="fill:none"
       id="polygon3494"
       points="320.184,16.008 328.758,27.814 359.544,16.008 " />
    <polygon
       style="fill:none"
       id="polygon3496"
       points="374.236,309.292 373.115,313.577 406.306,313.577 " />
    <polygon
       style="fill:none"
       id="polygon3498"
       points="484.330,278.758 484.330,264.000 456.641,263.859 473.595,279.030 " />
    <polygon
       style="fill:none"
       id="polygon3500"
       points="498.954,187.382 499.329,185.828 488.540,185.828 487.947,188.284 " />
    <polygon
       style="fill:none"
       id="polygon3502"
       points="403.069,501.880 380.351,501.880 395.086,508.643 397.525,511.058 " />
    <polygon
       style="fill:none"
       id="polygon3504"
       points="502.636,501.410 503.229,498.954 492.440,498.954 491.629,502.312 " />
    <polygon
       style="fill:none"
       id="polygon3506"
       points="446.894,233.100 432.869,237.655 456.342,237.655 " />
    <polygon
       style="fill:none"
       id="polygon3508"
       points="500.194,508.696 489.151,508.696 499.164,511.819 " />
    <polygon
       style="fill:none"
       id="polygon3510"
       points="453.407,314.205 443.516,309.292 438.660,314.205 " />
    <polygon
       style="fill:none"
       id="polygon3512"
       points="247.852,366.474 0.000,366.474 11.795,418.803 " />
    <polygon
       style="fill:none"
       id="polygon3514"
       points="332.643,366.474 332.643,335.126 92.496,338.556 " />
    <polygon
       style="fill:none"
       id="polygon3516"
       points="245.097,229.770 252.719,196.939 0.000,196.940 " />
    <polygon
       style="fill:none"
       id="polygon3518"
       points="257.948,512.000 38.897,418.803 0.000,512.000 " />
    <polygon
       style="fill:none"
       id="polygon3520"
       points="255.685,263.859 261.748,229.770 0.000,229.770 " />
    <polygon
       style="fill:none"
       id="polygon3522"
       points="333.754,295.485 333.754,263.859 92.496,279.483 " />
    <polygon
       style="fill:none"
       id="polygon3524"
       points="479.300,252.365 500.561,255.178 501.561,252.365 " />
    <polygon
       style="fill:none"
       id="polygon3526"
       points="305.547,35.737 426.429,27.814 184.665,27.814 " />
    <polygon
       style="fill:none"
       id="polygon3528"
       points="495.292,340.124 488.107,340.124 490.981,346.531 " />
    <polygon
       style="fill:none"
       id="polygon3530"
       points="308.771,35.737 184.665,43.872 432.876,43.872 " />
    <polygon
       style="fill:none"
       id="polygon3532"
       points="72.261,22.256 83.711,28.718 85.409,22.256 " />
    <polygon
       style="fill:none"
       id="polygon3534"
       points="247.575,312.242 216.453,314.282 278.698,314.282 " />
    <polygon
       style="fill:none"
       id="polygon3536"
       points="480.040,260.730 479.300,263.859 500.854,263.859 " />
    <polygon
       style="fill:none"
       id="polygon3538"
       points="480.300,257.917 479.300,260.730 501.561,260.730 " />
    <polygon
       style="fill:none"
       id="polygon3540"
       points="480.459,191.828 479.563,194.641 501.577,194.641 " />
    <polygon
       style="fill:none"
       id="polygon3542"
       points="394.366,54.008 392.927,58.403 415.526,58.403 " />
    <polygon
       style="fill:none"
       id="polygon3544"
       points="415.014,438.574 472.325,418.803 406.415,418.803 " />
    <polygon
       style="fill:none"
       id="polygon3546"
       points="395.597,309.292 454.833,286.496 333.754,286.496 " />
    <polygon
       style="fill:none"
       id="polygon3548"
       points="252.719,149.510 372.762,165.314 373.798,149.510 " />
    <polygon
       style="fill:none"
       id="polygon3550"
       points="184.834,7.812 244.766,15.706 245.668,7.812 " />
    <polygon
       style="fill:none"
       id="polygon3552"
       points="184.374,8.409 184.665,0.605 124.840,0.605 124.194,8.435 " />
    <polygon
       style="fill:none"
       id="polygon3554"
       points="66.231,8.456 66.855,0.673 7.078,0.673 5.979,8.467 " />
    <polygon
       style="fill:none"
       id="polygon3556"
       points="497.925,79.646 498.151,71.768 438.088,71.768 437.755,81.925 " />
    <polygon
       style="fill:none"
       id="polygon3558"
       points="425.876,9.369 426.429,1.540 366.318,1.540 365.695,9.373 " />
    <polygon
       style="fill:none"
       id="polygon3560"
       points="494.987,226.546 496.034,218.787 436.385,218.787 432.869,233.100 " />
    <polygon
       style="fill:none"
       id="polygon3562"
       points="424.946,25.843 426.429,17.719 363.531,17.719 359.544,27.814 " />
    <polygon
       style="fill:none"
       id="polygon3564"
       points="491.775,136.960 491.775,121.821 431.412,123.584 431.302,131.604 " />
    <polygon
       style="fill:none"
       id="polygon3566"
       points="492.924,120.564 492.506,109.445 431.773,109.444 432.107,121.821 " />
    <polygon
       style="fill:none"
       id="polygon3568"
       points="181.996,18.065 184.665,8.435 122.668,10.254 122.432,18.065 " />
    <polygon
       style="fill:none"
       id="polygon3570"
       points="65.870,16.299 66.855,8.467 6.392,8.468 5.328,16.299 " />
    <polygon
       style="fill:none"
       id="polygon3572"
       points="425.935,17.162 426.429,9.373 366.772,9.373 366.340,17.719 " />
    <polygon
       style="fill:none"
       id="polygon3574"
       points="245.178,7.807 245.668,0.000 185.841,0.000 185.378,7.812 " />
    <polygon
       style="fill:none"
       id="polygon3576"
       points="498.821,93.192 499.917,85.377 439.514,85.377 437.755,95.338 " />
    <polygon
       style="fill:none"
       id="polygon3578"
       points="244.208,27.814 245.668,15.706 185.036,20.045 184.665,27.814 " />
    <polygon
       style="fill:none"
       id="polygon3580"
       points="306.598,27.814 306.098,17.598 245.668,19.870 246.045,27.814 " />
    <polygon
       style="fill:none"
       id="polygon3582"
       points="480.698,374.202 480.923,366.474 421.999,366.474 421.667,385.850 " />
    <polygon
       style="fill:none"
       id="polygon3584"
       points="497.782,133.137 499.323,130.094 491.775,130.094 " />
    <polygon
       style="fill:none"
       id="polygon3586"
       points="356.414,418.163 357.083,416.702 349.360,416.702 " />
    <polygon
       style="fill:none"
       id="polygon3588"
       points="350.740,501.024 349.968,499.479 343.017,501.024 " />
    <polygon
       style="fill:none"
       id="polygon3590"
       points="254.784,418.803 269.412,416.878 247.852,416.878 " />
    <polygon
       style="fill:none"
       id="polygon3592"
       points="458.418,56.736 450.450,54.021 436.501,58.403 455.122,58.403 " />
    <polygon
       style="fill:none"
       id="polygon3594"
       points="478.669,314.054 478.669,308.422 475.700,306.528 477.037,314.054 " />
    <polygon
       style="fill:none"
       id="polygon3596"
       points="498.280,66.338 479.730,66.338 479.649,68.769 498.199,68.769 " />
    <polygon
       style="fill:none"
       id="polygon3598"
       points="327.420,416.702 319.507,416.702 319.507,418.391 327.420,418.391 " />
    <polygon
       style="fill:none"
       id="polygon3600"
       points="356.385,499.479 350.740,499.479 350.740,501.136 356.385,501.136 " />
    <polygon
       style="fill:none"
       id="polygon3602"
       points="499.201,188.284 479.563,188.284 479.676,190.851 499.314,190.851 " />
    <polygon
       style="fill:none"
       id="polygon3604"
       points="321.599,312.242 315.953,312.242 315.953,313.899 321.599,313.899 " />
    <polygon
       style="fill:none"
       id="polygon3606"
       points="498.938,255.349 479.300,255.349 479.414,257.917 499.052,257.917 " />
    <polygon
       style="fill:none"
       id="polygon3608"
       points="122.432,8.574 103.883,8.574 103.801,11.005 122.351,11.005 " />
    <polygon
       style="fill:none"
       id="polygon3610"
       points="335.332,416.702 327.420,416.702 327.420,418.391 335.332,418.391 " />
    <polygon
       style="fill:none"
       id="polygon3612"
       points="498.005,248.984 479.300,248.984 480.142,252.365 498.846,252.365 " />
    <polygon
       style="fill:none"
       id="polygon3614"
       points="496.168,312.467 488.189,312.467 490.125,315.323 498.105,315.323 " />
    <polygon
       style="fill:none"
       id="polygon3616"
       points="362.030,499.479 356.385,499.479 356.385,501.136 362.030,501.136 " />
    <polygon
       style="fill:none"
       id="polygon3618"
       points="499.287,69.200 479.649,69.200 479.763,71.768 499.401,71.768 " />
    <polygon
       style="fill:none"
       id="polygon3620"
       points="493.326,379.557 488.126,377.499 488.119,380.825 493.326,385.850 " />
    <polygon
       style="fill:none"
       id="polygon3622"
       points="492.023,425.430 472.325,425.430 474.066,431.742 492.825,428.955 " />
    <polygon
       style="fill:none"
       id="polygon3624"
       points="430.607,194.908 364.100,203.664 432.904,203.664 " />
    <polygon
       style="fill:none"
       id="polygon3626"
       points="150.314,295.619 92.496,314.282 216.453,314.282 " />
    <polygon
       style="fill:none"
       id="polygon3628"
       points="386.006,239.761 326.351,229.923 261.748,239.761 " />
    <polygon
       style="fill:none"
       id="polygon3630"
       points="496.043,148.973 436.205,136.960 431.302,148.973 " />
    <polygon
       style="fill:none"
       id="polygon3632"
       points="285.678,416.702 285.455,418.404 298.603,418.404 " />
    <polygon
       style="fill:none"
       id="polygon3634"
       points="292.838,312.242 292.399,313.916 305.547,313.916 " />
    <polygon
       style="fill:none"
       id="polygon3636"
       points="186.299,183.461 184.583,183.904 186.299,196.939 " />
    <polygon
       style="fill:none"
       id="polygon3638"
       points="487.524,161.989 489.379,165.124 500.740,161.989 " />
    <polygon
       style="fill:none"
       id="polygon3640"
       points="482.686,82.004 463.712,84.629 494.202,84.629 " />
    <polygon
       style="fill:none"
       id="polygon3642"
       points="199.660,149.009 191.268,152.993 228.496,152.993 " />
    <polygon
       style="fill:none"
       id="polygon3644"
       points="486.492,441.993 479.160,438.574 461.386,441.993 " />
    <polygon
       style="fill:none"
       id="polygon3646"
       points="465.390,331.306 446.601,331.306 447.674,335.018 " />
    <polygon
       style="fill:none"
       id="polygon3648"
       points="465.390,328.097 487.868,334.858 488.863,328.097 " />
    <polygon
       style="fill:none"
       id="polygon3650"
       points="250.822,314.282 92.496,335.126 334.965,335.126 " />
    <polygon
       style="fill:none"
       id="polygon3652"
       points="492.624,385.850 486.446,390.484 492.624,393.573 " />
    <polygon
       style="fill:none"
       id="polygon3654"
       points="313.639,52.325 442.613,43.872 184.665,43.872 " />
    <polygon
       style="fill:none"
       id="polygon3656"
       points="332.418,313.037 324.324,306.670 322.177,313.037 " />
    <polygon
       style="fill:none"
       id="polygon3658"
       points="280.603,311.963 322.177,295.619 216.453,295.619 " />
    <polygon
       style="fill:none"
       id="polygon3660"
       points="312.822,12.952 312.597,16.008 336.071,16.008 " />
    <polygon
       style="fill:none"
       id="polygon3662"
       points="336.518,9.880 336.071,12.919 359.544,12.919 " />
    <polygon
       style="fill:none"
       id="polygon3664"
       points="336.085,12.919 336.071,16.008 359.544,16.008 " />
    <polygon
       style="fill:none"
       id="polygon3666"
       points="312.798,9.888 312.661,12.952 336.071,12.952 " />
    <polygon
       style="fill:none"
       id="polygon3668"
       points="486.352,3.426 426.429,11.315 487.263,11.315 " />
    <polygon
       style="fill:none"
       id="polygon3670"
       points="393.182,362.506 332.643,366.474 453.721,366.474 " />
    <polygon
       style="fill:none"
       id="polygon3672"
       points="380.351,512.000 317.836,501.880 257.948,512.000 " />
    <polygon
       style="fill:none"
       id="polygon3674"
       points="307.407,2.593 246.966,1.560 246.966,9.500 " />
    <polygon
       style="fill:none"
       id="polygon3676"
       points="348.941,418.377 349.360,416.702 342.240,416.702 " />
    <polygon
       style="fill:none"
       id="polygon3678"
       points="334.522,501.024 335.294,499.479 327.572,499.479 " />
    <polygon
       style="fill:none"
       id="polygon3680"
       points="343.017,501.024 342.245,499.479 335.294,501.024 " />
    <polygon
       style="fill:none"
       id="polygon3682"
       points="342.240,418.429 342.240,416.702 335.332,416.702 " />
    <polygon
       style="fill:none"
       id="polygon3684"
       points="443.505,52.325 503.081,51.974 502.250,44.279 442.613,44.277 " />
    <polygon
       style="fill:none"
       id="polygon3686"
       points="432.869,218.787 493.087,218.601 493.084,210.375 432.869,203.664 " />
    <polygon
       style="fill:none"
       id="polygon3688"
       points="427.306,401.699 486.446,393.460 484.724,385.850 421.667,385.850 " />
    <polygon
       style="fill:none"
       id="polygon3690"
       points="407.547,508.167 465.269,503.037 462.444,486.958 403.456,486.958 " />
    <polygon
       style="fill:none"
       id="polygon3692"
       points="403.456,486.958 464.416,483.678 461.846,469.295 403.456,465.204 " />
    <polygon
       style="fill:none"
       id="polygon3694"
       points="371.615,148.721 431.302,144.139 429.554,121.821 369.320,121.821 " />
    <polygon
       style="fill:none"
       id="polygon3696"
       points="374.722,121.821 431.773,116.303 427.665,95.338 369.320,95.338 " />
    <polygon
       style="fill:none"
       id="polygon3698"
       points="365.078,398.435 421.667,392.745 416.268,366.474 358.373,366.474 " />
    <polygon
       style="fill:none"
       id="polygon3700"
       points="435.821,43.872 497.566,43.872 496.747,35.851 432.876,35.851 " />
    <polygon
       style="fill:none"
       id="polygon3702"
       points="436.391,109.293 497.193,103.079 494.638,95.338 431.773,95.338 " />
    <polygon
       style="fill:none"
       id="polygon3704"
       points="1.403,28.718 66.855,24.723 65.333,16.299 0.121,16.299 " />
    <polygon
       style="fill:none"
       id="polygon3706"
       points="430.399,35.737 493.807,33.107 492.276,20.595 426.429,20.595 " />
    <polygon
       style="fill:none"
       id="polygon3708"
       points="344.110,486.342 403.452,499.479 403.456,484.861 344.110,465.204 " />
    <polygon
       style="fill:none"
       id="polygon3710"
       points="372.750,229.770 432.869,223.615 426.260,203.664 364.100,203.664 " />
    <polygon
       style="fill:none"
       id="polygon3712"
       points="344.110,439.280 405.406,455.817 406.415,440.189 344.110,418.803 " />
    <polygon
       style="fill:none"
       id="polygon3714"
       points="191.268,179.059 252.105,196.939 252.719,176.498 191.268,152.993 " />
    <polygon
       style="fill:none"
       id="polygon3716"
       points="434.533,438.574 434.353,442.086 461.207,442.086 461.386,438.574 " />
    <polygon
       style="fill:none"
       id="polygon3718"
       points="431.573,508.167 431.393,511.678 458.246,511.678 458.426,508.167 " />
    <polygon
       style="fill:none"
       id="polygon3720"
       points="483.697,293.722 479.205,293.467 479.205,327.842 483.697,328.097 " />
    <polygon
       style="fill:none"
       id="polygon3722"
       points="191.268,162.564 186.776,162.310 186.776,196.685 191.268,196.939 " />
    <polygon
       style="fill:none"
       id="polygon3724"
       points="418.951,331.433 418.772,334.945 445.625,334.945 445.804,331.433 " />
    <polygon
       style="fill:none"
       id="polygon3726"
       points="392.139,398.435 391.960,401.947 418.813,401.947 418.992,398.435 " />
    <polygon
       style="fill:none"
       id="polygon3728"
       points="488.107,335.381 483.615,335.126 483.615,369.501 488.107,369.756 " />
    <polygon
       style="fill:none"
       id="polygon3730"
       points="488.189,293.722 483.697,293.467 483.697,327.842 488.189,328.097 " />
    <polygon
       style="fill:none"
       id="polygon3732"
       points="391.022,331.433 390.834,335.062 418.583,335.062 418.772,331.433 " />
    <polygon
       style="fill:none"
       id="polygon3734"
       points="403.644,508.167 403.456,511.795 431.205,511.795 431.393,508.167 " />
    <polygon
       style="fill:none"
       id="polygon3736"
       points="456.510,233.100 456.342,236.473 482.131,236.473 482.299,233.100 " />
    <polygon
       style="fill:none"
       id="polygon3738"
       points="437.923,82.004 437.755,85.377 463.544,85.377 463.712,82.004 " />
    <polygon
       style="fill:none"
       id="polygon3740"
       points="363.085,331.433 362.896,335.062 390.645,335.062 390.834,331.433 " />
    <polygon
       style="fill:none"
       id="polygon3742"
       points="406.604,438.574 406.415,442.203 434.165,442.203 434.353,438.574 " />
    <polygon
       style="fill:none"
       id="polygon3744"
       points="453.889,363.101 453.721,366.474 479.510,366.474 479.678,363.101 " />
    <polygon
       style="fill:none"
       id="polygon3746"
       points="458.586,54.021 458.418,57.394 484.207,57.394 484.375,54.021 " />
    <polygon
       style="fill:none"
       id="polygon3748"
       points="426.429,20.595 491.641,20.595 430.442,11.315 " />
    <polygon
       style="fill:none"
       id="polygon3750"
       points="375.825,416.491 485.991,401.987 358.373,401.987 " />
    <polygon
       style="fill:none"
       id="polygon3752"
       points="334.965,314.282 464.274,331.306 465.390,314.282 " />
    <polygon
       style="fill:none"
       id="polygon3754"
       points="432.904,194.908 497.553,203.458 499.850,194.908 " />
    <polygon
       style="fill:none"
       id="polygon3756"
       points="319.224,418.381 319.507,416.702 309.266,416.702 " />
    <polygon
       style="fill:none"
       id="polygon3758"
       points="327.049,501.030 327.572,499.479 317.330,499.479 " />
    <polygon
       style="fill:none"
       id="polygon3760"
       points="184.699,173.045 186.299,172.477 184.699,162.361 " />
    <polygon
       style="fill:none"
       id="polygon3762"
       points="184.601,183.461 186.299,183.144 184.601,173.045 " />
    <polygon
       style="fill:none"
       id="polygon3764"
       points="446.293,263.859 472.393,255.992 446.293,238.478 " />
    <polygon
       style="fill:none"
       id="polygon3766"
       points="439.168,464.160 502.536,455.817 436.337,455.817 " />
    <polygon
       style="fill:none"
       id="polygon3768"
       points="386.006,229.923 412.493,239.521 430.677,229.923 " />
    <polygon
       style="fill:none"
       id="polygon3770"
       points="464.416,486.958 490.591,486.958 483.577,479.497 " />
  </g>
  <flowRoot
     transform="matrix(0.17554385,0,0,0.17554385,219.20913,34.270367)"
     style="font-size:40px;font-style:normal;font-weight:normal;fill:#ff0000;fill-opacity:1;stroke:none;font-family:AlMateen;-inkscape-font-specification:AlMateen;stroke-opacity:1"
     id="flowRoot4552"
     xml:space="preserve"><flowRegion
       id="flowRegion4554"><rect
         y="-80.81356"
         x="185.49153"
         height="65.781296"
         width="559.01306"
         id="rect4556"
         style="fill:#ff0000;font-family:AlMateen;-inkscape-font-specification:AlMateen;stroke:none;stroke-opacity:1" /></flowRegion><flowPara
       id="flowPara4558">emperors pride</flowPara></flowRoot>  <flowRoot
     transform="matrix(0.15182785,0.04837911,-0.04837911,0.15182785,169.54762,163.33436)"
     style="font-size:100.40827942000001372px;font-style:normal;font-weight:normal;fill:#000000;fill-opacity:1;stroke:#000000;font-family:Impact;-inkscape-font-specification:Impact;stroke-opacity:1"
     id="flowRoot4552-0-4"
     xml:space="preserve"><flowRegion
       id="flowRegion4554-7-3"><rect
         style="font-size:100.40827942000001372px;font-family:Impact;-inkscape-font-specification:Impact;fill:#000000;stroke:#000000;stroke-opacity:1"
         y="-80.81356"
         x="185.49153"
         height="125.19698"
         width="441.4021"
         id="rect4556-6-96" /></flowRegion><flowPara
       style="font-size:100.40827942000001372px;font-family:Impact;-inkscape-font-specification:Impact;fill:#000000;stroke:#000000;stroke-opacity:1"
       id="flowPara5611">fidelity</flowPara></flowRoot>  <g
     style="fill:#000000"
     id="barcode"
     transform="matrix(-0.26232164,0,0,-0.26232164,554.93857,113.93199)">
    <rect
       id="barcode_bar1"
       height="11"
       width="2"
       y="77"
       x="252" />
    <rect
       id="barcode_bar3"
       height="5"
       width="2"
       y="83"
       x="256" />
    <rect
       id="barcode_bar5"
       height="11"
       width="2"
       y="77"
       x="260" />
    <rect
       id="barcode_bar7"
       height="11"
       width="2"
       y="83"
       x="264" />
    <rect
       id="barcode_bar9"
       height="17"
       width="2"
       y="77"
       x="268" />
    <rect
       id="barcode_bar11"
       height="11"
       width="2"
       y="83"
       x="272" />
    <rect
       id="barcode_bar13"
       height="11"
       width="2"
       y="83"
       x="276" />
    <rect
       id="barcode_bar15"
       height="11"
       width="2"
       y="77"
       x="280" />
    <rect
       id="barcode_bar17"
       height="11"
       width="2"
       y="77"
       x="284" />
    <rect
       id="barcode_bar19"
       height="5"
       width="2"
       y="83"
       x="288" />
    <rect
       id="barcode_bar21"
       height="11"
       width="2"
       y="77"
       x="292" />
    <rect
       id="barcode_bar23"
       height="11"
       width="2"
       y="83"
       x="296" />
    <rect
       id="barcode_bar25"
       height="17"
       width="2"
       y="77"
       x="300" />
    <rect
       id="barcode_bar27"
       height="5"
       width="2"
       y="83"
       x="304" />
    <rect
       id="barcode_bar29"
       height="17"
       width="2"
       y="77"
       x="308" />
    <rect
       id="barcode_bar31"
       height="5"
       width="2"
       y="83"
       x="312" />
    <rect
       id="barcode_bar33"
       height="17"
       width="2"
       y="77"
       x="316" />
    <rect
       id="barcode_bar35"
       height="11"
       width="2"
       y="83"
       x="320" />
    <rect
       id="barcode_bar37"
       height="11"
       width="2"
       y="83"
       x="324" />
    <rect
       id="barcode_bar39"
       height="11"
       width="2"
       y="77"
       x="328" />
    <rect
       id="barcode_bar41"
       height="11"
       width="2"
       y="77"
       x="332" />
    <rect
       id="barcode_bar43"
       height="5"
       width="2"
       y="83"
       x="336" />
    <rect
       id="barcode_bar45"
       height="11"
       width="2"
       y="77"
       x="340" />
    <rect
       id="barcode_bar47"
       height="11"
       width="2"
       y="83"
       x="344" />
    <rect
       id="barcode_bar49"
       height="17"
       width="2"
       y="77"
       x="348" />
    <rect
       id="barcode_bar51"
       height="5"
       width="2"
       y="83"
       x="352" />
    <rect
       id="barcode_bar53"
       height="17"
       width="2"
       y="77"
       x="356" />
    <rect
       id="barcode_bar55"
       height="5"
       width="2"
       y="83"
       x="360" />
    <rect
       id="barcode_bar57"
       height="17"
       width="2"
       y="77"
       x="364" />
    <rect
       id="barcode_bar59"
       height="11"
       width="2"
       y="83"
       x="368" />
    <rect
       id="barcode_bar61"
       height="11"
       width="2"
       y="83"
       x="372" />
    <rect
       id="barcode_bar63"
       height="11"
       width="2"
       y="77"
       x="376" />
    <rect
       id="barcode_bar65"
       height="11"
       width="2"
       y="77"
       x="380" />
    <rect
       id="barcode_bar67"
       height="5"
       width="2"
       y="83"
       x="384" />
    <rect
       id="barcode_bar69"
       height="11"
       width="2"
       y="77"
       x="388" />
    <rect
       id="barcode_bar71"
       height="11"
       width="2"
       y="83"
       x="392" />
    <rect
       id="barcode_bar73"
       height="17"
       width="2"
       y="77"
       x="396" />
    <rect
       id="barcode_bar75"
       height="5"
       width="2"
       y="83"
       x="400" />
    <rect
       id="barcode_bar77"
       height="17"
       width="2"
       y="77"
       x="404" />
    <rect
       id="barcode_bar79"
       height="17"
       width="2"
       y="77"
       x="408" />
    <rect
       id="barcode_bar81"
       height="5"
       width="2"
       y="83"
       x="412" />
    <rect
       id="barcode_bar83"
       height="17"
       width="2"
       y="77"
       x="416" />
    <text
       id="barcode_bottomtext"
       xml:space="preserve"
       style="font-size:9px;text-align:center;text-anchor:middle"
       y="105"
       x="335">656756756</text>
  </g>
</svg>
