<?xml version="1.0" encoding="UTF-8" standalone="no"?>
<!-- Created with Inkscape (http://www.inkscape.org/) -->

<svg
   xmlns:dc="http://purl.org/dc/elements/1.1/"
   xmlns:cc="http://creativecommons.org/ns#"
   xmlns:rdf="http://www.w3.org/1999/02/22-rdf-syntax-ns#"
   xmlns:svg="http://www.w3.org/2000/svg"
   xmlns="http://www.w3.org/2000/svg"
   xmlns:sodipodi="http://sodipodi.sourceforge.net/DTD/sodipodi-0.dtd"
   xmlns:inkscape="http://www.inkscape.org/namespaces/inkscape"
   width="210mm"
   height="297mm"
   id="svg20632"
   sodipodi:version="0.32"
   inkscape:version="0.47 r22583"
   sodipodi:docname="FLF_logo_1_1.svg"
   inkscape:output_extension="org.inkscape.output.svg.inkscape"
   inkscape:export-filename="/home/brutkasten/Dokumente/naev/logos/FLF_logo_1_1.png"
   inkscape:export-xdpi="90"
   inkscape:export-ydpi="90"
   version="1.1">
  <defs
     id="defs20634">
    <filter
       id="filter15966"
       inkscape:collect="always">
      <feGaussianBlur
         id="feGaussianBlur15968"
         stdDeviation="1.8708548"
         inkscape:collect="always" />
    </filter>
    <filter
       id="filter15646"
       inkscape:collect="always">
      <feGaussianBlur
         id="feGaussianBlur15648"
         stdDeviation="2.8062822"
         inkscape:collect="always" />
    </filter>
    <filter
       height="2.7400067"
       y="-0.87000337"
       width="1.2427341"
       x="-0.12136706"
       id="filter15740"
       inkscape:collect="always">
      <feGaussianBlur
         id="feGaussianBlur15742"
         stdDeviation="4.4678318"
         inkscape:collect="always" />
    </filter>
    <filter
       height="1.3946332"
       y="-0.19731662"
       width="1.446426"
       x="-0.22321299"
       id="filter15690"
       inkscape:collect="always">
      <feGaussianBlur
         id="feGaussianBlur15692"
         stdDeviation="5.6510621"
         inkscape:collect="always" />
    </filter>
    <filter
       height="1.5392518"
       y="-0.26962588"
       width="1.3821931"
       x="-0.19109657"
       id="filter15894"
       inkscape:collect="always">
      <feGaussianBlur
         id="feGaussianBlur15896"
         stdDeviation="3.6839064"
         inkscape:collect="always" />
    </filter>
    <filter
       height="1.0611113"
       y="-0.030555644"
       width="5.877134"
       x="-2.438567"
       id="filter17020"
       inkscape:collect="always">
      <feGaussianBlur
         id="feGaussianBlur17022"
         stdDeviation="2.2496797"
         inkscape:collect="always" />
    </filter>
    <filter
       id="filter16956"
       inkscape:collect="always">
      <feGaussianBlur
         id="feGaussianBlur16958"
         stdDeviation="3.2798"
         inkscape:collect="always" />
    </filter>
    <filter
       inkscape:collect="always"
       id="filter19714">
      <feGaussianBlur
         inkscape:collect="always"
         stdDeviation="1.6959337"
         id="feGaussianBlur19716" />
    </filter>
    <filter
       inkscape:collect="always"
       id="filter19800"
       x="-0.18297445"
       width="1.3659489"
       y="-0.052555485"
       height="1.105111">
      <feGaussianBlur
         inkscape:collect="always"
         stdDeviation="4.207695"
         id="feGaussianBlur19802" />
    </filter>
    <filter
       inkscape:collect="always"
       id="filter20618"
       x="-0.55950814"
       width="2.1190163"
       y="-0.57685122"
       height="2.1537024">
      <feGaussianBlur
         inkscape:collect="always"
         stdDeviation="1.080527"
         id="feGaussianBlur20620" />
    </filter>
    <inkscape:perspective
       sodipodi:type="inkscape:persp3d"
       inkscape:vp_x="0 : 526.18109 : 1"
       inkscape:vp_y="0 : 1000 : 0"
       inkscape:vp_z="744.09448 : 526.18109 : 1"
       inkscape:persp3d-origin="372.04724 : 350.78739 : 1"
       id="perspective20640" />
    <inkscape:perspective
       id="perspective2457"
       inkscape:persp3d-origin="60 : 14 : 1"
       inkscape:vp_z="120 : 21 : 1"
       inkscape:vp_y="0 : 1000 : 0"
       inkscape:vp_x="0 : 21 : 1"
       sodipodi:type="inkscape:persp3d" />
    <inkscape:perspective
       sodipodi:type="inkscape:persp3d"
       inkscape:vp_x="0 : 21 : 1"
       inkscape:vp_y="0 : 1000 : 0"
       inkscape:vp_z="120 : 21 : 1"
       inkscape:persp3d-origin="60 : 14 : 1"
       id="perspective38983" />
    <inkscape:perspective
       id="perspective22068"
       inkscape:persp3d-origin="372.04724 : 350.78739 : 1"
       inkscape:vp_z="744.09448 : 526.18109 : 1"
       inkscape:vp_y="0 : 1000 : 0"
       inkscape:vp_x="0 : 526.18109 : 1"
       sodipodi:type="inkscape:persp3d" />
    <filter
       inkscape:collect="always"
       id="filter6279"
       x="-0.11181813"
       width="1.2236363"
       y="-0.044736319"
       height="1.0894726">
      <feGaussianBlur
         inkscape:collect="always"
         stdDeviation="2.6956182"
         id="feGaussianBlur6281" />
    </filter>
    <filter
       inkscape:collect="always"
       id="filter6523"
       x="-0.64640187"
       width="2.2928037"
       y="-0.1908352"
       height="1.3816704">
      <feGaussianBlur
         inkscape:collect="always"
         stdDeviation="0.63492446"
         id="feGaussianBlur6525" />
    </filter>
    <inkscape:perspective
       id="perspective8936"
       inkscape:persp3d-origin="0.5 : 0.33333333 : 1"
       inkscape:vp_z="1 : 0.5 : 1"
       inkscape:vp_y="0 : 1000 : 0"
       inkscape:vp_x="0 : 0.5 : 1"
       sodipodi:type="inkscape:persp3d" />
  </defs>
  <sodipodi:namedview
     id="base"
     pagecolor="#ffffff"
     bordercolor="#666666"
     borderopacity="1.0"
     inkscape:pageopacity="0.0"
     inkscape:pageshadow="2"
     inkscape:zoom="0.7"
     inkscape:cx="688.1946"
     inkscape:cy="520.76965"
     inkscape:document-units="px"
     inkscape:current-layer="layer1"
     showgrid="false"
     inkscape:window-width="1910"
     inkscape:window-height="999"
     inkscape:window-x="0"
     inkscape:window-y="25"
     inkscape:window-maximized="0" />
  <metadata
     id="metadata20637">
    <rdf:RDF>
      <cc:Work
         rdf:about="">
        <dc:format>image/svg+xml</dc:format>
        <dc:type
           rdf:resource="http://purl.org/dc/dcmitype/StillImage" />
        <dc:title></dc:title>
      </cc:Work>
    </rdf:RDF>
  </metadata>
  <g
     inkscape:label="Ebene 1"
     inkscape:groupmode="layer"
     id="layer1">
    <rect
       style="fill:#b3b3b3;fill-opacity:1;stroke:#999999;stroke-width:1.40127528;stroke-linecap:round;stroke-miterlimit:4;stroke-opacity:1;stroke-dasharray:none"
       id="rect2795"
       width="450.86157"
       height="425.42642"
       x="143.14064"
       y="343.93469"
       rx="26.711603"
       ry="4.5351133" />
    <g
       id="g3302"
       inkscape:label="Ebene 1"
       transform="translate(25.770808,43.735378)">
      <flowRoot
         transform="matrix(0.3357359,0,0,0.3357359,341.56403,429.79393)"
         style="font-size:40px;font-style:normal;font-weight:normal;fill:#000000;fill-opacity:1;stroke:none;stroke-width:1px;stroke-linecap:butt;stroke-linejoin:miter;stroke-opacity:1;font-family:Bitstream Vera Sans"
         id="flowRoot15342"
         xml:space="preserve"><flowRegion
           id="flowRegion15344"><rect
             y="689.50507"
             x="338.57144"
             height="91.428574"
             width="290"
             id="rect15346" /></flowRegion><flowPara
           id="flowPara15348">by enigmatic</flowPara></flowRoot>      <flowRoot
         transform="matrix(0.3357359,0,0,0.3357359,341.03393,447.30925)"
         style="font-size:23.82825279px;font-style:normal;font-weight:normal;fill:#000000;fill-opacity:1;stroke:none;stroke-width:1px;stroke-linecap:butt;stroke-linejoin:miter;stroke-opacity:1;font-family:Bitstream Vera Sans"
         id="flowRoot21123"
         xml:space="preserve"><flowRegion
           id="flowRegion21125"><rect
             style="font-size:23.82825279px"
             y="689.50507"
             x="338.57144"
             height="193.72675"
             width="742.82013"
             id="rect21127" /></flowRegion><flowPara
           id="flowPara38883">released under</flowPara><flowPara
           id="flowPara2451">creative commons</flowPara><flowPara
           id="flowPara21131">cc by v3.0</flowPara></flowRoot>      <g
         transform="matrix(0.6885364,0,0,0.6885364,455.68287,628.81639)"
         inkscape:label="Layer 1"
         id="g38986">
        <g
           transform="matrix(0.9937728,0,0,0.9936696,-177.69267,6.25128e-7)"
           id="g260"
           inkscape:export-filename="/mnt/hgfs/Bov/Documents/Work/2007/cc/identity/srr buttons/big/by.png"
           inkscape:export-xdpi="300.23013"
           inkscape:export-ydpi="300.23013">
          <path
             id="path3817_1_"
             nodetypes="ccccccc"
             d="M 181.96579,0.51074 L 296.02975,0.71338 C 297.6235,0.71338 299.04733,0.47705 299.04733,3.89404 L 298.90768,41.46093 L 179.08737,41.46093 L 179.08737,3.75439 C 179.08737,2.06934 179.25046,0.51074 181.96579,0.51074 z"
             style="fill:#aab2ab" />
          <path
             d="M 297.29636,0 L 181.06736,0 C 179.82078,0 178.80613,1.01416 178.80613,2.26074 L 178.80613,41.75732 C 178.80613,42.03906 179.03513,42.26757 179.31687,42.26757 L 299.04734,42.26757 C 299.32908,42.26757 299.55808,42.03905 299.55808,41.75732 L 299.55808,2.26074 C 299.55807,1.01416 298.54343,0 297.29636,0 z M 181.06735,1.02148 L 297.29635,1.02148 C 297.98043,1.02148 298.53658,1.57714 298.53658,2.26074 C 298.53658,2.26074 298.53658,18.20898 298.53658,29.71045 L 215.19234,29.71045 C 212.14742,35.21631 206.28121,38.95459 199.54879,38.95459 C 192.81344,38.95459 186.94869,35.21973 183.90524,29.71045 L 179.8276,29.71045 C 179.8276,18.20899 179.8276,2.26074 179.8276,2.26074 C 179.82761,1.57715 180.38376,1.02148 181.06735,1.02148 z"
             id="path263" />
          <g
             enable-background="new    "
             id="g265">
            <path
               d="M 253.07761,32.95605 C 253.39499,32.95605 253.68503,32.98437 253.94773,33.04003 C 254.20945,33.09569 254.43308,33.18749 254.62058,33.31542 C 254.8071,33.44237 254.95261,33.6123 255.05515,33.82323 C 255.15769,34.03514 255.20945,34.29589 255.20945,34.60741 C 255.20945,34.94335 255.13328,35.22264 254.97996,35.44628 C 254.82762,35.67089 254.60105,35.85351 254.30223,35.99706 C 254.71434,36.11522 255.02196,36.32226 255.22508,36.61815 C 255.4282,36.91404 255.52977,37.27049 255.52977,37.68749 C 255.52977,38.02343 255.46434,38.31444 255.33348,38.56054 C 255.20262,38.80566 255.02586,39.00683 254.80516,39.1621 C 254.58348,39.31835 254.33055,39.43358 254.04735,39.5078 C 253.76317,39.583 253.47215,39.6201 253.17235,39.6201 L 249.936,39.6201 L 249.936,32.95604 L 253.07761,32.95604 L 253.07761,32.95605 z M 252.89011,35.65137 C 253.15183,35.65137 253.36667,35.58887 253.53562,35.46485 C 253.70359,35.34083 253.78757,35.13965 253.78757,34.86036 C 253.78757,34.70509 253.75925,34.57716 253.70359,34.47852 C 253.64695,34.37891 253.57273,34.30176 253.47898,34.24512 C 253.38523,34.18946 253.27781,34.15039 253.15671,34.12891 C 253.03561,34.10743 252.90866,34.09668 252.77878,34.09668 L 251.40476,34.09668 L 251.40476,35.65137 L 252.89011,35.65137 z M 252.97604,38.47949 C 253.11959,38.47949 253.25631,38.46582 253.38717,38.4375 C 253.51803,38.40918 253.63326,38.3623 253.73385,38.29785 C 253.83346,38.23242 253.91256,38.14355 253.97213,38.03125 C 254.0317,37.91992 254.061,37.77637 254.061,37.60254 C 254.061,37.26074 253.96432,37.0166 253.77096,36.87012 C 253.5776,36.72461 253.32174,36.65137 253.00436,36.65137 L 251.40475,36.65137 L 251.40475,38.47949 L 252.97604,38.47949 z"
               id="path267"
               style="fill:#ffffff" />
            <path
               d="M 255.78854,32.95605 L 257.43209,32.95605 L 258.99264,35.58789 L 260.54342,32.95605 L 262.17721,32.95605 L 259.70358,37.0625 L 259.70358,39.62012 L 258.23483,39.62012 L 258.23483,37.02539 L 255.78854,32.95605 z"
               id="path269"
               style="fill:#ffffff" />
          </g>
          <g
             id="g5908_1_"
             transform="matrix(0.872921,0,0,0.872921,50.12536,143.2144)">
            <path
               id="path5906_1_"
               cx="296.35416"
               ry="22.939548"
               cy="264.3577"
               type="arc"
               rx="22.939548"
               d="M 186.90065,-141.46002 C 186.90623,-132.77923 179.87279,-125.73852 171.19257,-125.73291 C 162.51235,-125.72736 155.47051,-132.76025 155.46547,-141.44098 C 155.46547,-141.44714 155.46547,-141.45331 155.46547,-141.46002 C 155.46043,-150.14081 162.49333,-157.18152 171.17355,-157.18658 C 179.8549,-157.19213 186.89561,-150.15924 186.90065,-141.47845 C 186.90065,-141.4729 186.90065,-141.46619 186.90065,-141.46002 z"
               style="fill:#ffffff" />
            <g
               id="g5706_1_"
               transform="translate(-289.6157,99.0653)">
              <path
                 id="path5708_1_"
                 d="M 473.57574,-253.32751 C 477.06115,-249.8421 478.80413,-245.5736 478.80413,-240.52532 C 478.80413,-235.47594 477.09136,-231.25329 473.66582,-227.85741 C 470.03051,-224.28081 465.734,-222.49309 460.77635,-222.49309 C 455.87858,-222.49309 451.65648,-224.26628 448.11122,-227.81261 C 444.56541,-231.35845 442.79277,-235.59563 442.79277,-240.52532 C 442.79277,-245.45391 444.56541,-249.7213 448.11122,-253.32751 C 451.56642,-256.81402 455.7885,-258.557 460.77635,-258.557 C 465.82465,-258.55701 470.09039,-256.81403 473.57574,-253.32751 z M 450.45776,-250.98267 C 447.51104,-248.00629 446.03823,-244.51978 446.03823,-240.52033 C 446.03823,-236.52198 447.49651,-233.06507 450.41247,-230.14966 C 453.32897,-227.23316 456.80096,-225.77545 460.82952,-225.77545 C 464.85808,-225.77545 468.35967,-227.24768 471.33605,-230.19385 C 474.16198,-232.9303 475.57549,-236.37091 475.57549,-240.52033 C 475.57549,-244.63837 474.13903,-248.13379 471.26781,-251.00501 C 468.39714,-253.87568 464.9179,-255.31159 460.82952,-255.31159 C 456.74112,-255.31158 453.28314,-253.86841 450.45776,-250.98267 z M 458.21225,-242.27948 C 457.76196,-243.26117 457.08795,-243.75232 456.18903,-243.75232 C 454.59986,-243.75232 453.80558,-242.68225 453.80558,-240.54321 C 453.80558,-238.40368 454.59986,-237.33471 456.18903,-237.33471 C 457.23841,-237.33471 457.98795,-237.85546 458.43769,-238.89922 L 460.64045,-237.72625 C 459.59052,-235.86077 458.01536,-234.92779 455.91496,-234.92779 C 454.29506,-234.92779 452.99733,-235.42449 452.0229,-236.4168 C 451.0468,-237.41021 450.56016,-238.77953 450.56016,-240.52532 C 450.56016,-242.24035 451.06245,-243.60186 452.06764,-244.61034 C 453.07283,-245.61888 454.32466,-246.12291 455.82545,-246.12291 C 458.04557,-246.12291 459.63526,-245.24803 460.59626,-243.50005 L 458.21225,-242.27948 z M 468.57562,-242.27948 C 468.12475,-243.26117 467.46417,-243.75232 466.5932,-243.75232 C 464.97217,-243.75232 464.16107,-242.68225 464.16107,-240.54321 C 464.16107,-238.40368 464.97217,-237.33471 466.5932,-237.33471 C 467.64429,-237.33471 468.38037,-237.85546 468.80048,-238.89922 L 471.05249,-237.72625 C 470.00421,-235.86077 468.43127,-234.92779 466.33478,-234.92779 C 464.7171,-234.92779 463.42218,-235.42449 462.44831,-236.4168 C 461.47614,-237.41021 460.98896,-238.77953 460.98896,-240.52532 C 460.98896,-242.24035 461.48341,-243.60186 462.47181,-244.61034 C 463.45966,-245.61888 464.71711,-246.12291 466.24531,-246.12291 C 468.4615,-246.12291 470.04896,-245.24803 471.0066,-243.50005 L 468.57562,-242.27948 z" />
            </g>
          </g>
          <g
             id="g275">
            <circle
               cx="255.55124"
               cy="15.31348"
               r="10.80664"
               id="circle277"
               sodipodi:cx="255.55124"
               sodipodi:cy="15.31348"
               sodipodi:rx="10.80664"
               sodipodi:ry="10.80664"
               style="fill:#ffffff"
               d="m 266.35788,15.31348 c 0,5.968343 -4.8383,10.80664 -10.80664,10.80664 -5.96834,0 -10.80664,-4.838297 -10.80664,-10.80664 0,-5.9683419 4.8383,-10.8066393 10.80664,-10.8066393 5.96834,0 10.80664,4.8382974 10.80664,10.8066393 z" />
            <g
               id="g279">
              <path
                 d="M 258.67819,12.18701 C 258.67819,11.77051 258.3403,11.4331 257.92526,11.4331 L 253.15182,11.4331 C 252.73678,11.4331 252.39889,11.7705 252.39889,12.18701 L 252.39889,16.95996 L 253.72994,16.95996 L 253.72994,22.61182 L 257.34713,22.61182 L 257.34713,16.95996 L 258.67818,16.95996 L 258.67818,12.18701 L 258.67819,12.18701 z"
                 id="path281" />
              <circle
                 cx="255.53854"
                 cy="9.1723604"
                 r="1.63281"
                 id="circle283"
                 sodipodi:cx="255.53854"
                 sodipodi:cy="9.1723604"
                 sodipodi:rx="1.63281"
                 sodipodi:ry="1.63281"
                 d="m 257.17135,9.1723604 c 0,0.9017756 -0.73103,1.6328096 -1.63281,1.6328096 -0.90177,0 -1.63281,-0.731034 -1.63281,-1.6328096 0,-0.901776 0.73104,-1.63281 1.63281,-1.63281 0.90178,0 1.63281,0.731034 1.63281,1.63281 z" />
            </g>
            <path
               clip-rule="evenodd"
               d="M 255.5239,3.40723 C 252.29148,3.40723 249.55515,4.53516 247.31589,6.79102 C 245.01804,9.12452 243.8696,11.88672 243.8696,15.07569 C 243.8696,18.26466 245.01804,21.00733 247.31589,23.30225 C 249.61374,25.59668 252.35007,26.74414 255.5239,26.74414 C 258.73679,26.74414 261.52195,25.58789 263.87742,23.27295 C 266.09715,21.07568 267.2075,18.34326 267.2075,15.07568 C 267.2075,11.8081 266.07762,9.04687 263.8198,6.79101 C 261.56003,4.53516 258.79538,3.40723 255.5239,3.40723 z M 255.55319,5.50684 C 258.20163,5.50684 260.45065,6.44092 262.30026,8.30811 C 264.1694,10.15528 265.10397,12.41114 265.10397,15.07569 C 265.10397,17.75928 264.18893,19.98633 262.35885,21.75587 C 260.43014,23.66212 258.16256,24.61476 255.55319,24.61476 C 252.94284,24.61476 250.69381,23.67189 248.80612,21.78517 C 246.91647,19.89845 245.97311,17.66212 245.97311,15.0757 C 245.97311,12.48879 246.92721,10.23341 248.83541,8.30812 C 250.6655,6.44092 252.90475,5.50684 255.55319,5.50684 z"
               id="path285"
               style="fill-rule:evenodd" />
          </g>
        </g>
      </g>
    </g>
    <g
       id="g6547"
       inkscape:export-filename="/home/brutkasten/Dokumente/naev/FLF_logo_1_1.png"
       inkscape:export-xdpi="90"
       inkscape:export-ydpi="90"
       transform="translate(-37.142858,108.57143)">
      <path
         style="fill:none;stroke:#000000;stroke-width:1px;stroke-linecap:butt;stroke-linejoin:miter;stroke-opacity:1"
         d="m 533.17391,527.47808 c 0,0 0,0 0,0 z"
         id="path17544" />
      <g
         style="stroke:#000000;stroke-opacity:1"
         id="g3331">
        <path
           sodipodi:nodetypes="ccccssssssssssssssssssssssssssscssssssssssssssssssssssssssssscc"
           id="path16750"
           d="m 474.06493,296.83795 c -1.4348,2.7332 -13.78436,27.77196 -15.25986,30.81556 -1.3611,2.808 -2.29616,6.05737 -3.68656,9.10507 -1.3049,2.8604 -2.6216,5.8213 -3.9478,8.873 -1.2599,2.8989 -2.5285,5.8797 -3.8038,8.934 -1.2232,2.9294 -4.364,12.4864 -6.1868,15.2337 -0.6566,0.9896 -6.0438,-6.1382 -6.9814,-4.7263 -1.0818,1.6289 2.4868,17.4235 1.3168,20.4851 -1.1431,2.9911 -2.336,3.9813 -3.2534,7.1201 -0.4088,1.3988 -6.5319,-5.5631 -7.6539,-2.4984 -1.1052,3.0186 2.9694,15.706 1.8675,18.7713 -1.0893,3.0303 -2.1764,6.0809 -3.2603,9.1468 -1.075,3.0408 -6.6925,-4.7625 -7.7601,-1.6964 -1.0621,3.0505 2.4257,16.9702 1.373,20.0361 -1.0506,3.0601 -2.0959,6.1255 -3.135,9.1916 -1.0399,3.0683 -6.8949,-4.3985 -7.9211,-1.3336 -1.0303,3.0771 2.7681,16.6858 1.7536,19.7499 -1.0215,3.085 -2.0344,6.161 -3.0377,9.2231 -1.0136,3.0937 -2.0174,6.1732 -3.0103,9.2334 -1.0065,3.1022 -2.0018,6.1846 -2.9846,9.2419 -1,3.1106 -1.9871,6.1953 -2.9602,9.2484 -0.9943,3.1199 -1.974,6.207 -2.9377,9.2551 -0.9896,3.1304 -1.9624,6.2198 -2.9169,9.2618 -0.9859,3.1422 -1.9523,6.2338 -2.8977,9.2678 -0.9836,3.1567 -1.9443,6.2509 -2.8806,9.2749 -0.9826,3.1738 -1.9381,6.2701 -2.8647,9.2797 -0.9838,3.1961 -1.935,6.2944 -2.8509,9.2841 -0.9886,3.2269 -1.9362,6.3271 -2.8398,9.2868 -0.9995,3.274 -1.9451,6.3761 -2.8327,9.2876 -1.0243,3.3595 -1.9712,6.4652 -2.8346,9.2883 -1.0898,3.5632 -2.0464,6.6761 -2.8571,9.2809 -1.78,5.7191 -3.10924,9.11457 -3.34774,9.32117 -0.266,0.0217 -1.23236,-3.44017 -3.22796,-9.44707 -0.8835,-2.6596 -1.9194,-5.843 -3.0922,-9.4905 -0.9286,-2.888 -1.9431,-6.0671 -3.0358,-9.5076 -0.9471,-2.9818 -1.9529,-6.1599 -3.0126,-9.5152 -0.9578,-3.0326 -1.9596,-6.2099 -3.0017,-9.5176 -0.9656,-3.065 -1.9658,-6.242 -2.9978,-9.5197 -0.9719,-3.087 -1.972,-6.2633 -2.9977,-9.5195 -0.9776,-3.1032 -1.9785,-6.2789 -3.0007,-9.5191 -0.9828,-3.1153 -1.9852,-6.2901 -3.0054,-9.5172 -0.9879,-3.1248 -1.9925,-6.2986 -3.012,-9.5148 -0.993,-3.1325 -2.0002,-6.3052 -3.02,-9.5121 -0.9984,-3.1392 -2.0088,-6.3111 -3.0299,-9.51 -1.0038,-3.1447 -2.0179,-6.3156 -3.0409,-9.5071 -1.0094,-3.149 -2.0274,-6.3182 -3.0528,-9.5023 -1.0153,-3.1527 -2.0377,-6.3201 -3.066,-9.4969 -1.0219,-3.1569 -2.0495,-6.3232 -3.0817,-9.494 -1.0285,-3.1595 -2.0615,-6.3234 -3.0978,-9.4868 -1.036,-3.1627 -2.0752,-6.3249 -3.1163,-9.4816 -1.044,-3.1651 -2.0899,-6.3248 -3.1365,-9.4741 -1.0529,-3.1683 -2.1065,-6.326 -3.1596,-9.4682 -1.0625,-3.1705 -2.1244,-6.3252 -3.1845,-9.4588 -1.0733,-3.173 -2.1446,-6.3244 -3.2126,-9.4489 -1.0857,-3.1762 -2.1679,-6.3245 -3.2451,-9.4394 -1.0994,-3.1788 -2.1936,-6.3227 -3.2812,-9.4257 -1.1153,-3.182 -2.2235,-6.321 -3.323,-9.4104 -1.134,-3.1862 -2.2587,-6.3196 -3.3723,-9.3934 -1.1563,-3.1913 -2.3006,-6.3183 -3.4309,-9.3729 -1.1833,-3.1978 -2.3514,-6.3163 -3.5017,-9.3464 -1.2174,-3.2066 -2.415,-6.3142 -3.5901,-9.312 -1.2623,-3.2202 -10.3272,-29.0422 -11.534,-31.9956 65.0189,0.5811 148.8572,-1.629 213.8613,0.5975"
           style="fill:#b3b3b3;fill-rule:evenodd;stroke:#000000;stroke-width:1px;stroke-linecap:butt;stroke-linejoin:miter;stroke-opacity:1" />
        <path
           transform="matrix(1.637472,0,0,1.637472,-1104.2222,-2054.2512)"
           sodipodi:nodetypes="cccc"
           id="path16692"
           d="m 833.63839,1437.1518 c 2.19808,2.6364 4.2483,5.3924 6.37476,8.0864 6.06115,7.8455 12.08498,15.72 18.12794,23.5795 9.73622,12.7676 19.43186,25.5661 29.0725,38.406 3.04381,4.0573 6.06822,8.129 9.08105,12.2094 3.95291,-4.7665 7.80267,-9.6175 11.6958,-14.4327 16.20287,-20.25 32.38021,-40.5205 48.5668,-60.7835 1.83234,-2.2983 3.67374,-4.5894 5.51865,-6.8776 -19.28325,-0.071 -38.56649,-0.1536 -57.84982,-0.1962 -19.55156,-0.02 -39.10319,-0.085 -58.65473,-0.04 -3.97765,0.016 -7.9553,0.032 -11.93295,0.048 z"
           style="fill:#666666;fill-rule:evenodd;stroke:#000000;stroke-width:1px;stroke-linecap:butt;stroke-linejoin:miter;stroke-opacity:1;filter:url(#filter15966)" />
        <path
           sodipodi:nodetypes="cccc"
           id="path16694"
           d="m 364.79381,421.64318 c 3.137,-3.3255 90.8011,-113.5485 91.973,-114.7663 -3.0484,0.005 -130.9984,-0.5937 -179.592,-0.2838 1.7509,1.7219 59.5616,76.9152 87.619,115.0501 z"
           style="fill:#c8ab37;fill-rule:evenodd;stroke:#000000;stroke-width:2.5999999;stroke-linecap:butt;stroke-linejoin:miter;stroke-miterlimit:4;stroke-opacity:1;stroke-dasharray:none" />
        <path
           transform="matrix(1.2615537,0,0,1.2615537,-766.69374,-1502.9323)"
           sodipodi:nodetypes="cccc"
           id="path16696"
           d="m 833.63839,1437.1518 c 2.19808,2.6364 4.2483,5.3924 6.37476,8.0864 6.06115,7.8455 12.08498,15.72 18.12794,23.5795 9.73622,12.7676 19.43186,25.5661 29.0725,38.406 3.04381,4.0573 6.06822,8.129 9.08105,12.2094 3.95291,-4.7665 7.80267,-9.6175 11.6958,-14.4327 16.20287,-20.25 32.38021,-40.5205 48.5668,-60.7835 1.83234,-2.2983 3.67374,-4.5894 5.51865,-6.8776 -19.28325,-0.071 -38.56649,-0.1536 -57.84982,-0.1962 -19.55156,-0.02 -39.10319,-0.085 -58.65473,-0.04 -3.97765,0.016 -7.9553,0.032 -11.93295,0.048 z"
           style="opacity:0.88323352;fill:#ffcc00;fill-rule:evenodd;stroke:#000000;stroke-width:1px;stroke-linecap:butt;stroke-linejoin:miter;stroke-opacity:1;filter:url(#filter15646)" />
        <path
           transform="matrix(0.6633304,0,0,0.992883,-264.45691,-1119.3786)"
           id="path16698"
           d="m 850.53571,1449.1479 c 0.11905,0 0.2381,0 0.35715,0 3.46476,0 6.84609,2.1428 10.53571,2.1428 4.1222,0 7.92966,-0.7142 11.96429,-0.7142 4.45475,0 8.79737,1.7857 13.39285,1.7857 5.66159,0 11.24688,-1.4286 16.96429,-1.4286 2.50327,0 4.99978,0.7143 7.67857,0.7143 3.14038,0 6.11509,-1.25 9.28571,-1.25 1.99701,0 4.00926,0.5357 6.07143,0.5357 2.28323,0 3.73078,0.019 5.35715,-1.6071 1.1248,-1.1248 1.92615,-2.3024 3.03571,-2.8572 0.97754,-0.4888 1.55188,-1.1947 2.32143,-1.9643 0.91535,-0.9153 1.61893,-1.0478 0.89286,-2.5 -1.0701,-2.1402 -7.63148,-1.9643 -9.28572,-1.9643 -7.43415,0 -13.79154,1.5073 -21.07143,2.5 -5.70652,0.7782 -8.36609,2.1049 -13.92857,0.7143 -3.77787,-0.9444 -7.88507,-0.7143 -11.78571,-0.7143 -3.02527,0 -6.20715,-0.2228 -9.10715,0.3572 -2.0283,0.4056 -4.15365,0.3571 -6.25,0.3571 -2.2502,0 -4.47049,-0.5357 -6.78571,-0.5357 -1.61212,0 -3.11903,-0.494 -4.46429,0.1786 -0.94564,0.4728 -1.93102,0.8596 -2.5,1.4286 -0.82846,0.8284 -1.29931,0.1972 -1.60714,1.4285 -0.25863,1.0346 -0.86801,1.3292 -1.07143,2.1429 -0.18999,0.76 -0.31528,-0.3264 0,1.25 z"
           style="opacity:0.7994012;fill:#ff6600;fill-rule:evenodd;stroke:#000000;stroke-width:1px;stroke-linecap:butt;stroke-linejoin:miter;stroke-opacity:1;filter:url(#filter15740)" />
        <path
           transform="matrix(1.3979757,0,0,1.3979757,-889.15764,-1702.7272)"
           id="path16700"
           d="m 847.67857,1440.5765 c 1.50717,-0.025 4.42755,0.4284 6.42857,0.7143 1.47128,0.2101 2.5861,0.8915 3.92858,1.4285 1.79005,0.716 4.21512,2.4294 5.53571,3.75 1.71943,1.7195 4.01068,3.5427 4.64286,6.0715 0.60352,2.414 5.036,5.0003 6.60714,6.9642 2.39034,2.988 4.87582,5.6445 6.60714,9.1072 1.19996,2.3999 1.06686,5.29 2.5,7.6786 1.2665,2.1108 4.248,1.5694 5.71429,3.0357 1.77206,1.772 1.58189,4.9495 2.67857,7.1428 1.11576,2.2315 2.22475,4.6554 3.21429,6.9643 0.94084,2.1953 2.54381,4.0611 3.75,6.0714 1.17138,1.9523 0.70403,4.2447 1.25,6.4286 0.0595,0.2381 0.11904,0.4762 0.17857,0.7143 0.38982,1.5593 0.009,1.2925 -1.25,1.6071 -1.1558,0.289 -2.52585,-0.064 -3.39286,-0.7142 -0.99997,-0.75 -3.67473,-1.4991 -4.82143,-1.7858 -1.77372,-0.4434 -2.44016,-4.9392 -2.85714,-6.6071 -0.61068,-2.4427 -0.86287,-6.7707 -3.39286,-8.0357 -1.96484,-0.9824 -3.834,-2.2122 -5.89286,-3.0357 -1.58865,-0.6355 -2.78295,-0.5312 -3.75,-2.1429 -1.39329,-2.3221 -1.94262,-5.1497 -3.57142,-7.3214 -0.98335,-1.3111 -2.4565,-1.9534 -3.92858,-2.3214 -2.56701,-0.6418 -3.75127,-3.2169 -4.82142,-5.3572 -0.90572,-1.8114 -1.26614,-3.7769 -2.32143,-5.5357 -0.41943,-0.6991 -1.13876,-1.4959 -1.78572,-2.1429 -0.64078,-0.6407 -1.30268,-1.7125 -1.60714,-2.3214 -0.25497,-0.5099 -2.2112,-1.1227 -2.85714,-1.6071 -0.94279,-0.7071 -1.24798,-1.6031 -1.78572,-2.6786 -0.54376,-1.0875 -1.25553,-2.1539 -1.78571,-3.2143 -0.62665,-1.2533 -1.02514,-2.376 -2.14286,-3.2143 -0.93393,-0.7004 -1.69411,-3.0264 -1.96428,-4.1071 -0.24508,-0.9803 -0.82006,-1.6731 -1.07143,-2.6786 -0.28637,-1.1455 -0.67862,-1.7857 -1.96429,-1.7857 -0.89806,0 -1.8852,-0.3374 -2.67857,-0.5357 -1.18366,-0.2959 -0.99896,-1.0042 -0.89286,-1.4286 0.0347,-0.1387 3.7038,0 4.10715,0 1.52474,0 2.15513,-0.097 3.39285,0.8929 z"
           style="opacity:0.84730542;fill:#d45500;fill-rule:evenodd;stroke:#000000;stroke-width:1px;stroke-linecap:butt;stroke-linejoin:miter;stroke-opacity:1;filter:url(#filter15690)" />
        <path
           id="path16702"
           d="m 311.63721,312.53658 c 2.0276,0 9.7665,0 14.3131,0 2.2177,0 4.065,0.3975 6.3614,0.3975 2.5181,0 5.0361,0 7.5542,0 3.309,0 5.7298,-1.0518 4.771,2.7831 -0.6456,2.5829 -0.2902,5.4272 -0.7951,7.9518 -0.4165,2.0823 0.088,4.4188 -0.3976,6.3614 -0.5138,2.055 0,5.0284 0,7.1565 0,2.4321 0.1512,4.9611 -0.3976,7.1566 -0.5682,2.2726 0,5.576 0,7.9518 0,2.6505 0,5.3011 0,7.9516 0,2.1206 0,4.2409 0,6.3615 0,2.3136 -0.3976,3.3886 -0.3976,5.5662 0,0.7094 -4.9103,0.3975 -5.5662,0.3975 -2.8116,0 -1.9879,-2.5433 -1.9879,-5.1685 0,-2.5181 0,-5.0361 0,-7.5542 0,-2.3856 0,-4.771 0,-7.1566 0,-2.3518 0.0376,-4.5824 -0.3976,-6.759 -0.4546,-2.2725 -0.1172,-4.21 -0.7952,-5.5661 -0.2959,-0.5918 -8.5685,0 -9.5421,0 -2.3361,0 -4.3842,-0.005 -5.9638,-0.7952 -0.9338,-0.4669 -0.3976,-5.6574 -0.3976,-6.759 0,-2.253 4.506,0 6.759,0 2.1205,0 4.2409,0 6.3614,0 2.1055,0 1.1927,-5.778 1.1927,-7.9518 0,-1.8991 -0.0732,-4.2686 -0.3975,-5.5662 -0.0861,-0.3442 -7.2398,0 -8.3494,0 -2.2325,0 -4.0564,0.3976 -6.3614,0.3976 -1.9879,0 -3.9759,0 -5.9638,0 -1.9653,0 -1.1927,-3.0044 -1.1927,-4.7711 0,-0.9556 1.0602,-1.5903 1.5903,-2.3854 z"
           style="fill:#000000;fill-rule:evenodd;stroke:#000000;stroke-width:1.11324346px;stroke-linecap:butt;stroke-linejoin:miter;stroke-opacity:1" />
        <path
           transform="matrix(1.3979757,0,0,1.3979757,-889.15764,-1702.7272)"
           id="path16704"
           d="m 947.5,1446.2907 c -1.56279,-2.2606 -5.21589,-3.9825 -8.57143,-4.8214 -4.18841,-1.0471 -8.54805,-0.7143 -12.85714,-0.7143 -2.29323,0 -4.63828,0 -6.96429,0 -2.02101,0 -3.32112,-0.01 -5,1.25 -1.85083,1.3881 -2.64616,3.7176 -4.28571,5.3571 -1.43408,1.4341 -3.48118,2.0752 -5,3.2143 -1.61215,1.2091 -3.39286,1.7366 -3.39286,3.9286 0,3.9961 0.5849,5.7635 3.39286,8.5714 1.56145,1.5615 3.57838,2.8366 5.35714,4.1072 1.18487,0.8463 1.4526,2.4854 2.32143,3.5714 1.33371,1.6671 3.7002,2.2197 5.53572,2.6786 2.09501,0.5237 4.94756,-2.3867 6.42857,-3.5715 1.62513,-1.3001 3.92011,-3.75 5.89285,-3.75 4.09618,0 5.90856,-5.047 6.96429,-8.2142 0.46584,-1.3976 2.02572,-3.9886 3.21429,-4.2858 1.03547,-0.2588 1.44172,-0.1851 2.14285,-0.5357 0.87977,-0.4399 1.49261,-0.7463 2.14286,-1.0714 0.9985,-0.4992 1.41508,-0.8659 1.96429,-1.9643 0.43618,-0.8723 0.70184,-2.0931 0.89285,-2.8571 0.0736,-0.2945 -0.11904,-0.5953 -0.17857,-0.8929 z"
           style="fill:#ffe680;fill-rule:evenodd;stroke:none;filter:url(#filter15894)" />
        <path
           id="path16708"
           d="m 353.53161,312.14238 c 0,1.5568 0,4.9028 0,7.2236 0,2.5362 -0.2498,5.1381 -0.2498,7.7051 0,2.5615 -0.2498,5.2554 -0.2498,7.9458 0,2.8091 0,5.6183 0,8.4276 0,2.7569 -0.2498,5.6137 -0.2498,8.4274 0,2.276 0.0623,4.816 -0.4997,6.9827 -0.4467,1.7223 0,4.2448 0,6.0196 0,2.3275 0,4.6551 0,6.9827 0,2.1672 0,4.3342 0,6.5013 0,1.284 0,2.5682 0,3.8524 0,1.3662 0.1248,2.4076 0.4997,3.1302 0.2236,0.4311 3.3615,-0.2407 3.7472,-0.2407 1.6655,0 3.3309,0 4.9964,0 1.9985,0 3.9971,0 5.9956,0 1.8743,0 3.6496,0.2407 5.496,0.2407 1.7203,0 3.4357,0.1808 4.9963,0.4816 1.4385,0.2772 3.2708,0 4.7466,0 1.4648,0 3.0448,-0.1317 3.4974,-0.2409 0.1315,-0.0315 0,-3.7496 0,-4.0932 0,-1.4675 -0.4212,-2.3465 -0.7495,-3.6118 -0.2679,-1.0331 -4.2128,-0.7224 -5.4959,-0.7224 -1.9153,0 -3.8306,0 -5.7458,0 -1.4157,0 -2.8313,0 -4.2469,0 -1.2675,0 -2.6669,-0.2407 -3.9971,-0.2407 -1.3324,0 -2.6647,0 -3.9971,0 -0.9971,0 -0.4996,-4.4932 -0.4996,-5.5381 0,-2.1671 0,-4.3341 0,-6.5011 0,-1.6158 0.2498,-2.9375 0.2498,-4.5749 0,-1.4447 0,-2.8895 0,-4.3341 0,-1.6905 -0.2498,-3.6945 -0.2498,-5.538 0,-1.9264 0,-3.8527 0,-5.7788 0,-1.7659 0,-3.5316 0,-5.2974 0,-1.6978 -0.2499,-3.5195 -0.2499,-5.2972 0,-2.2473 0,-4.4946 0,-6.742 0,-2.0867 0,-4.1735 0,-6.2603 0,-1.7659 0,-3.5315 0,-5.2973 0,-1.1501 -0.0459,-2.5851 -0.2498,-3.3709 -0.2314,-0.8922 -2.9573,-0.2005 -3.997,0 -1.0471,0.2018 -2.5084,-0.0502 -3.4975,-0.2409 z"
           style="fill:#000000;fill-rule:evenodd;stroke:#000000;stroke-width:1.37345147px;stroke-linecap:butt;stroke-linejoin:miter;stroke-opacity:1" />
        <path
           sodipodi:nodetypes="cccc"
           id="path16710"
           d="m 364.43641,421.24818 c 3.1369,-3.3255 90.801,-113.5484 91.9729,-114.7662 -3.0483,0.005 -130.9984,-0.5937 -179.592,-0.2838 1.7509,1.7219 59.5616,76.9152 87.6191,115.05 z"
           style="fill:none;stroke:#000000;stroke-width:3.63473678;stroke-linecap:butt;stroke-linejoin:miter;stroke-miterlimit:4;stroke-opacity:1;stroke-dasharray:none" />
        <path
           id="path16712"
           d="m 419.61021,312.56818 c -2.0276,0 -9.7665,0 -14.3131,0 -2.2177,0 -4.065,0.3975 -6.3614,0.3975 -2.5181,0 -5.0361,0 -7.5542,0 -3.309,0 -5.7298,-1.0518 -4.771,2.7831 0.6456,2.5829 0.2902,5.4272 0.7951,7.9518 0.4165,2.0823 -0.088,4.4188 0.3976,6.3614 0.5138,2.055 0,5.0284 0,7.1565 0,2.4321 -0.1512,4.9611 0.3976,7.1566 0.5682,2.2726 0,5.576 0,7.9518 0,2.6505 0,5.3011 0,7.9516 0,2.1206 0,4.2409 0,6.3615 0,2.3136 0.3976,3.3886 0.3976,5.5662 0,0.7094 4.9103,0.3975 5.5662,0.3975 2.8116,0 1.9879,-2.5433 1.9879,-5.1685 0,-2.5181 0,-5.0361 0,-7.5542 0,-2.3856 0,-4.771 0,-7.1566 0,-2.3518 -0.0376,-4.5824 0.3976,-6.759 0.4546,-2.2725 0.1172,-4.21 0.7952,-5.5661 0.2959,-0.5918 8.5685,0 9.5421,0 2.3361,0 4.3842,-0.005 5.9638,-0.7952 0.9338,-0.4669 0.3976,-5.6574 0.3976,-6.759 0,-2.253 -4.506,0 -6.759,0 -2.1205,0 -4.2409,0 -6.3614,0 -2.1055,0 -1.1927,-5.778 -1.1927,-7.9518 0,-1.8991 0.0732,-4.2686 0.3975,-5.5662 0.0861,-0.3442 7.2398,0 8.3494,0 2.2325,0 4.0564,0.3976 6.3614,0.3976 1.9879,0 3.9759,0 5.9638,0 1.9653,0 1.1927,-3.0044 1.1927,-4.7711 0,-0.9556 -1.0602,-1.5903 -1.5903,-2.3854 z"
           style="fill:#000000;fill-rule:evenodd;stroke:#000000;stroke-width:1.11324346px;stroke-linecap:butt;stroke-linejoin:miter;stroke-opacity:1" />
        <path
           id="path16762"
           d="m 278.11041,342.11508 c 5.6395,2.2925 15.0608,12.0304 21.2132,18.1827 3.8713,3.8714 6.6447,9.2487 9.0914,14.1422 2.6831,5.3663 5.134,11.2781 8.0812,17.1726 3.7112,7.4224 6.0288,14.436 11.1117,21.2132 4.0941,5.4587 6.3025,10.5846 9.0914,16.1624 2.8636,5.7274 3.549,11.1656 5.0507,17.1726 1.5173,6.0691 5.5987,9.2629 7.0711,15.1523 1.2515,5.0061 4.877,11.7743 7.0711,16.1624 1.6014,3.203 1.0101,11.4983 1.0101,15.1523 0,5.5525 -0.2297,11.2029 1.0102,16.1625 1.1647,4.6587 0,11.3628 0,16.1624 0,5.3875 0,10.775 0,16.1624 0,5.3875 0,10.775 0,16.1625 0,1.8598 -5.585,-15.7447 -7.0711,-20.2031 -2.0957,-6.287 -4.5947,-12.3178 -6.0609,-18.1827 -1.4653,-5.8611 -5.9342,-10.7949 -8.0812,-16.1625 -2.2343,-5.5855 -1.328,-11.7472 -4.0407,-17.1725 -2.4781,-4.9564 -2.5084,-10.0677 -5.0507,-15.1523 -2.1839,-4.3679 -3.721,-9.8332 -5.0508,-15.1523 -1.3686,-5.4744 -3.8117,-9.6438 -6.0609,-14.1422 -2.8477,-5.6954 -4.5499,-11.1287 -6.0609,-17.1726 -1.3945,-5.5779 -3.8966,-10.5354 -5.0508,-15.1522 -1.4851,-5.9405 -5.6638,-10.5333 -7.071,-16.1625 -1.5879,-6.3515 -4.4746,-9.8171 -6.061,-16.1624 -1.5016,-6.0067 -2.3736,-7.7777 -5.0507,-13.132 -2.1437,-4.2873 -2.9599,-9.8194 -4.0406,-14.1421 -0.4322,-1.7289 -4.2626,-5.7575 -5.0508,-7.0711 z"
           style="fill:#cccccc;fill-rule:evenodd;stroke:#000000;stroke-width:1px;stroke-linecap:butt;stroke-linejoin:miter;stroke-opacity:1;filter:url(#filter16956)" />
        <path
           sodipodi:nodetypes="cccssccc"
           id="path17024"
           d="m 272.39871,322.45746 c 16.68911,14.09128 77.29384,111.42549 77.50877,113.97438 2.06168,1.40863 6.16813,36.3858 6.65879,63.38334 -0.12343,12.13319 1.85086,41.55825 2.24437,47.25736 0.90622,13.12465 0.62765,32.21995 0.62765,36.16245 0,6.5938 3.80455,8.50473 2.84225,6.58013 -15.94657,-66.11039 -32.87667,-133.65102 -65.35713,-209.64281 -4.40022,-20.87173 -14.6574,-38.76369 -24.5247,-57.71485 z"
           style="fill:#f2f2f2;fill-rule:evenodd;stroke:none;filter:url(#filter6279)" />
        <path
           style="fill:#cccccc;fill-rule:evenodd;stroke:#000000;stroke-width:1px;stroke-linecap:butt;stroke-linejoin:miter;stroke-opacity:1"
           d="m 399.11581,460.48152 c 1.62769,-4.25595 1.14441,-4.81366 2.96019,-8.87697 0,-1.2627 -0.35715,-6.45387 -0.35715,-7.71657 0,-1.2627 0.89286,-2.5254 0.89286,-3.7881 0,-0.3367 0,-0.6734 0,-1.0102 0,-1.6114 0.2102,-3.2406 1.0102,-4.0406 0.5026,-0.5026 3.5143,0.121 4.0406,0.2526 1.2271,0.3068 2.0019,1.0055 3.0304,1.2627 0.8493,0.2123 0.5051,-3.8338 0.5051,-4.7983 0,-1.3819 0.0551,-2.8101 -0.2525,-4.0406 -0.2753,-1.1012 0,-2.6462 0,-3.7881 0,-1.5313 -0.2526,-2.7529 -0.2526,-4.2931 0,-1.6166 0.1133,-3.3348 -0.2525,-4.7982 -0.3835,-1.5342 0,-3.724 0,-5.3033 0,-1.569 -0.1404,-3.0023 0.5051,-4.2932 0.2992,-0.5985 2.8945,-0.2525 3.5355,-0.2525 1.572,0 2.4839,-0.0311 3.5355,0.7576 0.8796,0.6597 1.4319,1.221 2.5254,1.7678 1.7376,0.8688 1.9595,1.4029 1.5152,-1.2627 -0.3005,-1.8036 0,-3.9629 0,-5.8084 0,-1.2836 -0.4513,-2.3106 -0.7576,-3.5355 -0.3292,-1.3171 -0.4207,-2.693 -0.7576,-4.0406 -0.3177,-1.2709 -0.2525,-2.683 -0.2525,-4.0407 0,-1.1253 -0.2526,-3.0262 -0.2526,-4.5456 0,-1.2627 0,-2.5254 0,-3.7881 0,-1.7186 1.5342,-1.6463 3.0305,-2.0203 1.2193,-0.3048 2.0901,0.5225 3.0305,0.7576 1.0761,0.269 2.8423,1.7183 3.5355,2.2728 0.5266,0.4213 1.879,1.6265 2.0203,1.7678 1.0714,1.0714 0,-3.0304 0,-4.5457 0,-1.3668 -0.4294,-2.2228 -0.7576,-3.5355 -0.3326,-1.3304 -1.2433,-2.448 -1.5152,-3.5355 -0.3324,-1.3294 -0.5051,-2.3346 -0.5051,-3.7881 0,-1.3469 0,-2.6938 0,-4.0406 0,-1.2627 0,-2.5254 0,-3.7881 0,-1.3234 0.0122,-2.8268 0.2525,-3.7881 0.3167,-1.2665 0.3423,-2.0203 2.0203,-2.0203 1.3074,0 2.4148,-0.2525 3.7881,-0.2525 1.9572,0 1.8773,0.1095 3.0305,1.2627 0.8247,0.8247 1.0204,1.778 1.7677,2.5254 0.913,0.913 1.3161,1.3694 1.7678,2.2728 -0.2798,0.5596 0.8202,0.9465 1.2627,1.389 0.381,0.381 0.8037,0.6428 1.2627,0.7576 0.2711,0.0678 0.1262,1.5086 0.1262,1.7677 0,0.6492 -0.3984,0.933 -0.6313,1.5153 -0.0221,0.0552 -0.0842,0.0841 -0.1263,0.1262 -0.3833,0.3833 -0.7266,1.0745 -0.8839,1.389 -0.2768,0.5536 -0.6328,1.0121 -1.0101,1.5152 -0.3982,0.5309 -0.2264,1.0233 -1.2627,0.5051 -0.6472,-0.3236 -1.1236,-0.4987 -1.6415,-0.7576 -0.6785,-0.3393 -1.1513,-0.8988 -1.6415,-1.389 -0.3858,-0.3858 -0.8112,-0.4324 -1.1364,-0.7576 -0.4671,-0.4671 -0.8266,-0.7921 -1.2627,-1.0101 -0.2744,-0.1372 -0.3788,1.4136 -0.3788,1.6415 0,0.6313 0,1.2627 0,1.894 0,0.7249 0.1281,1.1437 0.2525,1.6415 0.152,0.608 0.2567,1.4057 0.3788,1.894 0.1647,0.6586 0.2526,1.001 0.2526,1.7678 0,0.6905 0.1262,1.036 0.1262,1.7678 0,0.6313 0,1.2627 0,1.894 0,0.4262 -0.1262,1.1589 -0.1262,1.7678 0,0.6313 0,1.2627 0,1.894 0,0.6313 0,1.2627 0,1.894 0,0.7229 0.1262,1.046 0.1262,1.7678 0,0.7662 0.1316,1.2521 -0.1262,1.7678 -0.3162,0.6323 -0.4899,0.9796 -0.7577,1.5152 -0.3176,0.6354 -0.5592,1.0643 -0.8838,1.389 -0.2357,0.2356 -0.6005,1.3272 -0.7577,1.6415 -0.2822,0.5644 -0.2926,0.7977 -0.7576,1.2627 -0.4206,0.4206 -1.5774,-0.7256 -1.894,-0.8839 -0.4931,-0.2466 -0.8885,-0.5098 -1.2627,-0.8839 -0.4418,-0.4418 -1.2952,-0.6476 -1.7678,-0.8839 -0.4249,-0.2125 -1.0537,-0.2634 -1.5152,-0.3788 -0.7936,-0.1984 -0.9858,0.2813 -1.1364,0.8839 -0.1662,0.6646 -0.1263,1.3302 -0.1263,2.0203 0,0.7131 0.0958,1.2672 0.2526,1.894 0.1414,0.5659 0.2614,1.1719 0.3788,1.6415 0.1539,0.6156 0.2525,0.9329 0.2525,1.6415 0,0.7389 0.094,1.26 0.2525,1.894 0.1329,0.5315 0.2613,1.1714 0.3789,1.6415 0.1685,0.6742 0.1153,1.2192 0.2525,1.7678 0.1554,0.6217 0.2525,1.2256 0.2525,1.8941 0,0.621 0.3788,1.2284 0.3788,1.894 0,0.1288 -0.1262,0.4223 -0.1262,0.6313 0,0.7554 -0.2437,1.3536 -0.3788,1.8941 -0.1386,0.5541 -0.2407,0.9864 -0.5051,1.5152 -0.2039,0.4078 -0.2713,1.2114 -0.3788,1.6415 -0.1892,0.7565 -0.539,1.4567 -0.8839,2.1466 -0.2232,0.4463 -0.3678,0.9662 -0.5051,1.5152 -0.161,0.6441 -0.6719,1.2176 -0.8839,1.6415 -0.2709,0.5419 -0.2259,1.0799 -1.0101,0.8839 -0.5142,-0.1286 -0.9342,-0.6057 -1.1364,-1.0102 -0.2148,-0.4295 -1.1755,-0.7771 -1.6415,-1.0101 -0.4792,-0.2396 -0.7663,-0.5073 -1.2627,-0.6314 -0.589,-0.1472 -1.0837,-0.1262 -1.7678,-0.1262 -0.9411,0 -0.9429,-0.0167 -1.1364,0.7576 -0.1539,0.6156 -0.1263,1.24 -0.1263,1.894 0,0.5776 0.504,1.1322 0.6314,1.6415 0.1247,0.4991 0.1262,1.219 0.1262,1.894 0,0.6314 0,1.2627 0,1.8941 0,0.5504 0.1246,1.3823 0.2526,1.894 0.1488,0.5955 0.1262,1.2352 0.1262,1.8941 0,0.5448 0.106,1.1814 0.2526,1.7677 0.1472,0.589 0.1262,1.0837 0.1262,1.7678 0,0.6032 0.0233,1.3557 0.1263,1.7678 0.1377,0.5506 0,1.3231 0,1.894 0,0.5968 0.1263,1.2342 0.1263,1.894 0,0.5022 -0.3784,1.2611 -0.5051,1.7678 -0.138,0.552 -0.4111,1.201 -0.6313,1.6415 -0.3327,0.6653 -0.5847,1.0758 -0.7577,1.7678 -0.149,0.5961 -0.5924,1.1072 -0.7576,1.7677 -0.1274,0.5096 -0.4842,0.9266 -0.6313,1.5153 -0.1931,0.7722 -0.7242,0.7028 -1.5152,0.505 -0.733,-0.1832 -1.1202,-0.4338 -1.7678,-0.7576 -0.5669,-0.2834 -1.0114,-0.5057 -1.5152,-0.7576 -0.4329,-0.2164 -1.532,-0.162 -1.8941,-0.2525 -0.7404,-0.1852 -1.2576,-0.0204 -1.3889,0.505 -0.1377,0.5507 0,1.3232 0,1.8941 0,0.7742 0.1895,1.2629 0.505,1.894 0.2587,0.5174 0.2526,1.2506 0.2526,1.7678 0,0.6685 -0.003,1.2501 0.1262,1.7677 0.1384,0.5535 0.2526,1.1594 0.2526,1.7678 0,0.4901 0.1263,1.192 0.1263,1.7678 0,0.6904 0.1262,1.036 0.1262,1.7677 0,0.3183 0.1748,0.8253 0.2526,1.1365 -0.155,0.6201 0.3601,1.9456 0.505,2.5253 0.1648,0.6591 0.3222,0.7838 0.5051,1.5153 0.1331,0.5325 -0.0415,1.4289 -0.1263,1.7677 -0.1468,0.5872 -0.2319,0.9277 -0.3788,1.5153 -0.135,0.54 -0.3981,1.2138 -0.505,1.6415 -0.1322,0.5285 -0.3389,0.9768 -0.5051,1.6415 -0.145,0.5798 -0.3717,0.8555 -0.5051,1.3889 -0.1648,0.6594 -0.3922,1.1899 -0.5051,1.6415 -0.1669,0.6676 -0.4925,0.9851 -0.7576,1.5153 -0.3296,0.6592 -0.3157,1.1365 -0.6313,1.7677 -0.3435,0.6871 -0.4575,1.0725 -0.6314,1.7678 -0.1728,0.6912 -0.3341,1.3365 -0.5051,2.0203 -0.1618,0.6473 -0.2381,1.0789 -0.3788,1.6415 -0.154,0.6163 -0.3953,1.2957 -0.6313,1.7678 -0.2658,0.5316 -0.4609,0.8332 -0.6313,1.5152 -0.1566,0.6261 -0.4822,1.3431 -0.7577,1.894 -0.2913,0.5826 -0.6359,1.1456 -0.8838,1.6415 -0.292,0.5839 -0.5886,1.2179 -0.7577,1.8941 -0.167,0.6682 -0.4724,1.1322 -0.6313,1.7677 -0.1637,0.6548 -0.2437,1.2273 -0.3788,1.7678 -0.1626,0.6502 -0.3643,1.0783 -0.5051,1.6415 -0.1527,0.6106 -0.4151,1.3352 -0.6313,1.7678 -0.2789,0.5577 -0.29,1.0849 -0.5051,1.5152 -0.1793,0.3586 -0.0868,0.5997 -0.1263,0.7576 -0.6857,1.3714 -0.6832,2.9852 -1.0101,4.2931 -0.2683,1.0731 -0.3538,2.2228 -0.7576,3.0305 -0.5688,1.1375 -0.8064,2.3703 -1.2627,3.283 -8.0803,30.45248 -22.43809,63.2517 -28.91565,92.55518 -0.5831,2.3326 -2.71481,-4.57181 -2.71481,-5.61891 9.75681,-37.58779 24.55243,-88.79902 37.73096,-135.49753 z"
           id="path19514"
           sodipodi:nodetypes="ccsssssssssssssssssssssssssssssssssssssscssssssssssssssssssssssssssssssssssssssssssssssssssssssssssssssssssssssssssssssssssscssssssssssssssssssssssscsscccc" />
        <path
           style="fill:#f2f2f2;fill-opacity:1;fill-rule:evenodd;stroke:#000000;stroke-width:1px;stroke-linecap:butt;stroke-linejoin:miter;stroke-opacity:1;filter:url(#filter19714)"
           d="m 363.40448,588.01764 c 10.40141,-46.76546 21.40602,-80.16606 35.33742,-125.89906 0,-1.2627 1.5242,-7.61762 1.5242,-8.88032 0,-1.0652 1.51521,-2.43938 1.51521,-3.78808 0,-1.2627 0,-2.5254 0,-3.7881 0,-1.2627 0,-2.5253 0,-3.788 0,-1.2627 0,-2.5254 0,-3.7881 0,-0.3367 0,-0.6734 0,-1.0102 0,-1.6114 0.2102,-3.2406 1.0102,-4.0406 0.5026,-0.5026 3.5143,0.121 4.0406,0.2526 1.2271,0.3068 2.0019,1.0055 3.0304,1.2627 0.8493,0.2123 0.5051,-3.8338 0.5051,-4.7983 0,-1.3819 0.0551,-2.8101 -0.2525,-4.0406 -0.2753,-1.1012 0,-2.6462 0,-3.7881 0,-1.5313 -0.2526,-2.7529 -0.2526,-4.2931 0,-1.6166 0.1133,-3.3348 -0.2525,-4.7982 -0.3835,-1.5342 0,-3.724 0,-5.3033 0,-1.569 -0.1404,-3.0023 0.5051,-4.2932 0.2992,-0.5985 2.8945,-0.2525 3.5355,-0.2525 1.572,0 2.4839,-0.0311 3.5355,0.7576 0.8796,0.6597 1.4319,1.221 2.5254,1.7678 1.7376,0.8688 1.9595,1.4029 1.5152,-1.2627 -0.3005,-1.8036 0,-3.9629 0,-5.8084 0,-1.2836 -0.4513,-2.3106 -0.7576,-3.5355 -0.3292,-1.3171 -0.4207,-2.693 -0.7576,-4.0406 -0.3177,-1.2709 -0.2525,-2.683 -0.2525,-4.0407 0,-1.1253 -0.2526,-3.0262 -0.2526,-4.5456 0,-1.2627 0,-2.5254 0,-3.7881 0,-1.7186 1.5342,-1.6463 3.0305,-2.0203 1.2193,-0.3048 2.0901,0.5225 3.0305,0.7576 1.0761,0.269 2.8423,1.7183 3.5355,2.2728 0.5266,0.4213 1.879,1.6265 2.0203,1.7678 1.0714,1.0714 0,-3.0304 0,-4.5457 0,-1.3668 -0.4294,-2.2228 -0.7576,-3.5355 -0.3326,-1.3304 -1.2433,-2.448 -1.5152,-3.5355 -0.3324,-1.3294 -0.5051,-2.3346 -0.5051,-3.7881 0,-1.3469 0,-2.6938 0,-4.0406 0,-1.2627 0,-2.5254 0,-3.7881 0,-1.3234 0.0122,-2.8268 0.2525,-3.7881 0.3167,-1.2665 0.3423,-2.0203 2.0203,-2.0203 1.3074,0 2.4148,-0.2525 3.7881,-0.2525 1.9572,0 1.8773,0.1095 3.0305,1.2627 0.8247,0.8247 1.0204,1.778 1.7677,2.5254 0.913,0.913 1.3161,1.3694 1.7678,2.2728 -0.2798,0.5596 0.8202,0.9465 1.2627,1.389 0.381,0.381 0.8037,0.6428 1.2627,0.7576 0.2711,0.0678 0.1262,1.5086 0.1262,1.7677 0,0.6492 -0.3984,0.933 -0.6313,1.5153 -0.0221,0.0552 -0.0842,0.0841 -0.1263,0.1262 -0.3833,0.3833 -0.7266,1.0745 -0.8839,1.389 -0.2768,0.5536 -0.6328,1.0121 -1.0101,1.5152 -0.3982,0.5309 -0.2264,1.0233 -1.2627,0.5051 -0.6472,-0.3236 -1.1236,-0.4987 -1.6415,-0.7576 -0.6785,-0.3393 -1.1513,-0.8988 -1.6415,-1.389 -0.3858,-0.3858 -0.8112,-0.4324 -1.1364,-0.7576 -0.4671,-0.4671 -0.8266,-0.7921 -1.2627,-1.0101 -0.2744,-0.1372 -0.3788,1.4136 -0.3788,1.6415 0,0.6313 0,1.2627 0,1.894 0,0.7249 0.1281,1.1437 0.2525,1.6415 0.152,0.608 0.2567,1.4057 0.3788,1.894 0.1647,0.6586 0.2526,1.001 0.2526,1.7678 0,0.6905 0.1262,1.036 0.1262,1.7678 0,0.6313 0,1.2627 0,1.894 0,0.4262 -0.1262,1.1589 -0.1262,1.7678 0,0.6313 0,1.2627 0,1.894 0,0.6313 0,1.2627 0,1.894 0,0.7229 0.1262,1.046 0.1262,1.7678 0,0.7662 0.1316,1.2521 -0.1262,1.7678 -0.3162,0.6323 -0.4899,0.9796 -0.7577,1.5152 -0.3176,0.6354 -0.5592,1.0643 -0.8838,1.389 -0.2357,0.2356 -0.6005,1.3272 -0.7577,1.6415 -0.2822,0.5644 -0.2926,0.7977 -0.7576,1.2627 -0.4206,0.4206 -1.5774,-0.7256 -1.894,-0.8839 -0.4931,-0.2466 -0.8885,-0.5098 -1.2627,-0.8839 -0.4418,-0.4418 -1.2952,-0.6476 -1.7678,-0.8839 -0.4249,-0.2125 -1.0537,-0.2634 -1.5152,-0.3788 -0.7936,-0.1984 -0.9858,0.2813 -1.1364,0.8839 -0.1662,0.6646 -0.1263,1.3302 -0.1263,2.0203 0,0.7131 0.0958,1.2672 0.2526,1.894 0.1414,0.5659 0.2614,1.1719 0.3788,1.6415 0.1539,0.6156 0.2525,0.9329 0.2525,1.6415 0,0.7389 0.094,1.26 0.2525,1.894 0.1329,0.5315 0.2613,1.1714 0.3789,1.6415 0.1685,0.6742 0.1153,1.2192 0.2525,1.7678 0.1554,0.6217 0.2525,1.2256 0.2525,1.8941 0,0.621 0.3788,1.2284 0.3788,1.894 0,0.1288 -0.1262,0.4223 -0.1262,0.6313 0,0.7554 -0.2437,1.3536 -0.3788,1.8941 -0.1386,0.5541 -0.2407,0.9864 -0.5051,1.5152 -0.2039,0.4078 -0.2713,1.2114 -0.3788,1.6415 -0.1892,0.7565 -0.539,1.4567 -0.8839,2.1466 -0.2232,0.4463 -0.3678,0.9662 -0.5051,1.5152 -0.161,0.6441 -0.6719,1.2176 -0.8839,1.6415 -0.2709,0.5419 -0.2259,1.0799 -1.0101,0.8839 -0.5142,-0.1286 -0.9342,-0.6057 -1.1364,-1.0102 -0.2148,-0.4295 -1.1755,-0.7771 -1.6415,-1.0101 -0.4792,-0.2396 -0.7663,-0.5073 -1.2627,-0.6314 -0.589,-0.1472 -1.0837,-0.1262 -1.7678,-0.1262 -0.9411,0 -0.9429,-0.0167 -1.1364,0.7576 -0.1539,0.6156 -0.1263,1.24 -0.1263,1.894 0,0.5776 0.504,1.1322 0.6314,1.6415 0.1247,0.4991 0.1262,1.219 0.1262,1.894 0,0.6314 0,1.2627 0,1.8941 0,0.5504 0.1246,1.3823 0.2526,1.894 0.1488,0.5955 0.1262,1.2352 0.1262,1.8941 0,0.5448 0.106,1.1814 0.2526,1.7677 0.1472,0.589 0.1262,1.0837 0.1262,1.7678 0,0.6032 0.0233,1.3557 0.1263,1.7678 0.1377,0.5506 0,1.3231 0,1.894 0,0.5968 0.1263,1.2342 0.1263,1.894 0,0.5022 -0.3784,1.2611 -0.5051,1.7678 -0.138,0.552 -0.4111,1.201 -0.6313,1.6415 -0.3327,0.6653 -0.5847,1.0758 -0.7577,1.7678 -0.149,0.5961 -0.5924,1.1072 -0.7576,1.7677 -0.1274,0.5096 -0.4842,0.9266 -0.6313,1.5153 -0.1931,0.7722 -0.7242,0.7028 -1.5152,0.505 -0.733,-0.1832 -1.1202,-0.4338 -1.7678,-0.7576 -0.5669,-0.2834 -1.0114,-0.5057 -1.5152,-0.7576 -0.4329,-0.2164 -1.532,-0.162 -1.8941,-0.2525 -0.7404,-0.1852 -1.2576,-0.0204 -1.3889,0.505 -0.1377,0.5507 0,1.3232 0,1.8941 0,0.7742 0.1895,1.2629 0.505,1.894 0.2587,0.5174 0.2526,1.2506 0.2526,1.7678 0,0.6685 -0.003,1.2501 0.1262,1.7677 0.1384,0.5535 0.2526,1.1594 0.2526,1.7678 0,0.4901 0.1263,1.192 0.1263,1.7678 0,0.6904 0.1262,1.036 0.1262,1.7677 0,0.3183 0.1748,0.8253 0.2526,1.1365 -0.155,0.6201 0.3601,1.9456 0.505,2.5253 0.1648,0.6591 0.3222,0.7838 0.5051,1.5153 0.1331,0.5325 -0.0415,1.4289 -0.1263,1.7677 -0.1468,0.5872 -0.2319,0.9277 -0.3788,1.5153 -0.135,0.54 -0.3981,1.2138 -0.505,1.6415 -0.1322,0.5285 -0.3389,0.9768 -0.5051,1.6415 -0.145,0.5798 -0.3717,0.8555 -0.5051,1.3889 -0.1648,0.6594 -0.3922,1.1899 -0.5051,1.6415 -0.1669,0.6676 -0.4925,0.9851 -0.7576,1.5153 -0.3296,0.6592 -0.3157,1.1365 -0.6313,1.7677 -0.3435,0.6871 -0.4575,1.0725 -0.6314,1.7678 -0.1728,0.6912 -0.3341,1.3365 -0.5051,2.0203 -0.1618,0.6473 -0.2381,1.0789 -0.3788,1.6415 -0.154,0.6163 -0.3953,1.2957 -0.6313,1.7678 -0.2658,0.5316 -0.4609,0.8332 -0.6313,1.5152 -0.1566,0.6261 -0.4822,1.3431 -0.7577,1.894 -0.2913,0.5826 -0.6359,1.1456 -0.8838,1.6415 -0.292,0.5839 -0.5886,1.2179 -0.7577,1.8941 -0.167,0.6682 -0.4724,1.1322 -0.6313,1.7677 -0.1637,0.6548 -0.2437,1.2273 -0.3788,1.7678 -0.1626,0.6502 -0.3643,1.0783 -0.5051,1.6415 -0.1527,0.6106 -0.4151,1.3352 -0.6313,1.7678 -0.2789,0.5577 -0.29,1.0849 -0.5051,1.5152 -0.1793,0.3586 -0.0868,0.5997 -0.1263,0.7576 -0.6857,1.3714 -0.6832,2.9852 -1.0101,4.2931 -0.2683,1.0731 -0.3538,2.2228 -0.7576,3.0305 -0.5688,1.1375 -0.8064,2.3703 -1.2627,3.283 -0.5772,1.1542 -0.4759,2.1558 -0.7577,3.283 -0.2743,1.0972 -0.7649,1.7824 -1.2626,2.7779 -0.6152,1.2303 -0.926,2.4413 -1.2627,3.7881 -0.3362,1.3448 -0.7294,2.4122 -1.0102,3.5355 -0.3352,1.3408 -0.7576,2.1701 -0.7576,3.5356 0,1.1214 -0.9718,2.6243 -1.2627,3.788 -0.2682,1.0731 -1.0107,2.5266 -1.5152,3.5356 -0.5503,1.1005 -0.3914,2.0454 -1.0102,3.283 -0.5062,1.0124 -0.7812,2.6197 -1.0101,3.5355 -0.3405,1.362 -0.3951,2.3377 -0.7576,3.7881 -0.3463,1.3851 -0.6502,2.3482 -1.0102,3.788 -0.2445,0.9781 -0.8185,2.3947 -1.2627,3.283 -0.5762,1.1524 -0.921,1.9164 -1.2627,3.283 -0.3615,1.4463 -0.9545,2.5554 -1.2627,3.7881 -0.3452,1.3808 -0.9342,2.7267 -1.2627,4.0406 -0.3055,1.2223 -0.2431,2.4877 -0.505,3.5355 -0.2601,1.0402 -0.5952,2.2005 -1.0102,3.0305 -0.6215,1.2431 -1.1805,2.1967 -1.5152,3.5355 -0.3801,1.5205 -0.9082,2.8751 -1.2627,4.2932 -0.36,1.4399 -0.9007,2.34 -1.2627,3.7881 -0.3263,1.3053 -1.0292,2.3491 -1.2627,3.283 -0.2472,0.9886 -0.456,2.3289 -0.7576,3.5355 -0.3669,1.4677 -0.6639,2.403 -1.0102,3.7881 -0.2753,1.1015 -0.7749,2.3422 -1.0101,3.283 -0.3281,1.3121 -1.40251,6.08797 -2.02031,7.32357 -0.44,0.88 -0.41004,-10e-4 -0.63134,0.88383 -0.5831,2.3326 0.37879,1.04716 0.37879,6e-5 0,-0.7576 -0.24357,-11.5665 -0.24357,-12.3241 z"
           id="path19516"
           sodipodi:nodetypes="ccssssssssssssssssssssssssssssssssssssssssscssssssssssssssssssssssssssssssssssssssssssssssssssssssssssssssssssssssssssssssssssscssssssssssssssssssssssscssssssssssssssssssssssssssssssc" />
        <path
           style="fill:#cccccc;fill-rule:evenodd;stroke:#000000;stroke-width:1px;stroke-linecap:butt;stroke-linejoin:miter;stroke-opacity:1;filter:url(#filter19800)"
           d="m 370.03431,432.01868 c 1.3758,-1.1055 4.8802,-3.365 7.0711,-5.5559 2.7154,-2.7154 4.0005,-4.7681 7.071,-7.071 2.4142,-1.8106 4.1388,-5.5184 6.0609,-8.0813 2.0303,-2.7069 3.0393,-4.8941 5.0508,-7.5761 2.5605,-3.4141 3.4706,-6.6477 6.0609,-10.1015 1.6009,-2.1345 3.1618,-4.5525 5.0508,-7.0711 1.7906,-2.3875 3.8593,-4.183 5.0507,-6.566 0.8703,-1.7404 2.9211,-3.4261 4.5457,-5.0508 1.6229,-1.6228 3.1369,-3.7483 4.0406,-5.5558 1.9682,-3.9363 0.5744,1.3768 0,2.5254 -1.0052,2.0104 -2.0043,3.9769 -2.5253,6.0609 -0.8844,3.5375 -1.7976,7.4725 -2.5254,11.1117 -0.7486,3.7428 -1.1226,6.5946 -2.5254,10.1015 -1.783,4.4575 -4.3714,8.8992 -5.5558,13.6371 -0.967,3.8678 -3.8693,8.7486 -5.5559,12.1218 -1.6858,3.3717 -2.6239,8.4754 -3.5355,12.1218 -0.0913,0.3653 -0.3367,0.6735 -0.5051,1.0102 -2.0008,4.0016 -2.1477,10.7384 -3.0304,15.1523 -0.6606,3.3028 -0.8676,6.3579 -1.5153,9.5964 -0.7815,3.9077 -1.5656,7.2725 -2.5254,11.1117 -1.0222,4.0891 -1.74,8.2506 -3.0304,12.1218 -1.1545,3.4633 -2.1625,7.1739 -3.5355,10.6066 -1.5835,3.9587 -2.6505,7.8263 -4.5457,11.6168 -1.3195,2.6389 -2.3292,6.7911 -3.0305,9.5964 -0.8962,3.5847 -1.6272,7.0141 -2.5254,10.6066 -1.0022,4.009 -1.7598,7.7889 -2.5254,11.6168 -0.7013,3.5068 -1.3121,6.5608 -2.0203,10.1015 -0.6158,3.079 -1.9054,6.6117 -2.5253,9.0914 -1.0217,4.0866 -0.5051,-8.4146 -0.5051,-12.6269 0,-4.0406 0,-8.0812 0,-12.1218 0,-2.8621 0,-5.7242 0,-8.5863 0,-4.1075 0.5051,-8.1546 0.5051,-12.1219 0,-4.0406 0,-8.0812 0,-12.1218 0,-4.1655 0.505,-8.0098 0.505,-12.1218 0,-3.6695 -0.3326,-7.7608 0.5051,-11.1117 0.819,-3.2761 0,-7.708 0,-11.1117 0,-5.4115 0.2445,-10.0694 1.5152,-15.1523 0.8503,-3.401 0.5051,-7.581 0.5051,-11.1117 0,-2.9184 0.5051,-6.014 0.5051,-9.0913 z"
           id="path19718" />
        <path
           style="fill:#ffffff;fill-rule:evenodd;stroke:#000000;stroke-width:1px;stroke-linecap:butt;stroke-linejoin:miter;stroke-opacity:1;filter:url(#filter20618)"
           d="m 414.22851,441.10998 c 0.1268,0.6919 -0.8012,2.6998 -1.0102,3.5356 -0.3612,1.445 -1.3899,0.9465 -2.2728,0.5051 -1.0963,-0.5482 -1.5317,-1.4493 -1.2627,-2.5254 0.3874,-1.5495 3.0627,-0.9221 4.5457,-1.5153 z"
           id="path19824" />
        <path
           style="fill:#ffffff;fill-rule:evenodd;stroke:#000000;stroke-width:1px;stroke-linecap:butt;stroke-linejoin:miter;stroke-opacity:1;filter:url(#filter20618)"
           d="m 423.87181,412.92448 c 0.1268,0.6919 -0.8012,2.6998 -1.0102,3.5356 -0.3612,1.445 -1.3899,0.9465 -2.2728,0.5051 -1.0963,-0.5482 -1.5317,-1.4493 -1.2627,-2.5254 0.3874,-1.5495 3.0627,-0.9221 4.5457,-1.5153 z"
           id="path20624" />
        <path
           style="fill:#ffffff;fill-rule:evenodd;stroke:#000000;stroke-width:1px;stroke-linecap:butt;stroke-linejoin:miter;stroke-opacity:1;filter:url(#filter20618)"
           d="m 433.33611,385.78168 c 0.1268,0.6919 -0.8012,2.6998 -1.0102,3.5356 -0.3612,1.445 -1.3899,0.9465 -2.2728,0.5051 -1.0963,-0.5482 -1.5317,-1.4493 -1.2627,-2.5254 0.3874,-1.5495 3.0627,-0.9221 4.5457,-1.5153 z"
           id="path20626" />
        <path
           style="fill:#ffffff;fill-rule:evenodd;stroke:#000000;stroke-width:1px;stroke-linecap:butt;stroke-linejoin:miter;stroke-opacity:1;filter:url(#filter20618)"
           d="m 442.26471,362.56738 c 0.1268,0.6919 -0.8012,2.6998 -1.0102,3.5356 -0.3612,1.445 -1.3899,0.9465 -2.2728,0.5051 -1.0963,-0.5482 -1.5317,-1.4493 -1.2627,-2.5254 0.3874,-1.5495 3.0627,-0.9221 4.5457,-1.5153 z"
           id="path20628" />
        <path
           sodipodi:nodetypes="cc"
           id="path16748"
           d="m 363.70271,422.30878 c 0,173.824 0.7271,175.2146 0.7271,175.2146"
           style="fill:#4d4d4d;fill-rule:evenodd;stroke:#000000;stroke-width:1.48699999;stroke-linecap:round;stroke-linejoin:miter;stroke-miterlimit:4;stroke-opacity:1;stroke-dasharray:none;filter:url(#filter17020)" />
      </g>
      <path
         style="fill:none;stroke:#000000;stroke-width:1px;stroke-linecap:butt;stroke-linejoin:miter;stroke-opacity:1"
         d="m 174.41685,537.37568 c 0,0 0,0 0,0 z"
         id="path6095" />
      <path
         sodipodi:nodetypes="csssc"
         style="fill:#ffffff;fill-rule:evenodd;stroke:none;filter:url(#filter20618)"
         d="m 471.01638,298.81345 c 0.1268,0.6919 -24.53978,53.7125 -24.74878,54.5483 -0.3612,1.445 -2.65259,7.25995 -3.53549,6.81855 -1.0963,-0.5482 -0.26901,-7.76275 -10e-6,-8.83885 0.3874,-1.5495 26.80128,-51.9348 28.28428,-52.528 z"
         id="path6285" />
      <path
         sodipodi:nodetypes="cssssssssc"
         id="path6289"
         d="m 370.27103,568.9188 c 0.37695,0.29747 -4.91968,20.8789 -4.91968,21.7971 0,0.66878 -1.50316,4.97978 -1.34826,5.59938 0.17318,0.69271 0.26147,1.62108 0.12627,2.1619 -0.21274,0.85095 0.0411,1.77265 -0.57905,2.39277 -0.57044,0.57044 0.27016,-0.46292 -0.42214,-0.98214 -0.52496,-0.39373 -0.46808,-1.62548 -0.46808,-2.25753 0,-0.67343 -1.20536,-2.37366 -1.20536,-3.04709 0,-0.65887 0.91622,-0.36637 1.06377,-0.95654 0.15884,-0.63536 7.94608,-23.74012 7.75253,-24.70785 z"
         style="fill:#ffffff;fill-rule:evenodd;stroke:none;filter:url(#filter6523)" />
    </g>
  </g>
</svg>
