<?xml version="1.0" encoding="UTF-8" standalone="no"?>
<!-- Created with Inkscape (http://www.inkscape.org/) -->

<svg
   xmlns:dc="http://purl.org/dc/elements/1.1/"
   xmlns:cc="http://creativecommons.org/ns#"
   xmlns:rdf="http://www.w3.org/1999/02/22-rdf-syntax-ns#"
   xmlns:svg="http://www.w3.org/2000/svg"
   xmlns="http://www.w3.org/2000/svg"
   xmlns:sodipodi="http://sodipodi.sourceforge.net/DTD/sodipodi-0.dtd"
   xmlns:inkscape="http://www.inkscape.org/namespaces/inkscape"
   width="210mm"
   height="297mm"
   id="svg22060"
   sodipodi:version="0.32"
   inkscape:version="0.47 r22583"
   sodipodi:docname="frontier_logo_1_2.svg"
   inkscape:output_extension="org.inkscape.output.svg.inkscape"
   version="1.1"
   inkscape:export-filename="/home/brutkasten/Dokumente/naev/logos/frontier_logo_1_1.png"
   inkscape:export-xdpi="99.499664"
   inkscape:export-ydpi="99.499664">
  <defs
     id="defs22062">
    <filter
       inkscape:collect="always"
       id="filter34008">
      <feGaussianBlur
         inkscape:collect="always"
         stdDeviation="5.8654354"
         id="feGaussianBlur34010" />
    </filter>
    <filter
       id="filter15646"
       inkscape:collect="always">
      <feGaussianBlur
         id="feGaussianBlur15648"
         stdDeviation="2.8062822"
         inkscape:collect="always" />
    </filter>
    <inkscape:perspective
       sodipodi:type="inkscape:persp3d"
       inkscape:vp_x="0 : 526.18109 : 1"
       inkscape:vp_y="0 : 1000 : 0"
       inkscape:vp_z="744.09448 : 526.18109 : 1"
       inkscape:persp3d-origin="372.04724 : 350.78739 : 1"
       id="perspective22068" />
    <inkscape:perspective
       sodipodi:type="inkscape:persp3d"
       inkscape:vp_x="0 : 21 : 1"
       inkscape:vp_y="0 : 1000 : 0"
       inkscape:vp_z="120 : 21 : 1"
       inkscape:persp3d-origin="60 : 14 : 1"
       id="perspective38983" />
    <inkscape:perspective
       id="perspective2531"
       inkscape:persp3d-origin="372.04724 : 350.78739 : 1"
       inkscape:vp_z="744.09448 : 526.18109 : 1"
       inkscape:vp_y="0 : 1000 : 0"
       inkscape:vp_x="0 : 526.18109 : 1"
       sodipodi:type="inkscape:persp3d" />
    <inkscape:perspective
       id="perspective8936"
       inkscape:persp3d-origin="0.5 : 0.33333333 : 1"
       inkscape:vp_z="1 : 0.5 : 1"
       inkscape:vp_y="0 : 1000 : 0"
       inkscape:vp_x="0 : 0.5 : 1"
       sodipodi:type="inkscape:persp3d" />
    <inkscape:perspective
       id="perspective2924"
       inkscape:persp3d-origin="0.5 : 0.33333333 : 1"
       inkscape:vp_z="1 : 0.5 : 1"
       inkscape:vp_y="0 : 1000 : 0"
       inkscape:vp_x="0 : 0.5 : 1"
       sodipodi:type="inkscape:persp3d" />
  </defs>
  <sodipodi:namedview
     id="base"
     pagecolor="#ffffff"
     bordercolor="#666666"
     borderopacity="1.0"
     inkscape:pageopacity="0.0"
     inkscape:pageshadow="2"
     inkscape:zoom="1.979899"
     inkscape:cx="391.74412"
     inkscape:cy="506.45746"
     inkscape:document-units="px"
     inkscape:current-layer="layer1"
     showgrid="true"
     inkscape:window-width="1920"
     inkscape:window-height="1003"
     inkscape:window-x="0"
     inkscape:window-y="25"
     inkscape:window-maximized="1"
     inkscape:snap-global="false">
    <inkscape:grid
       type="xygrid"
       id="grid2873" />
  </sodipodi:namedview>
  <metadata
     id="metadata22065">
    <rdf:RDF>
      <cc:Work
         rdf:about="">
        <dc:format>image/svg+xml</dc:format>
        <dc:type
           rdf:resource="http://purl.org/dc/dcmitype/StillImage" />
        <dc:title />
      </cc:Work>
    </rdf:RDF>
  </metadata>
  <g
     inkscape:label="Ebene 1"
     inkscape:groupmode="layer"
     id="layer1">
    <rect
       style="fill:#b3b3b3;fill-opacity:1;stroke:#999999;stroke-width:1.40127528;stroke-linecap:round;stroke-miterlimit:4;stroke-opacity:1;stroke-dasharray:none"
       id="rect2795"
       width="450.86157"
       height="425.42642"
       x="152.36626"
       y="330.53207"
       rx="26.711603"
       ry="4.5351133" />
    <g
       id="g4818"
       inkscape:export-xdpi="19"
       inkscape:export-ydpi="19"
       transform="matrix(1.094659,0,0,1.094659,-40.676833,4.866533)">
      <path
         sodipodi:nodetypes="cccc"
         id="path33904"
         d="m 374.24693,399.36307 c -3.40326,3.60773 -98.50822,123.18635 -99.77959,124.50751 3.30714,-0.005 142.11744,0.64408 194.83562,0.30791 -1.89962,-1.86805 -64.61714,-83.44367 -95.05603,-124.81542 z"
         style="fill:#c8ab37;fill-rule:evenodd;stroke:none" />
      <path
         transform="matrix(-1.3686334,0,0,-1.3686334,1601.7741,2487.2951)"
         sodipodi:nodetypes="cccc"
         id="path33906"
         d="m 833.63839,1437.1518 c 2.19808,2.6364 4.2483,5.3924 6.37476,8.0864 6.06115,7.8455 12.08498,15.72 18.12794,23.5795 9.73622,12.7676 19.43186,25.5661 29.0725,38.406 3.04381,4.0573 6.06822,8.129 9.08105,12.2094 3.95291,-4.7665 7.80267,-9.6175 11.6958,-14.4327 16.20287,-20.25 32.38021,-40.5205 48.5668,-60.7835 1.83234,-2.2983 3.67374,-4.5894 5.51865,-6.8776 -19.28325,-0.071 -38.56649,-0.1536 -57.84982,-0.1962 -19.55156,-0.02 -39.10319,-0.085 -58.65473,-0.04 -3.97765,0.016 -7.9553,0.032 -11.93295,0.048 z"
         style="opacity:0.88323352;fill:#f7cf43;fill-opacity:1;fill-rule:evenodd;stroke:none;filter:url(#filter15646)" />
      <path
         transform="matrix(0.5886226,0,0,0.5886226,-64.829833,-1301.7646)"
         id="path33990"
         d="m 742.46212,2904.2749 c 2.99287,1.3605 6.78224,7.4893 9.8995,10.6066 0.7071,0.7071 1.41421,1.4142 2.12132,2.1213 2.13449,2.1345 4.34019,7.4613 4.94974,9.8995 0.87074,3.4829 3.18279,7.5435 4.94975,9.8995 2.62612,3.5015 3.45127,7.6939 6.36396,10.6066 3.5025,3.5025 5.21125,6.3284 7.77818,10.6066 2.36704,3.945 4.45037,6.7794 6.36396,10.6066 1.59894,3.1979 5.98373,5.2766 8.48528,7.7781 2.11137,2.1114 4.20724,4.1719 5.65685,7.0711 1.35827,2.7165 3.94195,5.0555 5.65686,8.4853 1.79359,3.5872 5.30053,6.3584 7.07107,9.8995 1.32018,2.6404 4.87855,5.5145 6.36396,8.4853 1.71513,3.4302 4.93974,7.051 6.36396,9.8995 2.46735,4.9347 5.78958,8.2351 8.48528,12.7279 2.044,3.4067 5.25258,6.532 7.77817,9.8995 2.5348,3.3797 4.9888,5.7349 7.07107,9.8995 1.8975,3.795 5.56867,6.9535 7.77818,9.8995 3.00959,4.0128 6.43351,6.4335 9.89949,9.8995 2.4248,2.4248 5.07811,6.4923 7.07107,8.4852 3.18373,3.1838 4.62634,6.6399 7.07107,9.8995 2.51375,3.3517 5.68198,6.3891 8.48528,9.1924 3.71606,-3.1696 5.79344,-1.2856 9.19239,-2.8284 -2.68031,-2.0102 -6.04836,-5.0116 -7.65686,-7.6924 -1.868,-3.1133 -3.65227,-7.3045 -4.94975,-9.8995 -1.89894,-3.7979 -3.68935,-8.6035 -7.19238,-12.1066 -4.00207,-4.002 -7.82247,-8.5295 -12.02082,-12.7279 -3.42668,-3.4267 -6.03841,-8.7583 -8.48528,-12.0208 -3.09055,-4.1208 -5.03554,-8.5711 -8.48528,-12.0208 -2.95374,-2.9538 -4.41091,-7.2394 -7.07107,-9.8995 -2.26488,-2.2649 -3.9804,-5.1324 -5.65685,-8.4853 -1.69145,-3.3829 -4.32887,-6.5364 -5.65686,-9.1924 -1.49756,-2.9951 -4.63898,-6.0532 -7.07107,-8.4853 -3.25888,-3.2589 -5.27024,-7.2627 -7.77817,-10.6066 -2.52419,-3.3656 -5.70132,-7.1155 -7.77818,-9.1924 -2.38142,-2.3814 -4.48458,-4.4241 -7.07106,-6.3639 -2.43633,-1.8273 -4.34545,-4.4483 -5.65686,-7.0711 -1.0915,-2.183 -4.36899,-5.7832 -6.36396,-7.7782 -2.73662,-2.7366 -4.24004,-6.3587 -5.65685,-9.1924 -1.40942,-2.8188 -3.46069,-5.582 -5.65686,-7.7781 -2.56172,-2.5618 -5.25487,-8.2868 -7.07106,-11.3137 -1.91163,-3.1861 -4.2124,-4.9195 -6.36397,-7.0711 -2.16659,-2.1666 -4.90446,-3.4903 -7.07106,-5.6569 -1.98233,-1.9823 -4.10804,-4.2988 -5.65686,-6.3639 -2.51257,-3.3501 -4.85655,-4.8566 -6.36396,-6.364 -1.11803,-1.118 -1.5341,2.7746 -2.12132,4.2427 z"
         style="fill:#ffe680;fill-rule:evenodd;stroke:none;filter:url(#filter34008)"
         sodipodi:nodetypes="cssssssssssssssssssssccssssssssssssssssssssssc" />
      <path
         sodipodi:nodetypes="ccccc"
         style="fill:#ffec96;fill-opacity:1;fill-rule:evenodd;stroke:none"
         d="m 467.60884,523.61883 c -33.14925,-36.45087 -63.25727,-87.81339 -93.20987,-126.47551 0.0611,0.34324 -0.75269,34.56344 -0.33331,35.15541 -0.45589,-1.02273 69.18318,90.54006 68.71442,90.46703 -0.16875,0.61591 19.55307,3.53968 24.82876,0.85307 z"
         id="path34040" />
      <path
         style="fill:#f2ca41;fill-opacity:1;fill-rule:evenodd;stroke:none"
         d="m 290.94649,524.6058 c -2.79258,-0.73447 -10.34571,0.053 -12.49598,-1.5348 -1.06256,-1.84313 3.14751,-7.75948 7.45883,-10.4768 2.07778,0.68742 137.07975,-11.39772 140.72084,-10.77217 3.38117,0.88925 22.87742,23.76263 22.89032,23.87996 -5.33271,-0.66276 -99.28232,0.0203 -158.57401,-1.09619 z"
         id="path3967"
         sodipodi:nodetypes="cccccc" />
      <path
         sodipodi:nodetypes="ccccc"
         id="path4527"
         d="m 415.4541,487.08398 c 2.4161,-1.72576 26.23366,13.46713 30.74267,11.84032 2.20741,1.3943 19.1555,23.25038 20.79591,24.60654 -8.67269,-0.12142 -14.47825,0.0857 -23.16434,0.37604 -0.91277,-1.11532 -27.63081,-35.61057 -28.37424,-36.8229 z"
         style="fill:#ffec96;fill-opacity:1;fill-rule:evenodd;stroke:none" />
      <path
         sodipodi:nodetypes="ccc"
         id="path4533"
         d="m 385.62573,512.43565 48.73986,0 -19.79362,-25.11743"
         style="fill:#803300;fill-rule:evenodd;stroke:none" />
      <path
         sodipodi:nodetypes="ccccccc"
         id="path4601"
         d="m 434.46429,512.36218 c 6.36716,-0.97494 15.12736,-2.84444 21.09723,-5.57153 -1.19062,-2.94098 -7.75054,-10.66893 -10.96507,-13.17653 -2.79101,-1.49024 -3.32576,0.26402 -6.07567,0.76344 -4.58771,1.40002 -8.77865,3.84 -13.00895,6.05269 -1.56149,0.666 -4.80799,3.49147 -1.08343,2.79236 1.2008,-0.36487 9.41127,9.12448 10.03589,9.13957 z"
         style="fill:#803300;fill-opacity:1;fill-rule:evenodd;stroke:none" />
      <path
         sodipodi:nodetypes="cccccc"
         id="path4607"
         d="m 431.58768,498.04099 c 15.06442,-2.77582 28.68643,6.78439 23.34322,8.47672 -16.2374,14.82711 -179.81881,22.33351 -178.72783,16.57376 13.80683,-18.74473 31.3094,-11.2289 41.60494,-13.16773 22.04427,-2.1944 44.05749,-7.52072 66.31926,-4.73788 14.42475,0.14765 33.42125,-4.94727 47.46041,-7.14487 z"
         style="fill:#ff9b56;fill-opacity:1;fill-rule:evenodd;stroke:none" />
      <path
         sodipodi:nodetypes="cccc"
         id="path33912"
         d="m 374.63478,399.79153 c -3.40327,3.60779 -98.50823,123.18629 -99.7796,124.50745 3.30704,-0.005 142.11733,0.64413 194.83552,0.30791 -1.89952,-1.86799 -64.61703,-83.44373 -95.05592,-124.81536 z"
         style="fill:none;stroke:#000000;stroke-width:6;stroke-linecap:butt;stroke-linejoin:miter;stroke-miterlimit:4;stroke-opacity:1;stroke-dasharray:none" />
      <path
         style="fill:#000000;fill-rule:evenodd;stroke:#000000;stroke-width:0.25624999px;stroke-linecap:butt;stroke-linejoin:miter;stroke-opacity:1"
         d="m 315.16343,466.59248 c -10.42623,1.86305 -97.19493,32.05963 -73.23786,39.23535 203.38895,50.42906 434.41975,-98.09931 166.07474,-70.60864 1.52533,2.82792 7.82905,10.97217 11.30273,9.78703 179.50391,28.0796 -221.82621,84.9396 -113.01914,32.9312"
         id="path29925"
         sodipodi:nodetypes="ccccc" />
      <path
         sodipodi:nodetypes="ccc"
         id="path34042"
         d="m 437.27314,439.74688 c 60.93736,5.64954 74.50908,19.26679 5.05404,51.67724 92.36499,-19.16261 106.55186,-61.1892 -5.05404,-51.67724 z"
         style="fill:#333333;fill-opacity:1;fill-rule:evenodd;stroke:#000000;stroke-width:0.58862263px;stroke-linecap:butt;stroke-linejoin:miter;stroke-opacity:1" />
      <path
         sodipodi:nodetypes="ccc"
         id="path34724"
         d="m 307.6862,473.51987 c -80.36151,31.57548 -2.3912,33.29749 4.21013,35.68024 -100.22636,-1.88465 -68.85535,-13.91657 -4.21013,-35.68024 z"
         style="fill:#333333;fill-opacity:1;fill-rule:evenodd;stroke:#000000;stroke-width:0.58862263px;stroke-linecap:butt;stroke-linejoin:miter;stroke-opacity:1" />
    </g>
    <g
       id="g2534"
       inkscape:label="Ebene 1"
       transform="translate(32.792176,20.358287)">
      <flowRoot
         transform="matrix(0.3357359,0,0,0.3357359,341.56403,429.79393)"
         style="font-size:40px;font-style:normal;font-weight:normal;fill:#000000;fill-opacity:1;stroke:none;stroke-width:1px;stroke-linecap:butt;stroke-linejoin:miter;stroke-opacity:1;font-family:Bitstream Vera Sans"
         id="flowRoot2536"
         xml:space="preserve"><flowRegion
           id="flowRegion2538"><rect
             y="689.50507"
             x="338.57144"
             height="91.428574"
             width="290"
             id="rect2540" /></flowRegion><flowPara
           id="flowPara2542">by enigmatic</flowPara></flowRoot>      <flowRoot
         transform="matrix(0.3357359,0,0,0.3357359,341.03393,447.30925)"
         style="font-size:23.82825279px;font-style:normal;font-weight:normal;fill:#000000;fill-opacity:1;stroke:none;stroke-width:1px;stroke-linecap:butt;stroke-linejoin:miter;stroke-opacity:1;font-family:Bitstream Vera Sans"
         id="flowRoot2544"
         xml:space="preserve"><flowRegion
           id="flowRegion2546"><rect
             style="font-size:23.82825279px"
             y="689.50507"
             x="338.57144"
             height="193.72675"
             width="742.82013"
             id="rect2548" /></flowRegion><flowPara
           id="flowPara38883">released under</flowPara><flowPara
           id="flowPara2451">creative commons</flowPara><flowPara
           id="flowPara2552">cc by v3.0</flowPara></flowRoot>      <g
         transform="matrix(0.6885364,0,0,0.6885364,455.68287,628.81639)"
         inkscape:label="Layer 1"
         id="g38986">
        <g
           transform="matrix(0.9937728,0,0,0.9936696,-177.69267,6.25128e-7)"
           id="g260"
           inkscape:export-filename="/mnt/hgfs/Bov/Documents/Work/2007/cc/identity/srr buttons/big/by.png"
           inkscape:export-xdpi="300.23013"
           inkscape:export-ydpi="300.23013">
          <path
             id="path3817_1_"
             nodetypes="ccccccc"
             d="M 181.96579,0.51074 L 296.02975,0.71338 C 297.6235,0.71338 299.04733,0.47705 299.04733,3.89404 L 298.90768,41.46093 L 179.08737,41.46093 L 179.08737,3.75439 C 179.08737,2.06934 179.25046,0.51074 181.96579,0.51074 z"
             style="fill:#aab2ab" />
          <path
             d="M 297.29636,0 L 181.06736,0 C 179.82078,0 178.80613,1.01416 178.80613,2.26074 L 178.80613,41.75732 C 178.80613,42.03906 179.03513,42.26757 179.31687,42.26757 L 299.04734,42.26757 C 299.32908,42.26757 299.55808,42.03905 299.55808,41.75732 L 299.55808,2.26074 C 299.55807,1.01416 298.54343,0 297.29636,0 z M 181.06735,1.02148 L 297.29635,1.02148 C 297.98043,1.02148 298.53658,1.57714 298.53658,2.26074 C 298.53658,2.26074 298.53658,18.20898 298.53658,29.71045 L 215.19234,29.71045 C 212.14742,35.21631 206.28121,38.95459 199.54879,38.95459 C 192.81344,38.95459 186.94869,35.21973 183.90524,29.71045 L 179.8276,29.71045 C 179.8276,18.20899 179.8276,2.26074 179.8276,2.26074 C 179.82761,1.57715 180.38376,1.02148 181.06735,1.02148 z"
             id="path263" />
          <g
             enable-background="new    "
             id="g265">
            <path
               d="M 253.07761,32.95605 C 253.39499,32.95605 253.68503,32.98437 253.94773,33.04003 C 254.20945,33.09569 254.43308,33.18749 254.62058,33.31542 C 254.8071,33.44237 254.95261,33.6123 255.05515,33.82323 C 255.15769,34.03514 255.20945,34.29589 255.20945,34.60741 C 255.20945,34.94335 255.13328,35.22264 254.97996,35.44628 C 254.82762,35.67089 254.60105,35.85351 254.30223,35.99706 C 254.71434,36.11522 255.02196,36.32226 255.22508,36.61815 C 255.4282,36.91404 255.52977,37.27049 255.52977,37.68749 C 255.52977,38.02343 255.46434,38.31444 255.33348,38.56054 C 255.20262,38.80566 255.02586,39.00683 254.80516,39.1621 C 254.58348,39.31835 254.33055,39.43358 254.04735,39.5078 C 253.76317,39.583 253.47215,39.6201 253.17235,39.6201 L 249.936,39.6201 L 249.936,32.95604 L 253.07761,32.95604 L 253.07761,32.95605 z M 252.89011,35.65137 C 253.15183,35.65137 253.36667,35.58887 253.53562,35.46485 C 253.70359,35.34083 253.78757,35.13965 253.78757,34.86036 C 253.78757,34.70509 253.75925,34.57716 253.70359,34.47852 C 253.64695,34.37891 253.57273,34.30176 253.47898,34.24512 C 253.38523,34.18946 253.27781,34.15039 253.15671,34.12891 C 253.03561,34.10743 252.90866,34.09668 252.77878,34.09668 L 251.40476,34.09668 L 251.40476,35.65137 L 252.89011,35.65137 z M 252.97604,38.47949 C 253.11959,38.47949 253.25631,38.46582 253.38717,38.4375 C 253.51803,38.40918 253.63326,38.3623 253.73385,38.29785 C 253.83346,38.23242 253.91256,38.14355 253.97213,38.03125 C 254.0317,37.91992 254.061,37.77637 254.061,37.60254 C 254.061,37.26074 253.96432,37.0166 253.77096,36.87012 C 253.5776,36.72461 253.32174,36.65137 253.00436,36.65137 L 251.40475,36.65137 L 251.40475,38.47949 L 252.97604,38.47949 z"
               id="path267"
               style="fill:#ffffff" />
            <path
               d="M 255.78854,32.95605 L 257.43209,32.95605 L 258.99264,35.58789 L 260.54342,32.95605 L 262.17721,32.95605 L 259.70358,37.0625 L 259.70358,39.62012 L 258.23483,39.62012 L 258.23483,37.02539 L 255.78854,32.95605 z"
               id="path269"
               style="fill:#ffffff" />
          </g>
          <g
             id="g5908_1_"
             transform="matrix(0.872921,0,0,0.872921,50.12536,143.2144)">
            <path
               id="path5906_1_"
               cx="296.35416"
               ry="22.939548"
               cy="264.3577"
               type="arc"
               rx="22.939548"
               d="M 186.90065,-141.46002 C 186.90623,-132.77923 179.87279,-125.73852 171.19257,-125.73291 C 162.51235,-125.72736 155.47051,-132.76025 155.46547,-141.44098 C 155.46547,-141.44714 155.46547,-141.45331 155.46547,-141.46002 C 155.46043,-150.14081 162.49333,-157.18152 171.17355,-157.18658 C 179.8549,-157.19213 186.89561,-150.15924 186.90065,-141.47845 C 186.90065,-141.4729 186.90065,-141.46619 186.90065,-141.46002 z"
               style="fill:#ffffff" />
            <g
               id="g5706_1_"
               transform="translate(-289.6157,99.0653)">
              <path
                 id="path5708_1_"
                 d="M 473.57574,-253.32751 C 477.06115,-249.8421 478.80413,-245.5736 478.80413,-240.52532 C 478.80413,-235.47594 477.09136,-231.25329 473.66582,-227.85741 C 470.03051,-224.28081 465.734,-222.49309 460.77635,-222.49309 C 455.87858,-222.49309 451.65648,-224.26628 448.11122,-227.81261 C 444.56541,-231.35845 442.79277,-235.59563 442.79277,-240.52532 C 442.79277,-245.45391 444.56541,-249.7213 448.11122,-253.32751 C 451.56642,-256.81402 455.7885,-258.557 460.77635,-258.557 C 465.82465,-258.55701 470.09039,-256.81403 473.57574,-253.32751 z M 450.45776,-250.98267 C 447.51104,-248.00629 446.03823,-244.51978 446.03823,-240.52033 C 446.03823,-236.52198 447.49651,-233.06507 450.41247,-230.14966 C 453.32897,-227.23316 456.80096,-225.77545 460.82952,-225.77545 C 464.85808,-225.77545 468.35967,-227.24768 471.33605,-230.19385 C 474.16198,-232.9303 475.57549,-236.37091 475.57549,-240.52033 C 475.57549,-244.63837 474.13903,-248.13379 471.26781,-251.00501 C 468.39714,-253.87568 464.9179,-255.31159 460.82952,-255.31159 C 456.74112,-255.31158 453.28314,-253.86841 450.45776,-250.98267 z M 458.21225,-242.27948 C 457.76196,-243.26117 457.08795,-243.75232 456.18903,-243.75232 C 454.59986,-243.75232 453.80558,-242.68225 453.80558,-240.54321 C 453.80558,-238.40368 454.59986,-237.33471 456.18903,-237.33471 C 457.23841,-237.33471 457.98795,-237.85546 458.43769,-238.89922 L 460.64045,-237.72625 C 459.59052,-235.86077 458.01536,-234.92779 455.91496,-234.92779 C 454.29506,-234.92779 452.99733,-235.42449 452.0229,-236.4168 C 451.0468,-237.41021 450.56016,-238.77953 450.56016,-240.52532 C 450.56016,-242.24035 451.06245,-243.60186 452.06764,-244.61034 C 453.07283,-245.61888 454.32466,-246.12291 455.82545,-246.12291 C 458.04557,-246.12291 459.63526,-245.24803 460.59626,-243.50005 L 458.21225,-242.27948 z M 468.57562,-242.27948 C 468.12475,-243.26117 467.46417,-243.75232 466.5932,-243.75232 C 464.97217,-243.75232 464.16107,-242.68225 464.16107,-240.54321 C 464.16107,-238.40368 464.97217,-237.33471 466.5932,-237.33471 C 467.64429,-237.33471 468.38037,-237.85546 468.80048,-238.89922 L 471.05249,-237.72625 C 470.00421,-235.86077 468.43127,-234.92779 466.33478,-234.92779 C 464.7171,-234.92779 463.42218,-235.42449 462.44831,-236.4168 C 461.47614,-237.41021 460.98896,-238.77953 460.98896,-240.52532 C 460.98896,-242.24035 461.48341,-243.60186 462.47181,-244.61034 C 463.45966,-245.61888 464.71711,-246.12291 466.24531,-246.12291 C 468.4615,-246.12291 470.04896,-245.24803 471.0066,-243.50005 L 468.57562,-242.27948 z" />
            </g>
          </g>
          <g
             id="g275">
            <circle
               cx="255.55124"
               cy="15.31348"
               r="10.80664"
               id="circle277"
               sodipodi:cx="255.55124"
               sodipodi:cy="15.31348"
               sodipodi:rx="10.80664"
               sodipodi:ry="10.80664"
               style="fill:#ffffff"
               d="m 266.35788,15.31348 c 0,5.968343 -4.8383,10.80664 -10.80664,10.80664 -5.96834,0 -10.80664,-4.838297 -10.80664,-10.80664 0,-5.9683419 4.8383,-10.8066393 10.80664,-10.8066393 5.96834,0 10.80664,4.8382974 10.80664,10.8066393 z" />
            <g
               id="g279">
              <path
                 d="M 258.67819,12.18701 C 258.67819,11.77051 258.3403,11.4331 257.92526,11.4331 L 253.15182,11.4331 C 252.73678,11.4331 252.39889,11.7705 252.39889,12.18701 L 252.39889,16.95996 L 253.72994,16.95996 L 253.72994,22.61182 L 257.34713,22.61182 L 257.34713,16.95996 L 258.67818,16.95996 L 258.67818,12.18701 L 258.67819,12.18701 z"
                 id="path281" />
              <circle
                 cx="255.53854"
                 cy="9.1723604"
                 r="1.63281"
                 id="circle283"
                 sodipodi:cx="255.53854"
                 sodipodi:cy="9.1723604"
                 sodipodi:rx="1.63281"
                 sodipodi:ry="1.63281"
                 d="m 257.17135,9.1723604 c 0,0.9017756 -0.73103,1.6328096 -1.63281,1.6328096 -0.90177,0 -1.63281,-0.731034 -1.63281,-1.6328096 0,-0.901776 0.73104,-1.63281 1.63281,-1.63281 0.90178,0 1.63281,0.731034 1.63281,1.63281 z" />
            </g>
            <path
               clip-rule="evenodd"
               d="M 255.5239,3.40723 C 252.29148,3.40723 249.55515,4.53516 247.31589,6.79102 C 245.01804,9.12452 243.8696,11.88672 243.8696,15.07569 C 243.8696,18.26466 245.01804,21.00733 247.31589,23.30225 C 249.61374,25.59668 252.35007,26.74414 255.5239,26.74414 C 258.73679,26.74414 261.52195,25.58789 263.87742,23.27295 C 266.09715,21.07568 267.2075,18.34326 267.2075,15.07568 C 267.2075,11.8081 266.07762,9.04687 263.8198,6.79101 C 261.56003,4.53516 258.79538,3.40723 255.5239,3.40723 z M 255.55319,5.50684 C 258.20163,5.50684 260.45065,6.44092 262.30026,8.30811 C 264.1694,10.15528 265.10397,12.41114 265.10397,15.07569 C 265.10397,17.75928 264.18893,19.98633 262.35885,21.75587 C 260.43014,23.66212 258.16256,24.61476 255.55319,24.61476 C 252.94284,24.61476 250.69381,23.67189 248.80612,21.78517 C 246.91647,19.89845 245.97311,17.66212 245.97311,15.0757 C 245.97311,12.48879 246.92721,10.23341 248.83541,8.30812 C 250.6655,6.44092 252.90475,5.50684 255.55319,5.50684 z"
               id="path285"
               style="fill-rule:evenodd" />
          </g>
        </g>
      </g>
    </g>
  </g>
</svg>
