<?xml version="1.0" encoding="UTF-8" standalone="no"?>
<!-- Created with Inkscape (http://www.inkscape.org/) -->
<svg
   xmlns:dc="http://purl.org/dc/elements/1.1/"
   xmlns:cc="http://creativecommons.org/ns#"
   xmlns:rdf="http://www.w3.org/1999/02/22-rdf-syntax-ns#"
   xmlns:svg="http://www.w3.org/2000/svg"
   xmlns="http://www.w3.org/2000/svg"
   xmlns:sodipodi="http://sodipodi.sourceforge.net/DTD/sodipodi-0.dtd"
   xmlns:inkscape="http://www.inkscape.org/namespaces/inkscape"
   width="210mm"
   height="297mm"
   id="svg22060"
   sodipodi:version="0.32"
   inkscape:version="0.46"
   sodipodi:docname="frontier_logo.svg"
   inkscape:output_extension="org.inkscape.output.svg.inkscape">
  <defs
     id="defs22062">
    <filter
       inkscape:collect="always"
       id="filter34720">
      <feGaussianBlur
         inkscape:collect="always"
         stdDeviation="3.8786055"
         id="feGaussianBlur34722" />
    </filter>
    <filter
       inkscape:collect="always"
       id="filter34008">
      <feGaussianBlur
         inkscape:collect="always"
         stdDeviation="5.8654354"
         id="feGaussianBlur34010" />
    </filter>
    <filter
       height="1.5392518"
       y="-0.26962588"
       width="1.3821931"
       x="-0.19109657"
       id="filter15894"
       inkscape:collect="always">
      <feGaussianBlur
         id="feGaussianBlur15896"
         stdDeviation="3.6839064"
         inkscape:collect="always" />
    </filter>
    <filter
       id="filter15646"
       inkscape:collect="always">
      <feGaussianBlur
         id="feGaussianBlur15648"
         stdDeviation="2.8062822"
         inkscape:collect="always" />
    </filter>
    <inkscape:perspective
       sodipodi:type="inkscape:persp3d"
       inkscape:vp_x="0 : 526.18109 : 1"
       inkscape:vp_y="0 : 1000 : 0"
       inkscape:vp_z="744.09448 : 526.18109 : 1"
       inkscape:persp3d-origin="372.04724 : 350.78739 : 1"
       id="perspective22068" />
    <inkscape:perspective
       sodipodi:type="inkscape:persp3d"
       inkscape:vp_x="0 : 21 : 1"
       inkscape:vp_y="0 : 1000 : 0"
       inkscape:vp_z="120 : 21 : 1"
       inkscape:persp3d-origin="60 : 14 : 1"
       id="perspective38983" />
    <inkscape:perspective
       id="perspective2531"
       inkscape:persp3d-origin="372.04724 : 350.78739 : 1"
       inkscape:vp_z="744.09448 : 526.18109 : 1"
       inkscape:vp_y="0 : 1000 : 0"
       inkscape:vp_x="0 : 526.18109 : 1"
       sodipodi:type="inkscape:persp3d" />
  </defs>
  <sodipodi:namedview
     id="base"
     pagecolor="#ffffff"
     bordercolor="#666666"
     borderopacity="1.0"
     inkscape:pageopacity="0.0"
     inkscape:pageshadow="2"
     inkscape:zoom="0.7"
     inkscape:cx="243.84409"
     inkscape:cy="397.41588"
     inkscape:document-units="px"
     inkscape:current-layer="layer1"
     showgrid="false"
     inkscape:window-width="1920"
     inkscape:window-height="1003"
     inkscape:window-x="0"
     inkscape:window-y="25" />
  <metadata
     id="metadata22065">
    <rdf:RDF>
      <cc:Work
         rdf:about="">
        <dc:format>image/svg+xml</dc:format>
        <dc:type
           rdf:resource="http://purl.org/dc/dcmitype/StillImage" />
      </cc:Work>
    </rdf:RDF>
  </metadata>
  <g
     inkscape:label="Ebene 1"
     inkscape:groupmode="layer"
     id="layer1">
    <g
       id="g35013"
       transform="matrix(0.5886226,0,0,0.5886226,-64.829833,-1301.7646)"
       inkscape:export-filename="/home/brutkasten/Dokumente/naev/frontier_logo.png"
       inkscape:export-xdpi="90"
       inkscape:export-ydpi="90">
      <path
         sodipodi:nodetypes="cccc"
         id="path33904"
         d="M 745.93936,2890.0142 C 740.15762,2896.1433 578.58557,3099.2932 576.42566,3101.5377 C 582.0441,3101.5287 817.86634,3102.6319 907.42828,3102.0608 C 904.20105,3098.8872 797.65142,2960.2999 745.93936,2890.0142 z"
         style="fill:#c8ab37;fill-rule:evenodd;stroke:none;stroke-width:2.5999999;stroke-linecap:butt;stroke-linejoin:miter;stroke-miterlimit:4;stroke-dasharray:none;stroke-opacity:1" />
      <path
         transform="matrix(-2.3251458,0,0,-2.3251458,2831.3625,6437.1631)"
         sodipodi:nodetypes="cccc"
         id="path33906"
         d="M 833.63839,1437.1518 C 835.83647,1439.7882 837.88669,1442.5442 840.01315,1445.2382 C 846.0743,1453.0837 852.09813,1460.9582 858.14109,1468.8177 C 867.87731,1481.5853 877.57295,1494.3838 887.21359,1507.2237 C 890.2574,1511.281 893.28181,1515.3527 896.29464,1519.4331 C 900.24755,1514.6666 904.09731,1509.8156 907.99044,1505.0004 C 924.19331,1484.7504 940.37065,1464.4799 956.55724,1444.2169 C 958.38958,1441.9186 960.23098,1439.6275 962.07589,1437.3393 C 942.79264,1437.2683 923.5094,1437.1857 904.22607,1437.1431 C 884.67451,1437.1227 865.12288,1437.0581 845.57134,1437.1034 C 841.59369,1437.1195 837.61604,1437.1357 833.63839,1437.1518 z"
         style="opacity:0.88323352;fill:#f2bf0b;fill-opacity:1;fill-rule:evenodd;stroke:none;stroke-width:1px;stroke-linecap:butt;stroke-linejoin:miter;stroke-opacity:1;filter:url(#filter15646)" />
      <path
         id="path33990"
         d="M 742.46212,2904.2749 C 745.45499,2905.6354 749.24436,2911.7642 752.36162,2914.8815 C 753.06872,2915.5886 753.77583,2916.2957 754.48294,2917.0028 C 756.61743,2919.1373 758.82313,2924.4641 759.43268,2926.9023 C 760.30342,2930.3852 762.61547,2934.4458 764.38243,2936.8018 C 767.00855,2940.3033 767.8337,2944.4957 770.74639,2947.4084 C 774.24889,2950.9109 775.95764,2953.7368 778.52457,2958.015 C 780.89161,2961.96 782.97494,2964.7944 784.88853,2968.6216 C 786.48747,2971.8195 790.87226,2973.8982 793.37381,2976.3997 C 795.48518,2978.5111 797.58105,2980.5716 799.03066,2983.4708 C 800.38893,2986.1873 802.97261,2988.5263 804.68752,2991.9561 C 806.48111,2995.5433 809.98805,2998.3145 811.75859,3001.8556 C 813.07877,3004.496 816.63714,3007.3701 818.12255,3010.3409 C 819.83768,3013.7711 823.06229,3017.3919 824.48651,3020.2404 C 826.95386,3025.1751 830.27609,3028.4755 832.97179,3032.9683 C 835.01579,3036.375 838.22437,3039.5003 840.74996,3042.8678 C 843.28476,3046.2475 845.73876,3048.6027 847.82103,3052.7673 C 849.71853,3056.5623 853.3897,3059.7208 855.59921,3062.6668 C 858.6088,3066.6796 862.03272,3069.1003 865.4987,3072.5663 C 867.9235,3074.9911 870.57681,3079.0586 872.56977,3081.0515 C 875.7535,3084.2353 877.19611,3087.6914 879.64084,3090.951 C 882.15459,3094.3027 885.32282,3097.3401 888.12612,3100.1434 C 891.84218,3096.9738 893.91956,3098.8578 897.31851,3097.315 C 894.6382,3095.3048 891.27015,3092.3034 889.66165,3089.6226 C 887.79365,3086.5093 886.00938,3082.3181 884.7119,3079.7231 C 882.81296,3075.9252 881.02255,3071.1196 877.51952,3067.6165 C 873.51745,3063.6145 869.69705,3059.087 865.4987,3054.8886 C 862.07202,3051.4619 859.46029,3046.1303 857.01342,3042.8678 C 853.92287,3038.747 851.97788,3034.2967 848.52814,3030.847 C 845.5744,3027.8932 844.11723,3023.6076 841.45707,3020.9475 C 839.19219,3018.6826 837.47667,3015.8151 835.80022,3012.4622 C 834.10877,3009.0793 831.47135,3005.9258 830.14336,3003.2698 C 828.6458,3000.2747 825.50438,2997.2166 823.07229,2994.7845 C 819.81341,2991.5256 817.80205,2987.5218 815.29412,2984.1779 C 812.76993,2980.8123 809.5928,2977.0624 807.51594,2974.9855 C 805.13452,2972.6041 803.03136,2970.5614 800.44488,2968.6216 C 798.00855,2966.7943 796.09943,2964.1733 794.78802,2961.5505 C 793.69652,2959.3675 790.41903,2955.7673 788.42406,2953.7723 C 785.68744,2951.0357 784.18402,2947.4136 782.76721,2944.5799 C 781.35779,2941.7611 779.30652,2938.9979 777.11035,2936.8018 C 774.54863,2934.24 771.85548,2928.515 770.03929,2925.4881 C 768.12766,2922.302 765.82689,2920.5686 763.67532,2918.417 C 761.50873,2916.2504 758.77086,2914.9267 756.60426,2912.7601 C 754.62193,2910.7778 752.49622,2908.4613 750.9474,2906.3962 C 748.43483,2903.0461 746.09085,2901.5396 744.58344,2900.0322 C 743.46541,2898.9142 743.04934,2902.8068 742.46212,2904.2749 z"
         style="fill:#ffe680;fill-rule:evenodd;stroke:none;stroke-width:1px;stroke-linecap:butt;stroke-linejoin:miter;stroke-opacity:1;filter:url(#filter34008)"
         sodipodi:nodetypes="cssssssssssssssssssssccssssssssssssssssssssssc" />
      <path
         sodipodi:nodetypes="csssssssssssssssssssssssssssssccssssssc"
         id="path34658"
         d="M 751.58579,2895.8475 C 756.17062,2899.2913 756.23145,2905.5561 753.58579,2910.8475 C 751.2918,2915.4354 749.46391,2917.0912 747.58579,2920.8475 C 746.07496,2923.8691 740.54355,2928.8897 738.58579,2930.8475 C 734.78532,2934.6479 732.397,2942.0992 729.58579,2945.8475 C 726.44341,2950.0373 724.4516,2952.9817 721.58579,2955.8475 C 717.90524,2959.528 715.99876,2965.4345 712.58579,2968.8475 C 708.03824,2973.395 705.82593,2978.6073 701.58579,2982.8475 C 698.14269,2986.2906 696.00461,2989.4286 692.58579,2992.8475 C 689.06761,2996.3656 686.12533,3001.1281 682.58579,3005.8475 C 680.13073,3009.1209 677.60595,3016.7668 676.58579,3020.8475 C 675.47276,3025.2996 670.54239,3030.9053 667.58579,3034.8475 C 664.05831,3039.5508 660.46892,3043.0812 657.58579,3048.8475 C 655.18317,3053.6527 649.70854,3059.7247 646.58579,3062.8475 C 642.72006,3066.7132 640.07933,3071.1894 636.58579,3075.8475 C 633.3502,3080.1616 626.3942,3084.0391 623.58579,3086.8475 C 619.58615,3090.8471 619.38158,3095.0006 615.58579,3097.8475 C 611.96365,3100.5641 607.75935,3099.8041 603.58579,3100.8475 C 599.29511,3101.9201 594.45297,3101.8475 589.58579,3101.8475 C 583.64327,3101.8475 588.9247,3093.1697 589.58579,3091.8475 C 591.84727,3087.3245 594.72471,3082.6622 597.58579,3078.8475 C 600.27823,3075.2576 602.07646,3072.1932 604.58579,3068.8475 C 607.63484,3064.7821 610.57442,3060.8588 613.58579,3057.8475 C 616.84333,3054.5899 620.26224,3051.0901 624.58579,3047.8475 C 628.41931,3044.9723 629.99792,3041.0232 631.58579,3037.8475 C 634.5482,3031.9227 635.03675,3030.3965 639.58579,3025.8475 C 642.97813,3022.4551 645.54023,3017.5749 647.58579,3014.8475 C 650.41667,3011.073 651.62613,3007.8273 657.58579,3004.8475 C 662.34807,3002.4663 664.45346,2998.1121 666.58579,2993.8475 C 668.21156,2990.5959 672.83515,2989.3487 674.58579,2985.8475 C 676.34558,2982.3279 679.43533,2978.7147 681.58579,2975.8475 C 691.80476,2965.5447 686.76787,2968.1697 697.17158,2957.0191 C 698.92311,2953.516 702.40065,2951.497 704.81802,2949.0797 C 708.44263,2945.4551 710.3591,2943.4724 712.17158,2939.8475 C 714.51727,2935.1561 719.16302,2931.2702 721.58579,2928.8475 C 725.00831,2925.4249 727.13898,2921.2943 729.58579,2918.8475 C 733.59302,2914.8402 734.55316,2913.6219 739.58579,2909.8475 C 743.97134,2906.5583 748.98879,2904.4445 751.58579,2901.8475 C 753,2900.4333 751.58579,2897.8475 751.58579,2895.8475 z"
         style="fill:#ff7f2a;fill-rule:evenodd;stroke:none;stroke-width:1px;stroke-linecap:butt;stroke-linejoin:miter;stroke-opacity:1;filter:url(#filter34720)" />
      <path
         sodipodi:nodetypes="csssssccc"
         style="fill:#ffe680;fill-rule:evenodd;stroke:none;stroke-width:1px;stroke-linecap:butt;stroke-linejoin:miter;stroke-opacity:1;filter:url(#filter15894)"
         d="M 969.59934,1402.1489 C 967.30611,1402.1489 949.544,1415.3214 947.21799,1415.3214 C 945.19698,1415.3214 915.78602,1440.7458 914.10714,1442.005 C 912.25631,1443.3931 911.46098,1445.7226 909.82143,1447.3621 C 908.38735,1448.7962 906.34025,1449.4373 904.82143,1450.5764 C 903.20928,1451.7855 893.43169,1458.5896 893.43169,1460.7816 C 893.43169,1464.7777 902.01347,1460.2685 904.82143,1463.0764 C 943.63365,1452.9021 963.00809,1441.8281 972.87064,1411.8028 C 967.22403,1407.5838 972.24561,1407.7149 969.59934,1402.1489 z"
         id="path34040"
         transform="matrix(-9.7485576e-3,1.7436371,-1.6056351,-8.9769974e-3,3099.1056,1356.9357)" />
      <path
         sodipodi:nodetypes="cccc"
         id="path33912"
         d="M 746.59826,2890.7421 C 740.81651,2896.8713 579.24447,3100.021 577.08456,3102.2655 C 582.70282,3102.2565 818.52505,3103.3598 908.087,3102.7886 C 904.85995,3099.6151 798.31033,2961.0276 746.59826,2890.7421 z"
         style="fill:none;fill-rule:evenodd;stroke:#000000;stroke-width:7.80544853;stroke-linecap:butt;stroke-linejoin:miter;stroke-miterlimit:4;stroke-dasharray:none;stroke-opacity:1" />
      <path
         style="fill:#000000;fill-rule:evenodd;stroke:#000000;stroke-width:0.43533835px;stroke-linecap:butt;stroke-linejoin:miter;stroke-opacity:1"
         d="M 645.56349,3004.229 C 627.85057,3007.3941 480.44083,3058.6945 521.14105,3070.8852 C 866.67477,3156.5582 1259.1687,2904.2261 803.28235,2950.9295 C 805.8737,2955.7338 816.58297,2969.5699 822.48435,2967.5565 C 1127.4402,3015.2604 445.62792,3111.8588 630.47823,3023.5027"
         id="path29925"
         sodipodi:nodetypes="ccccc" />
      <path
         sodipodi:nodetypes="ccc"
         id="path34042"
         d="M 853.01341,2958.6215 C 956.53876,2968.2194 979.59551,2991.3535 861.59963,3046.415 C 1018.5168,3013.86 1042.6186,2942.4618 853.01341,2958.6215 z"
         style="fill:#333333;fill-rule:evenodd;stroke:#000000;stroke-width:1px;stroke-linecap:butt;stroke-linejoin:miter;stroke-opacity:1" />
      <path
         sodipodi:nodetypes="ccc"
         id="path34724"
         d="M 632.86057,3015.9978 C 496.3359,3069.6408 628.7982,3072.5663 640.01308,3076.6143 C 469.74038,3073.4125 523.036,3052.9717 632.86057,3015.9978 z"
         style="fill:#333333;fill-rule:evenodd;stroke:#000000;stroke-width:1px;stroke-linecap:butt;stroke-linejoin:miter;stroke-opacity:1" />
    </g>
    <g
       id="g2534"
       inkscape:label="Ebene 1"
       transform="translate(32.792176,20.358287)">
      <flowRoot
         transform="matrix(0.3357359,0,0,0.3357359,341.56403,429.79393)"
         style="font-size:40px;font-style:normal;font-weight:normal;fill:#000000;fill-opacity:1;stroke:none;stroke-width:1px;stroke-linecap:butt;stroke-linejoin:miter;stroke-opacity:1;font-family:Bitstream Vera Sans"
         id="flowRoot2536"
         xml:space="preserve"><flowRegion
           id="flowRegion2538"><rect
             y="689.50507"
             x="338.57144"
             height="91.428574"
             width="290"
             id="rect2540" /></flowRegion><flowPara
           id="flowPara2542">by enigmatic</flowPara></flowRoot>      <flowRoot
         transform="matrix(0.3357359,0,0,0.3357359,341.03393,447.30925)"
         style="font-size:23.82825279px;font-style:normal;font-weight:normal;fill:#000000;fill-opacity:1;stroke:none;stroke-width:1px;stroke-linecap:butt;stroke-linejoin:miter;stroke-opacity:1;font-family:Bitstream Vera Sans"
         id="flowRoot2544"
         xml:space="preserve"><flowRegion
           id="flowRegion2546"><rect
             style="font-size:23.82825279px"
             y="689.50507"
             x="338.57144"
             height="193.72675"
             width="742.82013"
             id="rect2548" /></flowRegion><flowPara
           id="flowPara38883">released under</flowPara><flowPara
           id="flowPara2451">creative commons</flowPara><flowPara
           id="flowPara2552">cc by v3.0</flowPara></flowRoot>      <g
         transform="matrix(0.6885364,0,0,0.6885364,455.68287,628.81639)"
         inkscape:label="Layer 1"
         id="g38986">
        <g
           transform="matrix(0.9937728,0,0,0.9936696,-177.69267,6.25128e-7)"
           id="g260"
           inkscape:export-filename="/mnt/hgfs/Bov/Documents/Work/2007/cc/identity/srr buttons/big/by.png"
           inkscape:export-xdpi="300.23013"
           inkscape:export-ydpi="300.23013">
          <path
             id="path3817_1_"
             nodetypes="ccccccc"
             d="M 181.96579,0.51074 L 296.02975,0.71338 C 297.6235,0.71338 299.04733,0.47705 299.04733,3.89404 L 298.90768,41.46093 L 179.08737,41.46093 L 179.08737,3.75439 C 179.08737,2.06934 179.25046,0.51074 181.96579,0.51074 z"
             style="fill:#aab2ab" />
          <path
             d="M 297.29636,0 L 181.06736,0 C 179.82078,0 178.80613,1.01416 178.80613,2.26074 L 178.80613,41.75732 C 178.80613,42.03906 179.03513,42.26757 179.31687,42.26757 L 299.04734,42.26757 C 299.32908,42.26757 299.55808,42.03905 299.55808,41.75732 L 299.55808,2.26074 C 299.55807,1.01416 298.54343,0 297.29636,0 z M 181.06735,1.02148 L 297.29635,1.02148 C 297.98043,1.02148 298.53658,1.57714 298.53658,2.26074 C 298.53658,2.26074 298.53658,18.20898 298.53658,29.71045 L 215.19234,29.71045 C 212.14742,35.21631 206.28121,38.95459 199.54879,38.95459 C 192.81344,38.95459 186.94869,35.21973 183.90524,29.71045 L 179.8276,29.71045 C 179.8276,18.20899 179.8276,2.26074 179.8276,2.26074 C 179.82761,1.57715 180.38376,1.02148 181.06735,1.02148 z"
             id="path263" />
          <g
             enable-background="new    "
             id="g265">
            <path
               d="M 253.07761,32.95605 C 253.39499,32.95605 253.68503,32.98437 253.94773,33.04003 C 254.20945,33.09569 254.43308,33.18749 254.62058,33.31542 C 254.8071,33.44237 254.95261,33.6123 255.05515,33.82323 C 255.15769,34.03514 255.20945,34.29589 255.20945,34.60741 C 255.20945,34.94335 255.13328,35.22264 254.97996,35.44628 C 254.82762,35.67089 254.60105,35.85351 254.30223,35.99706 C 254.71434,36.11522 255.02196,36.32226 255.22508,36.61815 C 255.4282,36.91404 255.52977,37.27049 255.52977,37.68749 C 255.52977,38.02343 255.46434,38.31444 255.33348,38.56054 C 255.20262,38.80566 255.02586,39.00683 254.80516,39.1621 C 254.58348,39.31835 254.33055,39.43358 254.04735,39.5078 C 253.76317,39.583 253.47215,39.6201 253.17235,39.6201 L 249.936,39.6201 L 249.936,32.95604 L 253.07761,32.95604 L 253.07761,32.95605 z M 252.89011,35.65137 C 253.15183,35.65137 253.36667,35.58887 253.53562,35.46485 C 253.70359,35.34083 253.78757,35.13965 253.78757,34.86036 C 253.78757,34.70509 253.75925,34.57716 253.70359,34.47852 C 253.64695,34.37891 253.57273,34.30176 253.47898,34.24512 C 253.38523,34.18946 253.27781,34.15039 253.15671,34.12891 C 253.03561,34.10743 252.90866,34.09668 252.77878,34.09668 L 251.40476,34.09668 L 251.40476,35.65137 L 252.89011,35.65137 z M 252.97604,38.47949 C 253.11959,38.47949 253.25631,38.46582 253.38717,38.4375 C 253.51803,38.40918 253.63326,38.3623 253.73385,38.29785 C 253.83346,38.23242 253.91256,38.14355 253.97213,38.03125 C 254.0317,37.91992 254.061,37.77637 254.061,37.60254 C 254.061,37.26074 253.96432,37.0166 253.77096,36.87012 C 253.5776,36.72461 253.32174,36.65137 253.00436,36.65137 L 251.40475,36.65137 L 251.40475,38.47949 L 252.97604,38.47949 z"
               id="path267"
               style="fill:#ffffff" />
            <path
               d="M 255.78854,32.95605 L 257.43209,32.95605 L 258.99264,35.58789 L 260.54342,32.95605 L 262.17721,32.95605 L 259.70358,37.0625 L 259.70358,39.62012 L 258.23483,39.62012 L 258.23483,37.02539 L 255.78854,32.95605 z"
               id="path269"
               style="fill:#ffffff" />
          </g>
          <g
             id="g5908_1_"
             transform="matrix(0.872921,0,0,0.872921,50.12536,143.2144)">
            <path
               id="path5906_1_"
               cx="296.35416"
               ry="22.939548"
               cy="264.3577"
               type="arc"
               rx="22.939548"
               d="M 186.90065,-141.46002 C 186.90623,-132.77923 179.87279,-125.73852 171.19257,-125.73291 C 162.51235,-125.72736 155.47051,-132.76025 155.46547,-141.44098 C 155.46547,-141.44714 155.46547,-141.45331 155.46547,-141.46002 C 155.46043,-150.14081 162.49333,-157.18152 171.17355,-157.18658 C 179.8549,-157.19213 186.89561,-150.15924 186.90065,-141.47845 C 186.90065,-141.4729 186.90065,-141.46619 186.90065,-141.46002 z"
               style="fill:#ffffff" />
            <g
               id="g5706_1_"
               transform="translate(-289.6157,99.0653)">
              <path
                 id="path5708_1_"
                 d="M 473.57574,-253.32751 C 477.06115,-249.8421 478.80413,-245.5736 478.80413,-240.52532 C 478.80413,-235.47594 477.09136,-231.25329 473.66582,-227.85741 C 470.03051,-224.28081 465.734,-222.49309 460.77635,-222.49309 C 455.87858,-222.49309 451.65648,-224.26628 448.11122,-227.81261 C 444.56541,-231.35845 442.79277,-235.59563 442.79277,-240.52532 C 442.79277,-245.45391 444.56541,-249.7213 448.11122,-253.32751 C 451.56642,-256.81402 455.7885,-258.557 460.77635,-258.557 C 465.82465,-258.55701 470.09039,-256.81403 473.57574,-253.32751 z M 450.45776,-250.98267 C 447.51104,-248.00629 446.03823,-244.51978 446.03823,-240.52033 C 446.03823,-236.52198 447.49651,-233.06507 450.41247,-230.14966 C 453.32897,-227.23316 456.80096,-225.77545 460.82952,-225.77545 C 464.85808,-225.77545 468.35967,-227.24768 471.33605,-230.19385 C 474.16198,-232.9303 475.57549,-236.37091 475.57549,-240.52033 C 475.57549,-244.63837 474.13903,-248.13379 471.26781,-251.00501 C 468.39714,-253.87568 464.9179,-255.31159 460.82952,-255.31159 C 456.74112,-255.31158 453.28314,-253.86841 450.45776,-250.98267 z M 458.21225,-242.27948 C 457.76196,-243.26117 457.08795,-243.75232 456.18903,-243.75232 C 454.59986,-243.75232 453.80558,-242.68225 453.80558,-240.54321 C 453.80558,-238.40368 454.59986,-237.33471 456.18903,-237.33471 C 457.23841,-237.33471 457.98795,-237.85546 458.43769,-238.89922 L 460.64045,-237.72625 C 459.59052,-235.86077 458.01536,-234.92779 455.91496,-234.92779 C 454.29506,-234.92779 452.99733,-235.42449 452.0229,-236.4168 C 451.0468,-237.41021 450.56016,-238.77953 450.56016,-240.52532 C 450.56016,-242.24035 451.06245,-243.60186 452.06764,-244.61034 C 453.07283,-245.61888 454.32466,-246.12291 455.82545,-246.12291 C 458.04557,-246.12291 459.63526,-245.24803 460.59626,-243.50005 L 458.21225,-242.27948 z M 468.57562,-242.27948 C 468.12475,-243.26117 467.46417,-243.75232 466.5932,-243.75232 C 464.97217,-243.75232 464.16107,-242.68225 464.16107,-240.54321 C 464.16107,-238.40368 464.97217,-237.33471 466.5932,-237.33471 C 467.64429,-237.33471 468.38037,-237.85546 468.80048,-238.89922 L 471.05249,-237.72625 C 470.00421,-235.86077 468.43127,-234.92779 466.33478,-234.92779 C 464.7171,-234.92779 463.42218,-235.42449 462.44831,-236.4168 C 461.47614,-237.41021 460.98896,-238.77953 460.98896,-240.52532 C 460.98896,-242.24035 461.48341,-243.60186 462.47181,-244.61034 C 463.45966,-245.61888 464.71711,-246.12291 466.24531,-246.12291 C 468.4615,-246.12291 470.04896,-245.24803 471.0066,-243.50005 L 468.57562,-242.27948 z" />
            </g>
          </g>
          <g
             id="g275">
            <circle
               cx="255.55124"
               cy="15.31348"
               r="10.80664"
               id="circle277"
               sodipodi:cx="255.55124"
               sodipodi:cy="15.31348"
               sodipodi:rx="10.80664"
               sodipodi:ry="10.80664"
               style="fill:#ffffff" />
            <g
               id="g279">
              <path
                 d="M 258.67819,12.18701 C 258.67819,11.77051 258.3403,11.4331 257.92526,11.4331 L 253.15182,11.4331 C 252.73678,11.4331 252.39889,11.7705 252.39889,12.18701 L 252.39889,16.95996 L 253.72994,16.95996 L 253.72994,22.61182 L 257.34713,22.61182 L 257.34713,16.95996 L 258.67818,16.95996 L 258.67818,12.18701 L 258.67819,12.18701 z"
                 id="path281" />
              <circle
                 cx="255.53854"
                 cy="9.1723604"
                 r="1.63281"
                 id="circle283"
                 sodipodi:cx="255.53854"
                 sodipodi:cy="9.1723604"
                 sodipodi:rx="1.63281"
                 sodipodi:ry="1.63281" />
            </g>
            <path
               clip-rule="evenodd"
               d="M 255.5239,3.40723 C 252.29148,3.40723 249.55515,4.53516 247.31589,6.79102 C 245.01804,9.12452 243.8696,11.88672 243.8696,15.07569 C 243.8696,18.26466 245.01804,21.00733 247.31589,23.30225 C 249.61374,25.59668 252.35007,26.74414 255.5239,26.74414 C 258.73679,26.74414 261.52195,25.58789 263.87742,23.27295 C 266.09715,21.07568 267.2075,18.34326 267.2075,15.07568 C 267.2075,11.8081 266.07762,9.04687 263.8198,6.79101 C 261.56003,4.53516 258.79538,3.40723 255.5239,3.40723 z M 255.55319,5.50684 C 258.20163,5.50684 260.45065,6.44092 262.30026,8.30811 C 264.1694,10.15528 265.10397,12.41114 265.10397,15.07569 C 265.10397,17.75928 264.18893,19.98633 262.35885,21.75587 C 260.43014,23.66212 258.16256,24.61476 255.55319,24.61476 C 252.94284,24.61476 250.69381,23.67189 248.80612,21.78517 C 246.91647,19.89845 245.97311,17.66212 245.97311,15.0757 C 245.97311,12.48879 246.92721,10.23341 248.83541,8.30812 C 250.6655,6.44092 252.90475,5.50684 255.55319,5.50684 z"
               id="path285"
               style="fill-rule:evenodd" />
          </g>
        </g>
      </g>
    </g>
  </g>
</svg>
