<?xml version="1.0" encoding="UTF-8" standalone="no"?>
<!-- Created with Inkscape (http://www.inkscape.org/) -->
<svg
   xmlns:dc="http://purl.org/dc/elements/1.1/"
   xmlns:cc="http://creativecommons.org/ns#"
   xmlns:rdf="http://www.w3.org/1999/02/22-rdf-syntax-ns#"
   xmlns:svg="http://www.w3.org/2000/svg"
   xmlns="http://www.w3.org/2000/svg"
   xmlns:sodipodi="http://sodipodi.sourceforge.net/DTD/sodipodi-0.dtd"
   xmlns:inkscape="http://www.inkscape.org/namespaces/inkscape"
   width="210mm"
   height="297mm"
   id="svg14732"
   sodipodi:version="0.32"
   inkscape:version="0.46"
   sodipodi:docname="proteron_logo.svg"
   inkscape:output_extension="org.inkscape.output.svg.inkscape">
  <defs
     id="defs14734">
    <filter
       height="2.6369298"
       y="-0.81846492"
       width="2.0440261"
       x="-0.52201306"
       id="filter7045"
       inkscape:collect="always">
      <feGaussianBlur
         id="feGaussianBlur7047"
         stdDeviation="19.730851"
         inkscape:collect="always" />
    </filter>
    <filter
       height="2.1743192"
       y="-0.58715962"
       width="1.7489753"
       x="-0.37448763"
       id="filter5357"
       inkscape:collect="always">
      <feGaussianBlur
         id="feGaussianBlur5359"
         stdDeviation="14.154741"
         inkscape:collect="always" />
    </filter>
    <filter
       y="-0.5"
       x="-0.5"
       width="2.0"
       height="2.0"
       id="filter">
      <feGaussianBlur
         id="feGaussianBlur7629"
         stdDeviation="5.0" />
    </filter>
    <clipPath
       id="clipPath">
      <path
         sodipodi:nodetypes="cccccccc"
         id="path7160"
         d="M 545.81179,784.32351 C 529.28629,781.50931 493.76062,794.79791 496.73455,766.13421 C 497.9559,743.65209 498.58593,721.44115 496.83226,698.8714 C 510.01777,695.52571 575.91109,699.63918 577.84372,700.24117 C 578.45423,700.15844 553.62298,728.64439 553.19375,727.95841 C 537.94937,723.48205 529.04436,729.88961 528.17218,729.43783 C 528.83886,742.45976 527.14814,770.60171 526.39118,770.13341 C 526.96784,769.89631 546.78726,784.25281 545.81179,784.32351 z"
         style="fill:#440055;fill-rule:evenodd;stroke:none;stroke-width:0.60021650999999998px;stroke-linecap:butt;stroke-linejoin:miter;stroke-opacity:1" />
    </clipPath>
    <filter
       inkscape:collect="always"
       id="filter14680"
       x="-0.29650929"
       width="1.5930186"
       y="-0.20158211"
       height="1.4031642">
      <feGaussianBlur
         inkscape:collect="always"
         stdDeviation="14.682033"
         id="feGaussianBlur14682" />
    </filter>
    <inkscape:path-effect
       prop_scale="1"
       id="path-effect4215"
       effect="skeletal" />
    <filter
       inkscape:collect="always"
       id="filter14670"
       x="-0.1347251"
       width="1.2694502"
       y="-0.31187538"
       height="1.6237508">
      <feGaussianBlur
         inkscape:collect="always"
         stdDeviation="4.2610319"
         id="feGaussianBlur14672" />
    </filter>
    <filter
       inkscape:collect="always"
       id="filter14575"
       x="-0.1455207"
       width="1.2910414"
       y="-0.11971244"
       height="1.2394249">
      <feGaussianBlur
         inkscape:collect="always"
         stdDeviation="7.0882876"
         id="feGaussianBlur14577" />
    </filter>
    <filter
       inkscape:collect="always"
       id="filter14728"
       x="-0.8115983"
       width="2.6231966"
       y="-0.33467305"
       height="1.6693461">
      <feGaussianBlur
         inkscape:collect="always"
         stdDeviation="30.676484"
         id="feGaussianBlur14730" />
    </filter>
    <inkscape:perspective
       sodipodi:type="inkscape:persp3d"
       inkscape:vp_x="0 : 526.18109 : 1"
       inkscape:vp_y="0 : 1000 : 0"
       inkscape:vp_z="744.09448 : 526.18109 : 1"
       inkscape:persp3d-origin="372.04724 : 350.78739 : 1"
       id="perspective14740" />
    <inkscape:perspective
       id="perspective15336"
       inkscape:persp3d-origin="372.04724 : 350.78739 : 1"
       inkscape:vp_z="744.09448 : 526.18109 : 1"
       inkscape:vp_y="0 : 1000 : 0"
       inkscape:vp_x="0 : 526.18109 : 1"
       sodipodi:type="inkscape:persp3d" />
    <inkscape:perspective
       id="perspective15357"
       inkscape:persp3d-origin="372.04724 : 350.78739 : 1"
       inkscape:vp_z="744.09448 : 526.18109 : 1"
       inkscape:vp_y="0 : 1000 : 0"
       inkscape:vp_x="0 : 526.18109 : 1"
       sodipodi:type="inkscape:persp3d" />
    <inkscape:perspective
       sodipodi:type="inkscape:persp3d"
       inkscape:vp_x="0 : 21 : 1"
       inkscape:vp_y="0 : 1000 : 0"
       inkscape:vp_z="120 : 21 : 1"
       inkscape:persp3d-origin="60 : 14 : 1"
       id="perspective38983" />
    <inkscape:perspective
       id="perspective22068"
       inkscape:persp3d-origin="372.04724 : 350.78739 : 1"
       inkscape:vp_z="744.09448 : 526.18109 : 1"
       inkscape:vp_y="0 : 1000 : 0"
       inkscape:vp_x="0 : 526.18109 : 1"
       sodipodi:type="inkscape:persp3d" />
  </defs>
  <sodipodi:namedview
     id="base"
     pagecolor="#ffffff"
     bordercolor="#666666"
     borderopacity="1.0"
     inkscape:pageopacity="0.0"
     inkscape:pageshadow="2"
     inkscape:zoom="0.98994949"
     inkscape:cx="535.84652"
     inkscape:cy="600.02787"
     inkscape:document-units="px"
     inkscape:current-layer="layer1"
     showgrid="false"
     inkscape:window-width="1920"
     inkscape:window-height="1003"
     inkscape:window-x="0"
     inkscape:window-y="25" />
  <metadata
     id="metadata14737">
    <rdf:RDF>
      <cc:Work
         rdf:about="">
        <dc:format>image/svg+xml</dc:format>
        <dc:type
           rdf:resource="http://purl.org/dc/dcmitype/StillImage" />
      </cc:Work>
    </rdf:RDF>
  </metadata>
  <g
     inkscape:label="Ebene 1"
     inkscape:groupmode="layer"
     id="layer1">
    <g
       id="g3981">
      <rect
         inkscape:export-ydpi="90"
         inkscape:export-xdpi="90"
         inkscape:export-filename="/home/brutkasten/Dokumente/naev/rect4653.png"
         style="fill:#220b28;fill-opacity:1;stroke:none;stroke-width:3.19000006;stroke-miterlimit:4;stroke-dasharray:none;stroke-opacity:1"
         id="rect4473"
         width="94.944572"
         height="61.806412"
         x="476.0325"
         y="-371.71893"
         ry="15.659982"
         transform="matrix(0,1,-1,0,0,0)"
         inkscape:path-effect="#path-effect4215" />
      <path
         inkscape:export-ydpi="90"
         inkscape:export-xdpi="90"
         inkscape:export-filename="/home/brutkasten/Dokumente/naev/rect4653.png"
         sodipodi:type="arc"
         style="opacity:0.71257486;fill:#4d4d4d;fill-opacity:1;stroke:none;stroke-width:3.19000006;stroke-miterlimit:4;stroke-dasharray:none;stroke-opacity:1;filter:url(#filter7045)"
         id="path5363"
         sodipodi:cx="538.92859"
         sodipodi:cy="532.7193"
         sodipodi:rx="45.357143"
         sodipodi:ry="109.99326"
         d="M 584.28573,532.7193 A 45.357143,109.99326 0 1 1 493.57145,532.7193 A 45.357143,109.99326 0 1 1 584.28573,532.7193 z"
         transform="matrix(0.2001094,0,0,0.4122241,211.7416,301.97545)" />
      <rect
         inkscape:export-ydpi="90"
         inkscape:export-xdpi="90"
         inkscape:export-filename="/home/brutkasten/Dokumente/naev/rect4653.png"
         style="fill:none;fill-opacity:1;stroke:#000000;stroke-width:3.18999999999999995;stroke-miterlimit:4;stroke-dasharray:none;stroke-opacity:1"
         id="rect6133"
         width="94.944572"
         height="61.806412"
         x="475.94785"
         y="-371.43994"
         ry="15.659982"
         transform="matrix(0,1,-1,0,0,0)"
         inkscape:path-effect="#path-effect4215" />
      <rect
         inkscape:export-ydpi="90"
         inkscape:export-xdpi="90"
         inkscape:export-filename="/home/brutkasten/Dokumente/naev/rect4653.png"
         style="fill:#280b22;fill-opacity:1;stroke:none;stroke-width:3.19000006;stroke-miterlimit:4;stroke-dasharray:none;stroke-opacity:1"
         id="rect4471"
         width="94.944572"
         height="61.806412"
         x="387.77902"
         y="-443.70331"
         ry="15.659982"
         transform="matrix(0,1,-1,0,0,0)"
         inkscape:path-effect="#path-effect4215" />
      <rect
         inkscape:export-ydpi="90"
         inkscape:export-xdpi="90"
         inkscape:export-filename="/home/brutkasten/Dokumente/naev/rect4653.png"
         style="fill:none;fill-opacity:1;stroke:#000000;stroke-width:3.19000006;stroke-miterlimit:4;stroke-dasharray:none;stroke-opacity:1"
         id="rect5365"
         width="94.944572"
         height="61.806412"
         x="388.11758"
         y="-444.65222"
         ry="15.659982"
         transform="matrix(0,1,-1,0,0,0)"
         inkscape:path-effect="#path-effect4215" />
      <rect
         inkscape:export-ydpi="90"
         inkscape:export-xdpi="90"
         inkscape:export-filename="/home/brutkasten/Dokumente/naev/rect4653.png"
         style="fill:#aa00d4;fill-opacity:1;stroke:none;stroke-width:3.02840233;stroke-miterlimit:4;stroke-dasharray:none;stroke-opacity:1"
         id="rect2518"
         width="174.80162"
         height="118.83904"
         x="395.00455"
         y="-436.9433"
         ry="30.11042"
         transform="matrix(0,1,-1,0,0,0)"
         inkscape:path-effect="#path-effect4215" />
      <path
         inkscape:export-ydpi="90"
         inkscape:export-xdpi="90"
         inkscape:export-filename="/home/brutkasten/Dokumente/naev/rect4653.png"
         sodipodi:type="arc"
         style="opacity:0.53892212;fill:#ffffff;fill-opacity:1;stroke:none;stroke-width:3.19000006;stroke-miterlimit:4;stroke-dasharray:none;stroke-opacity:1;filter:url(#filter5357)"
         id="path4655"
         sodipodi:cx="538.92859"
         sodipodi:cy="532.7193"
         sodipodi:rx="45.357143"
         sodipodi:ry="28.928572"
         d="M 584.28573,532.7193 A 45.357143,28.928572 0 1 1 493.57145,532.7193 A 45.357143,28.928572 0 1 1 584.28573,532.7193 z"
         transform="matrix(0.5106862,0,0,0.7473252,71.25998,20.012631)" />
      <rect
         inkscape:export-ydpi="90"
         inkscape:export-xdpi="90"
         inkscape:export-filename="/home/brutkasten/Dokumente/naev/rect4653.png"
         style="opacity:1;fill:#cc00ff;fill-opacity:1;stroke:none;stroke-width:3.02840233;stroke-miterlimit:4;stroke-dasharray:none;stroke-opacity:1;filter:url(#filter14680)"
         id="rect14674"
         width="174.80162"
         height="118.83904"
         x="705.35217"
         y="-591.7699"
         ry="30.11042"
         transform="matrix(0,0.869928,-0.5511994,0,100.10873,-203.73406)"
         inkscape:path-effect="#path-effect4215" />
      <g
         inkscape:export-ydpi="90"
         inkscape:export-xdpi="90"
         inkscape:export-filename="/home/brutkasten/Dokumente/naev/rect4653.png"
         transform="matrix(1.055186,0,0,1.055186,-173.06042,-319.11054)"
         id="g14704">
        <path
           sodipodi:nodetypes="cccccccc"
           id="path14684"
           d="M 532.55186,1443.0709 C 508.9988,1438.3321 461.02479,1458.8395 465.62038,1412.4191 C 467.63879,1375.9974 468.80988,1340.0093 466.58303,1303.4136 C 485.44416,1298.1337 579.4459,1305.5103 582.19705,1306.5067 C 583.06945,1306.3791 553.34927,1343.4266 552.74502,1342.3105 C 531.04087,1334.8918 501.57466,1345.0538 500.3353,1344.3123 C 501.12749,1365.423 503.60081,1425.0608 502.52614,1424.294 C 503.35212,1423.9158 533.94505,1442.9668 532.55186,1443.0709 z"
           style="fill:#220b28;fill-opacity:1;fill-rule:evenodd;stroke:none;stroke-width:0.60021651px;stroke-linecap:butt;stroke-linejoin:miter;stroke-opacity:1;filter:url(#filter14575)"
           transform="matrix(5.2647079e-3,-0.3673456,0.3673456,5.2647079e-3,31.125723,991.34662)" />
        <path
           sodipodi:nodetypes="cccccccc"
           id="path14686"
           d="M 563.93641,803.75216 C 562.07169,812.37933 569.35245,830.11033 552.3243,828.17776 C 538.95559,827.24458 525.74172,826.62491 512.28677,827.25027 C 510.44648,820.29391 513.65108,785.80162 514.03163,784.79625 C 513.98933,784.47511 527.44206,795.58772 527.02892,795.80382 C 524.18944,803.73769 527.76723,814.61546 527.48832,815.06684 C 535.2475,814.88697 557.16817,814.29238 556.88074,814.68312 C 556.7462,814.37772 563.90555,803.23984 563.93641,803.75216 z"
           style="fill:#22002b;fill-opacity:1;fill-rule:evenodd;stroke:none;stroke-width:0.60021651px;stroke-linecap:butt;stroke-linejoin:miter;stroke-opacity:1" />
        <path
           style="fill:#22002b;fill-rule:evenodd;stroke:#000000;stroke-width:0.43458107px;stroke-linecap:butt;stroke-linejoin:miter;stroke-opacity:1;filter:url(#filter14670)"
           d="M 495.83055,758.30685 C 495.07985,752.45675 496.61567,741.72165 496.08082,734.30165 C 495.70925,729.14665 495.79031,728.94755 499.61324,731.40625 C 501.43476,732.57775 502.94302,733.65215 504.69793,734.78075 C 506.44462,735.90425 507.42344,737.75565 508.97005,739.09425 C 510.60094,740.50595 512.04776,741.96635 513.47686,743.61085 C 514.6561,744.96775 515.68648,746.13915 517.04485,747.31485 C 517.32145,747.55435 517.52479,747.86715 517.76475,748.14335 C 519.08793,749.66575 520.71243,750.93275 522.03687,752.45675 C 522.86243,753.40675 523.79997,754.59845 524.43129,755.14505 C 526.63428,757.05165 533.92275,754.90095 537.16072,754.66765 C 537.74453,754.62545 538.32833,754.58335 538.91214,754.54135 C 541.14377,754.38055 543.30406,754.88495 545.52734,754.72465 C 546.78594,754.63385 547.98742,754.76735 549.2649,754.67535 C 550.45506,754.58955 547.25934,752.06535 546.32216,750.48625 C 545.40825,748.94615 543.40903,747.75945 542.08161,746.61065 C 540.82149,745.51985 540.39811,744.64055 539.01461,743.75075 C 538.92054,743.69025 543.34608,742.99825 543.58054,742.98135 C 546.41043,742.77745 549.14915,743.46025 551.96295,743.25745 C 554.0188,743.10925 554.65711,743.90735 556.07726,745.38165 C 557.43055,746.78655 558.76418,748.52835 560.13043,749.71085 C 561.41799,750.82535 562.74142,752.18705 563.47948,753.43065 C 564.23047,754.69605 565.00278,755.80515 565.71812,757.01045 C 566.31748,758.02025 567.39385,759.48725 568.14411,760.13655 C 569.10015,760.96395 571.15152,761.44725 569.38077,762.02795 C 567.3712,762.68715 565.27274,761.57155 563.17188,761.37525 C 560.71279,761.14545 557.80046,760.66205 555.43047,760.83295 C 552.92816,761.01335 550.25766,760.32555 547.70486,760.50955 C 545.17619,760.69185 542.55896,760.22025 539.99501,760.40515 C 537.209,760.60595 534.32588,760.37365 531.42523,760.58265 C 528.02879,760.82755 524.5449,760.85855 521.11981,761.10545 C 518.65688,761.28295 516.06203,761.02985 513.64468,761.20405 C 511.54587,761.35535 509.43241,761.28765 507.27996,761.44285 C 505.87521,761.54415 504.41801,761.53705 503.08876,761.30475 C 501.94079,761.10415 500.29924,761.50585 499.14805,761.58895 C 497.68853,761.69415 496.229,761.79935 494.76948,761.90445 C 494.08102,761.95405 495.7875,760.76265 495.73787,760.07415 C 495.63646,758.66725 495.06256,760.71645 495.83055,758.30685 z"
           id="path14688"
           transform="matrix(1.4330284e-2,-0.9998973,0.9998973,1.4330284e-2,-205.20134,1275.871)" />
        <path
           style="fill:#220b28;fill-rule:evenodd;stroke:none;stroke-width:0.40855595px;stroke-linecap:butt;stroke-linejoin:miter;stroke-opacity:1"
           d="M 558.98423,788.07051 C 553.47488,788.69736 543.4044,787.10905 536.42231,787.51185 C 531.57151,787.7917 531.38542,787.71281 533.74818,784.15231 C 534.87391,782.45584 535.90423,781.05251 536.98876,779.41807 C 538.06838,777.79128 539.82189,776.89612 541.1011,775.46032 C 542.45003,773.94626 543.84239,772.6059 545.40747,771.28468 C 546.69883,770.19444 547.81391,769.24166 548.93739,767.98061 C 549.16619,767.72382 549.463,767.53689 549.72581,767.31505 C 551.17478,766.09174 552.38765,764.58175 553.83804,763.35729 C 554.74218,762.59404 555.87509,761.72879 556.39734,761.14271 C 558.21934,759.09754 556.29584,752.21728 556.12007,749.17038 C 556.08835,748.62103 556.05662,748.07167 556.02499,747.52231 C 555.90387,745.42238 556.40712,743.39847 556.28639,741.30638 C 556.21806,740.12205 556.35974,738.99444 556.29045,737.79234 C 556.22579,736.67241 553.80998,739.64244 552.3129,740.50213 C 550.85295,741.34049 549.71043,743.20379 548.61265,744.43612 C 547.57038,745.60596 546.73806,745.99209 545.88301,747.28062 C 545.82485,747.36824 545.23404,743.19882 545.2213,742.9782 C 545.06773,740.31531 545.74647,737.75006 545.5937,735.10231 C 545.48211,733.16777 546.24093,732.5785 547.64592,731.2634 C 548.98482,730.01021 550.64012,728.78003 551.77011,727.51166 C 552.83505,726.31635 554.13294,725.09065 555.31187,724.41361 C 556.51147,723.72472 557.56446,723.01367 558.70708,722.35747 C 559.66446,721.80767 561.05792,720.81563 561.67836,720.11912 C 562.46906,719.23158 562.95095,717.30976 563.47304,718.98212 C 564.0656,720.88003 562.98864,722.8376 562.77576,724.80979 C 562.52665,727.11829 562.03307,729.84942 562.16172,732.07955 C 562.29759,734.4342 561.61507,736.93526 561.75367,739.33741 C 561.89098,741.71686 561.41237,744.17075 561.55161,746.58339 C 561.70286,749.205 561.44564,751.91205 561.60304,754.64153 C 561.78746,757.83755 561.76972,761.11288 561.95566,764.33586 C 562.08936,766.65345 561.81643,769.08924 561.94764,771.36394 C 562.06155,773.33891 561.96949,775.32467 562.08636,777.35011 C 562.16264,778.67197 562.13641,780.04165 561.90012,781.28806 C 561.69607,782.36446 562.05152,783.91297 562.1141,784.99622 C 562.19334,786.36961 562.27255,787.74301 562.35178,789.11641 C 562.3891,789.76423 561.2921,788.14406 560.64431,788.18145 C 559.32037,788.25782 561.23895,788.82491 558.98423,788.07051 z"
           id="path14690" />
        <path
           sodipodi:nodetypes="cccccccc"
           id="path14692"
           d="M 532.55186,1443.0709 C 508.9988,1438.3321 461.02479,1458.8395 465.62038,1412.4191 C 467.63879,1375.9974 468.80988,1340.0093 466.58303,1303.4136 C 485.44416,1298.1337 579.4459,1305.5103 582.19705,1306.5067 C 583.06945,1306.3791 553.34927,1343.4266 552.74502,1342.3105 C 531.04087,1334.8918 501.57466,1345.0538 500.3353,1344.3123 C 501.12749,1365.423 503.60081,1425.0608 502.52614,1424.294 C 503.35212,1423.9158 533.94505,1442.9668 532.55186,1443.0709 z"
           style="fill:#220b28;fill-opacity:1;fill-rule:evenodd;stroke:none;stroke-width:0.60021651px;stroke-linecap:butt;stroke-linejoin:miter;stroke-opacity:1;filter:url(#filter14575)"
           transform="matrix(-5.2647079e-3,0.3673456,0.3673456,5.2647079e-3,39.462685,514.6019)" />
        <path
           sodipodi:nodetypes="cccccccc"
           id="path14694"
           d="M 566.67851,717.38841 C 565.06179,708.71135 572.84769,691.19626 555.77114,692.64005 C 542.38119,693.18975 529.15498,693.43048 515.72348,692.41979 C 513.68459,699.32055 515.89942,733.89051 516.251,734.90637 C 516.1995,735.22617 529.96517,724.50364 529.5584,724.2758 C 526.94745,716.26382 530.8355,705.49305 530.56964,705.03386 C 538.32049,705.43601 560.21511,706.65856 559.93899,706.25973 C 559.79575,706.56117 566.63297,717.89963 566.67851,717.38841 z"
           style="fill:#22002b;fill-opacity:1;fill-rule:evenodd;stroke:none;stroke-width:0.60021651px;stroke-linecap:butt;stroke-linejoin:miter;stroke-opacity:1" />
      </g>
      <path
         inkscape:export-ydpi="90"
         inkscape:export-xdpi="90"
         inkscape:export-filename="/home/brutkasten/Dokumente/naev/rect4653.png"
         sodipodi:type="arc"
         style="opacity:0.71257486;fill:#ffffff;fill-opacity:1;stroke:none;stroke-width:3.19000006;stroke-miterlimit:4;stroke-dasharray:none;stroke-opacity:1;filter:url(#filter14728)"
         id="path14718"
         sodipodi:cx="538.92859"
         sodipodi:cy="532.7193"
         sodipodi:rx="45.357143"
         sodipodi:ry="109.99326"
         d="M 584.28573,532.7193 A 45.357143,109.99326 0 1 1 493.57145,532.7193 A 45.357143,109.99326 0 1 1 584.28573,532.7193 z"
         transform="matrix(0.2001094,0,0,0.6165629,223.80985,160.78603)" />
      <rect
         inkscape:export-ydpi="90"
         inkscape:export-xdpi="90"
         style="fill:none;fill-opacity:1;stroke:#000000;stroke-width:2.79110312;stroke-miterlimit:4;stroke-dasharray:none;stroke-opacity:1"
         id="rect4653"
         width="173.01862"
         height="119.07633"
         x="395.56076"
         y="-437.25165"
         ry="30.170546"
         transform="matrix(0,1,-1,0,0,0)"
         inkscape:path-effect="#path-effect4215" />
    </g>
    <g
       id="g2537"
       inkscape:label="Ebene 1"
       transform="translate(36.865948,39.273359)">
      <flowRoot
         transform="matrix(0.3357359,0,0,0.3357359,341.56403,429.79393)"
         style="font-size:40px;font-style:normal;font-weight:normal;fill:#000000;fill-opacity:1;stroke:none;stroke-width:1px;stroke-linecap:butt;stroke-linejoin:miter;stroke-opacity:1;font-family:Bitstream Vera Sans"
         id="flowRoot2539"
         xml:space="preserve"><flowRegion
           id="flowRegion2541"><rect
             y="689.50507"
             x="338.57144"
             height="91.428574"
             width="290"
             id="rect2543" /></flowRegion><flowPara
           id="flowPara2545">by enigmatic</flowPara></flowRoot>      <flowRoot
         transform="matrix(0.3357359,0,0,0.3357359,341.03393,447.30925)"
         style="font-size:23.82825279px;font-style:normal;font-weight:normal;fill:#000000;fill-opacity:1;stroke:none;stroke-width:1px;stroke-linecap:butt;stroke-linejoin:miter;stroke-opacity:1;font-family:Bitstream Vera Sans"
         id="flowRoot2547"
         xml:space="preserve"><flowRegion
           id="flowRegion2549"><rect
             style="font-size:23.82825279px"
             y="689.50507"
             x="338.57144"
             height="193.72675"
             width="742.82013"
             id="rect2551" /></flowRegion><flowPara
           id="flowPara38883">released under</flowPara><flowPara
           id="flowPara2451">creative commons</flowPara><flowPara
           id="flowPara2555">cc by v3.0</flowPara></flowRoot>      <g
         transform="matrix(0.6885364,0,0,0.6885364,455.68287,628.81639)"
         inkscape:label="Layer 1"
         id="g38986">
        <g
           transform="matrix(0.9937728,0,0,0.9936696,-177.69267,6.25128e-7)"
           id="g260"
           inkscape:export-filename="/mnt/hgfs/Bov/Documents/Work/2007/cc/identity/srr buttons/big/by.png"
           inkscape:export-xdpi="300.23013"
           inkscape:export-ydpi="300.23013">
          <path
             id="path3817_1_"
             nodetypes="ccccccc"
             d="M 181.96579,0.51074 L 296.02975,0.71338 C 297.6235,0.71338 299.04733,0.47705 299.04733,3.89404 L 298.90768,41.46093 L 179.08737,41.46093 L 179.08737,3.75439 C 179.08737,2.06934 179.25046,0.51074 181.96579,0.51074 z"
             style="fill:#aab2ab" />
          <path
             d="M 297.29636,0 L 181.06736,0 C 179.82078,0 178.80613,1.01416 178.80613,2.26074 L 178.80613,41.75732 C 178.80613,42.03906 179.03513,42.26757 179.31687,42.26757 L 299.04734,42.26757 C 299.32908,42.26757 299.55808,42.03905 299.55808,41.75732 L 299.55808,2.26074 C 299.55807,1.01416 298.54343,0 297.29636,0 z M 181.06735,1.02148 L 297.29635,1.02148 C 297.98043,1.02148 298.53658,1.57714 298.53658,2.26074 C 298.53658,2.26074 298.53658,18.20898 298.53658,29.71045 L 215.19234,29.71045 C 212.14742,35.21631 206.28121,38.95459 199.54879,38.95459 C 192.81344,38.95459 186.94869,35.21973 183.90524,29.71045 L 179.8276,29.71045 C 179.8276,18.20899 179.8276,2.26074 179.8276,2.26074 C 179.82761,1.57715 180.38376,1.02148 181.06735,1.02148 z"
             id="path263" />
          <g
             enable-background="new    "
             id="g265">
            <path
               d="M 253.07761,32.95605 C 253.39499,32.95605 253.68503,32.98437 253.94773,33.04003 C 254.20945,33.09569 254.43308,33.18749 254.62058,33.31542 C 254.8071,33.44237 254.95261,33.6123 255.05515,33.82323 C 255.15769,34.03514 255.20945,34.29589 255.20945,34.60741 C 255.20945,34.94335 255.13328,35.22264 254.97996,35.44628 C 254.82762,35.67089 254.60105,35.85351 254.30223,35.99706 C 254.71434,36.11522 255.02196,36.32226 255.22508,36.61815 C 255.4282,36.91404 255.52977,37.27049 255.52977,37.68749 C 255.52977,38.02343 255.46434,38.31444 255.33348,38.56054 C 255.20262,38.80566 255.02586,39.00683 254.80516,39.1621 C 254.58348,39.31835 254.33055,39.43358 254.04735,39.5078 C 253.76317,39.583 253.47215,39.6201 253.17235,39.6201 L 249.936,39.6201 L 249.936,32.95604 L 253.07761,32.95604 L 253.07761,32.95605 z M 252.89011,35.65137 C 253.15183,35.65137 253.36667,35.58887 253.53562,35.46485 C 253.70359,35.34083 253.78757,35.13965 253.78757,34.86036 C 253.78757,34.70509 253.75925,34.57716 253.70359,34.47852 C 253.64695,34.37891 253.57273,34.30176 253.47898,34.24512 C 253.38523,34.18946 253.27781,34.15039 253.15671,34.12891 C 253.03561,34.10743 252.90866,34.09668 252.77878,34.09668 L 251.40476,34.09668 L 251.40476,35.65137 L 252.89011,35.65137 z M 252.97604,38.47949 C 253.11959,38.47949 253.25631,38.46582 253.38717,38.4375 C 253.51803,38.40918 253.63326,38.3623 253.73385,38.29785 C 253.83346,38.23242 253.91256,38.14355 253.97213,38.03125 C 254.0317,37.91992 254.061,37.77637 254.061,37.60254 C 254.061,37.26074 253.96432,37.0166 253.77096,36.87012 C 253.5776,36.72461 253.32174,36.65137 253.00436,36.65137 L 251.40475,36.65137 L 251.40475,38.47949 L 252.97604,38.47949 z"
               id="path267"
               style="fill:#ffffff" />
            <path
               d="M 255.78854,32.95605 L 257.43209,32.95605 L 258.99264,35.58789 L 260.54342,32.95605 L 262.17721,32.95605 L 259.70358,37.0625 L 259.70358,39.62012 L 258.23483,39.62012 L 258.23483,37.02539 L 255.78854,32.95605 z"
               id="path269"
               style="fill:#ffffff" />
          </g>
          <g
             id="g5908_1_"
             transform="matrix(0.872921,0,0,0.872921,50.12536,143.2144)">
            <path
               id="path5906_1_"
               cx="296.35416"
               ry="22.939548"
               cy="264.3577"
               type="arc"
               rx="22.939548"
               d="M 186.90065,-141.46002 C 186.90623,-132.77923 179.87279,-125.73852 171.19257,-125.73291 C 162.51235,-125.72736 155.47051,-132.76025 155.46547,-141.44098 C 155.46547,-141.44714 155.46547,-141.45331 155.46547,-141.46002 C 155.46043,-150.14081 162.49333,-157.18152 171.17355,-157.18658 C 179.8549,-157.19213 186.89561,-150.15924 186.90065,-141.47845 C 186.90065,-141.4729 186.90065,-141.46619 186.90065,-141.46002 z"
               style="fill:#ffffff" />
            <g
               id="g5706_1_"
               transform="translate(-289.6157,99.0653)">
              <path
                 id="path5708_1_"
                 d="M 473.57574,-253.32751 C 477.06115,-249.8421 478.80413,-245.5736 478.80413,-240.52532 C 478.80413,-235.47594 477.09136,-231.25329 473.66582,-227.85741 C 470.03051,-224.28081 465.734,-222.49309 460.77635,-222.49309 C 455.87858,-222.49309 451.65648,-224.26628 448.11122,-227.81261 C 444.56541,-231.35845 442.79277,-235.59563 442.79277,-240.52532 C 442.79277,-245.45391 444.56541,-249.7213 448.11122,-253.32751 C 451.56642,-256.81402 455.7885,-258.557 460.77635,-258.557 C 465.82465,-258.55701 470.09039,-256.81403 473.57574,-253.32751 z M 450.45776,-250.98267 C 447.51104,-248.00629 446.03823,-244.51978 446.03823,-240.52033 C 446.03823,-236.52198 447.49651,-233.06507 450.41247,-230.14966 C 453.32897,-227.23316 456.80096,-225.77545 460.82952,-225.77545 C 464.85808,-225.77545 468.35967,-227.24768 471.33605,-230.19385 C 474.16198,-232.9303 475.57549,-236.37091 475.57549,-240.52033 C 475.57549,-244.63837 474.13903,-248.13379 471.26781,-251.00501 C 468.39714,-253.87568 464.9179,-255.31159 460.82952,-255.31159 C 456.74112,-255.31158 453.28314,-253.86841 450.45776,-250.98267 z M 458.21225,-242.27948 C 457.76196,-243.26117 457.08795,-243.75232 456.18903,-243.75232 C 454.59986,-243.75232 453.80558,-242.68225 453.80558,-240.54321 C 453.80558,-238.40368 454.59986,-237.33471 456.18903,-237.33471 C 457.23841,-237.33471 457.98795,-237.85546 458.43769,-238.89922 L 460.64045,-237.72625 C 459.59052,-235.86077 458.01536,-234.92779 455.91496,-234.92779 C 454.29506,-234.92779 452.99733,-235.42449 452.0229,-236.4168 C 451.0468,-237.41021 450.56016,-238.77953 450.56016,-240.52532 C 450.56016,-242.24035 451.06245,-243.60186 452.06764,-244.61034 C 453.07283,-245.61888 454.32466,-246.12291 455.82545,-246.12291 C 458.04557,-246.12291 459.63526,-245.24803 460.59626,-243.50005 L 458.21225,-242.27948 z M 468.57562,-242.27948 C 468.12475,-243.26117 467.46417,-243.75232 466.5932,-243.75232 C 464.97217,-243.75232 464.16107,-242.68225 464.16107,-240.54321 C 464.16107,-238.40368 464.97217,-237.33471 466.5932,-237.33471 C 467.64429,-237.33471 468.38037,-237.85546 468.80048,-238.89922 L 471.05249,-237.72625 C 470.00421,-235.86077 468.43127,-234.92779 466.33478,-234.92779 C 464.7171,-234.92779 463.42218,-235.42449 462.44831,-236.4168 C 461.47614,-237.41021 460.98896,-238.77953 460.98896,-240.52532 C 460.98896,-242.24035 461.48341,-243.60186 462.47181,-244.61034 C 463.45966,-245.61888 464.71711,-246.12291 466.24531,-246.12291 C 468.4615,-246.12291 470.04896,-245.24803 471.0066,-243.50005 L 468.57562,-242.27948 z" />
            </g>
          </g>
          <g
             id="g275">
            <circle
               cx="255.55124"
               cy="15.31348"
               r="10.80664"
               id="circle277"
               sodipodi:cx="255.55124"
               sodipodi:cy="15.31348"
               sodipodi:rx="10.80664"
               sodipodi:ry="10.80664"
               style="fill:#ffffff" />
            <g
               id="g279">
              <path
                 d="M 258.67819,12.18701 C 258.67819,11.77051 258.3403,11.4331 257.92526,11.4331 L 253.15182,11.4331 C 252.73678,11.4331 252.39889,11.7705 252.39889,12.18701 L 252.39889,16.95996 L 253.72994,16.95996 L 253.72994,22.61182 L 257.34713,22.61182 L 257.34713,16.95996 L 258.67818,16.95996 L 258.67818,12.18701 L 258.67819,12.18701 z"
                 id="path281" />
              <circle
                 cx="255.53854"
                 cy="9.1723604"
                 r="1.63281"
                 id="circle283"
                 sodipodi:cx="255.53854"
                 sodipodi:cy="9.1723604"
                 sodipodi:rx="1.63281"
                 sodipodi:ry="1.63281" />
            </g>
            <path
               clip-rule="evenodd"
               d="M 255.5239,3.40723 C 252.29148,3.40723 249.55515,4.53516 247.31589,6.79102 C 245.01804,9.12452 243.8696,11.88672 243.8696,15.07569 C 243.8696,18.26466 245.01804,21.00733 247.31589,23.30225 C 249.61374,25.59668 252.35007,26.74414 255.5239,26.74414 C 258.73679,26.74414 261.52195,25.58789 263.87742,23.27295 C 266.09715,21.07568 267.2075,18.34326 267.2075,15.07568 C 267.2075,11.8081 266.07762,9.04687 263.8198,6.79101 C 261.56003,4.53516 258.79538,3.40723 255.5239,3.40723 z M 255.55319,5.50684 C 258.20163,5.50684 260.45065,6.44092 262.30026,8.30811 C 264.1694,10.15528 265.10397,12.41114 265.10397,15.07569 C 265.10397,17.75928 264.18893,19.98633 262.35885,21.75587 C 260.43014,23.66212 258.16256,24.61476 255.55319,24.61476 C 252.94284,24.61476 250.69381,23.67189 248.80612,21.78517 C 246.91647,19.89845 245.97311,17.66212 245.97311,15.0757 C 245.97311,12.48879 246.92721,10.23341 248.83541,8.30812 C 250.6655,6.44092 252.90475,5.50684 255.55319,5.50684 z"
               id="path285"
               style="fill-rule:evenodd" />
          </g>
        </g>
      </g>
    </g>
  </g>
</svg>
