<?xml version="1.0" encoding="UTF-8" standalone="no"?>
<!-- Created with Inkscape (http://www.inkscape.org/) -->

<svg
   xmlns:dc="http://purl.org/dc/elements/1.1/"
   xmlns:cc="http://creativecommons.org/ns#"
   xmlns:rdf="http://www.w3.org/1999/02/22-rdf-syntax-ns#"
   xmlns:svg="http://www.w3.org/2000/svg"
   xmlns="http://www.w3.org/2000/svg"
   xmlns:sodipodi="http://sodipodi.sourceforge.net/DTD/sodipodi-0.dtd"
   xmlns:inkscape="http://www.inkscape.org/namespaces/inkscape"
   width="210mm"
   height="297mm"
   id="svg14732"
   sodipodi:version="0.32"
   inkscape:version="0.47 r22583"
   sodipodi:docname="proteron_logo_1_1.svg"
   inkscape:output_extension="org.inkscape.output.svg.inkscape"
   inkscape:export-filename="/home/brutkasten/Dokumente/naev/logos/proteron_logo_1_1.png"
   inkscape:export-xdpi="99.499664"
   inkscape:export-ydpi="99.499664"
   version="1.1">
  <defs
     id="defs14734">
    <linearGradient
       id="linearGradient4053">
      <stop
         style="stop-color:#57174a;stop-opacity:1;"
         offset="0"
         id="stop4055" />
      <stop
         style="stop-color:#000000;stop-opacity:0;"
         offset="1"
         id="stop4057" />
    </linearGradient>
    <filter
       y="-0.5"
       x="-0.5"
       width="2.0"
       height="2.0"
       id="filter">
      <feGaussianBlur
         id="feGaussianBlur7629"
         stdDeviation="5.0" />
    </filter>
    <clipPath
       id="clipPath">
      <path
         sodipodi:nodetypes="cccccccc"
         id="path7160"
         d="M 545.81179,784.32351 C 529.28629,781.50931 493.76062,794.79791 496.73455,766.13421 C 497.9559,743.65209 498.58593,721.44115 496.83226,698.8714 C 510.01777,695.52571 575.91109,699.63918 577.84372,700.24117 C 578.45423,700.15844 553.62298,728.64439 553.19375,727.95841 C 537.94937,723.48205 529.04436,729.88961 528.17218,729.43783 C 528.83886,742.45976 527.14814,770.60171 526.39118,770.13341 C 526.96784,769.89631 546.78726,784.25281 545.81179,784.32351 z"
         style="fill:#440055;fill-rule:evenodd;stroke:none;stroke-width:0.60021650999999998px;stroke-linecap:butt;stroke-linejoin:miter;stroke-opacity:1" />
    </clipPath>
    <filter
       inkscape:collect="always"
       id="filter14680"
       x="-0.29650929"
       width="1.5930186"
       y="-0.20158211"
       height="1.4031642">
      <feGaussianBlur
         inkscape:collect="always"
         stdDeviation="14.682033"
         id="feGaussianBlur14682" />
    </filter>
    <inkscape:path-effect
       prop_scale="1"
       id="path-effect4215"
       effect="skeletal" />
    <filter
       inkscape:collect="always"
       id="filter14575"
       x="-0.1455207"
       width="1.2910414"
       y="-0.11971244"
       height="1.2394249">
      <feGaussianBlur
         inkscape:collect="always"
         stdDeviation="7.0882876"
         id="feGaussianBlur14577" />
    </filter>
    <inkscape:perspective
       sodipodi:type="inkscape:persp3d"
       inkscape:vp_x="0 : 526.18109 : 1"
       inkscape:vp_y="0 : 1000 : 0"
       inkscape:vp_z="744.09448 : 526.18109 : 1"
       inkscape:persp3d-origin="372.04724 : 350.78739 : 1"
       id="perspective14740" />
    <inkscape:perspective
       id="perspective15336"
       inkscape:persp3d-origin="372.04724 : 350.78739 : 1"
       inkscape:vp_z="744.09448 : 526.18109 : 1"
       inkscape:vp_y="0 : 1000 : 0"
       inkscape:vp_x="0 : 526.18109 : 1"
       sodipodi:type="inkscape:persp3d" />
    <inkscape:perspective
       id="perspective15357"
       inkscape:persp3d-origin="372.04724 : 350.78739 : 1"
       inkscape:vp_z="744.09448 : 526.18109 : 1"
       inkscape:vp_y="0 : 1000 : 0"
       inkscape:vp_x="0 : 526.18109 : 1"
       sodipodi:type="inkscape:persp3d" />
    <inkscape:perspective
       sodipodi:type="inkscape:persp3d"
       inkscape:vp_x="0 : 21 : 1"
       inkscape:vp_y="0 : 1000 : 0"
       inkscape:vp_z="120 : 21 : 1"
       inkscape:persp3d-origin="60 : 14 : 1"
       id="perspective38983" />
    <inkscape:perspective
       id="perspective22068"
       inkscape:persp3d-origin="372.04724 : 350.78739 : 1"
       inkscape:vp_z="744.09448 : 526.18109 : 1"
       inkscape:vp_y="0 : 1000 : 0"
       inkscape:vp_x="0 : 526.18109 : 1"
       sodipodi:type="inkscape:persp3d" />
    <filter
       inkscape:collect="always"
       id="filter3661"
       x="-0.1018409"
       width="1.2036818"
       y="-0.04656131"
       height="1.0931226">
      <feGaussianBlur
         inkscape:collect="always"
         stdDeviation="1.4049313"
         id="feGaussianBlur3663" />
    </filter>
    <filter
       inkscape:collect="always"
       id="filter3717"
       x="-0.17946054"
       width="1.3589211"
       y="-0.10104564"
       height="1.2020913">
      <feGaussianBlur
         inkscape:collect="always"
         stdDeviation="7.4508142"
         id="feGaussianBlur3719" />
    </filter>
    <filter
       inkscape:collect="always"
       id="filter3723"
       x="-0.17837751"
       width="1.356755"
       y="-0.090411181"
       height="1.1808224">
      <feGaussianBlur
         inkscape:collect="always"
         stdDeviation="5.8398028"
         id="feGaussianBlur3725" />
    </filter>
    <filter
       inkscape:collect="always"
       id="filter4101"
       x="-0.16263426"
       width="1.3252685"
       y="-0.037231497"
       height="1.074463">
      <feGaussianBlur
         inkscape:collect="always"
         stdDeviation="2.4736227"
         id="feGaussianBlur4103" />
    </filter>
    <filter
       inkscape:collect="always"
       id="filter4268"
       x="-0.43783267"
       width="1.8756653"
       y="-0.047929056"
       height="1.0958581">
      <feGaussianBlur
         inkscape:collect="always"
         stdDeviation="2.7833752"
         id="feGaussianBlur4270" />
    </filter>
  </defs>
  <sodipodi:namedview
     id="base"
     pagecolor="#ffffff"
     bordercolor="#666666"
     borderopacity="1.0"
     inkscape:pageopacity="0.0"
     inkscape:pageshadow="2"
     inkscape:zoom="0.70710678"
     inkscape:cx="324.66963"
     inkscape:cy="607.28207"
     inkscape:document-units="px"
     inkscape:current-layer="layer1"
     showgrid="false"
     inkscape:window-width="1910"
     inkscape:window-height="999"
     inkscape:window-x="0"
     inkscape:window-y="25"
     inkscape:window-maximized="0" />
  <metadata
     id="metadata14737">
    <rdf:RDF>
      <cc:Work
         rdf:about="">
        <dc:format>image/svg+xml</dc:format>
        <dc:type
           rdf:resource="http://purl.org/dc/dcmitype/StillImage" />
        <dc:title></dc:title>
      </cc:Work>
    </rdf:RDF>
  </metadata>
  <g
     inkscape:label="Ebene 1"
     inkscape:groupmode="layer"
     id="layer1">
    <rect
       style="fill:#b3b3b3;fill-opacity:1;stroke:#999999;stroke-width:1.40127528;stroke-linecap:round;stroke-miterlimit:4;stroke-opacity:1;stroke-dasharray:none"
       id="rect2795"
       width="450.86157"
       height="425.42642"
       x="143.94299"
       y="332.07687"
       rx="26.711603"
       ry="4.5351133" />
    <g
       id="g2537"
       inkscape:label="Ebene 1"
       transform="translate(36.865948,39.273359)">
      <flowRoot
         transform="matrix(0.3357359,0,0,0.3357359,341.56403,429.79393)"
         style="font-size:40px;font-style:normal;font-weight:normal;fill:#000000;fill-opacity:1;stroke:none;stroke-width:1px;stroke-linecap:butt;stroke-linejoin:miter;stroke-opacity:1;font-family:Bitstream Vera Sans"
         id="flowRoot2539"
         xml:space="preserve"><flowRegion
           id="flowRegion2541"><rect
             y="689.50507"
             x="338.57144"
             height="91.428574"
             width="290"
             id="rect2543" /></flowRegion><flowPara
           id="flowPara2545">by enigmatic</flowPara></flowRoot>      <flowRoot
         transform="matrix(0.3357359,0,0,0.3357359,341.03393,447.30925)"
         style="font-size:23.82825279px;font-style:normal;font-weight:normal;fill:#000000;fill-opacity:1;stroke:none;stroke-width:1px;stroke-linecap:butt;stroke-linejoin:miter;stroke-opacity:1;font-family:Bitstream Vera Sans"
         id="flowRoot2547"
         xml:space="preserve"><flowRegion
           id="flowRegion2549"><rect
             style="font-size:23.82825279px"
             y="689.50507"
             x="338.57144"
             height="193.72675"
             width="742.82013"
             id="rect2551" /></flowRegion><flowPara
           id="flowPara38883">released under</flowPara><flowPara
           id="flowPara2451">creative commons</flowPara><flowPara
           id="flowPara2555">cc by v3.0</flowPara></flowRoot>      <g
         transform="matrix(0.6885364,0,0,0.6885364,455.68287,628.81639)"
         inkscape:label="Layer 1"
         id="g38986">
        <g
           transform="matrix(0.9937728,0,0,0.9936696,-177.69267,6.25128e-7)"
           id="g260"
           inkscape:export-filename="/mnt/hgfs/Bov/Documents/Work/2007/cc/identity/srr buttons/big/by.png"
           inkscape:export-xdpi="300.23013"
           inkscape:export-ydpi="300.23013">
          <path
             id="path3817_1_"
             nodetypes="ccccccc"
             d="M 181.96579,0.51074 L 296.02975,0.71338 C 297.6235,0.71338 299.04733,0.47705 299.04733,3.89404 L 298.90768,41.46093 L 179.08737,41.46093 L 179.08737,3.75439 C 179.08737,2.06934 179.25046,0.51074 181.96579,0.51074 z"
             style="fill:#aab2ab" />
          <path
             d="M 297.29636,0 L 181.06736,0 C 179.82078,0 178.80613,1.01416 178.80613,2.26074 L 178.80613,41.75732 C 178.80613,42.03906 179.03513,42.26757 179.31687,42.26757 L 299.04734,42.26757 C 299.32908,42.26757 299.55808,42.03905 299.55808,41.75732 L 299.55808,2.26074 C 299.55807,1.01416 298.54343,0 297.29636,0 z M 181.06735,1.02148 L 297.29635,1.02148 C 297.98043,1.02148 298.53658,1.57714 298.53658,2.26074 C 298.53658,2.26074 298.53658,18.20898 298.53658,29.71045 L 215.19234,29.71045 C 212.14742,35.21631 206.28121,38.95459 199.54879,38.95459 C 192.81344,38.95459 186.94869,35.21973 183.90524,29.71045 L 179.8276,29.71045 C 179.8276,18.20899 179.8276,2.26074 179.8276,2.26074 C 179.82761,1.57715 180.38376,1.02148 181.06735,1.02148 z"
             id="path263" />
          <g
             enable-background="new    "
             id="g265">
            <path
               d="M 253.07761,32.95605 C 253.39499,32.95605 253.68503,32.98437 253.94773,33.04003 C 254.20945,33.09569 254.43308,33.18749 254.62058,33.31542 C 254.8071,33.44237 254.95261,33.6123 255.05515,33.82323 C 255.15769,34.03514 255.20945,34.29589 255.20945,34.60741 C 255.20945,34.94335 255.13328,35.22264 254.97996,35.44628 C 254.82762,35.67089 254.60105,35.85351 254.30223,35.99706 C 254.71434,36.11522 255.02196,36.32226 255.22508,36.61815 C 255.4282,36.91404 255.52977,37.27049 255.52977,37.68749 C 255.52977,38.02343 255.46434,38.31444 255.33348,38.56054 C 255.20262,38.80566 255.02586,39.00683 254.80516,39.1621 C 254.58348,39.31835 254.33055,39.43358 254.04735,39.5078 C 253.76317,39.583 253.47215,39.6201 253.17235,39.6201 L 249.936,39.6201 L 249.936,32.95604 L 253.07761,32.95604 L 253.07761,32.95605 z M 252.89011,35.65137 C 253.15183,35.65137 253.36667,35.58887 253.53562,35.46485 C 253.70359,35.34083 253.78757,35.13965 253.78757,34.86036 C 253.78757,34.70509 253.75925,34.57716 253.70359,34.47852 C 253.64695,34.37891 253.57273,34.30176 253.47898,34.24512 C 253.38523,34.18946 253.27781,34.15039 253.15671,34.12891 C 253.03561,34.10743 252.90866,34.09668 252.77878,34.09668 L 251.40476,34.09668 L 251.40476,35.65137 L 252.89011,35.65137 z M 252.97604,38.47949 C 253.11959,38.47949 253.25631,38.46582 253.38717,38.4375 C 253.51803,38.40918 253.63326,38.3623 253.73385,38.29785 C 253.83346,38.23242 253.91256,38.14355 253.97213,38.03125 C 254.0317,37.91992 254.061,37.77637 254.061,37.60254 C 254.061,37.26074 253.96432,37.0166 253.77096,36.87012 C 253.5776,36.72461 253.32174,36.65137 253.00436,36.65137 L 251.40475,36.65137 L 251.40475,38.47949 L 252.97604,38.47949 z"
               id="path267"
               style="fill:#ffffff" />
            <path
               d="M 255.78854,32.95605 L 257.43209,32.95605 L 258.99264,35.58789 L 260.54342,32.95605 L 262.17721,32.95605 L 259.70358,37.0625 L 259.70358,39.62012 L 258.23483,39.62012 L 258.23483,37.02539 L 255.78854,32.95605 z"
               id="path269"
               style="fill:#ffffff" />
          </g>
          <g
             id="g5908_1_"
             transform="matrix(0.872921,0,0,0.872921,50.12536,143.2144)">
            <path
               id="path5906_1_"
               cx="296.35416"
               ry="22.939548"
               cy="264.3577"
               type="arc"
               rx="22.939548"
               d="M 186.90065,-141.46002 C 186.90623,-132.77923 179.87279,-125.73852 171.19257,-125.73291 C 162.51235,-125.72736 155.47051,-132.76025 155.46547,-141.44098 C 155.46547,-141.44714 155.46547,-141.45331 155.46547,-141.46002 C 155.46043,-150.14081 162.49333,-157.18152 171.17355,-157.18658 C 179.8549,-157.19213 186.89561,-150.15924 186.90065,-141.47845 C 186.90065,-141.4729 186.90065,-141.46619 186.90065,-141.46002 z"
               style="fill:#ffffff" />
            <g
               id="g5706_1_"
               transform="translate(-289.6157,99.0653)">
              <path
                 id="path5708_1_"
                 d="M 473.57574,-253.32751 C 477.06115,-249.8421 478.80413,-245.5736 478.80413,-240.52532 C 478.80413,-235.47594 477.09136,-231.25329 473.66582,-227.85741 C 470.03051,-224.28081 465.734,-222.49309 460.77635,-222.49309 C 455.87858,-222.49309 451.65648,-224.26628 448.11122,-227.81261 C 444.56541,-231.35845 442.79277,-235.59563 442.79277,-240.52532 C 442.79277,-245.45391 444.56541,-249.7213 448.11122,-253.32751 C 451.56642,-256.81402 455.7885,-258.557 460.77635,-258.557 C 465.82465,-258.55701 470.09039,-256.81403 473.57574,-253.32751 z M 450.45776,-250.98267 C 447.51104,-248.00629 446.03823,-244.51978 446.03823,-240.52033 C 446.03823,-236.52198 447.49651,-233.06507 450.41247,-230.14966 C 453.32897,-227.23316 456.80096,-225.77545 460.82952,-225.77545 C 464.85808,-225.77545 468.35967,-227.24768 471.33605,-230.19385 C 474.16198,-232.9303 475.57549,-236.37091 475.57549,-240.52033 C 475.57549,-244.63837 474.13903,-248.13379 471.26781,-251.00501 C 468.39714,-253.87568 464.9179,-255.31159 460.82952,-255.31159 C 456.74112,-255.31158 453.28314,-253.86841 450.45776,-250.98267 z M 458.21225,-242.27948 C 457.76196,-243.26117 457.08795,-243.75232 456.18903,-243.75232 C 454.59986,-243.75232 453.80558,-242.68225 453.80558,-240.54321 C 453.80558,-238.40368 454.59986,-237.33471 456.18903,-237.33471 C 457.23841,-237.33471 457.98795,-237.85546 458.43769,-238.89922 L 460.64045,-237.72625 C 459.59052,-235.86077 458.01536,-234.92779 455.91496,-234.92779 C 454.29506,-234.92779 452.99733,-235.42449 452.0229,-236.4168 C 451.0468,-237.41021 450.56016,-238.77953 450.56016,-240.52532 C 450.56016,-242.24035 451.06245,-243.60186 452.06764,-244.61034 C 453.07283,-245.61888 454.32466,-246.12291 455.82545,-246.12291 C 458.04557,-246.12291 459.63526,-245.24803 460.59626,-243.50005 L 458.21225,-242.27948 z M 468.57562,-242.27948 C 468.12475,-243.26117 467.46417,-243.75232 466.5932,-243.75232 C 464.97217,-243.75232 464.16107,-242.68225 464.16107,-240.54321 C 464.16107,-238.40368 464.97217,-237.33471 466.5932,-237.33471 C 467.64429,-237.33471 468.38037,-237.85546 468.80048,-238.89922 L 471.05249,-237.72625 C 470.00421,-235.86077 468.43127,-234.92779 466.33478,-234.92779 C 464.7171,-234.92779 463.42218,-235.42449 462.44831,-236.4168 C 461.47614,-237.41021 460.98896,-238.77953 460.98896,-240.52532 C 460.98896,-242.24035 461.48341,-243.60186 462.47181,-244.61034 C 463.45966,-245.61888 464.71711,-246.12291 466.24531,-246.12291 C 468.4615,-246.12291 470.04896,-245.24803 471.0066,-243.50005 L 468.57562,-242.27948 z" />
            </g>
          </g>
          <g
             id="g275">
            <circle
               cx="255.55124"
               cy="15.31348"
               r="10.80664"
               id="circle277"
               sodipodi:cx="255.55124"
               sodipodi:cy="15.31348"
               sodipodi:rx="10.80664"
               sodipodi:ry="10.80664"
               style="fill:#ffffff"
               d="m 266.35788,15.31348 c 0,5.968343 -4.8383,10.80664 -10.80664,10.80664 -5.96834,0 -10.80664,-4.838297 -10.80664,-10.80664 0,-5.9683419 4.8383,-10.8066393 10.80664,-10.8066393 5.96834,0 10.80664,4.8382974 10.80664,10.8066393 z" />
            <g
               id="g279">
              <path
                 d="M 258.67819,12.18701 C 258.67819,11.77051 258.3403,11.4331 257.92526,11.4331 L 253.15182,11.4331 C 252.73678,11.4331 252.39889,11.7705 252.39889,12.18701 L 252.39889,16.95996 L 253.72994,16.95996 L 253.72994,22.61182 L 257.34713,22.61182 L 257.34713,16.95996 L 258.67818,16.95996 L 258.67818,12.18701 L 258.67819,12.18701 z"
                 id="path281" />
              <circle
                 cx="255.53854"
                 cy="9.1723604"
                 r="1.63281"
                 id="circle283"
                 sodipodi:cx="255.53854"
                 sodipodi:cy="9.1723604"
                 sodipodi:rx="1.63281"
                 sodipodi:ry="1.63281"
                 d="m 257.17135,9.1723604 c 0,0.9017756 -0.73103,1.6328096 -1.63281,1.6328096 -0.90177,0 -1.63281,-0.731034 -1.63281,-1.6328096 0,-0.901776 0.73104,-1.63281 1.63281,-1.63281 0.90178,0 1.63281,0.731034 1.63281,1.63281 z" />
            </g>
            <path
               clip-rule="evenodd"
               d="M 255.5239,3.40723 C 252.29148,3.40723 249.55515,4.53516 247.31589,6.79102 C 245.01804,9.12452 243.8696,11.88672 243.8696,15.07569 C 243.8696,18.26466 245.01804,21.00733 247.31589,23.30225 C 249.61374,25.59668 252.35007,26.74414 255.5239,26.74414 C 258.73679,26.74414 261.52195,25.58789 263.87742,23.27295 C 266.09715,21.07568 267.2075,18.34326 267.2075,15.07568 C 267.2075,11.8081 266.07762,9.04687 263.8198,6.79101 C 261.56003,4.53516 258.79538,3.40723 255.5239,3.40723 z M 255.55319,5.50684 C 258.20163,5.50684 260.45065,6.44092 262.30026,8.30811 C 264.1694,10.15528 265.10397,12.41114 265.10397,15.07569 C 265.10397,17.75928 264.18893,19.98633 262.35885,21.75587 C 260.43014,23.66212 258.16256,24.61476 255.55319,24.61476 C 252.94284,24.61476 250.69381,23.67189 248.80612,21.78517 C 246.91647,19.89845 245.97311,17.66212 245.97311,15.0757 C 245.97311,12.48879 246.92721,10.23341 248.83541,8.30812 C 250.6655,6.44092 252.90475,5.50684 255.55319,5.50684 z"
               id="path285"
               style="fill-rule:evenodd" />
          </g>
        </g>
      </g>
    </g>
    <g
       id="g3706"
       transform="translate(9.8679691,7.0832612)"
       inkscape:export-xdpi="749.17938"
       inkscape:export-ydpi="749.17938">
      <g
         transform="translate(176.66944,-249.19531)"
         id="g2661">
        <rect
           inkscape:path-effect="#path-effect4215"
           transform="matrix(0,1,-1,0,0,0)"
           ry="15.659982"
           y="-142.01997"
           x="656.89227"
           height="61.806412"
           width="94.944572"
           id="rect2663"
           style="fill:#ffcc00;fill-opacity:1;stroke:none;stroke-width:3.19000006;stroke-miterlimit:4;stroke-dasharray:none;stroke-opacity:1"
           inkscape:export-filename="/home/brutkasten/Dokumente/naev/rect4653.png"
           inkscape:export-xdpi="90"
           inkscape:export-ydpi="90" />
        <rect
           inkscape:path-effect="#path-effect4215"
           transform="matrix(0,1,-1,0,0,0)"
           ry="15.659982"
           y="-142.13533"
           x="656.26007"
           height="61.806412"
           width="94.944572"
           id="rect2665"
           style="fill:none;fill-opacity:1;stroke:#000000;stroke-width:3.19000006;stroke-miterlimit:4;stroke-dasharray:none;stroke-opacity:1"
           inkscape:export-filename="/home/brutkasten/Dokumente/naev/rect4653.png"
           inkscape:export-xdpi="90"
           inkscape:export-ydpi="90" />
      </g>
      <g
         transform="translate(97.508119,-152.89355)"
         id="g2667">
        <rect
           inkscape:path-effect="#path-effect4215"
           transform="matrix(0,1,-1,0,0,0)"
           ry="15.659982"
           y="-142.01997"
           x="656.89227"
           height="61.806412"
           width="94.944572"
           id="rect2669"
           style="fill:#ffcc00;fill-opacity:1;stroke:none;stroke-width:3.19000006;stroke-miterlimit:4;stroke-dasharray:none;stroke-opacity:1"
           inkscape:export-filename="/home/brutkasten/Dokumente/naev/rect4653.png"
           inkscape:export-xdpi="90"
           inkscape:export-ydpi="90" />
        <rect
           inkscape:path-effect="#path-effect4215"
           transform="matrix(0,1,-1,0,0,0)"
           ry="15.659982"
           y="-142.13533"
           x="656.26007"
           height="61.806412"
           width="94.944572"
           id="rect2671"
           style="fill:none;fill-opacity:1;stroke:#000000;stroke-width:3.19000006;stroke-miterlimit:4;stroke-dasharray:none;stroke-opacity:1"
           inkscape:export-filename="/home/brutkasten/Dokumente/naev/rect4653.png"
           inkscape:export-xdpi="90"
           inkscape:export-ydpi="90" />
      </g>
      <rect
         inkscape:export-ydpi="90"
         inkscape:export-xdpi="90"
         inkscape:export-filename="/home/brutkasten/Dokumente/naev/rect4653.png"
         style="fill:#220b28;fill-opacity:1;stroke:none;stroke-width:3.19000006;stroke-miterlimit:4;stroke-dasharray:none;stroke-opacity:1"
         id="rect2673"
         width="94.944572"
         height="61.806412"
         x="499.41058"
         y="-243.96301"
         ry="15.659982"
         transform="matrix(0,1,-1,0,0,0)"
         inkscape:path-effect="#path-effect4215" />
      <rect
         inkscape:export-ydpi="90"
         inkscape:export-xdpi="90"
         inkscape:export-filename="/home/brutkasten/Dokumente/naev/rect4653.png"
         style="fill:#280b22;fill-opacity:1;stroke:none;stroke-width:3.19000006;stroke-miterlimit:4;stroke-dasharray:none;stroke-opacity:1"
         id="rect2675"
         width="94.944572"
         height="61.806412"
         x="412.20786"
         y="-311.88651"
         ry="15.659982"
         transform="matrix(0,1,-1,0,0,0)"
         inkscape:path-effect="#path-effect4215" />
      <rect
         inkscape:export-ydpi="90"
         inkscape:export-xdpi="90"
         inkscape:export-filename="/home/brutkasten/Dokumente/naev/rect4653.png"
         style="fill:none;fill-opacity:1;stroke:#000000;stroke-width:4;stroke-miterlimit:4;stroke-dasharray:none;stroke-opacity:1"
         id="rect2677"
         width="94.944572"
         height="61.806412"
         x="412.54642"
         y="-312.83542"
         ry="15.659982"
         transform="matrix(0,1,-1,0,0,0)"
         inkscape:path-effect="#path-effect4215" />
      <rect
         inkscape:export-ydpi="90"
         inkscape:export-xdpi="90"
         inkscape:export-filename="/home/brutkasten/Dokumente/naev/rect4653.png"
         style="fill:#8800aa;fill-opacity:1;stroke:none;stroke-width:3.02840233;stroke-miterlimit:4;stroke-dasharray:none;stroke-opacity:1"
         id="rect2679"
         width="174.80162"
         height="118.83904"
         x="414.74484"
         y="-310.49344"
         ry="30.11042"
         transform="matrix(0,1,-1,0,0,0)"
         inkscape:path-effect="#path-effect4215" />
      <rect
         inkscape:export-ydpi="90"
         inkscape:export-xdpi="90"
         style="fill:none;fill-opacity:1;stroke:#d42aff;stroke-width:13.97139072;stroke-miterlimit:4;stroke-dasharray:none;stroke-opacity:1;filter:url(#filter3717)"
         id="rect2681"
         width="149.99457"
         height="99.585793"
         x="552.17572"
         y="-261.42776"
         ry="24.892981"
         transform="matrix(0,0.9067632,-0.7545134,0,81.3083,-61.276651)"
         inkscape:path-effect="#path-effect4215" />
      <rect
         inkscape:export-ydpi="90"
         inkscape:export-xdpi="90"
         inkscape:export-filename="/home/brutkasten/Dokumente/naev/rect4653.png"
         style="fill:#660080;fill-opacity:1;stroke:none;stroke-width:3.02840233;stroke-miterlimit:4;stroke-dasharray:none;stroke-opacity:1;filter:url(#filter14680)"
         id="rect2683"
         width="174.80162"
         height="118.83904"
         x="705.35217"
         y="-591.7699"
         ry="30.11042"
         transform="matrix(0,0.869928,-0.5511994,0,-31.41729,-189.19247)"
         inkscape:path-effect="#path-effect4215" />
      <path
         transform="matrix(1.1943729,0,0,1,-188.27394,23.903453)"
         sodipodi:nodetypes="csccccc"
         id="path2685"
         d="M 347.29974,397.13032 C 348.77859,398.70817 349.56106,401.88719 350.32453,404.94106 C 351.18227,408.37202 354.11777,411.70487 351.86992,412.26683 C 318.65802,405.06538 335.46296,502.87329 332.95166,554.18366 C 325.51488,554.33024 321.55827,548.04238 320.87676,545.31637 C 322.82819,539.21026 311.07954,403.19417 328.30723,400.75252 C 335.43026,397.73387 339.11204,397.13032 347.29974,397.13032 z"
         style="fill:#e580ff;fill-rule:evenodd;stroke:none;stroke-width:1px;stroke-linecap:butt;stroke-linejoin:miter;stroke-opacity:1;filter:url(#filter4101)" />
      <rect
         inkscape:export-ydpi="90"
         inkscape:export-xdpi="90"
         style="fill:none;fill-opacity:1;stroke:#000000;stroke-width:6;stroke-miterlimit:4;stroke-dasharray:none;stroke-opacity:1"
         id="rect2687"
         width="173.01862"
         height="119.07633"
         x="415.92865"
         y="-307.98053"
         ry="30.170546"
         transform="matrix(0,1,-1,0,0,0)"
         inkscape:path-effect="#path-effect4215" />
      <path
         sodipodi:nodetypes="ccccccc"
         id="path2689"
         d="M 221.31625,426.77069 C 252.65889,419.3925 312.47727,416.73773 294.63777,472.41829 C 294.20229,507.37843 306.66845,540.54065 293.83187,568.42408 C 281.55384,585.33753 202.63315,589.45251 200.12048,569.38841 C 231.43898,579.47118 290.22175,571.75528 286.37415,537.52712 C 284.79851,509.42473 291.75052,458.86774 274.43205,439.54794 C 261.09808,438.35172 229.887,440.82935 221.31625,426.77069 z"
         style="fill:#aa00d4;fill-rule:evenodd;stroke:none;stroke-width:1px;stroke-linecap:butt;stroke-linejoin:miter;stroke-opacity:1;filter:url(#filter3723)" />
      <path
         sodipodi:nodetypes="cccccc"
         id="path2691"
         d="M 299.07734,442.16438 C 300.26747,475.58858 297.44363,518.15694 298.52111,551.5622 C 302.20229,564.87868 297.63029,576.43544 284.4919,583.35126 C 292.04752,571.19265 295.40284,554.28928 292.49358,537.10678 C 291.19454,506.25447 295.9792,468.3091 295.29131,437.4488 C 298.42634,430.65057 295.59509,433.3384 299.07734,442.16438 z"
         style="fill:#e580ff;fill-rule:evenodd;stroke:none;stroke-width:1px;stroke-linecap:butt;stroke-linejoin:miter;stroke-opacity:1;filter:url(#filter4268)" />
      <g
         transform="translate(-412.61892,28.933911)"
         id="g2693">
        <path
           sodipodi:nodetypes="cccccccc"
           id="path2695"
           d="M 532.55186,1443.0709 C 508.9988,1438.3321 461.02479,1458.8395 465.62038,1412.4191 C 467.63879,1375.9974 468.80988,1340.0093 466.58303,1303.4136 C 485.44416,1298.1337 579.4459,1305.5103 582.19705,1306.5067 C 583.06945,1306.3791 553.34927,1343.4266 552.74502,1342.3105 C 531.04087,1334.8918 501.57466,1345.0538 500.3353,1344.3123 C 501.12749,1365.423 503.60081,1425.0608 502.52614,1424.294 C 503.35212,1423.9158 533.94505,1442.9668 532.55186,1443.0709 z"
           style="fill:#220b28;fill-opacity:1;fill-rule:evenodd;stroke:none;stroke-width:0.60021651px;stroke-linecap:butt;stroke-linejoin:miter;stroke-opacity:1;filter:url(#filter14575)"
           transform="matrix(5.5552461e-3,-0.3876179,0.3876179,5.5552461e-3,140.42886,716.76108)" />
        <path
           sodipodi:nodetypes="cccccccc"
           id="path2697"
           d="M 702.64324,518.81404 C 700.67561,527.91731 708.35817,546.62681 690.3903,544.58759 C 676.28383,543.60291 662.34073,542.94904 648.14326,543.60891 C 646.20141,536.26866 649.58286,499.87288 649.98441,498.81203 C 649.93978,498.47316 664.13491,510.19903 663.69897,510.42706 C 660.70279,518.79877 664.47802,530.27684 664.18372,530.75313 C 672.3711,530.56333 695.50148,529.93593 695.19819,530.34823 C 695.05623,530.02598 702.61067,518.27344 702.64324,518.81404 z"
           style="fill:#17071b;fill-opacity:1;fill-rule:evenodd;stroke:none;stroke-width:0.60021651px;stroke-linecap:butt;stroke-linejoin:miter;stroke-opacity:1" />
        <path
           style="fill:#220b28;fill-rule:evenodd;stroke:none;stroke-width:0.40855595px;stroke-linecap:butt;stroke-linejoin:miter;stroke-opacity:1"
           d="M 672.94577,506.70795 C 667.82728,507.00324 667.63092,506.92 670.12407,503.16301 C 676.5268,493.71599 685.7214,486.60298 694.02315,478.8836 C 694.78913,470.68728 693.96157,462.45879 693.91036,454.24462 C 689.90601,455.86178 685.96399,460.75059 682.92857,464.25652 C 681.932,458.60245 681.26245,452.18814 684.78877,447.35537 C 689.91651,442.43565 695.4075,438.09363 701.48933,434.39634 C 702.11459,436.39899 700.97819,438.46459 700.75357,440.54561 C 700.49071,442.98151 699.96989,445.86336 700.10564,448.21656 C 698.23278,457.5919 702.05187,503.56943 700.01972,506.65689 C 692.17256,506.97048 681.27419,506.64057 672.94577,506.70795 z"
           id="path2699"
           sodipodi:nodetypes="cccccccsccc" />
        <path
           sodipodi:nodetypes="cccccccc"
           id="path2701"
           d="M 532.55186,1443.0709 C 508.9988,1438.3321 461.02479,1458.8395 465.62038,1412.4191 C 467.63879,1375.9974 468.80988,1340.0093 466.58303,1303.4136 C 485.44416,1298.1337 579.4459,1305.5103 582.19705,1306.5067 C 583.06945,1306.3791 553.34927,1343.4266 552.74502,1342.3105 C 531.04087,1334.8918 501.57466,1345.0538 500.3353,1344.3123 C 501.12749,1365.423 503.60081,1425.0608 502.52614,1424.294 C 503.35212,1423.9158 533.94505,1442.9668 532.55186,1443.0709 z"
           style="fill:#220b28;fill-opacity:1;fill-rule:evenodd;stroke:none;stroke-width:0.60021651px;stroke-linecap:butt;stroke-linejoin:miter;stroke-opacity:1;filter:url(#filter14575)"
           transform="matrix(-5.5552461e-3,0.3876179,0.3876179,5.5552461e-3,149.2259,217.70673)" />
        <path
           sodipodi:nodetypes="cccccccc"
           id="path2703"
           d="M 705.53666,431.68422 C 703.83072,422.5283 712.04629,404.04663 694.02736,405.57009 C 679.89847,406.15013 665.94236,406.40414 651.76963,405.33768 C 649.61822,412.61926 651.95528,449.097 652.32626,450.16892 C 652.27192,450.50637 666.79726,439.19211 666.36804,438.95169 C 663.613,430.49757 667.71562,419.1324 667.43509,418.64787 C 675.61368,419.07221 698.71657,420.36223 698.42522,419.94139 C 698.27407,420.25946 705.48861,432.22365 705.53666,431.68422 z"
           style="fill:#150619;fill-opacity:1;fill-rule:evenodd;stroke:none;stroke-width:0.60021651px;stroke-linecap:butt;stroke-linejoin:miter;stroke-opacity:1" />
        <path
           style="fill:#140617;fill-opacity:1;fill-rule:evenodd;stroke:none;stroke-width:0.40855595px;stroke-linecap:butt;stroke-linejoin:miter;stroke-opacity:1;filter:url(#filter3661)"
           d="M 673.54228,508.05068 C 668.42379,508.34597 668.22743,508.26273 670.72058,504.50574 C 677.12331,495.05872 686.31791,487.94571 694.61966,480.22633 C 695.38564,472.03001 694.55808,463.80152 694.50687,455.58735 C 690.50252,457.20451 686.5605,462.09332 683.52508,465.59925 C 682.52851,459.94518 681.85896,453.53087 685.38528,448.6981 C 690.51302,443.77838 696.00401,439.43636 702.08584,435.73907 C 702.7111,437.74172 701.5747,439.80732 701.35008,441.88834 C 701.08722,444.32424 700.5664,447.20609 700.70215,449.55929 C 698.82929,458.93463 702.64838,504.91216 700.61623,507.99962 C 692.76907,508.31321 681.8707,507.9833 673.54228,508.05068 z"
           id="path2705"
           sodipodi:nodetypes="cccccccsccc" />
      </g>
    </g>
    <flowRoot
       xml:space="preserve"
       id="flowRoot3852"
       style="font-size:12px;font-style:normal;font-weight:normal;fill:#000000;fill-opacity:1;stroke:none;stroke-width:1px;stroke-linecap:butt;stroke-linejoin:miter;stroke-opacity:1;font-family:Bitstream Vera Sans"
       transform="translate(45.911688,39.355339)"><flowRegion
         id="flowRegion3854"><rect
           id="rect3856"
           width="395"
           height="78"
           x="158"
           y="330.36218"
           style="font-size:12px" /></flowRegion><flowPara
         id="flowPara3858">near side of nebula</flowPara><flowPara
         id="flowPara3860">proteron forces</flowPara></flowRoot>    <flowRoot
       xml:space="preserve"
       id="flowRoot3862"
       style="font-size:12px;font-style:normal;font-weight:normal;fill:#000000;fill-opacity:1;stroke:none;stroke-width:1px;stroke-linecap:butt;stroke-linejoin:miter;stroke-opacity:1;font-family:Bitstream Vera Sans"
       transform="translate(247.10777,42.620834)"><flowRegion
         id="flowRegion3864"><rect
           id="rect3866"
           width="395"
           height="78"
           x="158"
           y="330.36218"
           style="font-size:12px" /></flowRegion><flowPara
         id="flowPara3870">far side imperial </flowPara><flowPara
         id="flowPara3874">proteron forces</flowPara><flowPara
         id="flowPara3876" /></flowRoot>    <g
       id="g3766"
       inkscape:export-xdpi="74.917946"
       inkscape:export-ydpi="74.917946">
      <g
         transform="translate(382.9269,-243.88556)"
         id="g4306">
        <rect
           inkscape:path-effect="#path-effect4215"
           transform="matrix(0,1,-1,0,0,0)"
           ry="15.659982"
           y="-142.01997"
           x="656.89227"
           height="61.806412"
           width="94.944572"
           id="rect4308"
           style="fill:#ffcc00;fill-opacity:1;stroke:none;stroke-width:3.19000006;stroke-miterlimit:4;stroke-dasharray:none;stroke-opacity:1"
           inkscape:export-filename="/home/brutkasten/Dokumente/naev/rect4653.png"
           inkscape:export-xdpi="90"
           inkscape:export-ydpi="90" />
        <rect
           inkscape:path-effect="#path-effect4215"
           transform="matrix(0,1,-1,0,0,0)"
           ry="15.659982"
           y="-142.13533"
           x="656.26007"
           height="61.806412"
           width="94.944572"
           id="rect4310"
           style="fill:none;fill-opacity:1;stroke:#000000;stroke-width:3.19000006;stroke-miterlimit:4;stroke-dasharray:none;stroke-opacity:1"
           inkscape:export-filename="/home/brutkasten/Dokumente/naev/rect4653.png"
           inkscape:export-xdpi="90"
           inkscape:export-ydpi="90" />
      </g>
      <g
         transform="translate(303.76558,-147.5838)"
         id="g4302">
        <rect
           inkscape:path-effect="#path-effect4215"
           transform="matrix(0,1,-1,0,0,0)"
           ry="15.659982"
           y="-142.01997"
           x="656.89227"
           height="61.806412"
           width="94.944572"
           id="rect4300"
           style="fill:#ffcc00;fill-opacity:1;stroke:none;stroke-width:3.19000006;stroke-miterlimit:4;stroke-dasharray:none;stroke-opacity:1"
           inkscape:export-filename="/home/brutkasten/Dokumente/naev/rect4653.png"
           inkscape:export-xdpi="90"
           inkscape:export-ydpi="90" />
        <rect
           inkscape:path-effect="#path-effect4215"
           transform="matrix(0,1,-1,0,0,0)"
           ry="15.659982"
           y="-142.13533"
           x="656.26007"
           height="61.806412"
           width="94.944572"
           id="rect6133"
           style="fill:none;fill-opacity:1;stroke:#000000;stroke-width:3.19000006;stroke-miterlimit:4;stroke-dasharray:none;stroke-opacity:1"
           inkscape:export-filename="/home/brutkasten/Dokumente/naev/rect4653.png"
           inkscape:export-xdpi="90"
           inkscape:export-ydpi="90" />
      </g>
      <rect
         inkscape:export-ydpi="90"
         inkscape:export-xdpi="90"
         inkscape:export-filename="/home/brutkasten/Dokumente/naev/rect4653.png"
         style="fill:#220b28;fill-opacity:1;stroke:none;stroke-width:3.19000006;stroke-miterlimit:4;stroke-dasharray:none;stroke-opacity:1"
         id="rect4473"
         width="94.944572"
         height="61.806412"
         x="504.72034"
         y="-450.22046"
         ry="15.659982"
         transform="matrix(0,1,-1,0,0,0)"
         inkscape:path-effect="#path-effect4215" />
      <rect
         inkscape:export-ydpi="90"
         inkscape:export-xdpi="90"
         inkscape:export-filename="/home/brutkasten/Dokumente/naev/rect4653.png"
         style="fill:#280b22;fill-opacity:1;stroke:none;stroke-width:3.19000006;stroke-miterlimit:4;stroke-dasharray:none;stroke-opacity:1"
         id="rect4471"
         width="94.944572"
         height="61.806412"
         x="417.51761"
         y="-518.14392"
         ry="15.659982"
         transform="matrix(0,1,-1,0,0,0)"
         inkscape:path-effect="#path-effect4215" />
      <rect
         inkscape:export-ydpi="90"
         inkscape:export-xdpi="90"
         inkscape:export-filename="/home/brutkasten/Dokumente/naev/rect4653.png"
         style="fill:none;fill-opacity:1;stroke:#000000;stroke-width:4;stroke-miterlimit:4;stroke-dasharray:none;stroke-opacity:1"
         id="rect5365"
         width="94.944572"
         height="61.806412"
         x="417.85617"
         y="-519.0929"
         ry="15.659982"
         transform="matrix(0,1,-1,0,0,0)"
         inkscape:path-effect="#path-effect4215" />
      <rect
         inkscape:export-ydpi="90"
         inkscape:export-xdpi="90"
         inkscape:export-filename="/home/brutkasten/Dokumente/naev/rect4653.png"
         style="fill:#8800aa;fill-opacity:1;stroke:none;stroke-width:3.02840233;stroke-miterlimit:4;stroke-dasharray:none;stroke-opacity:1"
         id="rect2518"
         width="174.80162"
         height="118.83904"
         x="420.0546"
         y="-516.75085"
         ry="30.11042"
         transform="matrix(0,1,-1,0,0,0)"
         inkscape:path-effect="#path-effect4215" />
      <rect
         inkscape:export-ydpi="90"
         inkscape:export-xdpi="90"
         inkscape:export-filename="/home/brutkasten/Dokumente/naev/rect4653.png"
         style="fill:#660080;fill-opacity:1;stroke:none;stroke-width:3.02840233;stroke-miterlimit:4;stroke-dasharray:none;stroke-opacity:1"
         id="rect3500"
         width="174.80162"
         height="118.83904"
         x="705.35217"
         y="-591.7699"
         ry="0"
         transform="matrix(0,0.8300017,-0.7084334,0,83.613048,-149.92344)"
         inkscape:path-effect="#path-effect4215" />
      <path
         sodipodi:nodetypes="ccccc"
         id="path3673"
         d="M 400.27715,439.03107 C 401.28584,439.09369 412.61283,439.0838 412.76708,439.04407 C 412.80216,439.16155 412.75405,577.66718 412.75926,577.69414 C 411.73722,577.71445 398.36797,577.83555 398.34318,577.60336 C 399.09074,546.85745 391.62094,439.39849 400.27715,439.03107 z"
         style="fill:#e580ff;fill-rule:evenodd;stroke:none;stroke-width:1px;stroke-linecap:butt;stroke-linejoin:miter;stroke-opacity:1" />
      <path
         sodipodi:nodetypes="cccc"
         id="path3485"
         d="M 413.85625,439.02329 C 414.15734,437.77205 413.01913,429.10968 412.9711,425.19013 C 411.97579,420.81991 391.48803,438.56867 398.45306,439.02354 C 399.0287,438.99509 413.54385,439.08257 413.85625,439.02329 z"
         style="fill:#670081;fill-opacity:1;fill-rule:evenodd;stroke:none;stroke-width:1px;stroke-linecap:butt;stroke-linejoin:miter;stroke-opacity:1" />
      <path
         sodipodi:nodetypes="cccc"
         id="path3488"
         d="M 412.83724,574.5093 C 412.8508,574.51805 414.02492,589.14576 412.64272,589.26562 C 410.12514,592.33233 387.60022,574.55198 399.11262,574.50861 C 401.4736,574.53003 412.53573,574.52964 412.83724,574.5093 z"
         style="fill:#440055;fill-opacity:1;fill-rule:evenodd;stroke:none;stroke-width:1px;stroke-linecap:butt;stroke-linejoin:miter;stroke-opacity:1" />
      <path
         sodipodi:nodetypes="cccc"
         id="path3492"
         d="M 496.79247,439.06094 C 501.96473,438.86087 503.32676,444.67673 508.52764,444.00185 C 518.27086,441.35703 497.20112,414.51575 496.70897,426.01771 C 496.70713,427.55906 496.73028,439.0421 496.79247,439.06094 z"
         style="fill:#440055;fill-opacity:1;fill-rule:evenodd;stroke:none;stroke-width:1px;stroke-linecap:butt;stroke-linejoin:miter;stroke-opacity:1" />
      <path
         sodipodi:nodetypes="ccccc"
         id="path3490"
         d="M 509.86884,439.09775 C 509.90164,439.07292 496.7948,439.03065 496.7758,439.08898 C 496.85044,439.09478 496.80695,577.72617 496.77326,577.80288 C 496.78501,577.81106 511.68964,577.72633 511.80718,577.78157 C 511.05963,547.03566 513.92036,439.26498 509.86884,439.09775 z"
         style="fill:#8800aa;fill-opacity:1;fill-rule:evenodd;stroke:none;stroke-width:1px;stroke-linecap:butt;stroke-linejoin:miter;stroke-opacity:1" />
      <path
         style="fill:#d42aff;fill-rule:evenodd;stroke:none;stroke-width:1px;stroke-linecap:butt;stroke-linejoin:miter;stroke-opacity:1;"
         d="M 510.72461,447.03894 C 511.91474,480.46314 511.91932,522.32439 510.16838,555.72965 C 513.84956,569.04613 507.50979,581.31 494.3714,588.22582 C 505.22889,579.9391 501.28878,486.70425 501.63528,442.67691 C 504.77031,435.87868 507.24236,438.21296 510.72461,447.03894 z"
         id="path3731"
         sodipodi:nodetypes="ccccc" />
      <path
         sodipodi:nodetypes="cccc"
         id="path3494"
         d="M 496.72924,574.53073 C 496.83264,574.55795 509.57399,574.49729 509.66545,574.44393 C 507.36509,580.8558 505.08405,590.39483 496.78555,589.02178 C 496.76211,589.20058 496.70492,574.5332 496.72924,574.53073 z"
         style="fill:#440055;fill-opacity:1;fill-rule:evenodd;stroke:none;stroke-width:1px;stroke-linecap:butt;stroke-linejoin:miter;stroke-opacity:1" />
      <path
         sodipodi:nodetypes="ccccc"
         id="path3496"
         d="M 496.60701,591.78479 C 496.79378,590.9146 496.70746,574.54435 496.71191,574.52418 C 496.70543,574.53494 414.62697,574.59089 412.8403,574.52104 C 413.04627,584.91942 411.99942,591.40912 413.62978,592.20203 C 431.97258,591.21726 496.83324,593.52551 496.60701,591.78479 z"
         style="fill:#8800aa;fill-opacity:1;fill-rule:evenodd;stroke:none;stroke-width:1px;stroke-linecap:butt;stroke-linejoin:miter;stroke-opacity:1" />
      <path
         style="fill:#dd55ff;fill-rule:evenodd;stroke:none;stroke-width:1px;stroke-linecap:butt;stroke-linejoin:miter;stroke-opacity:1;"
         d="M 359.95252,630.19043 C 360.51296,663.17615 383.45587,739.27359 351.86275,752.66548 C 352.64416,737.25913 352.12906,738.54533 352.3031,726.73412 C 352.29442,721.0599 354.73503,658.46666 354.04714,627.60636 C 357.18217,620.80813 356.47027,621.36445 359.95252,630.19043 z"
         id="path3733"
         sodipodi:nodetypes="ccccc"
         transform="matrix(3.3479272e-3,0.6748691,-0.6601505,7.5396983e-3,909.27484,342.94338)" />
      <path
         sodipodi:nodetypes="ccccc"
         id="path3498"
         d="M 412.80448,439.08153 C 412.80711,439.03209 412.74519,425.62714 412.80388,425.24395 C 413.67165,423.83109 492.55166,423.19685 496.65976,423.84129 C 496.73758,424.3182 496.76832,439.0695 496.75403,439.09791 C 496.77172,439.05571 412.89392,439.05448 412.80448,439.08153 z"
         style="fill:#ed9fff;fill-rule:evenodd;stroke:none;stroke-width:1px;stroke-linecap:butt;stroke-linejoin:miter;stroke-opacity:1;fill-opacity:1" />
      <rect
         inkscape:export-ydpi="90"
         inkscape:export-xdpi="90"
         style="fill:none;fill-opacity:1;stroke:#000000;stroke-width:6;stroke-miterlimit:4;stroke-dasharray:none;stroke-opacity:1"
         id="rect4653"
         width="173.01862"
         height="119.07633"
         x="421.2384"
         y="-514.23798"
         ry="30.170546"
         transform="matrix(0,1,-1,0,0,0)"
         inkscape:path-effect="#path-effect4215" />
      <path
         transform="matrix(-0.6871222,1.3132865e-2,-9.9893858e-3,-0.9507516,765.71631,1011.9372)"
         style="fill:#ba00e9;fill-rule:evenodd;stroke:none;stroke-width:1px;stroke-linecap:butt;stroke-linejoin:miter;stroke-opacity:1;fill-opacity:1"
         d="M 505.83434,468.15319 C 507.02447,501.57739 502.72313,574.99033 503.80061,608.39559 C 501.78699,606.80922 498.69102,608.42128 498.32583,609.00843 C 497.02679,578.15612 500.8654,499.10634 500.17751,468.24604 C 503.47787,467.77184 504.54275,467.91042 505.83434,468.15319 z"
         id="path3735"
         sodipodi:nodetypes="ccccc" />
      <path
         sodipodi:nodetypes="ccccc"
         id="path4004"
         d="M 505.33586,467.04886 C 506.52599,500.47306 502.4524,575.91626 503.52988,609.32152 C 502.7456,611.65674 498.03603,609.23388 498.05414,610.0002 C 496.7551,579.14789 500.33745,500.02872 499.64956,469.16842 C 502.78459,462.37019 501.65868,471.63109 505.33586,467.04886 z"
         style="fill:#b600e4;fill-rule:evenodd;stroke:none;stroke-width:1px;stroke-linecap:butt;stroke-linejoin:miter;stroke-opacity:1;fill-opacity:1"
         transform="matrix(-7.8293874e-3,-0.6871222,0.5668072,-9.9893858e-3,153.68535,792.16898)" />
      <g
         transform="matrix(0.9204803,0,0,0.9204803,-154.44602,72.326447)"
         id="g3692">
        <path
           sodipodi:nodetypes="cccccccc"
           id="path3694"
           d="M 532.55186,1443.0709 C 508.9988,1438.3321 461.02479,1458.8395 465.62038,1412.4191 C 467.63879,1375.9974 468.80988,1340.0093 466.58303,1303.4136 C 485.44416,1298.1337 579.4459,1305.5103 582.19705,1306.5067 C 583.06945,1306.3791 553.34927,1343.4266 552.74502,1342.3105 C 531.04087,1334.8918 501.57466,1345.0538 500.3353,1344.3123 C 501.12749,1365.423 503.60081,1425.0608 502.52614,1424.294 C 503.35212,1423.9158 533.94505,1442.9668 532.55186,1443.0709 z"
           style="fill:#220b28;fill-opacity:1;fill-rule:evenodd;stroke:none;stroke-width:0.60021651px;stroke-linecap:butt;stroke-linejoin:miter;stroke-opacity:1;filter:url(#filter14575)"
           transform="matrix(5.5552461e-3,-0.3876179,0.3876179,5.5552461e-3,140.42886,716.76108)" />
        <path
           sodipodi:nodetypes="cccccccc"
           id="path3696"
           d="M 702.64324,518.81404 C 700.67561,527.91731 708.35817,546.62681 690.3903,544.58759 C 676.28383,543.60291 662.34073,542.94904 648.14326,543.60891 C 646.20141,536.26866 649.58286,499.87288 649.98441,498.81203 C 649.93978,498.47316 664.13491,510.19903 663.69897,510.42706 C 660.70279,518.79877 664.47802,530.27684 664.18372,530.75313 C 672.3711,530.56333 695.50148,529.93593 695.19819,530.34823 C 695.05623,530.02598 702.61067,518.27344 702.64324,518.81404 z"
           style="fill:#17071b;fill-opacity:1;fill-rule:evenodd;stroke:none;stroke-width:0.60021651px;stroke-linecap:butt;stroke-linejoin:miter;stroke-opacity:1" />
        <path
           style="fill:#220b28;fill-rule:evenodd;stroke:none;stroke-width:0.40855595px;stroke-linecap:butt;stroke-linejoin:miter;stroke-opacity:1"
           d="M 672.94577,506.70795 C 667.82728,507.00324 667.63092,506.92 670.12407,503.16301 C 676.5268,493.71599 685.7214,486.60298 694.02315,478.8836 C 694.78913,470.68728 693.96157,462.45879 693.91036,454.24462 C 689.90601,455.86178 685.96399,460.75059 682.92857,464.25652 C 681.932,458.60245 681.26245,452.18814 684.78877,447.35537 C 689.91651,442.43565 695.4075,438.09363 701.48933,434.39634 C 702.11459,436.39899 700.97819,438.46459 700.75357,440.54561 C 700.49071,442.98151 699.96989,445.86336 700.10564,448.21656 C 698.23278,457.5919 702.05187,503.56943 700.01972,506.65689 C 692.17256,506.97048 681.27419,506.64057 672.94577,506.70795 z"
           id="path3698"
           sodipodi:nodetypes="cccccccsccc" />
        <path
           sodipodi:nodetypes="cccccccc"
           id="path3700"
           d="M 532.55186,1443.0709 C 508.9988,1438.3321 461.02479,1458.8395 465.62038,1412.4191 C 467.63879,1375.9974 468.80988,1340.0093 466.58303,1303.4136 C 485.44416,1298.1337 579.4459,1305.5103 582.19705,1306.5067 C 583.06945,1306.3791 553.34927,1343.4266 552.74502,1342.3105 C 531.04087,1334.8918 501.57466,1345.0538 500.3353,1344.3123 C 501.12749,1365.423 503.60081,1425.0608 502.52614,1424.294 C 503.35212,1423.9158 533.94505,1442.9668 532.55186,1443.0709 z"
           style="fill:#220b28;fill-opacity:1;fill-rule:evenodd;stroke:none;stroke-width:0.60021651px;stroke-linecap:butt;stroke-linejoin:miter;stroke-opacity:1;filter:url(#filter14575)"
           transform="matrix(-5.5552461e-3,0.3876179,0.3876179,5.5552461e-3,149.2259,217.70673)" />
        <path
           sodipodi:nodetypes="cccccccc"
           id="path3702"
           d="M 705.53666,431.68422 C 703.83072,422.5283 712.04629,404.04663 694.02736,405.57009 C 679.89847,406.15013 665.94236,406.40414 651.76963,405.33768 C 649.61822,412.61926 651.95528,449.097 652.32626,450.16892 C 652.27192,450.50637 666.79726,439.19211 666.36804,438.95169 C 663.613,430.49757 667.71562,419.1324 667.43509,418.64787 C 675.61368,419.07221 698.71657,420.36223 698.42522,419.94139 C 698.27407,420.25946 705.48861,432.22365 705.53666,431.68422 z"
           style="fill:#150619;fill-opacity:1;fill-rule:evenodd;stroke:none;stroke-width:0.60021651px;stroke-linecap:butt;stroke-linejoin:miter;stroke-opacity:1" />
        <path
           style="fill:#140617;fill-opacity:1;fill-rule:evenodd;stroke:none;stroke-width:0.40855595px;stroke-linecap:butt;stroke-linejoin:miter;stroke-opacity:1;filter:url(#filter3661)"
           d="M 673.54228,508.05068 C 668.42379,508.34597 668.22743,508.26273 670.72058,504.50574 C 677.12331,495.05872 686.31791,487.94571 694.61966,480.22633 C 695.38564,472.03001 694.55808,463.80152 694.50687,455.58735 C 690.50252,457.20451 686.5605,462.09332 683.52508,465.59925 C 682.52851,459.94518 681.85896,453.53087 685.38528,448.6981 C 690.51302,443.77838 696.00401,439.43636 702.08584,435.73907 C 702.7111,437.74172 701.5747,439.80732 701.35008,441.88834 C 701.08722,444.32424 700.5664,447.20609 700.70215,449.55929 C 698.82929,458.93463 702.64838,504.91216 700.61623,507.99962 C 692.76907,508.31321 681.8707,507.9833 673.54228,508.05068 z"
           id="path3704"
           sodipodi:nodetypes="cccccccsccc" />
      </g>
    </g>
  </g>
</svg>
