<?xml version="1.0" encoding="UTF-8" standalone="no"?>
<!-- Created with Inkscape (http://www.inkscape.org/) -->

<svg
   xmlns:dc="http://purl.org/dc/elements/1.1/"
   xmlns:cc="http://creativecommons.org/ns#"
   xmlns:rdf="http://www.w3.org/1999/02/22-rdf-syntax-ns#"
   xmlns:svg="http://www.w3.org/2000/svg"
   xmlns="http://www.w3.org/2000/svg"
   xmlns:sodipodi="http://sodipodi.sourceforge.net/DTD/sodipodi-0.dtd"
   xmlns:inkscape="http://www.inkscape.org/namespaces/inkscape"
   width="210mm"
   height="297mm"
   id="svg22060"
   sodipodi:version="0.32"
   inkscape:version="0.47 r22583"
   sodipodi:docname="trader_logo.svg"
   inkscape:output_extension="org.inkscape.output.svg.inkscape"
   version="1.1"
   inkscape:export-filename="/home/brutkasten/Dokumente/naev/logos/trader_logo.png"
   inkscape:export-xdpi="99.499664"
   inkscape:export-ydpi="99.499664">
  <defs
     id="defs22062">
    <inkscape:perspective
       sodipodi:type="inkscape:persp3d"
       inkscape:vp_x="0 : 526.18109 : 1"
       inkscape:vp_y="0 : 1000 : 0"
       inkscape:vp_z="744.09448 : 526.18109 : 1"
       inkscape:persp3d-origin="372.04724 : 350.78739 : 1"
       id="perspective22068" />
    <inkscape:perspective
       id="perspective38983"
       inkscape:persp3d-origin="60 : 14 : 1"
       inkscape:vp_z="120 : 21 : 1"
       inkscape:vp_y="0 : 1000 : 0"
       inkscape:vp_x="0 : 21 : 1"
       sodipodi:type="inkscape:persp3d" />
    <inkscape:perspective
       id="perspective8914"
       inkscape:persp3d-origin="0.5 : 0.33333333 : 1"
       inkscape:vp_z="1 : 0.5 : 1"
       inkscape:vp_y="0 : 1000 : 0"
       inkscape:vp_x="0 : 0.5 : 1"
       sodipodi:type="inkscape:persp3d" />
  </defs>
  <sodipodi:namedview
     id="base"
     pagecolor="#ffffff"
     bordercolor="#666666"
     borderopacity="1.0"
     inkscape:pageopacity="0.0"
     inkscape:pageshadow="2"
     inkscape:zoom="0.70000001"
     inkscape:cx="642.80284"
     inkscape:cy="647.06159"
     inkscape:document-units="px"
     inkscape:current-layer="layer1"
     showgrid="false"
     inkscape:window-width="1910"
     inkscape:window-height="999"
     inkscape:window-x="0"
     inkscape:window-y="25"
     inkscape:window-maximized="0">
    <inkscape:grid
       type="xygrid"
       id="grid38887" />
  </sodipodi:namedview>
  <metadata
     id="metadata22065">
    <rdf:RDF>
      <cc:Work
         rdf:about="">
        <dc:format>image/svg+xml</dc:format>
        <dc:type
           rdf:resource="http://purl.org/dc/dcmitype/StillImage" />
        <dc:title></dc:title>
      </cc:Work>
    </rdf:RDF>
  </metadata>
  <g
     inkscape:label="Ebene 1"
     inkscape:groupmode="layer"
     id="layer1">
    <rect
       style="fill:#b3b3b3;fill-opacity:1;stroke:#999999;stroke-width:1.40127528;stroke-linecap:round;stroke-miterlimit:4;stroke-opacity:1;stroke-dasharray:none"
       id="rect2795"
       width="450.86157"
       height="425.42642"
       x="113.14064"
       y="295.36325"
       rx="26.711603"
       ry="4.5351133" />
    <flowRoot
       xml:space="preserve"
       id="flowRoot15342"
       style="font-size:40px;font-style:normal;font-weight:normal;fill:#000000;fill-opacity:1;stroke:none;stroke-width:1px;stroke-linecap:butt;stroke-linejoin:miter;stroke-opacity:1;font-family:Bitstream Vera Sans"
       transform="matrix(0.3357359,0,0,0.3357359,341.56403,429.79393)"><flowRegion
         id="flowRegion15344"><rect
           id="rect15346"
           width="290"
           height="91.428574"
           x="338.57144"
           y="689.50507" /></flowRegion><flowPara
         id="flowPara15348">by enigmatic</flowPara></flowRoot>    <flowRoot
       xml:space="preserve"
       id="flowRoot21123"
       style="font-size:23.82825279px;font-style:normal;font-weight:normal;fill:#000000;fill-opacity:1;stroke:none;stroke-width:1px;stroke-linecap:butt;stroke-linejoin:miter;stroke-opacity:1;font-family:Bitstream Vera Sans"
       transform="matrix(0.3357359,0,0,0.3357359,341.03393,447.30925)"><flowRegion
         id="flowRegion21125"><rect
           id="rect21127"
           width="742.82013"
           height="193.72675"
           x="338.57144"
           y="689.50507"
           style="font-size:23.82825279px" /></flowRegion><flowPara
         id="flowPara38883">released under</flowPara><flowPara
         id="flowPara2451">creative commons</flowPara><flowPara
         id="flowPara21131">cc by v3.0</flowPara></flowRoot>    <g
       id="g38610"
       transform="translate(4903.1072,-6280.4563)">
      <path
         inkscape:export-ydpi="90"
         inkscape:export-xdpi="90"
         inkscape:export-filename="/home/brutkasten/Dokumente/naev/whichtraderlogo.png"
         style="fill:#b3b3b3;fill-rule:evenodd;stroke:#000000;stroke-width:3.45577478;stroke-linecap:butt;stroke-linejoin:miter;stroke-miterlimit:4;stroke-opacity:1;stroke-dasharray:none"
         d="m -4631.5949,6619.2857 c 20.7962,-7.8568 38.7359,-7.9846 58.0209,1.1465 2.2691,4.5381 4.1237,12.4787 5.9944,17.1555 1.9373,4.8433 3.6015,9.5366 4.5614,14.3358 0.9534,4.7671 3.0454,10.0006 5.213,14.3358 1.7617,3.5234 2.8577,7.0187 4.5614,10.426 2.609,5.2181 4.4929,10.152 5.8646,15.6391 2.0309,8.1234 5.5411,16.1357 7.8195,24.1102 0.4344,1.5204 0.8689,3.0409 1.3033,4.5613 0.3213,1.1247 0.8688,2.1721 1.3032,3.2582 3.5764,8.9408 3.2582,19.1955 3.2582,28.6716 0,8.6059 -1.8708,16.0383 -4.5614,24.1102 -2.0244,6.0732 -4.2061,11.0187 -7.1679,16.9423 -0.6516,1.3032 -1.3033,2.6065 -1.9549,3.9098 -3.7202,7.4403 -14.1842,9.6227 -19.5488,14.9874 -6.917,6.917 -21.8768,5.213 -30.6265,5.213 -10.2791,0 -20.8415,0.6516 -31.2781,0.6516 -5.8858,0 -12.0527,1.3853 -17.5939,0 -3.2897,-0.8224 -10.0736,-6.8154 -11.7293,-8.4711 -6.4012,-6.4012 -9.497,-11.2848 -10.426,-21.5037 -1.149,-12.6387 -5.2131,-24.6073 -5.2131,-37.7944 0,-8.9056 0,-17.8111 0,-26.7167 0,-7.9874 3.8041,-15.4629 7.8196,-22.1553 4.1979,-6.9965 7.5792,-15.7755 9.7744,-23.4586 1.9086,-6.6802 5.2554,-13.1386 7.8195,-19.5488 2.2313,-5.5784 4.9147,-10.6577 7.1679,-16.2907 1.3958,-3.4894 1.2898,-7.7927 2.6065,-10.426 0.1943,-0.3886 0,-0.8689 0,-1.3033 0,-2.513 5.9537,-9.1396 7.0121,-11.7857 z"
         id="path38114"
         sodipodi:nodetypes="ccssssssssssssssssssssssssssc" />
      <path
         inkscape:export-ydpi="90"
         inkscape:export-xdpi="90"
         inkscape:export-filename="/home/brutkasten/Dokumente/naev/whichtraderlogo.png"
         sodipodi:nodetypes="csssssscccssssssc"
         style="fill:#e6e6e6;fill-rule:evenodd;stroke:none"
         d="m -4659.391,6696.1384 c 4.9902,-0.962 13.3208,3.3577 20.2626,4.6885 6.9106,1.3249 13.1772,1.3396 20.2626,1.3396 5.8997,0 12.1312,0.6698 18.1665,0.6698 6.5189,0 13.488,0.1623 19.5639,-0.6698 4.0843,-0.5593 8.1172,-1.9453 11.1794,-2.6791 2.8431,-0.6814 7.0057,-1.3432 10.4806,-2.0094 2.44,-0.4678 6.6105,0.6265 6.6105,-1.5393 0.8796,-18.1649 -20.8606,-41.5922 -18.9594,-63.0679 -4.3704,-23.9706 -43.1331,-15.7427 -59.6183,-11.7485 -3.7973,0.9101 -4.6118,3.55 -8.3845,5.3583 -3.2473,1.5565 -2.8617,7.688 -3.4936,10.7166 -1.0645,5.1022 -1.3974,10.8218 -1.3974,16.0749 0,4.8574 -0.6987,9.4253 -0.6987,13.3957 0,4.5489 -2.453,6.7266 -3.4936,10.7166 -0.8028,3.0784 -4.0633,7.4261 -5.5896,9.377 -2.1755,2.7805 -2.5983,5.7139 -4.891,9.377 z"
         id="path38116" />
      <path
         inkscape:export-ydpi="90"
         inkscape:export-xdpi="90"
         inkscape:export-filename="/home/brutkasten/Dokumente/naev/whichtraderlogo.png"
         style="fill:#0066ff;fill-rule:evenodd;stroke:#000000;stroke-width:3.45577478;stroke-linecap:butt;stroke-linejoin:miter;stroke-miterlimit:4;stroke-opacity:1;stroke-dasharray:none"
         d="m -4642.6413,6842.0939 c 1.0465,3.9697 4.7067,6.1349 6.6137,9.5065 1.4958,4.0539 3.7645,7.7172 6.6525,10.9316 4.0442,8.264 16.9273,16.3494 23.7172,20.4764 8.9259,-4.2277 18.1713,-16.4807 23.6404,-26.4819 2.3106,-4.2723 5.6072,-8.1881 6.2957,-13.1361 2.8846,-3.9853 1.5041,-8.5128 -0.6957,-12.4667 -3.0472,-6.0343 -2.5071,-12.9954 -3.5205,-19.5139 -0.728,-5.633 -1.0361,-11.4072 -2.8319,-16.8289 -3.5976,-4.3791 -7.5391,-9.588 -13.5925,-10.3817 -4.5361,-0.5721 -9.2247,-2.5511 -13.7555,-1.3004 -6.6791,3.8743 -13.3602,8.0472 -18.5189,13.8962 -2.741,2.4783 -6.5689,4.4965 -7.0565,8.5745 -2.3126,9.5631 -2.9675,19.46 -5.3226,29 -0.7858,2.5093 -1.6025,5.0695 -1.6254,7.7244 z"
         id="path38118"
         sodipodi:nodetypes="ccccccccccccccc" />
      <path
         inkscape:export-ydpi="90"
         inkscape:export-xdpi="90"
         inkscape:export-filename="/home/brutkasten/Dokumente/naev/whichtraderlogo.png"
         style="fill:#37abc8;fill-rule:evenodd;stroke:#000000;stroke-width:2.0965035;stroke-linecap:butt;stroke-linejoin:miter;stroke-miterlimit:4;stroke-opacity:1;stroke-dasharray:none"
         d="m -4617.1201,6792.4978 c 0.2892,7.0888 -2.5798,13.7758 -3.3821,20.7441 -0.5632,3.9837 -1.0789,7.9915 -1.4458,11.9892 0.4088,3.7165 0.01,7.3796 -0.5359,11.0261 -0.3223,3.9243 -1.9617,7.9625 -0.6854,11.8578 5.355,4.6479 10.2917,15.245 17.0485,17.5808 7.7542,-2.6799 14.9223,-15.8645 18.9327,-23.9936 1.8436,-3.7424 2.9452,-7.9927 2.0717,-12.1543 -0.5194,-5.0782 0.336,-10.2553 -1.0698,-15.2373 -1.2477,-5.3699 -0.5238,-11.5447 -4.3284,-16.0328 -0.4578,-3.6168 -4.2037,-6.71 -7.8493,-5.4316 -4.3262,0.496 -8.517,-1.8109 -12.8438,-0.8607 -1.9748,0.094 -3.9786,0.036 -5.9124,0.5123 z"
         id="path38120"
         sodipodi:nodetypes="ccccccccccccc" />
      <path
         inkscape:export-ydpi="90"
         inkscape:export-xdpi="90"
         inkscape:export-filename="/home/brutkasten/Dokumente/naev/whichtraderlogo.png"
         style="fill:#003380;fill-opacity:1;fill-rule:evenodd;stroke:#000000;stroke-width:3.45577478;stroke-linecap:butt;stroke-linejoin:miter;stroke-miterlimit:4;stroke-opacity:1;stroke-dasharray:none"
         d="m -4638.607,6792.9775 c -16.8835,25.1704 -20.4029,-0.9521 -17.4893,-17.7302 -21.7666,-33.0087 14.528,-114.1288 24.0861,-155.8303 -87.6478,31.0256 -85.2198,200.0155 -15.5238,244.6668 17.9418,0.2002 32.1174,-14.2182 38.0067,-30.138 4.703,-11.8465 3.8102,-28.8529 -6.2174,-38.9192 -7.2887,-4.065 -14.4978,-3.3171 -22.8623,-2.0491 z"
         id="path38122"
         sodipodi:nodetypes="ccccccc" />
      <path
         inkscape:export-ydpi="90"
         inkscape:export-xdpi="90"
         inkscape:export-filename="/home/brutkasten/Dokumente/naev/whichtraderlogo.png"
         style="fill:#002255;fill-opacity:1;fill-rule:evenodd;stroke:#000000;stroke-width:3.45577478;stroke-linecap:butt;stroke-linejoin:miter;stroke-miterlimit:4;stroke-opacity:1;stroke-dasharray:none"
         d="m -4569.1388,6793.2795 c 16.8835,25.1704 18.7901,-1.6433 15.8766,-18.4214 21.7666,-33.0087 -14.5281,-114.1288 -24.0862,-155.8303 87.6478,31.0256 85.2198,200.0155 15.5239,244.6668 -17.9418,0.2002 -32.1174,-14.2182 -38.0067,-30.138 -4.703,-11.8465 -2.5697,-27.9313 7.4579,-37.9976 7.2887,-4.065 14.87,-3.5475 23.2345,-2.2795 z"
         id="path38124"
         sodipodi:nodetypes="ccccccc" />
      <path
         inkscape:export-ydpi="90"
         inkscape:export-xdpi="90"
         inkscape:export-filename="/home/brutkasten/Dokumente/naev/whichtraderlogo.png"
         style="fill:#000000;fill-rule:evenodd;stroke:#4d4d4d;stroke-width:2.0965035;stroke-linecap:butt;stroke-linejoin:miter;stroke-miterlimit:4;stroke-opacity:1;stroke-dasharray:none"
         d="m -4636.6521,6794.9556 c -0.2658,17.127 -17.672,19.2293 -21.5717,5.5377 2.3266,-15.8766 7.6595,-20.4966 7.9708,-36.6032 1.1651,-16.06 2.2783,-50.5363 1.0459,-66.634 9.2609,-26.0779 23.6152,-54.7801 46.2059,-73.6183 18.9143,21.9849 35.9107,44.8742 42.6949,72.2847 -4.3313,20.5081 0.3988,59.201 7.5404,79.2535 2.7198,10.5267 9.4118,24.1502 -0.074,31.6542 -15.8422,6.8686 -15.6346,-12.982 -16.9697,-13.0488 -13.2157,-0.1753 -34.5869,-2.0896 -48.4383,-1.5081 -4.0937,0.8769 -16.8583,-1.639 -18.4037,2.6823 z"
         id="path38126"
         sodipodi:nodetypes="ccccccccccc" />
      <path
         inkscape:export-ydpi="90"
         inkscape:export-xdpi="90"
         inkscape:export-filename="/home/brutkasten/Dokumente/naev/whichtraderlogo.png"
         style="fill:#ffcc00;fill-opacity:1;fill-rule:evenodd;stroke:#000000;stroke-width:2.0965035;stroke-linecap:butt;stroke-linejoin:miter;stroke-miterlimit:4;stroke-opacity:1;stroke-dasharray:none"
         d="m -4587.5784,6795.6511 c -13.9526,21.6515 -11.7501,32.1903 3.8326,47.4696 23.9992,39.0509 20.0652,-16.0158 12.0995,-48.2117 -4.0681,-0.3641 -11.5224,-0.091 -15.9321,0.7421 z"
         id="path38152"
         sodipodi:nodetypes="cccc" />
      <path
         inkscape:export-ydpi="90"
         inkscape:export-xdpi="90"
         inkscape:export-filename="/home/brutkasten/Dokumente/naev/whichtraderlogo.png"
         style="fill:#ffcc00;fill-opacity:1;fill-rule:evenodd;stroke:#000000;stroke-width:2.0965035;stroke-linecap:butt;stroke-linejoin:miter;stroke-miterlimit:4;stroke-opacity:1;stroke-dasharray:none"
         d="m -4619.0155,6795.1903 c 13.9526,21.6516 11.75,32.1903 -3.8326,47.4697 -23.9992,39.0509 -20.0653,-16.0159 -12.0996,-48.2117 4.0682,-0.3642 11.5224,-0.091 15.9322,0.742 z"
         id="path38154"
         sodipodi:nodetypes="cccc" />
      <path
         inkscape:export-ydpi="90"
         inkscape:export-xdpi="90"
         inkscape:export-filename="/home/brutkasten/Dokumente/naev/whichtraderlogo.png"
         sodipodi:nodetypes="cccc"
         id="path38166"
         d="m -4569.4304,6626.6207 c 28.1027,20.9822 47.9093,56.1 48.0333,84.7989 -3.0547,0.2204 -16.3491,-1.828 -19.6502,-3.6019 -7.5879,-30.5635 -14.8723,-52.7548 -28.3831,-81.197 z"
         style="fill:#0044aa;fill-opacity:1;fill-rule:evenodd;stroke:none" />
      <path
         inkscape:export-ydpi="90"
         inkscape:export-xdpi="90"
         inkscape:export-filename="/home/brutkasten/Dokumente/naev/whichtraderlogo.png"
         sodipodi:nodetypes="cccc"
         id="path38168"
         d="m -4638.9584,6626.8702 c -28.1027,20.9822 -47.9092,56.1 -48.0332,84.799 3.0547,0.2203 16.3491,-1.828 19.6501,-3.602 7.588,-30.5634 14.8724,-52.7548 28.3831,-81.197 z"
         style="fill:#0044aa;fill-opacity:1;fill-rule:evenodd;stroke:none" />
      <path
         inkscape:export-ydpi="90"
         inkscape:export-xdpi="90"
         inkscape:export-filename="/home/brutkasten/Dokumente/naev/whichtraderlogo.png"
         sodipodi:nodetypes="cssssssc"
         id="path38170"
         d="m -4617.2223,6815.1676 c -1.0083,0.5903 -3.7094,-14.8524 -6.204,-14.8524 -3.4169,0 -5.3152,15.0663 -5.3152,18.5386 0,2.4586 -0.4608,4.3933 -0.4608,6.9115 0,3.1229 1.095,2.3039 5.0685,2.3039 2.4051,0 4.4757,-0.3936 5.0684,-2.7646 0.6095,-2.4381 0.8765,-4.4275 1.3823,-6.4508 0.4285,-1.7138 0.4608,-0.8385 0.4608,-3.6862 z"
         style="fill:#eedd96;fill-opacity:1;fill-rule:evenodd;stroke:none" />
      <path
         inkscape:export-ydpi="90"
         inkscape:export-xdpi="90"
         inkscape:export-filename="/home/brutkasten/Dokumente/naev/whichtraderlogo.png"
         sodipodi:nodetypes="cssssssc"
         id="path38172"
         d="m -4588.1632,6815.1918 c 1.0083,0.5903 3.7094,-14.8524 6.204,-14.8524 3.4169,0 5.3152,15.0663 5.3152,18.5386 0,2.4586 0.4608,4.3933 0.4608,6.9116 0,3.1228 -1.095,2.3038 -5.0685,2.3038 -2.4051,0 -4.4757,-0.3936 -5.0684,-2.7646 -0.6096,-2.4381 -0.8765,-4.4275 -1.3824,-6.4508 -0.4284,-1.7138 -0.4607,-0.8385 -0.4607,-3.6862 z"
         style="fill:#eedd96;fill-opacity:1;fill-rule:evenodd;stroke:none" />
      <g
         transform="translate(175.125,-12.75)"
         id="g38446">
        <path
           sodipodi:nodetypes="csssssccsc"
           id="path38128"
           d="m -4792.5038,6803.2111 c 1.4586,-0.2818 4.7915,0.3258 7.1679,0.3258 1.3658,0 3.3026,0.3258 4.8872,0.3258 1.8463,0 3.6926,0 5.5389,0 1.725,0 3.2255,0.01 4.5614,-0.3258 2.5288,-0.6322 24.6779,-0.3948 24.6779,1.9153 0,2.8156 1.7942,2.5391 -0.9494,2.5391 -8.445,-0.903 -38.4276,0.9929 -45.0693,-0.2189 -2.216,0 0.5155,-0.056 -1e-4,-2.1177 -0.1343,-0.5373 -0.9231,-1.9006 -0.8145,-2.4436 z"
           style="fill:#000000;fill-rule:evenodd;stroke:#000000;stroke-width:0.23038499px;stroke-linecap:butt;stroke-linejoin:miter;stroke-opacity:1"
           inkscape:export-filename="/home/brutkasten/Dokumente/naev/whichtraderlogo.png"
           inkscape:export-xdpi="90"
           inkscape:export-ydpi="90" />
        <rect
           style="fill:#0000ff;fill-opacity:1;stroke:#ffffff;stroke-width:1.8430804;stroke-linecap:round;stroke-miterlimit:4;stroke-opacity:1;stroke-dasharray:none"
           id="rect38132"
           width="47.61105"
           height="19.679234"
           x="-4815.085"
           y="6696.3711"
           ry="5.2150092"
           transform="matrix(0.9999985,-0.00174547,0.00174547,0.9999985,0,0)" />
        <path
           sodipodi:nodetypes="cccc"
           id="path38134"
           d="m -4800.5859,6697.9132 c 9.9471,0.053 30.967,0.1367 40.9148,0.1256 8.2587,5.7226 -4.1632,-29.3266 -19.4213,-44.2479 -18.3869,14.6096 -27.2745,50.3709 -21.4935,44.1223 z"
           style="fill:#cccccc;fill-rule:evenodd;stroke:none" />
        <path
           style="fill:none;stroke:#000000;stroke-width:0.23038501px;stroke-linecap:butt;stroke-linejoin:miter;stroke-opacity:1"
           d="m -4785.6373,6755.9967 c -0.069,0.035 0.1551,-3e-4 0,0 z"
           id="path38136" />
        <rect
           style="fill:#ff00ff;fill-opacity:1;stroke:#ffeded;stroke-width:1.8430804;stroke-linecap:round;stroke-miterlimit:4;stroke-opacity:1;stroke-dasharray:none"
           id="rect38138"
           width="47.61105"
           height="19.679234"
           x="-4814.6826"
           y="6721.1626"
           ry="5.2150092"
           transform="matrix(0.9999985,-0.00174547,0.00174547,0.9999985,0,0)" />
        <rect
           style="fill:#000000;fill-opacity:1;stroke:#e6e6e6;stroke-width:1.8430804;stroke-linecap:round;stroke-miterlimit:4;stroke-opacity:1;stroke-dasharray:none"
           id="rect38140"
           width="47.61105"
           height="19.679234"
           x="-4815.0513"
           y="6745.8184"
           ry="5.2150092"
           transform="matrix(0.9999985,-0.00174547,0.00174547,0.9999985,0,0)" />
        <path
           sodipodi:nodetypes="cccc"
           id="path38144"
           d="m -4812.62,6805.9986 c 6.631,0.095 13.2324,0.3282 19.853,0.2867 -4.3831,-8.8228 -5.2744,-10.0879 -9.3178,-20.3983 -5.1441,10.6337 -5.9005,12.2343 -10.5352,20.1116 z"
           style="fill:#cccccc;fill-rule:evenodd;stroke:#000000;stroke-width:1.15192497;stroke-linecap:butt;stroke-linejoin:miter;stroke-miterlimit:4;stroke-opacity:1;stroke-dasharray:none" />
        <path
           sodipodi:nodetypes="cccc"
           id="path38146"
           d="m -4765.8428,6805.8639 c 6.631,0.095 13.2324,0.3282 19.853,0.2867 -4.3831,-8.8228 -5.2744,-10.0879 -9.3178,-20.3984 -5.1441,10.6337 -5.9004,12.2344 -10.5352,20.1117 z"
           style="fill:#cccccc;fill-rule:evenodd;stroke:#000000;stroke-width:1.15192497;stroke-linecap:butt;stroke-linejoin:miter;stroke-miterlimit:4;stroke-opacity:1;stroke-dasharray:none" />
        <path
           sodipodi:nodetypes="cccc"
           id="path38148"
           d="m -4791.4192,6803.5505 c 7.8825,0.1132 15.7298,0.3902 23.5999,0.3408 -5.2103,-10.4879 -6.2699,-11.9918 -11.0763,-24.2481 -6.115,12.6406 -7.0141,14.5433 -12.5236,23.9073 z"
           style="fill:#cccccc;fill-rule:evenodd;stroke:#000000;stroke-width:1.15192497;stroke-linecap:butt;stroke-linejoin:miter;stroke-miterlimit:4;stroke-opacity:1;stroke-dasharray:none" />
        <path
           sodipodi:nodetypes="cccsccccccccc"
           id="path38150"
           d="m -4799.8238,6789.9519 c 0.4272,-0.024 -0.2242,-4.6519 0.3998,-4.5055 13.3441,-0.08 28.0901,-0.3414 41.3422,0.4969 0.2046,0 0.1094,3.3148 0.1094,3.7962 0,0.7688 3.1393,0.4904 4.772,0.4904 0.6824,-0.1828 0.5535,-8.1429 -0.052,-8.2935 -2.9788,-0.085 -13.0508,-0.4694 -20.6834,0.7603 -2.0249,-0.061 -0.6482,-3.5335 -1.5219,-3.4443 -0.2774,0 -5.3534,-0.134 -8.0919,-0.037 -0.1636,0.1444 0.6994,3.2785 -1.2508,3.2988 -6.4371,-0.4839 -19.5928,-0.6421 -20.3252,-0.1547 0.8605,2.6659 -0.6047,7.9222 0.8588,7.706 2.311,-0.1056 4.5532,0.2321 4.4428,-0.1134 z"
           style="fill:#cccccc;fill-rule:evenodd;stroke:#000000;stroke-width:1.15192497;stroke-linecap:butt;stroke-linejoin:miter;stroke-miterlimit:4;stroke-opacity:1;stroke-dasharray:none" />
        <path
           style="fill:#e6e6e6;fill-rule:evenodd;stroke:none"
           d="m -4797.7825,6695.4468 c 8.3284,0.045 25.9276,0.1145 34.2566,0.1053 6.9147,4.7913 -3.4857,-24.5543 -16.2608,-37.0474 -15.3948,12.2322 -22.836,42.1739 -17.9958,36.9421 z"
           id="path38156"
           sodipodi:nodetypes="cccc"
           inkscape:export-filename="/home/brutkasten/Dokumente/naev/whichtraderlogo.png"
           inkscape:export-xdpi="90"
           inkscape:export-ydpi="90" />
        <path
           id="path38158"
           d="m -4774.7535,6664.4236 c -1.3936,-0 -5.3037,0.75 -7.8331,1.3823 -1.9352,0.4838 -2.3038,3.4283 -2.3038,5.5293 0,2.9677 1.4409,3.7154 4.1469,5.0685 1.4522,0.726 5.2451,0 6.9115,0 2.9148,0 1.8431,-2.9478 1.8431,-5.5293 0,-2.3018 -1.2915,-3.9955 -2.7646,-6.4508 z"
           style="fill:#ffffff;fill-rule:evenodd;stroke:none"
           inkscape:export-filename="/home/brutkasten/Dokumente/naev/whichtraderlogo.png"
           inkscape:export-xdpi="90"
           inkscape:export-ydpi="90" />
        <path
           id="path38160"
           d="m -4800.1188,6707.5336 c 1.4621,0 6.9856,0 10.426,0 3.4754,0 6.9507,0 10.4261,0 3.477,0 6.213,-0.6516 9.7744,-0.6516 3.7572,0 6.3407,0.238 8.4711,1.3032 0.1028,0.051 -7.6295,1.9549 -9.1227,1.9549 -3.2582,0 -6.5163,0 -9.7745,0 -3.0798,0 -6.3694,0.6516 -9.7744,0.6516 -4.6729,0 -8.5688,1.385 -10.426,-3.2581 z"
           style="fill:#aaccff;fill-rule:evenodd;stroke:none"
           inkscape:export-filename="/home/brutkasten/Dokumente/naev/whichtraderlogo.png"
           inkscape:export-xdpi="90"
           inkscape:export-ydpi="90" />
        <path
           id="path38162"
           d="m -4798.0862,6733.285 c 1.4621,0 6.9856,0 10.426,0 3.4753,0 6.9507,0 10.426,0 3.4771,0 6.2131,-0.6516 9.7744,-0.6516 3.7573,0 6.3408,0.238 8.4712,1.3032 0.1028,0.051 -7.6296,1.9549 -9.1228,1.9549 -3.2581,0 -6.5163,0 -9.7744,0 -3.0798,0 -6.3694,0.6516 -9.7744,0.6516 -4.673,0 -8.5688,1.385 -10.426,-3.2581 z"
           style="fill:#ff80e5;fill-rule:evenodd;stroke:none"
           inkscape:export-filename="/home/brutkasten/Dokumente/naev/whichtraderlogo.png"
           inkscape:export-xdpi="90"
           inkscape:export-ydpi="90" />
        <path
           id="path38164"
           d="m -4798.3306,6758.9751 c 1.4621,0 6.9856,0 10.426,0 3.4754,0 6.9507,0 10.4261,0 3.477,0 6.213,-0.6516 9.7744,-0.6516 3.7572,0 6.3407,0.238 8.4711,1.3032 0.1028,0.051 -7.6295,1.9549 -9.1228,1.9549 -3.2581,0 -6.5162,0 -9.7744,0 -3.0798,0 -6.3694,0.6516 -9.7744,0.6516 -4.6729,0 -8.5688,1.385 -10.426,-3.2581 z"
           style="fill:#53536c;fill-rule:evenodd;stroke:none"
           inkscape:export-filename="/home/brutkasten/Dokumente/naev/whichtraderlogo.png"
           inkscape:export-xdpi="90"
           inkscape:export-ydpi="90" />
        <path
           style="fill:#e6e6e6;fill-opacity:1;fill-rule:evenodd;stroke:none"
           d="m -4803.7677,6792.7444 c 0.3159,-0.043 1.3578,-0 1.875,0.125 1.0098,0.2524 1.06,0.6748 1.25,1.625 0.1282,0.641 0.341,1.239 0.5,1.875 0.1497,0.5985 0.3289,1.3154 0.5,2 0.1673,0.6693 0.3957,1.1664 0.625,1.625 0.1163,0.2325 -2.1907,0.25 -2.5,0.25 -0.7917,0 -1.5833,0 -2.375,0 -0.5735,0 -1.2545,-0.125 -1.875,-0.125 -0.625,0 -1.25,0 -1.875,0 -0.7277,0 0.5496,-1.3492 0.875,-2 0.3277,-0.6555 0.4369,-1.1237 0.75,-1.75 0.2519,-0.5037 0.6931,-1.0112 1,-1.625 0.2745,-0.549 0.6397,-0.8897 1,-1.25 0.1864,-0.1864 0.1667,-0.5 0.25,-0.75 z"
           id="path38174" />
        <path
           style="fill:#e6e6e6;fill-rule:evenodd;stroke:none"
           d="m -4780.8927,6787.3694 c 0.1106,-0.1107 1.4319,0.125 2,0.125 0.6567,0 1.4948,0.092 1.625,0.125 0.1448,0.036 0.25,2.3524 0.25,2.625 0,0.5794 0.3866,1.3982 0.625,1.875 0.2893,0.5784 0.5199,1.2897 0.75,1.75 0.2624,0.5247 0.5363,1.1976 0.75,1.625 0.4349,0.8698 0.098,0.625 -1,0.625 -0.8871,0 -1.6769,-0.2005 -2.375,-0.375 -0.6324,-0.1581 -1.2557,-0.3452 -1.875,-0.5 -0.5764,-0.1441 -1.4161,-0.1353 -1.875,-0.25 -0.8181,-0.2046 -1.4551,0.2851 -0.875,-0.875 0.3334,-0.6668 0.3264,-1.6529 0.625,-2.25 0.325,-0.65 0.4359,-1.3719 0.75,-2 0.2736,-0.5471 0.2472,-1.1137 0.375,-1.625 0.075,-0.299 0.1629,-0.4397 0.25,-0.875 z"
           id="path38176" />
        <path
           style="fill:#e6e6e6;fill-rule:evenodd;stroke:none"
           d="m -4757.3927,6792.8694 c 0,-0.015 1.6832,0 2.5,0 0.955,0 1.2513,0.8799 1.5,1.875 0.1655,0.6618 0.375,1.121 0.375,1.875 0,0.752 0.079,1.5663 0.25,2.25 0.1505,0.6019 0.5691,1.0132 0.75,1.375 0.512,1.024 -0.1653,0.8169 -1.125,0.625 -0.7489,-0.1498 -1.5402,0.052 -2.25,-0.125 -0.7333,-0.1834 -1.5441,-0.074 -2.25,-0.25 -0.8111,-0.2028 -1.0369,0.088 -1.625,-0.5 -0.3807,-0.3807 0.4881,-1.2341 0.875,-1.75 0.3978,-0.5305 0.625,-1.0158 0.625,-1.75 0,-0.6493 -0.019,-1.2973 0.125,-1.875 0.1507,-0.603 0.25,-1.0608 0.25,-1.75 z"
           id="path38178" />
        <path
           style="fill:#666666;fill-rule:evenodd;stroke:#999999;stroke-width:1.89999998;stroke-linecap:butt;stroke-linejoin:miter;stroke-miterlimit:4;stroke-opacity:1;stroke-dasharray:none"
           d="m -4799.7336,6773.8272 c 12.5567,0.3048 28.7427,-0.1449 39.2445,-0.015"
           id="path38202"
           sodipodi:nodetypes="cc" />
        <path
           style="fill:none;stroke:#999999;stroke-width:2.0999999;stroke-linecap:butt;stroke-linejoin:miter;stroke-miterlimit:4;stroke-opacity:1;stroke-dasharray:none"
           d="m -4803.2691,6767.2865 c -0.078,4.2898 2.3058,6.6088 5.2686,6.5925"
           id="path38208"
           sodipodi:nodetypes="cc" />
        <path
           style="fill:none;stroke:#999999;stroke-width:2.0999999;stroke-linecap:butt;stroke-linejoin:miter;stroke-miterlimit:4;stroke-opacity:1;stroke-dasharray:none"
           d="m -4755.6104,6767.5624 c 0.2971,3.6648 -2.1183,6.14 -5.4248,6.3113"
           id="path38210"
           sodipodi:nodetypes="cc" />
        <path
           style="fill:#666666;fill-rule:evenodd;stroke:#999999;stroke-width:1.89999998;stroke-linecap:butt;stroke-linejoin:miter;stroke-miterlimit:4;stroke-opacity:1;stroke-dasharray:none"
           d="m -4799.3559,6749.2508 c 12.5567,0.3048 28.7427,-0.1449 39.2445,-0.015"
           id="path38212"
           sodipodi:nodetypes="cc" />
        <path
           style="fill:none;stroke:#999999;stroke-width:2.0999999;stroke-linecap:butt;stroke-linejoin:miter;stroke-miterlimit:4;stroke-opacity:1;stroke-dasharray:none"
           d="m -4802.8914,6742.7101 c -0.078,4.2898 2.3058,6.6088 5.2686,6.5925"
           id="path38214"
           sodipodi:nodetypes="cc" />
        <path
           style="fill:none;stroke:#999999;stroke-width:2.0999999;stroke-linecap:butt;stroke-linejoin:miter;stroke-miterlimit:4;stroke-opacity:1;stroke-dasharray:none"
           d="m -4755.2327,6742.986 c 0.2971,3.6648 -2.1183,6.14 -5.4248,6.3113"
           id="path38216"
           sodipodi:nodetypes="cc" />
        <path
           style="fill:#666666;fill-rule:evenodd;stroke:#999999;stroke-width:1.89999998;stroke-linecap:butt;stroke-linejoin:miter;stroke-miterlimit:4;stroke-opacity:1;stroke-dasharray:none"
           d="m -4800.1103,6724.343 c 12.5567,0.3048 28.7427,-0.1449 39.2445,-0.015"
           id="path38218"
           sodipodi:nodetypes="cc" />
        <path
           style="fill:none;stroke:#999999;stroke-width:2.0999999;stroke-linecap:butt;stroke-linejoin:miter;stroke-miterlimit:4;stroke-opacity:1;stroke-dasharray:none"
           d="m -4803.6458,6717.8023 c -0.078,4.2898 2.3058,6.6088 5.2686,6.5925"
           id="path38220"
           sodipodi:nodetypes="cc" />
        <path
           style="fill:none;stroke:#999999;stroke-width:2.0999999;stroke-linecap:butt;stroke-linejoin:miter;stroke-miterlimit:4;stroke-opacity:1;stroke-dasharray:none"
           d="m -4755.9871,6718.0782 c 0.2971,3.6648 -2.1183,6.14 -5.4248,6.3113"
           id="path38222"
           sodipodi:nodetypes="cc" />
        <path
           style="fill:#666666;fill-rule:evenodd;stroke:#999999;stroke-width:1.89999998;stroke-linecap:butt;stroke-linejoin:miter;stroke-miterlimit:4;stroke-opacity:1;stroke-dasharray:none"
           d="m -4800.1185,6695.4207 c 12.5567,0.3048 28.7427,-0.1449 39.2445,-0.015"
           id="path38224"
           sodipodi:nodetypes="cc" />
        <path
           style="fill:#e6e6e6;fill-rule:evenodd;stroke:none"
           d="m -4803.288,6783.2859 c 1.1294,0 3.055,0 4.5078,0 1.0902,0 2.1803,0 3.2704,0 0.7366,0 1.4731,0 2.2097,0 0.7661,0 1.5321,0 2.2981,0 0.6482,0 1.2964,0 1.9446,0 0.6187,0 1.2374,0 1.8561,0 0.1473,0 0.2946,0 0.442,0 0.5932,0 1.24,-0.088 1.8561,-0.088 0.5975,0 1.1436,-0.043 1.6794,-0.1768 0.1178,-0.029 0.2357,-0.059 0.3535,-0.088 0.3087,-0.077 0.6795,-0.6049 1.0607,-0.7955 0.4641,-0.232 0.7724,-0.6072 1.1491,-0.7955 0.4785,-0.2393 1.3091,-0.2168 1.8561,-0.3535 0.5047,-0.1262 0.9435,0.074 1.3258,0.2651 0.5142,0.2571 0.6656,0.6241 0.8839,1.0607 0.1913,0.3825 0.4909,0.4908 0.7071,0.7071 0.3593,0.3593 0.9738,0.2654 1.5026,0.3535 0.5833,0.097 1.2638,0 1.8562,0 0.7023,0 1.3807,-0.088 2.1213,-0.088 0.6776,0 1.3553,0 2.0329,0 0.7071,0 1.4142,0 2.1214,0 1.149,0 2.298,0 3.4471,0 1.0565,0 2.2633,0.075 3.2704,-0.1768 0.6881,-0.1721 1.6673,0 2.3865,0 0.6481,0 1.2963,0 1.9445,0 0.5366,0 1.019,-0.1665 1.149,0.3535 0.143,0.572 0.061,0.8564 0.3536,1.1491 0.3791,0.379 -0.5304,0.7513 -0.7071,0.8839 -0.2682,0.2011 -0.8906,0.088 -1.2374,0.088 -0.5657,0 -0.7902,-0.2625 -1.1491,-0.442 -0.5865,-0.2933 -0.7695,-0.4796 -1.3258,-0.6187 -0.9792,-0.2448 -2.5571,0.1768 -3.6239,0.1768 -0.7057,0 -1.2657,0.088 -1.9446,0.088 -0.9523,0 -1.8805,0.088 -2.8284,0.088 -0.8839,0 -1.7678,0 -2.6517,0 -0.9334,0 -1.8853,-0.088 -2.8284,-0.088 -0.6776,0 -1.3553,0 -2.0329,0 -1.1042,0 -2.1621,-0.088 -3.2704,-0.088 -0.9294,0 -1.8294,-0.088 -2.74,-0.088 -0.8752,0 -1.7058,-0.088 -2.5633,-0.088 -0.8368,0 -1.6435,-0.088 -2.4749,-0.088 -0.6776,0 -1.3553,0 -2.0329,0 -0.6482,0 -1.2964,0 -1.9445,0 -1.0607,0 -2.1214,0 -3.182,0 -0.9723,0 -1.9446,0 -2.9168,0 -0.9723,0 -1.9446,0 -2.9169,0 -0.5303,0 -1.0422,-0.088 -1.5909,-0.088 -0.6504,0 -1.0257,0.744 -1.1491,1.2375 -0.1579,0.6316 -0.5301,1.149 -1.149,1.149 -0.4338,0 -0.9462,0.088 -1.4143,0.088 -0.4946,0 -0.3535,-0.8268 -0.3535,-1.2374 0,-0.405 -0.1768,-0.8549 -0.1768,-1.3259 0,-0.4879 0.2445,-0.6729 0.6187,-0.9722 z"
           id="path38436" />
      </g>
    </g>
    <g
       id="g38986"
       inkscape:label="Layer 1"
       transform="matrix(0.6885364,0,0,0.6885364,455.68287,628.81639)">
      <g
         inkscape:export-ydpi="300.23013"
         inkscape:export-xdpi="300.23013"
         inkscape:export-filename="/mnt/hgfs/Bov/Documents/Work/2007/cc/identity/srr buttons/big/by.png"
         id="g260"
         transform="matrix(0.9937728,0,0,0.9936696,-177.69267,6.25128e-7)">
        <path
           style="fill:#aab2ab"
           d="M 181.96579,0.51074 L 296.02975,0.71338 C 297.6235,0.71338 299.04733,0.47705 299.04733,3.89404 L 298.90768,41.46093 L 179.08737,41.46093 L 179.08737,3.75439 C 179.08737,2.06934 179.25046,0.51074 181.96579,0.51074 z"
           nodetypes="ccccccc"
           id="path3817_1_" />
        <path
           id="path263"
           d="M 297.29636,0 L 181.06736,0 C 179.82078,0 178.80613,1.01416 178.80613,2.26074 L 178.80613,41.75732 C 178.80613,42.03906 179.03513,42.26757 179.31687,42.26757 L 299.04734,42.26757 C 299.32908,42.26757 299.55808,42.03905 299.55808,41.75732 L 299.55808,2.26074 C 299.55807,1.01416 298.54343,0 297.29636,0 z M 181.06735,1.02148 L 297.29635,1.02148 C 297.98043,1.02148 298.53658,1.57714 298.53658,2.26074 C 298.53658,2.26074 298.53658,18.20898 298.53658,29.71045 L 215.19234,29.71045 C 212.14742,35.21631 206.28121,38.95459 199.54879,38.95459 C 192.81344,38.95459 186.94869,35.21973 183.90524,29.71045 L 179.8276,29.71045 C 179.8276,18.20899 179.8276,2.26074 179.8276,2.26074 C 179.82761,1.57715 180.38376,1.02148 181.06735,1.02148 z" />
        <g
           id="g265"
           enable-background="new    ">
          <path
             style="fill:#ffffff"
             id="path267"
             d="M 253.07761,32.95605 C 253.39499,32.95605 253.68503,32.98437 253.94773,33.04003 C 254.20945,33.09569 254.43308,33.18749 254.62058,33.31542 C 254.8071,33.44237 254.95261,33.6123 255.05515,33.82323 C 255.15769,34.03514 255.20945,34.29589 255.20945,34.60741 C 255.20945,34.94335 255.13328,35.22264 254.97996,35.44628 C 254.82762,35.67089 254.60105,35.85351 254.30223,35.99706 C 254.71434,36.11522 255.02196,36.32226 255.22508,36.61815 C 255.4282,36.91404 255.52977,37.27049 255.52977,37.68749 C 255.52977,38.02343 255.46434,38.31444 255.33348,38.56054 C 255.20262,38.80566 255.02586,39.00683 254.80516,39.1621 C 254.58348,39.31835 254.33055,39.43358 254.04735,39.5078 C 253.76317,39.583 253.47215,39.6201 253.17235,39.6201 L 249.936,39.6201 L 249.936,32.95604 L 253.07761,32.95604 L 253.07761,32.95605 z M 252.89011,35.65137 C 253.15183,35.65137 253.36667,35.58887 253.53562,35.46485 C 253.70359,35.34083 253.78757,35.13965 253.78757,34.86036 C 253.78757,34.70509 253.75925,34.57716 253.70359,34.47852 C 253.64695,34.37891 253.57273,34.30176 253.47898,34.24512 C 253.38523,34.18946 253.27781,34.15039 253.15671,34.12891 C 253.03561,34.10743 252.90866,34.09668 252.77878,34.09668 L 251.40476,34.09668 L 251.40476,35.65137 L 252.89011,35.65137 z M 252.97604,38.47949 C 253.11959,38.47949 253.25631,38.46582 253.38717,38.4375 C 253.51803,38.40918 253.63326,38.3623 253.73385,38.29785 C 253.83346,38.23242 253.91256,38.14355 253.97213,38.03125 C 254.0317,37.91992 254.061,37.77637 254.061,37.60254 C 254.061,37.26074 253.96432,37.0166 253.77096,36.87012 C 253.5776,36.72461 253.32174,36.65137 253.00436,36.65137 L 251.40475,36.65137 L 251.40475,38.47949 L 252.97604,38.47949 z" />
          <path
             style="fill:#ffffff"
             id="path269"
             d="M 255.78854,32.95605 L 257.43209,32.95605 L 258.99264,35.58789 L 260.54342,32.95605 L 262.17721,32.95605 L 259.70358,37.0625 L 259.70358,39.62012 L 258.23483,39.62012 L 258.23483,37.02539 L 255.78854,32.95605 z" />
        </g>
        <g
           transform="matrix(0.872921,0,0,0.872921,50.12536,143.2144)"
           id="g5908_1_">
          <path
             style="fill:#ffffff"
             d="M 186.90065,-141.46002 C 186.90623,-132.77923 179.87279,-125.73852 171.19257,-125.73291 C 162.51235,-125.72736 155.47051,-132.76025 155.46547,-141.44098 C 155.46547,-141.44714 155.46547,-141.45331 155.46547,-141.46002 C 155.46043,-150.14081 162.49333,-157.18152 171.17355,-157.18658 C 179.8549,-157.19213 186.89561,-150.15924 186.90065,-141.47845 C 186.90065,-141.4729 186.90065,-141.46619 186.90065,-141.46002 z"
             rx="22.939548"
             type="arc"
             cy="264.3577"
             ry="22.939548"
             cx="296.35416"
             id="path5906_1_" />
          <g
             transform="translate(-289.6157,99.0653)"
             id="g5706_1_">
            <path
               d="M 473.57574,-253.32751 C 477.06115,-249.8421 478.80413,-245.5736 478.80413,-240.52532 C 478.80413,-235.47594 477.09136,-231.25329 473.66582,-227.85741 C 470.03051,-224.28081 465.734,-222.49309 460.77635,-222.49309 C 455.87858,-222.49309 451.65648,-224.26628 448.11122,-227.81261 C 444.56541,-231.35845 442.79277,-235.59563 442.79277,-240.52532 C 442.79277,-245.45391 444.56541,-249.7213 448.11122,-253.32751 C 451.56642,-256.81402 455.7885,-258.557 460.77635,-258.557 C 465.82465,-258.55701 470.09039,-256.81403 473.57574,-253.32751 z M 450.45776,-250.98267 C 447.51104,-248.00629 446.03823,-244.51978 446.03823,-240.52033 C 446.03823,-236.52198 447.49651,-233.06507 450.41247,-230.14966 C 453.32897,-227.23316 456.80096,-225.77545 460.82952,-225.77545 C 464.85808,-225.77545 468.35967,-227.24768 471.33605,-230.19385 C 474.16198,-232.9303 475.57549,-236.37091 475.57549,-240.52033 C 475.57549,-244.63837 474.13903,-248.13379 471.26781,-251.00501 C 468.39714,-253.87568 464.9179,-255.31159 460.82952,-255.31159 C 456.74112,-255.31158 453.28314,-253.86841 450.45776,-250.98267 z M 458.21225,-242.27948 C 457.76196,-243.26117 457.08795,-243.75232 456.18903,-243.75232 C 454.59986,-243.75232 453.80558,-242.68225 453.80558,-240.54321 C 453.80558,-238.40368 454.59986,-237.33471 456.18903,-237.33471 C 457.23841,-237.33471 457.98795,-237.85546 458.43769,-238.89922 L 460.64045,-237.72625 C 459.59052,-235.86077 458.01536,-234.92779 455.91496,-234.92779 C 454.29506,-234.92779 452.99733,-235.42449 452.0229,-236.4168 C 451.0468,-237.41021 450.56016,-238.77953 450.56016,-240.52532 C 450.56016,-242.24035 451.06245,-243.60186 452.06764,-244.61034 C 453.07283,-245.61888 454.32466,-246.12291 455.82545,-246.12291 C 458.04557,-246.12291 459.63526,-245.24803 460.59626,-243.50005 L 458.21225,-242.27948 z M 468.57562,-242.27948 C 468.12475,-243.26117 467.46417,-243.75232 466.5932,-243.75232 C 464.97217,-243.75232 464.16107,-242.68225 464.16107,-240.54321 C 464.16107,-238.40368 464.97217,-237.33471 466.5932,-237.33471 C 467.64429,-237.33471 468.38037,-237.85546 468.80048,-238.89922 L 471.05249,-237.72625 C 470.00421,-235.86077 468.43127,-234.92779 466.33478,-234.92779 C 464.7171,-234.92779 463.42218,-235.42449 462.44831,-236.4168 C 461.47614,-237.41021 460.98896,-238.77953 460.98896,-240.52532 C 460.98896,-242.24035 461.48341,-243.60186 462.47181,-244.61034 C 463.45966,-245.61888 464.71711,-246.12291 466.24531,-246.12291 C 468.4615,-246.12291 470.04896,-245.24803 471.0066,-243.50005 L 468.57562,-242.27948 z"
               id="path5708_1_" />
          </g>
        </g>
        <g
           id="g275">
          <circle
             style="fill:#ffffff"
             sodipodi:ry="10.80664"
             sodipodi:rx="10.80664"
             sodipodi:cy="15.31348"
             sodipodi:cx="255.55124"
             id="circle277"
             r="10.80664"
             cy="15.31348"
             cx="255.55124"
             d="m 266.35788,15.31348 c 0,5.968343 -4.8383,10.80664 -10.80664,10.80664 -5.96834,0 -10.80664,-4.838297 -10.80664,-10.80664 0,-5.9683419 4.8383,-10.8066393 10.80664,-10.8066393 5.96834,0 10.80664,4.8382974 10.80664,10.8066393 z" />
          <g
             id="g279">
            <path
               id="path281"
               d="M 258.67819,12.18701 C 258.67819,11.77051 258.3403,11.4331 257.92526,11.4331 L 253.15182,11.4331 C 252.73678,11.4331 252.39889,11.7705 252.39889,12.18701 L 252.39889,16.95996 L 253.72994,16.95996 L 253.72994,22.61182 L 257.34713,22.61182 L 257.34713,16.95996 L 258.67818,16.95996 L 258.67818,12.18701 L 258.67819,12.18701 z" />
            <circle
               sodipodi:ry="1.63281"
               sodipodi:rx="1.63281"
               sodipodi:cy="9.1723604"
               sodipodi:cx="255.53854"
               id="circle283"
               r="1.63281"
               cy="9.1723604"
               cx="255.53854"
               d="m 257.17135,9.1723604 c 0,0.9017756 -0.73103,1.6328096 -1.63281,1.6328096 -0.90177,0 -1.63281,-0.731034 -1.63281,-1.6328096 0,-0.901776 0.73104,-1.63281 1.63281,-1.63281 0.90178,0 1.63281,0.731034 1.63281,1.63281 z" />
          </g>
          <path
             style="fill-rule:evenodd"
             id="path285"
             d="M 255.5239,3.40723 C 252.29148,3.40723 249.55515,4.53516 247.31589,6.79102 C 245.01804,9.12452 243.8696,11.88672 243.8696,15.07569 C 243.8696,18.26466 245.01804,21.00733 247.31589,23.30225 C 249.61374,25.59668 252.35007,26.74414 255.5239,26.74414 C 258.73679,26.74414 261.52195,25.58789 263.87742,23.27295 C 266.09715,21.07568 267.2075,18.34326 267.2075,15.07568 C 267.2075,11.8081 266.07762,9.04687 263.8198,6.79101 C 261.56003,4.53516 258.79538,3.40723 255.5239,3.40723 z M 255.55319,5.50684 C 258.20163,5.50684 260.45065,6.44092 262.30026,8.30811 C 264.1694,10.15528 265.10397,12.41114 265.10397,15.07569 C 265.10397,17.75928 264.18893,19.98633 262.35885,21.75587 C 260.43014,23.66212 258.16256,24.61476 255.55319,24.61476 C 252.94284,24.61476 250.69381,23.67189 248.80612,21.78517 C 246.91647,19.89845 245.97311,17.66212 245.97311,15.0757 C 245.97311,12.48879 246.92721,10.23341 248.83541,8.30812 C 250.6655,6.44092 252.90475,5.50684 255.55319,5.50684 z"
             clip-rule="evenodd" />
        </g>
      </g>
    </g>
  </g>
</svg>
