<?xml version="1.0" encoding="UTF-8" standalone="no"?>
<svg
   xmlns:dc="http://purl.org/dc/elements/1.1/"
   xmlns:cc="http://creativecommons.org/ns#"
   xmlns:rdf="http://www.w3.org/1999/02/22-rdf-syntax-ns#"
   xmlns:svg="http://www.w3.org/2000/svg"
   xmlns="http://www.w3.org/2000/svg"
   xmlns:sodipodi="http://sodipodi.sourceforge.net/DTD/sodipodi-0.dtd"
   xmlns:inkscape="http://www.inkscape.org/namespaces/inkscape"
   width="2048px"
   height="2048px"
   viewBox="0 0 2048 2048"
   version="1.1"
   id="svg2"
   inkscape:version="0.48.1 r9760"
   sodipodi:docname="divinity_v2_Cube_Cube.svg"
   inkscape:export-filename="/home/brutkasten/Dokumente/naev/enigs_stuff_for_naev/blender/schiffe/divinity/divinity_v2.png"
   inkscape:export-xdpi="180"
   inkscape:export-ydpi="180">
  <metadata
     id="metadata492">
    <rdf:RDF>
      <cc:Work
         rdf:about="">
        <dc:format>image/svg+xml</dc:format>
        <dc:type
           rdf:resource="http://purl.org/dc/dcmitype/StillImage" />
        <dc:title></dc:title>
      </cc:Work>
    </rdf:RDF>
  </metadata>
  <defs
     id="defs490" />
  <sodipodi:namedview
     pagecolor="#ffffff"
     bordercolor="#666666"
     borderopacity="1"
     objecttolerance="10"
     gridtolerance="10"
     guidetolerance="10"
     inkscape:pageopacity="0"
     inkscape:pageshadow="2"
     inkscape:window-width="1920"
     inkscape:window-height="1003"
     id="namedview488"
     showgrid="false"
     inkscape:zoom="0.29296875"
     inkscape:cx="633.73998"
     inkscape:cy="263.68159"
     inkscape:window-x="0"
     inkscape:window-y="25"
     inkscape:window-maximized="1"
     inkscape:current-layer="svg2" />
  <desc
     id="desc4">UV-Map from Object: Cube. Exported from Blender3D with UV Exportscript</desc>
  <rect
     x="0"
     y="0"
     width="2048"
     height="2048"
     fill="none"
     stroke="blue"
     stroke-width="1px"
     id="rect6" />
  <g
     style="fill:none; stroke:black; stroke-width:1px;"
     id="g8">
    <polygon
       points="1569.739,1406.013 1569.666,1429.713 1593.502,1429.786 1593.575,1406.086 "
       id="polygon10" />
    <polygon
       points="1366.417,1745.527 1390.302,1745.599 1390.647,1634.015 1366.761,1634.183 "
       id="polygon12" />
    <polygon
       points="972.223,1523.864 996.109,1523.937 996.472,1406.327 972.588,1406.013 "
       id="polygon14" />
    <polygon
       points="1593.196,1739.915 1593.285,1716.216 1569.449,1716.143 1569.375,1739.843 "
       id="polygon16" />
    <polygon
       points="1274.202,1796.532 1274.275,1772.832 1250.391,1772.760 1250.317,1796.460 "
       id="polygon18" />
    <polygon
       points="948.338,1526.758 972.223,1526.831 921.522,1402.232 897.637,1402.159 "
       id="polygon20" />
    <polygon
       points="1271.571,1634.016 1249.589,1643.286 1249.541,1772.760 1271.523,1763.489 "
       id="polygon22" />
    <polygon
       points="1236.708,472.954 1236.635,496.654 1260.471,496.726 1260.544,473.026 "
       id="polygon24" />
    <polygon
       points="381.245,1306.784 405.130,1306.856 405.203,1283.254 381.318,1283.181 "
       id="polygon26" />
    <polygon
       points="972.223,1526.831 948.338,1526.758 908.625,2047.927 932.510,2048.000 "
       id="polygon28" />
    <polygon
       points="996.109,1523.937 972.223,1523.864 1008.706,2047.389 1032.592,2047.461 "
       id="polygon30" />
    <polygon
       points="1068.197,1262.439 1092.082,1262.511 1093.586,739.969 1069.700,739.897 "
       id="polygon32" />
    <polygon
       points="1602.820,739.270 1578.934,739.342 1567.936,1381.928 1591.822,1381.855 "
       id="polygon34" />
    <polygon
       points="392.167,1974.011 416.052,1974.084 405.130,1306.856 381.245,1306.784 "
       id="polygon36" />
    <polygon
       points="1141.428,716.420 1093.586,739.969 1163.256,1382.246 1187.142,1382.319 "
       id="polygon38" />
    <polygon
       points="971.590,51.058 947.745,52.439 948.379,712.141 972.223,710.760 "
       id="polygon40" />
    <polygon
       points="695.270,733.745 744.669,713.600 720.789,67.623 696.969,65.880 "
       id="polygon42" />
    <polygon
       points="1008.706,2047.389 1032.592,2047.461 996.472,1406.327 972.588,1406.013 "
       id="polygon44" />
    <polygon
       points="381.245,1306.784 381.318,1283.181 254.307,1282.794 254.234,1306.397 "
       id="polygon46" />
    <polygon
       points="1260.471,496.726 1236.635,496.654 1236.245,622.679 1260.081,622.751 "
       id="polygon48" />
    <polygon
       points="1274.202,1796.532 1250.317,1796.460 1249.614,2023.864 1273.499,2023.937 "
       id="polygon50" />
    <polygon
       points="1593.196,1739.915 1569.375,1739.843 1568.672,1967.247 1592.493,1967.320 "
       id="polygon52" />
    <polygon
       points="1593.502,1429.786 1569.666,1429.713 1568.963,1657.118 1592.799,1657.190 "
       id="polygon54" />
    <polygon
       points="1592.799,1657.190 1568.963,1657.118 1568.889,1680.817 1592.726,1680.890 "
       id="polygon56" />
    <polygon
       points="1493.210,2046.654 1493.554,1935.310 1469.670,1934.998 1469.325,2046.581 "
       id="polygon58" />
    <polygon
       points="1225.655,1407.025 1225.292,1524.635 1249.177,1524.708 1249.541,1406.856 "
       id="polygon60" />
    <polygon
       points="1592.493,1967.320 1568.672,1967.247 1568.599,1990.947 1592.435,1991.020 "
       id="polygon62" />
    <polygon
       points="1273.499,2023.937 1249.614,2023.864 1249.541,2047.564 1273.425,2047.637 "
       id="polygon64" />
    <polygon
       points="719.155,1526.061 770.626,1401.773 746.741,1401.700 695.270,1525.988 "
       id="polygon66" />
    <polygon
       points="1393.696,1928.634 1444.414,2047.927 1468.299,2048.000 1417.581,1928.707 "
       id="polygon68" />
    <polygon
       points="1260.081,622.751 1236.245,622.679 1236.172,646.379 1260.008,646.451 "
       id="polygon70" />
    <polygon
       points="254.234,1306.397 254.307,1282.794 230.422,1282.722 230.349,1306.324 "
       id="polygon72" />
    <polygon
       points="755.645,2047.462 719.155,1526.061 695.270,1525.988 731.759,2047.389 "
       id="polygon74" />
    <polygon
       points="1225.292,1524.635 1185.572,2047.927 1209.457,2048.000 1249.177,1524.708 "
       id="polygon76" />
    <polygon
       points="1440.925,1382.315 1425.954,739.808 1402.069,739.881 1417.040,1382.387 "
       id="polygon78" />
    <polygon
       points="239.187,1973.546 254.234,1306.397 230.349,1306.324 215.301,1973.473 "
       id="polygon80" />
    <polygon
       points="781.002,712.141 781.635,52.439 757.790,51.058 757.157,710.760 "
       id="polygon82" />
    <polygon
       points="1225.655,1407.025 1185.572,2047.927 1209.457,2048.000 1249.541,1406.856 "
       id="polygon84" />
    <polygon
       points="120.223,1428.471 96.338,1428.544 97.865,1951.253 121.750,1951.180 "
       id="polygon86" />
    <polygon
       points="121.750,1951.180 169.593,1974.732 215.301,1308.834 191.416,1308.907 "
       id="polygon88" />
    <polygon
       points="744.669,753.889 695.270,733.745 696.971,1401.700 720.791,1399.957 "
       id="polygon90" />
    <polygon
       points="1479.374,46.244 1476.233,22.753 1475.573,739.270 1499.250,736.152 "
       id="polygon92" />
    <polygon
       points="1308.708,1357.840 1308.782,1381.534 1402.069,670.607 1378.184,670.680 "
       id="polygon94" />
    <polygon
       points="1308.708,1357.840 1284.823,1357.912 1284.897,1381.607 1308.782,1381.534 "
       id="polygon96" />
    <polygon
       points="1307.014,788.329 1283.129,788.402 1284.823,1357.912 1308.708,1357.840 "
       id="polygon98" />
    <polygon
       points="671.023,1313.933 632.274,1999.929 656.160,1999.857 694.902,1311.822 "
       id="polygon100" />
    <polygon
       points="2024.535,663.111 2024.151,1404.705 2048.000,1406.013 2047.059,688.209 "
       id="polygon102" />
    <polygon
       points="394.137,441.864 381.683,1165.167 405.568,1165.240 417.948,465.762 "
       id="polygon104" />
    <polygon
       points="659.045,624.707 671.385,1311.300 695.270,1311.227 682.930,624.634 "
       id="polygon106" />
    <polygon
       points="1284.919,1406.013 1308.804,1405.941 1308.782,1381.534 1284.897,1381.607 "
       id="polygon108" />
    <polygon
       points="671.385,1431.032 632.274,1999.929 656.160,1999.857 695.270,1430.959 "
       id="polygon110" />
    <polygon
       points="1475.573,738.906 1425.951,173.126 1402.069,173.490 1451.690,739.270 "
       id="polygon112" />
    <polygon
       points="381.683,1165.167 381.610,1188.770 405.495,1188.843 405.568,1165.240 "
       id="polygon114" />
    <polygon
       points="1352.563,622.751 1328.715,622.679 1328.641,646.379 1352.490,646.451 "
       id="polygon116" />
    <polygon
       points="1342.147,1771.644 1341.989,1643.353 1320.035,1634.016 1320.194,1762.306 "
       id="polygon118" />
    <polygon
       points="1425.951,173.126 1475.307,60.778 1451.424,61.141 1402.069,173.490 "
       id="polygon120" />
    <polygon
       points="1369.739,1796.823 1393.623,1796.896 1393.696,1773.196 1369.812,1773.123 "
       id="polygon122" />
    <polygon
       points="1567.709,1967.319 1543.974,1967.247 1543.900,1990.947 1567.749,1991.020 "
       id="polygon124" />
    <polygon
       points="671.023,1313.933 671.385,1431.032 695.270,1430.959 694.902,1311.822 "
       id="polygon126" />
    <polygon
       points="1366.417,1758.386 1366.039,1635.973 1342.147,1634.015 1342.532,1758.459 "
       id="polygon128" />
    <polygon
       points="1568.113,1657.190 1544.264,1657.118 1544.191,1680.817 1568.040,1680.890 "
       id="polygon130" />
    <polygon
       points="1568.816,1429.786 1544.968,1429.713 1544.264,1657.118 1568.113,1657.190 "
       id="polygon132" />
    <polygon
       points="1568.412,1739.915 1544.677,1739.843 1543.974,1967.247 1567.709,1967.319 "
       id="polygon134" />
    <polygon
       points="1369.036,2024.227 1392.920,2024.300 1393.623,1796.896 1369.739,1796.823 "
       id="polygon136" />
    <polygon
       points="1352.953,496.726 1329.104,496.654 1328.715,622.679 1352.563,622.751 "
       id="polygon138" />
    <polygon
       points="254.672,1164.781 254.599,1188.383 381.610,1188.770 381.683,1165.167 "
       id="polygon140" />
    <polygon
       points="1260.544,646.379 1284.381,646.451 1284.833,500.150 1260.997,500.078 "
       id="polygon142" />
    <polygon
       points="460.944,2000.451 484.829,2000.378 441.840,1314.630 417.948,1312.665 "
       id="polygon144" />
    <polygon
       points="1810.499,716.332 1813.639,692.843 1833.465,3.118 1809.787,0.000 "
       id="polygon146" />
    <polygon
       points="2000.687,1406.013 2023.210,1380.916 2024.151,663.111 2000.302,664.419 "
       id="polygon148" />
    <polygon
       points="117.171,456.227 117.243,479.924 190.981,1166.728 214.867,1166.656 "
       id="polygon150" />
    <polygon
       points="246.691,441.415 222.732,465.168 230.787,1164.708 254.672,1164.781 "
       id="polygon152" />
    <polygon
       points="500.054,1311.822 523.939,1311.749 532.034,625.094 508.148,625.166 "
       id="polygon154" />
    <polygon
       points="93.166,431.976 93.286,456.300 117.171,456.227 117.051,431.903 "
       id="polygon156" />
    <polygon
       points="93.358,479.996 117.243,479.924 117.171,456.227 93.286,456.300 "
       id="polygon158" />
    <polygon
       points="95.178,1049.401 119.063,1049.328 117.243,479.924 93.358,479.996 "
       id="polygon160" />
    <polygon
       points="442.202,1431.730 418.317,1431.802 460.944,2000.451 484.829,2000.378 "
       id="polygon162" />
    <polygon
       points="1846.989,603.620 1870.871,603.984 1920.493,38.204 1896.610,37.840 "
       id="polygon164" />
    <polygon
       points="254.672,1164.781 230.787,1164.708 230.714,1188.311 254.599,1188.383 "
       id="polygon166" />
    <polygon
       points="1329.178,472.954 1329.104,496.654 1352.953,496.726 1353.026,473.026 "
       id="polygon168" />
    <polygon
       points="1469.325,1716.216 1445.440,1716.143 1393.989,1833.839 1417.875,1833.911 "
       id="polygon170" />
    <polygon
       points="1870.871,603.984 1846.989,603.620 1896.344,715.969 1920.227,716.332 "
       id="polygon172" />
    <polygon
       points="1369.036,2024.227 1368.962,2047.927 1392.846,2048.000 1392.920,2024.300 "
       id="polygon174" />
    <polygon
       points="1568.412,1739.915 1568.599,1716.216 1544.750,1716.143 1544.677,1739.843 "
       id="polygon176" />
    <polygon
       points="418.317,1431.802 442.202,1431.730 441.840,1314.630 417.948,1312.665 "
       id="polygon178" />
    <polygon
       points="1494.232,1716.216 1470.347,1716.143 1469.962,1840.587 1493.853,1838.629 "
       id="polygon180" />
    <polygon
       points="1545.041,1406.013 1544.968,1429.713 1568.816,1429.786 1568.890,1406.086 "
       id="polygon182" />
    <polygon
       points="1273.499,2023.937 1273.425,2047.637 1368.962,2047.927 1369.036,2024.227 "
       id="polygon184" />
    <polygon
       points="24.248,1286.583 23.958,1191.798 0.072,1191.870 0.362,1286.656 "
       id="polygon186" />
    <polygon
       points="1162.953,546.477 1163.250,641.257 1187.142,643.222 1186.837,546.164 "
       id="polygon188" />
    <polygon
       points="1493.554,1935.310 1493.853,1838.629 1469.962,1840.587 1469.670,1934.998 "
       id="polygon190" />
    <polygon
       points="1068.647,548.738 1044.761,548.811 1045.053,643.222 1068.938,643.149 "
       id="polygon192" />
    <polygon
       points="1020.588,643.149 1020.298,548.364 996.412,548.436 996.702,643.222 "
       id="polygon194" />
    <polygon
       points="996.108,546.164 972.223,546.477 972.521,641.257 996.412,643.222 "
       id="polygon196" />
    <polygon
       points="1398.422,1406.013 1398.105,1429.712 1495.940,1430.010 1493.958,1406.304 "
       id="polygon198" />
    <polygon
       points="1393.696,1928.634 1417.581,1928.707 1417.875,1833.911 1393.989,1833.839 "
       id="polygon200" />
    <polygon
       points="191.344,1285.211 215.229,1285.138 214.939,1190.352 191.054,1190.425 "
       id="polygon202" />
    <polygon
       points="254.307,1282.794 254.599,1188.383 230.714,1188.311 230.422,1282.722 "
       id="polygon204" />
    <polygon
       points="1044.761,548.443 1020.876,548.370 1020.588,643.149 1044.473,643.222 "
       id="polygon206" />
    <polygon
       points="694.978,506.524 671.093,506.597 671.385,601.008 695.270,600.935 "
       id="polygon208" />
    <polygon
       points="1114.889,643.222 1138.774,643.149 1138.484,548.364 1114.599,548.436 "
       id="polygon210" />
    <polygon
       points="1138.774,643.149 1162.660,643.222 1162.953,548.427 1139.067,548.354 "
       id="polygon212" />
    <polygon
       points="1090.714,548.370 1090.426,643.149 1114.311,643.222 1114.599,548.443 "
       id="polygon214" />
    <polygon
       points="1295.809,1634.088 1296.199,1760.113 1320.035,1760.041 1319.646,1634.015 "
       id="polygon216" />
    <polygon
       points="1328.189,646.451 1328.641,500.150 1304.793,500.078 1304.340,646.379 "
       id="polygon218" />
    <polygon
       points="1495.939,1552.314 1543.739,1552.460 1544.191,1406.159 1496.392,1406.013 "
       id="polygon220" />
    <polygon
       points="1602.477,739.270 1602.820,71.830 1578.994,73.500 1553.142,718.974 "
       id="polygon222" />
    <polygon
       points="1271.571,1760.041 1295.420,1760.113 1295.809,1634.088 1271.961,1634.015 "
       id="polygon224" />
    <polygon
       points="948.338,735.951 878.621,1377.785 926.464,1401.337 972.223,735.878 "
       id="polygon226" />
    <polygon
       points="1617.438,1633.490 1618.141,1406.086 1594.279,1406.013 1593.576,1633.418 "
       id="polygon228" />
    <polygon
       points="757.157,735.669 807.038,1401.700 854.736,1377.858 781.043,735.837 "
       id="polygon230" />
    <polygon
       points="1859.489,736.626 1810.152,716.332 1809.787,1384.289 1833.596,1382.378 "
       id="polygon232" />
    <polygon
       points="874.795,484.736 850.827,484.663 850.124,712.068 874.091,712.141 "
       id="polygon234" />
    <polygon
       points="1922.231,664.431 1920.493,1406.013 1943.932,1401.018 1928.250,711.672 "
       id="polygon236" />
    <polygon
       points="441.387,575.141 417.948,570.146 419.669,1311.822 425.687,1264.584 "
       id="polygon238" />
    <polygon
       points="632.422,2047.551 632.274,1999.929 484.829,2000.378 484.976,2048.000 "
       id="polygon240" />
    <polygon
       points="1807.940,1406.013 1809.787,664.953 1786.091,667.926 1801.918,1358.776 "
       id="polygon242" />
    <polygon
       points="1682.609,1382.504 1706.306,1385.477 1704.453,644.403 1698.431,691.644 "
       id="polygon244" />
    <polygon
       points="1778.221,1361.749 1801.918,1358.776 1730.002,795.432 1706.305,798.406 "
       id="polygon246" />
    <polygon
       points="1602.820,1252.196 1626.516,1255.169 1698.431,691.644 1674.734,688.670 "
       id="polygon248" />
    <polygon
       points="1534.280,1552.460 1496.321,1566.584 1495.939,1689.898 1533.811,1704.253 "
       id="polygon250" />
    <polygon
       points="781.635,712.068 805.484,712.141 805.953,560.347 782.104,560.275 "
       id="polygon252" />
    <polygon
       points="500.352,504.742 500.054,601.008 522.724,564.825 522.797,541.125 "
       id="polygon254" />
    <polygon
       points="671.093,564.630 671.020,540.930 648.399,504.742 648.697,601.008 "
       id="polygon256" />
    <polygon
       points="805.484,712.141 843.269,698.015 843.650,574.702 805.953,560.347 "
       id="polygon258" />
    <polygon
       points="119.710,2028.572 100.306,2028.631 61.558,2048.000 158.576,2047.704 "
       id="polygon260" />
    <polygon
       points="542.201,601.008 542.498,504.889 523.094,504.830 522.797,600.949 "
       id="polygon262" />
    <polygon
       points="628.698,600.949 648.102,601.008 648.399,504.889 628.995,504.830 "
       id="polygon264" />
    <polygon
       points="1072.133,662.589 1091.537,662.648 1130.403,643.517 1033.384,643.222 "
       id="polygon266" />
    <polygon
       points="1494.701,1894.720 1494.232,2046.513 1540.378,2046.654 1540.847,1894.861 "
       id="polygon268" />
    <polygon
       points="1543.900,1716.293 1494.701,1716.143 1494.232,1867.936 1543.431,1868.086 "
       id="polygon270" />
    <polygon
       points="1187.845,418.974 1187.142,646.379 1210.978,646.451 1211.681,419.047 "
       id="polygon272" />
    <polygon
       points="1211.681,646.379 1235.469,646.451 1236.172,419.047 1212.384,418.974 "
       id="polygon274" />
    <polygon
       points="1593.988,1716.143 1593.285,1943.547 1617.169,1943.620 1617.872,1716.216 "
       id="polygon276" />
    <polygon
       points="1090.426,486.580 1077.962,506.791 1077.833,643.222 1090.297,623.011 "
       id="polygon278" />
    <polygon
       points="1304.207,510.014 1291.742,489.802 1291.875,626.239 1304.340,646.451 "
       id="polygon280" />
    <polygon
       points="1249.541,1633.418 1273.328,1633.490 1274.031,1406.086 1250.244,1406.013 "
       id="polygon282" />
    <polygon
       points="1353.026,646.379 1376.814,646.451 1377.517,419.047 1353.730,418.974 "
       id="polygon284" />
    <polygon
       points="852.988,830.164 780.970,712.141 781.043,735.837 853.060,853.860 "
       id="polygon286" />
    <polygon
       points="1835.281,1406.013 1898.352,1283.061 1896.667,1259.425 1833.596,1382.378 "
       id="polygon288" />
    <polygon
       points="853.060,853.860 854.736,1377.858 878.621,1377.785 876.945,853.787 "
       id="polygon290" />
    <polygon
       points="1859.489,736.626 1896.667,1259.425 1920.493,1257.754 1883.314,734.955 "
       id="polygon292" />
    <polygon
       points="1377.517,646.379 1401.366,646.451 1402.069,419.047 1378.220,418.974 "
       id="polygon294" />
    <polygon
       points="948.411,1503.156 719.228,1502.458 719.155,1526.061 948.338,1526.758 "
       id="polygon296" />
    <polygon
       points="996.182,1500.238 996.109,1523.937 1225.292,1524.635 1225.365,1500.936 "
       id="polygon298" />
    <polygon
       points="1783.094,644.418 1727.005,771.925 1730.002,795.432 1786.091,667.926 "
       id="polygon300" />
    <polygon
       points="1623.519,1278.678 1679.612,1406.013 1682.609,1382.504 1626.516,1255.169 "
       id="polygon302" />
    <polygon
       points="658.971,601.008 531.960,601.395 532.034,625.094 659.045,624.707 "
       id="polygon304" />
    <polygon
       points="1567.936,1381.928 1440.925,1382.315 1440.999,1406.013 1568.010,1405.627 "
       id="polygon306" />
    <polygon
       points="876.945,853.787 948.338,735.951 948.266,712.255 876.873,830.091 "
       id="polygon308" />
    <polygon
       points="1499.250,739.270 1511.652,719.020 1511.779,581.678 1499.378,601.928 "
       id="polygon310" />
    <polygon
       points="659.045,624.707 532.034,625.094 523.939,1311.749 671.385,1311.300 "
       id="polygon312" />
    <polygon
       points="1567.936,1381.928 1578.934,739.342 1425.954,739.808 1440.925,1382.315 "
       id="polygon314" />
    <polygon
       points="1626.516,1255.169 1682.609,1382.504 1698.431,691.644 "
       id="polygon316" />
    <polygon
       points="497.760,699.579 441.387,575.141 425.687,1264.584 "
       id="polygon318" />
    <polygon
       points="1801.918,1358.776 1786.091,667.926 1730.002,795.432 "
       id="polygon320" />
    <polygon
       points="1928.250,711.672 1943.932,1401.018 2000.302,1276.573 "
       id="polygon322" />
    <polygon
       points="1553.142,718.974 1578.994,73.500 1516.090,197.557 "
       id="polygon324" />
    <polygon
       points="1859.489,736.626 1833.596,1382.378 1896.667,1259.425 "
       id="polygon326" />
    <polygon
       points="876.945,853.787 878.621,1377.785 948.338,735.951 "
       id="polygon328" />
    <polygon
       points="853.060,853.860 781.043,735.837 854.736,1377.858 "
       id="polygon330" />
    <polygon
       points="948.338,1526.758 897.637,1402.159 770.626,1401.773 719.155,1526.061 "
       id="polygon332" />
    <polygon
       points="996.109,1523.937 1225.292,1524.635 1225.655,1407.025 996.472,1406.327 "
       id="polygon334" />
    <polygon
       points="996.472,1406.327 1032.592,2047.461 1185.572,2047.927 1225.655,1407.025 "
       id="polygon336" />
    <polygon
       points="1396.699,1633.866 1397.402,1406.461 1274.031,1406.086 1273.328,1633.490 "
       id="polygon338" />
    <polygon
       points="671.023,1313.933 441.840,1314.630 484.829,2000.378 632.274,1999.929 "
       id="polygon340" />
    <polygon
       points="1398.105,1429.712 1397.402,1657.117 1495.236,1657.415 1495.940,1430.010 "
       id="polygon342" />
    <polygon
       points="947.745,560.347 876.251,574.370 875.870,697.683 947.276,712.141 "
       id="polygon344" />
    <polygon
       points="876.251,574.370 875.176,574.367 874.794,697.680 875.870,697.683 "
       id="polygon346" />
    <polygon
       points="239.187,1973.546 253.313,2046.495 377.590,2046.874 392.167,1974.011 "
       id="polygon348" />
    <polygon
       points="253.313,2046.495 253.309,2047.563 377.587,2047.941 377.590,2046.874 "
       id="polygon350" />
    <polygon
       points="121.750,1951.180 119.707,2027.501 158.573,2046.633 169.593,1974.732 "
       id="polygon352" />
    <polygon
       points="119.707,2027.501 119.710,2028.572 158.576,2047.704 158.573,2046.633 "
       id="polygon354" />
    <polygon
       points="50.167,1975.095 61.554,2046.929 100.303,2027.560 97.865,1951.253 "
       id="polygon356" />
    <polygon
       points="61.554,2046.929 61.558,2048.000 100.306,2028.631 100.303,2027.560 "
       id="polygon358" />
    <polygon
       points="97.865,1951.253 100.303,2027.560 119.707,2027.501 121.750,1951.180 "
       id="polygon360" />
    <polygon
       points="100.303,2027.560 100.306,2028.631 119.710,2028.572 119.707,2027.501 "
       id="polygon362" />
    <polygon
       points="565.924,596.384 565.825,522.898 546.794,526.655 542.498,601.008 "
       id="polygon364" />
    <polygon
       points="565.825,522.898 565.615,521.847 546.584,525.603 546.794,526.655 "
       id="polygon366" />
    <polygon
       points="215.301,1973.473 233.909,2046.436 253.313,2046.495 239.187,1973.546 "
       id="polygon368" />
    <polygon
       points="233.909,2046.436 233.906,2047.503 253.309,2047.563 253.313,2046.495 "
       id="polygon370" />
    <polygon
       points="392.167,1974.011 377.590,2046.874 396.994,2046.933 416.052,1974.084 "
       id="polygon372" />
    <polygon
       points="377.590,2046.874 377.587,2047.941 396.991,2048.000 396.994,2046.933 "
       id="polygon374" />
    <polygon
       points="605.272,521.847 609.568,596.201 628.599,599.957 628.698,526.471 "
       id="polygon376" />
    <polygon
       points="609.568,596.201 609.357,597.252 628.389,601.008 628.599,599.957 "
       id="polygon378" />
    <polygon
       points="1069.700,739.897 1072.130,663.661 1033.381,644.293 1022.002,716.056 "
       id="polygon380" />
    <polygon
       points="1072.130,663.661 1072.133,662.589 1033.384,643.222 1033.381,644.293 "
       id="polygon382" />
    <polygon
       points="1141.428,716.420 1130.400,644.589 1091.534,663.720 1093.586,739.969 "
       id="polygon384" />
    <polygon
       points="1130.400,644.589 1130.403,643.517 1091.537,662.648 1091.534,663.720 "
       id="polygon386" />
    <polygon
       points="1093.586,739.969 1091.534,663.720 1072.130,663.661 1069.700,739.897 "
       id="polygon388" />
    <polygon
       points="1091.534,663.720 1091.537,662.648 1072.133,662.589 1072.130,663.661 "
       id="polygon390" />
    <polygon
       points="1378.130,653.501 1402.069,670.607 1401.994,646.912 "
       id="polygon392" />
    <polygon
       points="1378.109,646.985 1378.130,653.501 1401.994,646.912 "
       id="polygon394" />
    <polygon
       points="1378.130,653.501 1378.184,670.680 1402.069,670.607 "
       id="polygon396" />
    <polygon
       points="1306.939,764.635 1306.960,771.151 1378.130,653.501 1378.109,646.985 "
       id="polygon398" />
    <polygon
       points="1306.960,771.151 1307.014,788.329 1378.184,670.680 1378.130,653.501 "
       id="polygon400" />
    <polygon
       points="1211.047,652.967 1187.142,646.524 1187.216,670.219 "
       id="polygon402" />
    <polygon
       points="1211.101,670.146 1211.047,652.967 1187.216,670.219 "
       id="polygon404" />
    <polygon
       points="1211.047,652.967 1211.027,646.451 1187.142,646.524 "
       id="polygon406" />
    <polygon
       points="1283.129,788.402 1283.075,771.223 1211.047,652.967 1211.101,670.146 "
       id="polygon408" />
    <polygon
       points="1283.075,771.223 1283.054,764.707 1211.027,646.451 1211.047,652.967 "
       id="polygon410" />
    <polygon
       points="1283.054,764.707 1283.075,771.223 1306.960,771.151 1306.939,764.635 "
       id="polygon412" />
    <polygon
       points="1283.075,771.223 1283.129,788.402 1307.014,788.329 1306.960,771.151 "
       id="polygon414" />
    <polygon
       points="1092.010,1286.206 1092.031,1279.216 1068.146,1279.144 1068.125,1286.134 "
       id="polygon416" />
    <polygon
       points="1092.031,1279.216 1092.082,1262.511 1068.197,1262.439 1068.146,1279.144 "
       id="polygon418" />
    <polygon
       points="1068.125,1286.134 1068.146,1279.144 996.130,1397.400 996.109,1404.390 "
       id="polygon420" />
    <polygon
       points="1068.146,1279.144 1068.197,1262.439 996.181,1380.695 996.130,1397.400 "
       id="polygon422" />
    <polygon
       points="996.130,1397.400 972.295,1380.622 972.223,1404.317 "
       id="polygon424" />
    <polygon
       points="996.109,1404.390 996.130,1397.400 972.223,1404.317 "
       id="polygon426" />
    <polygon
       points="996.130,1397.400 996.181,1380.695 972.295,1380.622 "
       id="polygon428" />
    <polygon
       points="1092.082,1262.511 1092.031,1279.216 1163.206,1398.951 1163.256,1382.246 "
       id="polygon430" />
    <polygon
       points="1092.031,1279.216 1092.010,1286.206 1163.184,1405.941 1163.206,1398.951 "
       id="polygon432" />
    <polygon
       points="1163.206,1398.951 1187.069,1406.013 1187.142,1382.319 "
       id="polygon434" />
    <polygon
       points="1163.256,1382.246 1163.206,1398.951 1187.142,1382.319 "
       id="polygon436" />
    <polygon
       points="1163.206,1398.951 1163.184,1405.941 1187.069,1406.013 "
       id="polygon438" />
    <polygon
       points="96.266,1404.847 96.301,1416.459 120.186,1416.386 120.151,1404.775 "
       id="polygon440" />
    <polygon
       points="96.301,1416.459 96.338,1428.544 120.223,1428.471 120.186,1416.386 "
       id="polygon442" />
    <polygon
       points="96.338,1428.544 96.301,1416.459 24.283,1298.195 24.320,1310.280 "
       id="polygon444" />
    <polygon
       points="96.301,1416.459 96.266,1404.847 24.248,1286.583 24.283,1298.195 "
       id="polygon446" />
    <polygon
       points="24.283,1298.195 0.362,1286.656 0.435,1310.353 "
       id="polygon448" />
    <polygon
       points="24.320,1310.280 24.283,1298.195 0.435,1310.353 "
       id="polygon450" />
    <polygon
       points="24.283,1298.195 24.248,1286.583 0.362,1286.656 "
       id="polygon452" />
    <polygon
       points="120.151,1404.775 120.186,1416.386 191.379,1296.822 191.344,1285.211 "
       id="polygon454" />
    <polygon
       points="120.186,1416.386 120.223,1428.471 191.416,1308.907 191.379,1296.822 "
       id="polygon456" />
    <polygon
       points="191.379,1296.822 215.301,1308.834 215.229,1285.138 "
       id="polygon458" />
    <polygon
       points="191.344,1285.211 191.379,1296.822 215.229,1285.138 "
       id="polygon460" />
    <polygon
       points="191.379,1296.822 191.416,1308.907 215.301,1308.834 "
       id="polygon462" />
    <polygon
       points="191.030,1182.487 214.939,1190.352 214.867,1166.656 "
       id="polygon464" />
    <polygon
       points="190.981,1166.728 191.030,1182.487 214.867,1166.656 "
       id="polygon466" />
    <polygon
       points="191.030,1182.487 191.054,1190.425 214.939,1190.352 "
       id="polygon468" />
    <polygon
       points="119.063,1049.328 119.112,1065.087 191.030,1182.487 190.981,1166.728 "
       id="polygon470" />
    <polygon
       points="119.112,1065.087 119.136,1073.025 191.054,1190.425 191.030,1182.487 "
       id="polygon472" />
    <polygon
       points="23.933,1183.859 0.000,1168.174 0.072,1191.870 "
       id="polygon474" />
    <polygon
       points="23.958,1191.798 23.933,1183.859 0.072,1191.870 "
       id="polygon476" />
    <polygon
       points="23.933,1183.859 23.885,1168.101 0.000,1168.174 "
       id="polygon478" />
    <polygon
       points="95.251,1073.098 95.226,1065.159 23.933,1183.859 23.958,1191.798 "
       id="polygon480" />
    <polygon
       points="95.226,1065.159 95.178,1049.401 23.885,1168.101 23.933,1183.859 "
       id="polygon482" />
    <polygon
       points="119.136,1073.025 119.112,1065.087 95.226,1065.159 95.251,1073.098 "
       id="polygon484" />
    <polygon
       points="119.112,1065.087 119.063,1049.328 95.178,1049.401 95.226,1065.159 "
       id="polygon486" />
  </g>
  <g
     transform="matrix(-0.7011046,0,0,0.71876349,1656.6226,1314.1404)"
     id="layer1"
     inkscape:label="Layer 1">
    <path
       transform="matrix(0.9310106,0,0,0.9310106,-7.2717323,2.4487929)"
       d="m 362.64476,335.65897 c 0,7.81048 -6.33165,14.14213 -14.14214,14.14213 -7.81048,0 -14.14213,-6.33165 -14.14213,-14.14213 0,-7.81049 6.33165,-14.14214 14.14213,-14.14214 7.81049,0 14.14214,6.33165 14.14214,14.14214 z"
       sodipodi:ry="14.142136"
       sodipodi:rx="14.142136"
       sodipodi:cy="335.65897"
       sodipodi:cx="348.50262"
       id="path2385"
       style="fill:#666666;fill-rule:evenodd;stroke:#000000;stroke-width:1px;stroke-linecap:butt;stroke-linejoin:miter;stroke-opacity:1"
       sodipodi:type="arc" />
    <path
       inkscape:connector-curvature="0"
       sodipodi:nodetypes="ccc"
       id="path2387"
       d="m 265.16504,417.98638 c 5.21513,-70.51309 -1.83928,-180.18863 89.3985,-119.70307 -99.20969,-141.48457 -103.77684,61.16802 -89.3985,119.70307 z"
       style="fill:#000000;fill-rule:evenodd;stroke:#000000;stroke-width:1px;stroke-linecap:butt;stroke-linejoin:miter;stroke-opacity:1" />
    <path
       inkscape:connector-curvature="0"
       sodipodi:nodetypes="ccc"
       id="path2383"
       d="m 265.67012,418.99654 c -46.35871,-115.7233 24.78886,-280.4973 89.3985,-120.71323 -88.0278,-101.4989 -106.22136,45.4908 -89.3985,120.71323 z"
       style="fill:#333333;fill-rule:evenodd;stroke:#000000;stroke-width:1px;stroke-linecap:butt;stroke-linejoin:miter;stroke-opacity:1" />
  </g>
  <path
     inkscape:connector-curvature="0"
     style="fill:#000000;stroke:#000000;stroke-width:0.82767975px;stroke-linecap:butt;stroke-linejoin:miter;stroke-opacity:1"
     d="m 1505.0443,827.50935 c -13.9719,0.1663 -38.5206,-52.17738 -27.9761,-52.35643 21.929,44.09451 32.2738,44.41294 56.5447,0.17304 8.5236,0.26066 -13.8897,52.42541 -28.5686,52.18339 z"
     id="path5975-5"
     sodipodi:nodetypes="cccc" />
  <path
     inkscape:connector-curvature="0"
     style="fill:#000000;stroke:#000000;stroke-width:0.82767975px;stroke-linecap:butt;stroke-linejoin:miter;stroke-opacity:1"
     d="m 1504.9667,900.37647 c -13.9724,0.16631 -38.5206,-52.17693 -27.9761,-52.35596 21.929,44.09403 32.2733,44.41249 56.5446,0.17302 8.5236,0.26066 -13.8896,52.42543 -28.5685,52.18339 z"
     id="path5975-5-0"
     sodipodi:nodetypes="cccc" />
  <path
     inkscape:connector-curvature="0"
     style="fill:#000000;stroke:#000000;stroke-width:0.82767975px;stroke-linecap:butt;stroke-linejoin:miter;stroke-opacity:1"
     d="m 1504.0902,964.77971 c -13.9718,0.16629 -38.5205,-52.17761 -27.9761,-52.35666 21.9291,44.09405 32.2738,44.41295 56.5447,0.17302 8.5237,0.25621 -13.8896,52.42567 -28.5686,52.18364 z"
     id="path5975-5-6"
     sodipodi:nodetypes="cccc" />
  <path
     inkscape:connector-curvature="0"
     style="fill:#000000;stroke:#000000;stroke-width:0.82767975px;stroke-linecap:butt;stroke-linejoin:miter;stroke-opacity:1"
     d="m 1503.5964,1032.8993 c -13.9723,0.1663 -38.5206,-52.17741 -27.9761,-52.35646 21.929,44.09446 32.2733,44.41296 56.5448,0.17304 8.5235,0.2562 -13.8901,52.42542 -28.5687,52.18342 z"
     id="path5975-5-7"
     sodipodi:nodetypes="cccc" />
  <path
     inkscape:connector-curvature="0"
     style="fill:#000000;stroke:#000000;stroke-width:0.9191429px;stroke-linecap:butt;stroke-linejoin:miter;stroke-opacity:1"
     d="m 598.2137,1243.6966 c 15.51631,-0.1634 42.69854,58.0013 30.98856,58.184 -24.28607,-48.9999 -35.77306,-49.3691 -62.79308,-0.2773 -9.46493,-0.3001 15.50377,-58.1977 31.80452,-57.9064 z"
     id="path5975-5-4"
     sodipodi:nodetypes="cccc" />
  <path
     inkscape:connector-curvature="0"
     style="fill:#000000;stroke:#000000;stroke-width:0.9191429px;stroke-linecap:butt;stroke-linejoin:miter;stroke-opacity:1"
     d="m 599.56946,1164.1012 c 15.51632,-0.1633 42.69854,58.0014 30.98856,58.1842 -24.28568,-48.9999 -35.77268,-49.3691 -62.79308,-0.2774 -9.46492,-0.3001 15.50416,-58.1977 31.80452,-57.9068 z"
     id="path5975-5-4-3"
     sodipodi:nodetypes="cccc" />
  <path
     inkscape:connector-curvature="0"
     style="fill:#000000;stroke:#000000;stroke-width:0.9191429px;stroke-linecap:butt;stroke-linejoin:miter;stroke-opacity:1"
     d="m 599.56946,1078.3118 c 15.51632,-0.1634 42.69854,58.0013 30.98856,58.184 -24.28568,-48.9999 -35.77268,-49.369 -62.79308,-0.2773 -9.46492,-0.3 15.50416,-58.1977 31.80452,-57.9067 z"
     id="path5975-5-4-1"
     sodipodi:nodetypes="cccc" />
  <path
     inkscape:connector-curvature="0"
     style="fill:#000000;stroke:#000000;stroke-width:0.9191429px;stroke-linecap:butt;stroke-linejoin:miter;stroke-opacity:1"
     d="m 600.27375,997.1837 c 15.51669,-0.1633 42.69892,58.0014 30.98894,58.1841 -24.28607,-49.0002 -35.77306,-49.3695 -62.79308,-0.2773 -9.46531,-0.3001 15.50378,-58.1977 31.80414,-57.9068 z"
     id="path5975-5-4-8"
     sodipodi:nodetypes="cccc" />
  <path
     inkscape:connector-curvature="0"
     style="fill:none;stroke:#000000;stroke-width:11.39620399;stroke-linecap:butt;stroke-linejoin:miter;stroke-miterlimit:4;stroke-opacity:1;stroke-dasharray:none"
     d="m 531.86614,828.5731 134.85014,0"
     id="path6129" />
  <path
     inkscape:connector-curvature="0"
     style="fill:none;stroke:#000000;stroke-width:11.39620399;stroke-linecap:butt;stroke-linejoin:miter;stroke-miterlimit:4;stroke-opacity:1;stroke-dasharray:none"
     d="m 518.97552,985.67324 158.05584,0"
     id="path6129-3" />
  <path
     inkscape:connector-curvature="0"
     style="fill:none;stroke:#000000;stroke-width:11.39620399;stroke-linecap:butt;stroke-linejoin:miter;stroke-miterlimit:4;stroke-opacity:1;stroke-dasharray:none"
     d="m 507.12042,1154.2401 183.80633,0"
     id="path6129-0" />
  <path
     inkscape:connector-curvature="0"
     style="fill:none;stroke:#000000;stroke-width:13.39006615;stroke-linecap:butt;stroke-linejoin:miter;stroke-miterlimit:4;stroke-opacity:1;stroke-dasharray:none"
     d="m 1578.9256,1337.5496 -142.4451,0.1938"
     id="path6129-9" />
  <path
     inkscape:connector-curvature="0"
     style="fill:none;stroke:#000000;stroke-width:13.39006615;stroke-linecap:butt;stroke-linejoin:miter;stroke-miterlimit:4;stroke-opacity:1;stroke-dasharray:none"
     d="m 1582.6082,1194.7171 -147.778,0.2011"
     id="path6129-9-4" />
  <path
     inkscape:connector-curvature="0"
     style="fill:none;stroke:#000000;stroke-width:13.39006615;stroke-linecap:butt;stroke-linejoin:miter;stroke-miterlimit:4;stroke-opacity:1;stroke-dasharray:none"
     d="M 1586.2706,1040.9909 1432.5653,1041.2"
     id="path6129-9-4-7" />
  <path
     inkscape:connector-curvature="0"
     style="fill:none;stroke:#000000;stroke-width:13.39006615;stroke-linecap:butt;stroke-linejoin:miter;stroke-miterlimit:4;stroke-opacity:1;stroke-dasharray:none"
     d="m 1585.3466,838.24965 -157.8561,0.21474"
     id="path6129-9-4-0" />
  <path
     inkscape:connector-curvature="0"
     style="fill:none;stroke:#000000;stroke-width:8.40068245;stroke-linecap:butt;stroke-linejoin:miter;stroke-miterlimit:4;stroke-opacity:1;stroke-dasharray:none"
     d="m 1401.2569,1661.0942 -0.056,-233.0142"
     id="path6129-9-3" />
  <path
     inkscape:connector-curvature="0"
     style="fill:none;stroke:#000000;stroke-width:8.78563309;stroke-linecap:butt;stroke-linejoin:miter;stroke-miterlimit:4;stroke-opacity:1;stroke-dasharray:none"
     d="m 1491.5114,1659.4293 0.055,-230.1097"
     id="path6129-9-3-9" />
</svg>
